<?xml version="1.0" standalone="yes"?>
<!-- SVG graphic -->
<svg xmlns='http://www.w3.org/2000/svg' xmlns:xlink='http://www.w3.org/1999/xlink'
 version="1.1">
<rect x="0" y="0" width="6" height="200" stroke="black" stroke-width="1" fill="blue" tooltip="enable"><title>(0,3316)</title></rect><rect x="6" y="76.1158" width="6" height="123.884" stroke="black" stroke-width="1" fill="blue" tooltip="enable"><title>(0.0398514,2054)</title></rect><rect x="12" y="96.4415" width="6" height="103.559" stroke="black" stroke-width="1" fill="blue" tooltip="enable"><title>(0.0797028,1717)</title></rect><rect x="18" y="109.831" width="6" height="90.1689" stroke="black" stroke-width="1" fill="blue" tooltip="enable"><title>(0.119554,1495)</title></rect><rect x="24" y="116.707" width="6" height="83.2931" stroke="black" stroke-width="1" fill="blue" tooltip="enable"><title>(0.159406,1381)</title></rect><rect x="30" y="123.824" width="6" height="76.1761" stroke="black" stroke-width="1" fill="blue" tooltip="enable"><title>(0.199257,1263)</title></rect><rect x="36" y="131.604" width="6" height="68.3957" stroke="black" stroke-width="1" fill="blue" tooltip="enable"><title>(0.239108,1134)</title></rect><rect x="42" y="135.525" width="6" height="64.4753" stroke="black" stroke-width="1" fill="blue" tooltip="enable"><title>(0.27896,1069)</title></rect><rect x="48" y="136.309" width="6" height="63.6912" stroke="black" stroke-width="1" fill="blue" tooltip="enable"><title>(0.318811,1056)</title></rect><rect x="54" y="141.435" width="6" height="58.5645" stroke="black" stroke-width="1" fill="blue" tooltip="enable"><title>(0.358663,971)</title></rect><rect x="60" y="141.858" width="6" height="58.1423" stroke="black" stroke-width="1" fill="blue" tooltip="enable"><title>(0.398514,964)</title></rect><rect x="66" y="147.768" width="6" height="52.2316" stroke="black" stroke-width="1" fill="blue" tooltip="enable"><title>(0.438365,866)</title></rect><rect x="72" y="149.698" width="6" height="50.3016" stroke="black" stroke-width="1" fill="blue" tooltip="enable"><title>(0.478217,834)</title></rect><rect x="78" y="155.066" width="6" height="44.9337" stroke="black" stroke-width="1" fill="blue" tooltip="enable"><title>(0.518068,745)</title></rect><rect x="84" y="159.53" width="6" height="40.4704" stroke="black" stroke-width="1" fill="blue" tooltip="enable"><title>(0.55792,671)</title></rect><rect x="90" y="156.454" width="6" height="43.5464" stroke="black" stroke-width="1" fill="blue" tooltip="enable"><title>(0.597771,722)</title></rect><rect x="96" y="160.917" width="6" height="39.0832" stroke="black" stroke-width="1" fill="blue" tooltip="enable"><title>(0.637622,648)</title></rect><rect x="102" y="162.002" width="6" height="37.9976" stroke="black" stroke-width="1" fill="blue" tooltip="enable"><title>(0.677474,630)</title></rect><rect x="108" y="166.466" width="6" height="33.5344" stroke="black" stroke-width="1" fill="blue" tooltip="enable"><title>(0.717325,556)</title></rect><rect x="114" y="163.51" width="6" height="36.4897" stroke="black" stroke-width="1" fill="blue" tooltip="enable"><title>(0.757176,605)</title></rect><rect x="120" y="168.215" width="6" height="31.7853" stroke="black" stroke-width="1" fill="blue" tooltip="enable"><title>(0.797028,527)</title></rect><rect x="126" y="169.481" width="6" height="30.5187" stroke="black" stroke-width="1" fill="blue" tooltip="enable"><title>(0.836879,506)</title></rect><rect x="132" y="168.396" width="6" height="31.6043" stroke="black" stroke-width="1" fill="blue" tooltip="enable"><title>(0.876731,524)</title></rect><rect x="138" y="170.688" width="6" height="29.3124" stroke="black" stroke-width="1" fill="blue" tooltip="enable"><title>(0.916582,486)</title></rect><rect x="144" y="173.04" width="6" height="26.9602" stroke="black" stroke-width="1" fill="blue" tooltip="enable"><title>(0.956433,447)</title></rect><rect x="150" y="174.427" width="6" height="25.573" stroke="black" stroke-width="1" fill="blue" tooltip="enable"><title>(0.996285,424)</title></rect><rect x="156" y="174.367" width="6" height="25.6333" stroke="black" stroke-width="1" fill="blue" tooltip="enable"><title>(1.03614,425)</title></rect><rect x="162" y="176.297" width="6" height="23.7033" stroke="black" stroke-width="1" fill="blue" tooltip="enable"><title>(1.07599,393)</title></rect><rect x="168" y="179.433" width="6" height="20.5669" stroke="black" stroke-width="1" fill="blue" tooltip="enable"><title>(1.11584,341)</title></rect><rect x="174" y="179.674" width="6" height="20.3257" stroke="black" stroke-width="1" fill="blue" tooltip="enable"><title>(1.15569,337)</title></rect><rect x="180" y="180.458" width="6" height="19.5416" stroke="black" stroke-width="1" fill="blue" tooltip="enable"><title>(1.19554,324)</title></rect><rect x="186" y="181.001" width="6" height="18.9988" stroke="black" stroke-width="1" fill="blue" tooltip="enable"><title>(1.23539,315)</title></rect><rect x="192" y="181.785" width="6" height="18.2147" stroke="black" stroke-width="1" fill="blue" tooltip="enable"><title>(1.27524,302)</title></rect><rect x="198" y="184.198" width="6" height="15.8022" stroke="black" stroke-width="1" fill="blue" tooltip="enable"><title>(1.3151,262)</title></rect><rect x="204" y="185.464" width="6" height="14.5356" stroke="black" stroke-width="1" fill="blue" tooltip="enable"><title>(1.35495,241)</title></rect><rect x="210" y="186.369" width="6" height="13.6309" stroke="black" stroke-width="1" fill="blue" tooltip="enable"><title>(1.3948,226)</title></rect><rect x="216" y="186.429" width="6" height="13.5706" stroke="black" stroke-width="1" fill="blue" tooltip="enable"><title>(1.43465,225)</title></rect><rect x="222" y="185.826" width="6" height="14.1737" stroke="black" stroke-width="1" fill="blue" tooltip="enable"><title>(1.4745,235)</title></rect><rect x="228" y="189.144" width="6" height="10.8565" stroke="black" stroke-width="1" fill="blue" tooltip="enable"><title>(1.51435,180)</title></rect><rect x="234" y="188.902" width="6" height="11.0977" stroke="black" stroke-width="1" fill="blue" tooltip="enable"><title>(1.5542,184)</title></rect><rect x="240" y="189.023" width="6" height="10.9771" stroke="black" stroke-width="1" fill="blue" tooltip="enable"><title>(1.59406,182)</title></rect><rect x="246" y="190.47" width="6" height="9.52955" stroke="black" stroke-width="1" fill="blue" tooltip="enable"><title>(1.63391,158)</title></rect><rect x="252" y="189.626" width="6" height="10.3739" stroke="black" stroke-width="1" fill="blue" tooltip="enable"><title>(1.67376,172)</title></rect><rect x="258" y="191.255" width="6" height="8.74548" stroke="black" stroke-width="1" fill="blue" tooltip="enable"><title>(1.71361,145)</title></rect><rect x="264" y="191.918" width="6" height="8.08203" stroke="black" stroke-width="1" fill="blue" tooltip="enable"><title>(1.75346,134)</title></rect><rect x="270" y="192.702" width="6" height="7.29795" stroke="black" stroke-width="1" fill="blue" tooltip="enable"><title>(1.79331,121)</title></rect><rect x="276" y="191.134" width="6" height="8.8661" stroke="black" stroke-width="1" fill="blue" tooltip="enable"><title>(1.83316,147)</title></rect><rect x="282" y="192.461" width="6" height="7.5392" stroke="black" stroke-width="1" fill="blue" tooltip="enable"><title>(1.87302,125)</title></rect><rect x="288" y="193.365" width="6" height="6.6345" stroke="black" stroke-width="1" fill="blue" tooltip="enable"><title>(1.91287,110)</title></rect><rect x="294" y="194.15" width="6" height="5.85042" stroke="black" stroke-width="1" fill="blue" tooltip="enable"><title>(1.95272,97)</title></rect><rect x="300" y="194.391" width="6" height="5.60917" stroke="black" stroke-width="1" fill="blue" tooltip="enable"><title>(1.99257,93)</title></rect><rect x="306" y="195.597" width="6" height="4.40289" stroke="black" stroke-width="1" fill="blue" tooltip="enable"><title>(2.03242,73)</title></rect><rect x="312" y="195.476" width="6" height="4.52352" stroke="black" stroke-width="1" fill="blue" tooltip="enable"><title>(2.07227,75)</title></rect><rect x="318" y="194.692" width="6" height="5.3076" stroke="black" stroke-width="1" fill="blue" tooltip="enable"><title>(2.11212,88)</title></rect><rect x="324" y="194.451" width="6" height="5.54885" stroke="black" stroke-width="1" fill="blue" tooltip="enable"><title>(2.15198,92)</title></rect><rect x="330" y="193.969" width="6" height="6.03136" stroke="black" stroke-width="1" fill="blue" tooltip="enable"><title>(2.19183,100)</title></rect><rect x="336" y="194.572" width="6" height="5.42823" stroke="black" stroke-width="1" fill="blue" tooltip="enable"><title>(2.23168,90)</title></rect><rect x="342" y="194.572" width="6" height="5.42823" stroke="black" stroke-width="1" fill="blue" tooltip="enable"><title>(2.27153,90)</title></rect><rect x="348" y="195.115" width="6" height="4.8854" stroke="black" stroke-width="1" fill="blue" tooltip="enable"><title>(2.31138,81)</title></rect><rect x="354" y="195.778" width="6" height="4.22195" stroke="black" stroke-width="1" fill="blue" tooltip="enable"><title>(2.35123,70)</title></rect><rect x="360" y="195.899" width="6" height="4.10133" stroke="black" stroke-width="1" fill="blue" tooltip="enable"><title>(2.39108,68)</title></rect><rect x="366" y="196.14" width="6" height="3.86007" stroke="black" stroke-width="1" fill="blue" tooltip="enable"><title>(2.43094,64)</title></rect><rect x="372" y="196.019" width="6" height="3.9807" stroke="black" stroke-width="1" fill="blue" tooltip="enable"><title>(2.47079,66)</title></rect><rect x="378" y="196.502" width="6" height="3.49819" stroke="black" stroke-width="1" fill="blue" tooltip="enable"><title>(2.51064,58)</title></rect><rect x="384" y="196.743" width="6" height="3.25694" stroke="black" stroke-width="1" fill="blue" tooltip="enable"><title>(2.55049,54)</title></rect><rect x="390" y="197.286" width="6" height="2.71411" stroke="black" stroke-width="1" fill="blue" tooltip="enable"><title>(2.59034,45)</title></rect><rect x="396" y="197.165" width="6" height="2.83474" stroke="black" stroke-width="1" fill="blue" tooltip="enable"><title>(2.63019,47)</title></rect><rect x="402" y="197.105" width="6" height="2.89505" stroke="black" stroke-width="1" fill="blue" tooltip="enable"><title>(2.67004,48)</title></rect><rect x="408" y="197.346" width="6" height="2.6538" stroke="black" stroke-width="1" fill="blue" tooltip="enable"><title>(2.70989,44)</title></rect><rect x="414" y="197.226" width="6" height="2.77443" stroke="black" stroke-width="1" fill="blue" tooltip="enable"><title>(2.74975,46)</title></rect><rect x="420" y="197.648" width="6" height="2.35223" stroke="black" stroke-width="1" fill="blue" tooltip="enable"><title>(2.7896,39)</title></rect><rect x="426" y="197.949" width="6" height="2.05066" stroke="black" stroke-width="1" fill="blue" tooltip="enable"><title>(2.82945,34)</title></rect><rect x="432" y="198.13" width="6" height="1.86972" stroke="black" stroke-width="1" fill="blue" tooltip="enable"><title>(2.8693,31)</title></rect><rect x="438" y="198.311" width="6" height="1.68878" stroke="black" stroke-width="1" fill="blue" tooltip="enable"><title>(2.90915,28)</title></rect><rect x="444" y="198.251" width="6" height="1.7491" stroke="black" stroke-width="1" fill="blue" tooltip="enable"><title>(2.949,29)</title></rect><rect x="450" y="198.13" width="6" height="1.86972" stroke="black" stroke-width="1" fill="blue" tooltip="enable"><title>(2.98885,31)</title></rect><rect x="456" y="198.854" width="6" height="1.14596" stroke="black" stroke-width="1" fill="blue" tooltip="enable"><title>(3.02871,19)</title></rect><rect x="462" y="198.794" width="6" height="1.20627" stroke="black" stroke-width="1" fill="blue" tooltip="enable"><title>(3.06856,20)</title></rect><rect x="468" y="198.914" width="6" height="1.08565" stroke="black" stroke-width="1" fill="blue" tooltip="enable"><title>(3.10841,18)</title></rect><rect x="474" y="198.854" width="6" height="1.14596" stroke="black" stroke-width="1" fill="blue" tooltip="enable"><title>(3.14826,19)</title></rect><rect x="480" y="199.397" width="6" height="0.603136" stroke="black" stroke-width="1" fill="blue" tooltip="enable"><title>(3.18811,10)</title></rect><rect x="486" y="199.156" width="6" height="0.844391" stroke="black" stroke-width="1" fill="blue" tooltip="enable"><title>(3.22796,14)</title></rect><rect x="492" y="198.733" width="6" height="1.26659" stroke="black" stroke-width="1" fill="blue" tooltip="enable"><title>(3.26781,21)</title></rect><rect x="498" y="199.337" width="6" height="0.66345" stroke="black" stroke-width="1" fill="blue" tooltip="enable"><title>(3.30767,11)</title></rect><rect x="504" y="199.276" width="6" height="0.723764" stroke="black" stroke-width="1" fill="blue" tooltip="enable"><title>(3.34752,12)</title></rect><rect x="510" y="199.337" width="6" height="0.66345" stroke="black" stroke-width="1" fill="blue" tooltip="enable"><title>(3.38737,11)</title></rect><rect x="516" y="199.276" width="6" height="0.723764" stroke="black" stroke-width="1" fill="blue" tooltip="enable"><title>(3.42722,12)</title></rect><rect x="522" y="199.397" width="6" height="0.603136" stroke="black" stroke-width="1" fill="blue" tooltip="enable"><title>(3.46707,10)</title></rect><rect x="528" y="199.276" width="6" height="0.723764" stroke="black" stroke-width="1" fill="blue" tooltip="enable"><title>(3.50692,12)</title></rect><rect x="534" y="199.397" width="6" height="0.603136" stroke="black" stroke-width="1" fill="blue" tooltip="enable"><title>(3.54677,10)</title></rect><rect x="540" y="199.638" width="6" height="0.361882" stroke="black" stroke-width="1" fill="blue" tooltip="enable"><title>(3.58663,6)</title></rect><rect x="546" y="199.457" width="6" height="0.542823" stroke="black" stroke-width="1" fill="blue" tooltip="enable"><title>(3.62648,9)</title></rect><rect x="552" y="199.94" width="6" height="0.0603136" stroke="black" stroke-width="1" fill="blue" tooltip="enable"><title>(3.66633,1)</title></rect><rect x="558" y="199.517" width="6" height="0.482509" stroke="black" stroke-width="1" fill="blue" tooltip="enable"><title>(3.70618,8)</title></rect><rect x="564" y="199.879" width="6" height="0.120627" stroke="black" stroke-width="1" fill="blue" tooltip="enable"><title>(3.74603,2)</title></rect><rect x="570" y="199.819" width="6" height="0.180941" stroke="black" stroke-width="1" fill="blue" tooltip="enable"><title>(3.78588,3)</title></rect><rect x="576" y="199.698" width="6" height="0.301568" stroke="black" stroke-width="1" fill="blue" tooltip="enable"><title>(3.82573,5)</title></rect><rect x="582" y="199.819" width="6" height="0.180941" stroke="black" stroke-width="1" fill="blue" tooltip="enable"><title>(3.86559,3)</title></rect><rect x="588" y="199.94" width="6" height="0.0603136" stroke="black" stroke-width="1" fill="blue" tooltip="enable"><title>(3.90544,1)</title></rect><rect x="594" y="199.879" width="6" height="0.120627" stroke="black" stroke-width="1" fill="blue" tooltip="enable"><title>(3.94529,2)</title></rect><text x="30" y="240" font-size="20" fill="black">0</text>
<text x="600" y="240" font-size="20" fill="black">3.98514</text>
<polyline points="0,220,600,220" stroke="black" stroke-width="1" fill="none"/>
<text x="720" y="20" font-size="20" fill="black">3316</text>
<text x="720" y="200" font-size="20" fill="black">0</text>
<polyline points="660,0,660,200" stroke="black" stroke-width="1" fill="none"/>
</svg>