<?xml version="1.0" standalone="yes"?>
<!-- SVG graphic -->
<svg xmlns='http://www.w3.org/2000/svg' xmlns:xlink='http://www.w3.org/1999/xlink'
 version="1.1">
<rect x="0" y="0" width="6" height="200" stroke="black" stroke-width="1" fill="blue" tooltip="enable"><title>(0,2239)</title></rect><rect x="6" y="85.2166" width="6" height="114.783" stroke="black" stroke-width="1" fill="blue" tooltip="enable"><title>(0.0378243,1285)</title></rect><rect x="12" y="117.999" width="6" height="82.0009" stroke="black" stroke-width="1" fill="blue" tooltip="enable"><title>(0.0756485,918)</title></rect><rect x="18" y="130.415" width="6" height="69.5846" stroke="black" stroke-width="1" fill="blue" tooltip="enable"><title>(0.113473,779)</title></rect><rect x="24" y="133.72" width="6" height="66.2796" stroke="black" stroke-width="1" fill="blue" tooltip="enable"><title>(0.151297,742)</title></rect><rect x="30" y="142.653" width="6" height="57.347" stroke="black" stroke-width="1" fill="blue" tooltip="enable"><title>(0.189121,642)</title></rect><rect x="36" y="152.211" width="6" height="47.7892" stroke="black" stroke-width="1" fill="blue" tooltip="enable"><title>(0.226946,535)</title></rect><rect x="42" y="150.603" width="6" height="49.3971" stroke="black" stroke-width="1" fill="blue" tooltip="enable"><title>(0.26477,553)</title></rect><rect x="48" y="157.749" width="6" height="42.251" stroke="black" stroke-width="1" fill="blue" tooltip="enable"><title>(0.302594,473)</title></rect><rect x="54" y="160.518" width="6" height="39.4819" stroke="black" stroke-width="1" fill="blue" tooltip="enable"><title>(0.340418,442)</title></rect><rect x="60" y="160.607" width="6" height="39.3926" stroke="black" stroke-width="1" fill="blue" tooltip="enable"><title>(0.378243,441)</title></rect><rect x="66" y="164.716" width="6" height="35.2836" stroke="black" stroke-width="1" fill="blue" tooltip="enable"><title>(0.416067,395)</title></rect><rect x="72" y="167.485" width="6" height="32.5145" stroke="black" stroke-width="1" fill="blue" tooltip="enable"><title>(0.453891,364)</title></rect><rect x="78" y="169.987" width="6" height="30.0134" stroke="black" stroke-width="1" fill="blue" tooltip="enable"><title>(0.491715,336)</title></rect><rect x="84" y="174.81" width="6" height="25.1898" stroke="black" stroke-width="1" fill="blue" tooltip="enable"><title>(0.52954,282)</title></rect><rect x="90" y="177.579" width="6" height="22.4207" stroke="black" stroke-width="1" fill="blue" tooltip="enable"><title>(0.567364,251)</title></rect><rect x="96" y="175.614" width="6" height="24.3859" stroke="black" stroke-width="1" fill="blue" tooltip="enable"><title>(0.605188,273)</title></rect><rect x="102" y="176.15" width="6" height="23.8499" stroke="black" stroke-width="1" fill="blue" tooltip="enable"><title>(0.643012,267)</title></rect><rect x="108" y="175.525" width="6" height="24.4752" stroke="black" stroke-width="1" fill="blue" tooltip="enable"><title>(0.680837,274)</title></rect><rect x="114" y="178.115" width="6" height="21.8848" stroke="black" stroke-width="1" fill="blue" tooltip="enable"><title>(0.718661,245)</title></rect><rect x="120" y="178.651" width="6" height="21.3488" stroke="black" stroke-width="1" fill="blue" tooltip="enable"><title>(0.756485,239)</title></rect><rect x="126" y="181.42" width="6" height="18.5797" stroke="black" stroke-width="1" fill="blue" tooltip="enable"><title>(0.794309,208)</title></rect><rect x="132" y="182.671" width="6" height="17.3292" stroke="black" stroke-width="1" fill="blue" tooltip="enable"><title>(0.832134,194)</title></rect><rect x="138" y="185.172" width="6" height="14.828" stroke="black" stroke-width="1" fill="blue" tooltip="enable"><title>(0.869958,166)</title></rect><rect x="144" y="184.725" width="6" height="15.2747" stroke="black" stroke-width="1" fill="blue" tooltip="enable"><title>(0.907782,171)</title></rect><rect x="150" y="186.333" width="6" height="13.6668" stroke="black" stroke-width="1" fill="blue" tooltip="enable"><title>(0.945606,153)</title></rect><rect x="156" y="185.351" width="6" height="14.6494" stroke="black" stroke-width="1" fill="blue" tooltip="enable"><title>(0.983431,164)</title></rect><rect x="162" y="185.529" width="6" height="14.4707" stroke="black" stroke-width="1" fill="blue" tooltip="enable"><title>(1.02125,162)</title></rect><rect x="168" y="187.137" width="6" height="12.8629" stroke="black" stroke-width="1" fill="blue" tooltip="enable"><title>(1.05908,144)</title></rect><rect x="174" y="188.656" width="6" height="11.3443" stroke="black" stroke-width="1" fill="blue" tooltip="enable"><title>(1.0969,127)</title></rect><rect x="180" y="191.246" width="6" height="8.75391" stroke="black" stroke-width="1" fill="blue" tooltip="enable"><title>(1.13473,98)</title></rect><rect x="186" y="188.834" width="6" height="11.1657" stroke="black" stroke-width="1" fill="blue" tooltip="enable"><title>(1.17255,125)</title></rect><rect x="192" y="190.442" width="6" height="9.55784" stroke="black" stroke-width="1" fill="blue" tooltip="enable"><title>(1.21038,107)</title></rect><rect x="198" y="191.603" width="6" height="8.39661" stroke="black" stroke-width="1" fill="blue" tooltip="enable"><title>(1.2482,94)</title></rect><rect x="204" y="190.442" width="6" height="9.55784" stroke="black" stroke-width="1" fill="blue" tooltip="enable"><title>(1.28602,107)</title></rect><rect x="210" y="189.638" width="6" height="10.3618" stroke="black" stroke-width="1" fill="blue" tooltip="enable"><title>(1.32385,116)</title></rect><rect x="216" y="190.621" width="6" height="9.37919" stroke="black" stroke-width="1" fill="blue" tooltip="enable"><title>(1.36167,105)</title></rect><rect x="222" y="193.301" width="6" height="6.69942" stroke="black" stroke-width="1" fill="blue" tooltip="enable"><title>(1.3995,75)</title></rect><rect x="228" y="191.157" width="6" height="8.84323" stroke="black" stroke-width="1" fill="blue" tooltip="enable"><title>(1.43732,99)</title></rect><rect x="234" y="193.033" width="6" height="6.9674" stroke="black" stroke-width="1" fill="blue" tooltip="enable"><title>(1.47515,78)</title></rect><rect x="240" y="194.194" width="6" height="5.80616" stroke="black" stroke-width="1" fill="blue" tooltip="enable"><title>(1.51297,65)</title></rect><rect x="246" y="194.819" width="6" height="5.18088" stroke="black" stroke-width="1" fill="blue" tooltip="enable"><title>(1.55079,58)</title></rect><rect x="252" y="194.998" width="6" height="5.00223" stroke="black" stroke-width="1" fill="blue" tooltip="enable"><title>(1.58862,56)</title></rect><rect x="258" y="194.105" width="6" height="5.89549" stroke="black" stroke-width="1" fill="blue" tooltip="enable"><title>(1.62644,66)</title></rect><rect x="264" y="196.427" width="6" height="3.57302" stroke="black" stroke-width="1" fill="blue" tooltip="enable"><title>(1.66427,40)</title></rect><rect x="270" y="195.712" width="6" height="4.28763" stroke="black" stroke-width="1" fill="blue" tooltip="enable"><title>(1.70209,48)</title></rect><rect x="276" y="196.695" width="6" height="3.30505" stroke="black" stroke-width="1" fill="blue" tooltip="enable"><title>(1.73992,37)</title></rect><rect x="282" y="195.266" width="6" height="4.73426" stroke="black" stroke-width="1" fill="blue" tooltip="enable"><title>(1.77774,53)</title></rect><rect x="288" y="197.052" width="6" height="2.94774" stroke="black" stroke-width="1" fill="blue" tooltip="enable"><title>(1.81556,33)</title></rect><rect x="294" y="197.678" width="6" height="2.32247" stroke="black" stroke-width="1" fill="blue" tooltip="enable"><title>(1.85339,26)</title></rect><rect x="300" y="197.32" width="6" height="2.67977" stroke="black" stroke-width="1" fill="blue" tooltip="enable"><title>(1.89121,30)</title></rect><rect x="306" y="196.963" width="6" height="3.03707" stroke="black" stroke-width="1" fill="blue" tooltip="enable"><title>(1.92904,34)</title></rect><rect x="312" y="197.499" width="6" height="2.50112" stroke="black" stroke-width="1" fill="blue" tooltip="enable"><title>(1.96686,28)</title></rect><rect x="318" y="197.41" width="6" height="2.59044" stroke="black" stroke-width="1" fill="blue" tooltip="enable"><title>(2.00469,29)</title></rect><rect x="324" y="198.481" width="6" height="1.51854" stroke="black" stroke-width="1" fill="blue" tooltip="enable"><title>(2.04251,17)</title></rect><rect x="330" y="197.856" width="6" height="2.14381" stroke="black" stroke-width="1" fill="blue" tooltip="enable"><title>(2.08033,24)</title></rect><rect x="336" y="198.035" width="6" height="1.96516" stroke="black" stroke-width="1" fill="blue" tooltip="enable"><title>(2.11816,22)</title></rect><rect x="342" y="197.856" width="6" height="2.14381" stroke="black" stroke-width="1" fill="blue" tooltip="enable"><title>(2.15598,24)</title></rect><rect x="348" y="198.749" width="6" height="1.25056" stroke="black" stroke-width="1" fill="blue" tooltip="enable"><title>(2.19381,14)</title></rect><rect x="354" y="197.588" width="6" height="2.41179" stroke="black" stroke-width="1" fill="blue" tooltip="enable"><title>(2.23163,27)</title></rect><rect x="360" y="198.571" width="6" height="1.42921" stroke="black" stroke-width="1" fill="blue" tooltip="enable"><title>(2.26946,16)</title></rect><rect x="366" y="199.017" width="6" height="0.982581" stroke="black" stroke-width="1" fill="blue" tooltip="enable"><title>(2.30728,11)</title></rect><rect x="372" y="198.392" width="6" height="1.60786" stroke="black" stroke-width="1" fill="blue" tooltip="enable"><title>(2.3451,18)</title></rect><rect x="378" y="198.571" width="6" height="1.42921" stroke="black" stroke-width="1" fill="blue" tooltip="enable"><title>(2.38293,16)</title></rect><rect x="384" y="198.303" width="6" height="1.69719" stroke="black" stroke-width="1" fill="blue" tooltip="enable"><title>(2.42075,19)</title></rect><rect x="390" y="198.66" width="6" height="1.33988" stroke="black" stroke-width="1" fill="blue" tooltip="enable"><title>(2.45858,15)</title></rect><rect x="396" y="198.749" width="6" height="1.25056" stroke="black" stroke-width="1" fill="blue" tooltip="enable"><title>(2.4964,14)</title></rect><rect x="402" y="198.66" width="6" height="1.33988" stroke="black" stroke-width="1" fill="blue" tooltip="enable"><title>(2.53422,15)</title></rect><rect x="408" y="199.107" width="6" height="0.893256" stroke="black" stroke-width="1" fill="blue" tooltip="enable"><title>(2.57205,10)</title></rect><rect x="414" y="199.107" width="6" height="0.893256" stroke="black" stroke-width="1" fill="blue" tooltip="enable"><title>(2.60987,10)</title></rect><rect x="420" y="199.107" width="6" height="0.893256" stroke="black" stroke-width="1" fill="blue" tooltip="enable"><title>(2.6477,10)</title></rect><rect x="426" y="199.375" width="6" height="0.625279" stroke="black" stroke-width="1" fill="blue" tooltip="enable"><title>(2.68552,7)</title></rect><rect x="432" y="198.839" width="6" height="1.16123" stroke="black" stroke-width="1" fill="blue" tooltip="enable"><title>(2.72335,13)</title></rect><rect x="438" y="199.285" width="6" height="0.714605" stroke="black" stroke-width="1" fill="blue" tooltip="enable"><title>(2.76117,8)</title></rect><rect x="444" y="199.732" width="6" height="0.267977" stroke="black" stroke-width="1" fill="blue" tooltip="enable"><title>(2.79899,3)</title></rect><rect x="450" y="199.285" width="6" height="0.714605" stroke="black" stroke-width="1" fill="blue" tooltip="enable"><title>(2.83682,8)</title></rect><rect x="456" y="199.643" width="6" height="0.357302" stroke="black" stroke-width="1" fill="blue" tooltip="enable"><title>(2.87464,4)</title></rect><rect x="462" y="199.553" width="6" height="0.446628" stroke="black" stroke-width="1" fill="blue" tooltip="enable"><title>(2.91247,5)</title></rect><rect x="468" y="199.107" width="6" height="0.893256" stroke="black" stroke-width="1" fill="blue" tooltip="enable"><title>(2.95029,10)</title></rect><rect x="474" y="199.196" width="6" height="0.80393" stroke="black" stroke-width="1" fill="blue" tooltip="enable"><title>(2.98812,9)</title></rect><rect x="480" y="199.821" width="6" height="0.178651" stroke="black" stroke-width="1" fill="blue" tooltip="enable"><title>(3.02594,2)</title></rect><rect x="486" y="199.732" width="6" height="0.267977" stroke="black" stroke-width="1" fill="blue" tooltip="enable"><title>(3.06376,3)</title></rect><rect x="492" y="199.732" width="6" height="0.267977" stroke="black" stroke-width="1" fill="blue" tooltip="enable"><title>(3.10159,3)</title></rect><rect x="498" y="199.821" width="6" height="0.178651" stroke="black" stroke-width="1" fill="blue" tooltip="enable"><title>(3.13941,2)</title></rect><rect x="504" y="199.821" width="6" height="0.178651" stroke="black" stroke-width="1" fill="blue" tooltip="enable"><title>(3.17724,2)</title></rect><rect x="510" y="199.732" width="6" height="0.267977" stroke="black" stroke-width="1" fill="blue" tooltip="enable"><title>(3.21506,3)</title></rect><rect x="516" y="199.553" width="6" height="0.446628" stroke="black" stroke-width="1" fill="blue" tooltip="enable"><title>(3.25289,5)</title></rect><rect x="522" y="199.911" width="6" height="0.0893256" stroke="black" stroke-width="1" fill="blue" tooltip="enable"><title>(3.29071,1)</title></rect><rect x="528" y="199.821" width="6" height="0.178651" stroke="black" stroke-width="1" fill="blue" tooltip="enable"><title>(3.32853,2)</title></rect><rect x="534" y="199.643" width="6" height="0.357302" stroke="black" stroke-width="1" fill="blue" tooltip="enable"><title>(3.36636,4)</title></rect><rect x="540" y="199.732" width="6" height="0.267977" stroke="black" stroke-width="1" fill="blue" tooltip="enable"><title>(3.40418,3)</title></rect><rect x="546" y="199.821" width="6" height="0.178651" stroke="black" stroke-width="1" fill="blue" tooltip="enable"><title>(3.44201,2)</title></rect><rect x="552" y="199.732" width="6" height="0.267977" stroke="black" stroke-width="1" fill="blue" tooltip="enable"><title>(3.47983,3)</title></rect><rect x="558" y="199.553" width="6" height="0.446628" stroke="black" stroke-width="1" fill="blue" tooltip="enable"><title>(3.51766,5)</title></rect><rect x="564" y="199.911" width="6" height="0.0893256" stroke="black" stroke-width="1" fill="blue" tooltip="enable"><title>(3.55548,1)</title></rect><rect x="570" y="200" width="6" height="0" stroke="black" stroke-width="1" fill="blue" tooltip="enable"><title>(3.5933,0)</title></rect><rect x="576" y="199.821" width="6" height="0.178651" stroke="black" stroke-width="1" fill="blue" tooltip="enable"><title>(3.63113,2)</title></rect><rect x="582" y="199.911" width="6" height="0.0893256" stroke="black" stroke-width="1" fill="blue" tooltip="enable"><title>(3.66895,1)</title></rect><rect x="588" y="200" width="6" height="0" stroke="black" stroke-width="1" fill="blue" tooltip="enable"><title>(3.70678,0)</title></rect><rect x="594" y="199.911" width="6" height="0.0893256" stroke="black" stroke-width="1" fill="blue" tooltip="enable"><title>(3.7446,1)</title></rect><text x="30" y="240" font-size="20" fill="black">0</text>
<text x="600" y="240" font-size="20" fill="black">3.78243</text>
<polyline points="0,220,600,220" stroke="black" stroke-width="1" fill="none"/>
<text x="720" y="20" font-size="20" fill="black">2239</text>
<text x="720" y="200" font-size="20" fill="black">0</text>
<polyline points="660,0,660,200" stroke="black" stroke-width="1" fill="none"/>
</svg>