<?xml version="1.0" standalone="yes"?>
<!-- SVG graphic -->
<svg xmlns='http://www.w3.org/2000/svg' xmlns:xlink='http://www.w3.org/1999/xlink'
 version="1.1">
<rect x="0" y="0" width="6" height="200" stroke="black" stroke-width="1" fill="blue" tooltip="enable"><title>(0,23567)</title></rect><rect x="6" y="121.568" width="6" height="78.4317" stroke="black" stroke-width="1" fill="blue" tooltip="enable"><title>(0.0397743,9242)</title></rect><rect x="12" y="137.082" width="6" height="62.9185" stroke="black" stroke-width="1" fill="blue" tooltip="enable"><title>(0.0795485,7414)</title></rect><rect x="18" y="145.492" width="6" height="54.5084" stroke="black" stroke-width="1" fill="blue" tooltip="enable"><title>(0.119323,6423)</title></rect><rect x="24" y="152.238" width="6" height="47.7617" stroke="black" stroke-width="1" fill="blue" tooltip="enable"><title>(0.159097,5628)</title></rect><rect x="30" y="154.759" width="6" height="45.2412" stroke="black" stroke-width="1" fill="blue" tooltip="enable"><title>(0.198871,5331)</title></rect><rect x="36" y="159.002" width="6" height="40.998" stroke="black" stroke-width="1" fill="blue" tooltip="enable"><title>(0.238645,4831)</title></rect><rect x="42" y="162.363" width="6" height="37.6374" stroke="black" stroke-width="1" fill="blue" tooltip="enable"><title>(0.27842,4435)</title></rect><rect x="48" y="165.375" width="6" height="34.6247" stroke="black" stroke-width="1" fill="blue" tooltip="enable"><title>(0.318194,4080)</title></rect><rect x="54" y="169.432" width="6" height="30.5682" stroke="black" stroke-width="1" fill="blue" tooltip="enable"><title>(0.357968,3602)</title></rect><rect x="60" y="171.74" width="6" height="28.2599" stroke="black" stroke-width="1" fill="blue" tooltip="enable"><title>(0.397743,3330)</title></rect><rect x="66" y="175.949" width="6" height="24.0506" stroke="black" stroke-width="1" fill="blue" tooltip="enable"><title>(0.437517,2834)</title></rect><rect x="72" y="177.766" width="6" height="22.2345" stroke="black" stroke-width="1" fill="blue" tooltip="enable"><title>(0.477291,2620)</title></rect><rect x="78" y="179.938" width="6" height="20.062" stroke="black" stroke-width="1" fill="blue" tooltip="enable"><title>(0.517065,2364)</title></rect><rect x="84" y="181.61" width="6" height="18.3901" stroke="black" stroke-width="1" fill="blue" tooltip="enable"><title>(0.55684,2167)</title></rect><rect x="90" y="183.562" width="6" height="16.4382" stroke="black" stroke-width="1" fill="blue" tooltip="enable"><title>(0.596614,1937)</title></rect><rect x="96" y="185.446" width="6" height="14.5542" stroke="black" stroke-width="1" fill="blue" tooltip="enable"><title>(0.636388,1715)</title></rect><rect x="102" y="186.405" width="6" height="13.5953" stroke="black" stroke-width="1" fill="blue" tooltip="enable"><title>(0.676162,1602)</title></rect><rect x="108" y="186.88" width="6" height="13.12" stroke="black" stroke-width="1" fill="blue" tooltip="enable"><title>(0.715937,1546)</title></rect><rect x="114" y="187.763" width="6" height="12.2375" stroke="black" stroke-width="1" fill="blue" tooltip="enable"><title>(0.755711,1442)</title></rect><rect x="120" y="189.545" width="6" height="10.4553" stroke="black" stroke-width="1" fill="blue" tooltip="enable"><title>(0.795485,1232)</title></rect><rect x="126" y="190.792" width="6" height="9.20779" stroke="black" stroke-width="1" fill="blue" tooltip="enable"><title>(0.835259,1085)</title></rect><rect x="132" y="191.76" width="6" height="8.24034" stroke="black" stroke-width="1" fill="blue" tooltip="enable"><title>(0.875033,971)</title></rect><rect x="138" y="191.31" width="6" height="8.69012" stroke="black" stroke-width="1" fill="blue" tooltip="enable"><title>(0.914808,1024)</title></rect><rect x="144" y="192.532" width="6" height="7.46807" stroke="black" stroke-width="1" fill="blue" tooltip="enable"><title>(0.954582,880)</title></rect><rect x="150" y="193.474" width="6" height="6.52607" stroke="black" stroke-width="1" fill="blue" tooltip="enable"><title>(0.994356,769)</title></rect><rect x="156" y="193.822" width="6" height="6.17813" stroke="black" stroke-width="1" fill="blue" tooltip="enable"><title>(1.03413,728)</title></rect><rect x="162" y="194.45" width="6" height="5.55013" stroke="black" stroke-width="1" fill="blue" tooltip="enable"><title>(1.0739,654)</title></rect><rect x="168" y="194.416" width="6" height="5.58408" stroke="black" stroke-width="1" fill="blue" tooltip="enable"><title>(1.11368,658)</title></rect><rect x="174" y="194.815" width="6" height="5.18522" stroke="black" stroke-width="1" fill="blue" tooltip="enable"><title>(1.15345,611)</title></rect><rect x="180" y="195.205" width="6" height="4.79484" stroke="black" stroke-width="1" fill="blue" tooltip="enable"><title>(1.19323,565)</title></rect><rect x="186" y="195.315" width="6" height="4.68452" stroke="black" stroke-width="1" fill="blue" tooltip="enable"><title>(1.233,552)</title></rect><rect x="192" y="195.927" width="6" height="4.07349" stroke="black" stroke-width="1" fill="blue" tooltip="enable"><title>(1.27278,480)</title></rect><rect x="198" y="196.011" width="6" height="3.98863" stroke="black" stroke-width="1" fill="blue" tooltip="enable"><title>(1.31255,470)</title></rect><rect x="204" y="196.614" width="6" height="3.38609" stroke="black" stroke-width="1" fill="blue" tooltip="enable"><title>(1.35232,399)</title></rect><rect x="210" y="196.521" width="6" height="3.47944" stroke="black" stroke-width="1" fill="blue" tooltip="enable"><title>(1.3921,410)</title></rect><rect x="216" y="196.826" width="6" height="3.17393" stroke="black" stroke-width="1" fill="blue" tooltip="enable"><title>(1.43187,374)</title></rect><rect x="222" y="197.31" width="6" height="2.6902" stroke="black" stroke-width="1" fill="blue" tooltip="enable"><title>(1.47165,317)</title></rect><rect x="228" y="197.166" width="6" height="2.83447" stroke="black" stroke-width="1" fill="blue" tooltip="enable"><title>(1.51142,334)</title></rect><rect x="234" y="197.53" width="6" height="2.46955" stroke="black" stroke-width="1" fill="blue" tooltip="enable"><title>(1.5512,291)</title></rect><rect x="240" y="197.692" width="6" height="2.30831" stroke="black" stroke-width="1" fill="blue" tooltip="enable"><title>(1.59097,272)</title></rect><rect x="246" y="197.997" width="6" height="2.0028" stroke="black" stroke-width="1" fill="blue" tooltip="enable"><title>(1.63074,236)</title></rect><rect x="252" y="198.065" width="6" height="1.93491" stroke="black" stroke-width="1" fill="blue" tooltip="enable"><title>(1.67052,228)</title></rect><rect x="258" y="198.031" width="6" height="1.96885" stroke="black" stroke-width="1" fill="blue" tooltip="enable"><title>(1.71029,232)</title></rect><rect x="264" y="198.286" width="6" height="1.71426" stroke="black" stroke-width="1" fill="blue" tooltip="enable"><title>(1.75007,202)</title></rect><rect x="270" y="198.277" width="6" height="1.72275" stroke="black" stroke-width="1" fill="blue" tooltip="enable"><title>(1.78984,203)</title></rect><rect x="276" y="198.557" width="6" height="1.4427" stroke="black" stroke-width="1" fill="blue" tooltip="enable"><title>(1.82962,170)</title></rect><rect x="282" y="198.617" width="6" height="1.38329" stroke="black" stroke-width="1" fill="blue" tooltip="enable"><title>(1.86939,163)</title></rect><rect x="288" y="198.871" width="6" height="1.1287" stroke="black" stroke-width="1" fill="blue" tooltip="enable"><title>(1.90916,133)</title></rect><rect x="294" y="198.786" width="6" height="1.21356" stroke="black" stroke-width="1" fill="blue" tooltip="enable"><title>(1.94894,143)</title></rect><rect x="300" y="199.024" width="6" height="0.975941" stroke="black" stroke-width="1" fill="blue" tooltip="enable"><title>(1.98871,115)</title></rect><rect x="306" y="198.642" width="6" height="1.35783" stroke="black" stroke-width="1" fill="blue" tooltip="enable"><title>(2.02849,160)</title></rect><rect x="312" y="198.982" width="6" height="1.01837" stroke="black" stroke-width="1" fill="blue" tooltip="enable"><title>(2.06826,120)</title></rect><rect x="318" y="199.211" width="6" height="0.789239" stroke="black" stroke-width="1" fill="blue" tooltip="enable"><title>(2.10804,93)</title></rect><rect x="324" y="199.313" width="6" height="0.687402" stroke="black" stroke-width="1" fill="blue" tooltip="enable"><title>(2.14781,81)</title></rect><rect x="330" y="199.211" width="6" height="0.789239" stroke="black" stroke-width="1" fill="blue" tooltip="enable"><title>(2.18758,93)</title></rect><rect x="336" y="199.033" width="6" height="0.967455" stroke="black" stroke-width="1" fill="blue" tooltip="enable"><title>(2.22736,114)</title></rect><rect x="342" y="199.219" width="6" height="0.780753" stroke="black" stroke-width="1" fill="blue" tooltip="enable"><title>(2.26713,92)</title></rect><rect x="348" y="199.338" width="6" height="0.661943" stroke="black" stroke-width="1" fill="blue" tooltip="enable"><title>(2.30691,78)</title></rect><rect x="354" y="199.236" width="6" height="0.76378" stroke="black" stroke-width="1" fill="blue" tooltip="enable"><title>(2.34668,90)</title></rect><rect x="360" y="199.44" width="6" height="0.560105" stroke="black" stroke-width="1" fill="blue" tooltip="enable"><title>(2.38646,66)</title></rect><rect x="366" y="199.304" width="6" height="0.695888" stroke="black" stroke-width="1" fill="blue" tooltip="enable"><title>(2.42623,82)</title></rect><rect x="372" y="199.38" width="6" height="0.61951" stroke="black" stroke-width="1" fill="blue" tooltip="enable"><title>(2.466,73)</title></rect><rect x="378" y="199.482" width="6" height="0.517673" stroke="black" stroke-width="1" fill="blue" tooltip="enable"><title>(2.50578,61)</title></rect><rect x="384" y="199.499" width="6" height="0.5007" stroke="black" stroke-width="1" fill="blue" tooltip="enable"><title>(2.54555,59)</title></rect><rect x="390" y="199.482" width="6" height="0.517673" stroke="black" stroke-width="1" fill="blue" tooltip="enable"><title>(2.58533,61)</title></rect><rect x="396" y="199.474" width="6" height="0.526159" stroke="black" stroke-width="1" fill="blue" tooltip="enable"><title>(2.6251,62)</title></rect><rect x="402" y="199.457" width="6" height="0.543132" stroke="black" stroke-width="1" fill="blue" tooltip="enable"><title>(2.66487,64)</title></rect><rect x="408" y="199.593" width="6" height="0.407349" stroke="black" stroke-width="1" fill="blue" tooltip="enable"><title>(2.70465,48)</title></rect><rect x="414" y="199.678" width="6" height="0.322485" stroke="black" stroke-width="1" fill="blue" tooltip="enable"><title>(2.74442,38)</title></rect><rect x="420" y="199.508" width="6" height="0.492214" stroke="black" stroke-width="1" fill="blue" tooltip="enable"><title>(2.7842,58)</title></rect><rect x="426" y="199.72" width="6" height="0.280053" stroke="black" stroke-width="1" fill="blue" tooltip="enable"><title>(2.82397,33)</title></rect><rect x="432" y="199.728" width="6" height="0.271566" stroke="black" stroke-width="1" fill="blue" tooltip="enable"><title>(2.86375,32)</title></rect><rect x="438" y="199.762" width="6" height="0.23762" stroke="black" stroke-width="1" fill="blue" tooltip="enable"><title>(2.90352,28)</title></rect><rect x="444" y="199.644" width="6" height="0.356431" stroke="black" stroke-width="1" fill="blue" tooltip="enable"><title>(2.94329,42)</title></rect><rect x="450" y="199.745" width="6" height="0.254593" stroke="black" stroke-width="1" fill="blue" tooltip="enable"><title>(2.98307,30)</title></rect><rect x="456" y="199.745" width="6" height="0.254593" stroke="black" stroke-width="1" fill="blue" tooltip="enable"><title>(3.02284,30)</title></rect><rect x="462" y="199.822" width="6" height="0.178215" stroke="black" stroke-width="1" fill="blue" tooltip="enable"><title>(3.06262,21)</title></rect><rect x="468" y="199.813" width="6" height="0.186702" stroke="black" stroke-width="1" fill="blue" tooltip="enable"><title>(3.10239,22)</title></rect><rect x="474" y="199.796" width="6" height="0.203675" stroke="black" stroke-width="1" fill="blue" tooltip="enable"><title>(3.14217,24)</title></rect><rect x="480" y="199.762" width="6" height="0.23762" stroke="black" stroke-width="1" fill="blue" tooltip="enable"><title>(3.18194,28)</title></rect><rect x="486" y="199.813" width="6" height="0.186702" stroke="black" stroke-width="1" fill="blue" tooltip="enable"><title>(3.22171,22)</title></rect><rect x="492" y="199.89" width="6" height="0.110324" stroke="black" stroke-width="1" fill="blue" tooltip="enable"><title>(3.26149,13)</title></rect><rect x="498" y="199.898" width="6" height="0.101837" stroke="black" stroke-width="1" fill="blue" tooltip="enable"><title>(3.30126,12)</title></rect><rect x="504" y="199.856" width="6" height="0.14427" stroke="black" stroke-width="1" fill="blue" tooltip="enable"><title>(3.34104,17)</title></rect><rect x="510" y="199.898" width="6" height="0.101837" stroke="black" stroke-width="1" fill="blue" tooltip="enable"><title>(3.38081,12)</title></rect><rect x="516" y="199.89" width="6" height="0.110324" stroke="black" stroke-width="1" fill="blue" tooltip="enable"><title>(3.42059,13)</title></rect><rect x="522" y="199.924" width="6" height="0.076378" stroke="black" stroke-width="1" fill="blue" tooltip="enable"><title>(3.46036,9)</title></rect><rect x="528" y="199.975" width="6" height="0.0254593" stroke="black" stroke-width="1" fill="blue" tooltip="enable"><title>(3.50013,3)</title></rect><rect x="534" y="199.958" width="6" height="0.0424322" stroke="black" stroke-width="1" fill="blue" tooltip="enable"><title>(3.53991,5)</title></rect><rect x="540" y="199.949" width="6" height="0.0509187" stroke="black" stroke-width="1" fill="blue" tooltip="enable"><title>(3.57968,6)</title></rect><rect x="546" y="199.941" width="6" height="0.0594051" stroke="black" stroke-width="1" fill="blue" tooltip="enable"><title>(3.61946,7)</title></rect><rect x="552" y="199.958" width="6" height="0.0424322" stroke="black" stroke-width="1" fill="blue" tooltip="enable"><title>(3.65923,5)</title></rect><rect x="558" y="199.924" width="6" height="0.076378" stroke="black" stroke-width="1" fill="blue" tooltip="enable"><title>(3.69901,9)</title></rect><rect x="564" y="199.941" width="6" height="0.0594051" stroke="black" stroke-width="1" fill="blue" tooltip="enable"><title>(3.73878,7)</title></rect><rect x="570" y="199.941" width="6" height="0.0594051" stroke="black" stroke-width="1" fill="blue" tooltip="enable"><title>(3.77855,7)</title></rect><rect x="576" y="199.949" width="6" height="0.0509187" stroke="black" stroke-width="1" fill="blue" tooltip="enable"><title>(3.81833,6)</title></rect><rect x="582" y="199.966" width="6" height="0.0339458" stroke="black" stroke-width="1" fill="blue" tooltip="enable"><title>(3.8581,4)</title></rect><rect x="588" y="199.992" width="6" height="0.00848644" stroke="black" stroke-width="1" fill="blue" tooltip="enable"><title>(3.89788,1)</title></rect><rect x="594" y="199.975" width="6" height="0.0254593" stroke="black" stroke-width="1" fill="blue" tooltip="enable"><title>(3.93765,3)</title></rect><text x="30" y="240" font-size="20" fill="black">0</text>
<text x="600" y="240" font-size="20" fill="black">3.97743</text>
<polyline points="0,220,600,220" stroke="black" stroke-width="1" fill="none"/>
<text x="720" y="20" font-size="20" fill="black">23567</text>
<text x="720" y="200" font-size="20" fill="black">0</text>
<polyline points="660,0,660,200" stroke="black" stroke-width="1" fill="none"/>
</svg>