<?xml version="1.0" standalone="yes"?>
<!-- SVG graphic -->
<svg xmlns='http://www.w3.org/2000/svg' xmlns:xlink='http://www.w3.org/1999/xlink'
width="120px" height="120px" preserveAspectRatio="xMinYMin meet" viewBox="0 0 120 120" version="1.1">
<rect x="5" y="0" width="2.5" height="2.5" fill="rgb(43,0,211)" tooltip="enable"><title>(1,0 24)</title></rect><rect x="60" y="5" width="2.5" height="2.5" fill="rgb(34,0,220)" tooltip="enable"><title>(12,1 19)</title></rect><rect x="15" y="10" width="2.5" height="2.5" fill="rgb(50,0,204)" tooltip="enable"><title>(3,2 28)</title></rect><rect x="20" y="10" width="2.5" height="2.5" fill="rgb(39,0,215)" tooltip="enable"><title>(4,2 22)</title></rect><rect x="20" y="15" width="2.5" height="2.5" fill="rgb(82,0,172)" tooltip="enable"><title>(4,3 46)</title></rect><rect x="25" y="15" width="2.5" height="2.5" fill="rgb(64,0,190)" tooltip="enable"><title>(5,3 36)</title></rect><rect x="30" y="15" width="2.5" height="2.5" fill="rgb(37,0,217)" tooltip="enable"><title>(6,3 21)</title></rect><rect x="35" y="15" width="2.5" height="2.5" fill="rgb(39,0,215)" tooltip="enable"><title>(7,3 22)</title></rect><rect x="25" y="20" width="2.5" height="2.5" fill="rgb(75,0,179)" tooltip="enable"><title>(5,4 42)</title></rect><rect x="30" y="20" width="2.5" height="2.5" fill="rgb(39,0,215)" tooltip="enable"><title>(6,4 22)</title></rect><rect x="30" y="25" width="2.5" height="2.5" fill="rgb(84,0,170)" tooltip="enable"><title>(6,5 47)</title></rect><rect x="35" y="25" width="2.5" height="2.5" fill="rgb(64,0,190)" tooltip="enable"><title>(7,5 36)</title></rect><rect x="40" y="25" width="2.5" height="2.5" fill="rgb(53,0,201)" tooltip="enable"><title>(8,5 30)</title></rect><rect x="45" y="25" width="2.5" height="2.5" fill="rgb(44,0,210)" tooltip="enable"><title>(9,5 25)</title></rect><rect x="35" y="30" width="2.5" height="2.5" fill="rgb(161,0,93)" tooltip="enable"><title>(7,6 90)</title></rect><rect x="40" y="30" width="2.5" height="2.5" fill="rgb(79,0,175)" tooltip="enable"><title>(8,6 44)</title></rect><rect x="45" y="30" width="2.5" height="2.5" fill="rgb(71,0,183)" tooltip="enable"><title>(9,6 40)</title></rect><rect x="55" y="30" width="2.5" height="2.5" fill="rgb(34,0,220)" tooltip="enable"><title>(11,6 19)</title></rect><rect x="40" y="35" width="2.5" height="2.5" fill="rgb(116,0,138)" tooltip="enable"><title>(8,7 65)</title></rect><rect x="45" y="35" width="2.5" height="2.5" fill="rgb(62,0,192)" tooltip="enable"><title>(9,7 35)</title></rect><rect x="55" y="35" width="2.5" height="2.5" fill="rgb(32,0,222)" tooltip="enable"><title>(11,7 18)</title></rect><rect x="45" y="40" width="2.5" height="2.5" fill="rgb(147,0,107)" tooltip="enable"><title>(9,8 82)</title></rect><rect x="50" y="40" width="2.5" height="2.5" fill="rgb(61,0,193)" tooltip="enable"><title>(10,8 34)</title></rect><rect x="55" y="40" width="2.5" height="2.5" fill="rgb(55,0,199)" tooltip="enable"><title>(11,8 31)</title></rect><rect x="65" y="40" width="2.5" height="2.5" fill="rgb(43,0,211)" tooltip="enable"><title>(13,8 24)</title></rect><rect x="50" y="45" width="2.5" height="2.5" fill="rgb(136,0,118)" tooltip="enable"><title>(10,9 76)</title></rect><rect x="55" y="45" width="2.5" height="2.5" fill="rgb(96,0,158)" tooltip="enable"><title>(11,9 54)</title></rect><rect x="65" y="45" width="2.5" height="2.5" fill="rgb(89,0,165)" tooltip="enable"><title>(13,9 50)</title></rect><rect x="55" y="50" width="2.5" height="2.5" fill="rgb(193,0,61)" tooltip="enable"><title>(11,10 108)</title></rect><rect x="65" y="50" width="2.5" height="2.5" fill="rgb(172,0,82)" tooltip="enable"><title>(13,10 96)</title></rect><rect x="65" y="55" width="2.5" height="2.5" fill="rgb(255,0,0)" tooltip="enable"><title>(13,11 142)</title></rect><rect x="70" y="60" width="2.5" height="2.5" fill="rgb(39,0,215)" tooltip="enable"><title>(14,12 22)</title></rect><rect x="75" y="70" width="2.5" height="2.5" fill="rgb(43,0,211)" tooltip="enable"><title>(15,14 24)</title></rect><rect x="80" y="75" width="2.5" height="2.5" fill="rgb(32,0,222)" tooltip="enable"><title>(16,15 18)</title></rect><text x="110" y="5" font-size="5" fill="black">0</text>
<text x="110" y="100" font-size="5" fill="black">21</text>
<polyline points="110,10,110,95" stroke="black" stroke-width="1" fill="none"/>
<text x="5" y="110" font-size="5" fill="black">0</text>
<text x="100" y="110" font-size="5" fill="black">21</text>
<polyline points="10,110,95,110" stroke="black" stroke-width="1" fill="none"/>
</svg>