<?xml version="1.0" standalone="yes"?>
<!-- SVG graphic -->
<svg xmlns='http://www.w3.org/2000/svg' xmlns:xlink='http://www.w3.org/1999/xlink'
width="120px" height="120px" preserveAspectRatio="xMinYMin meet" viewBox="0 0 120 120" version="1.1">
<rect x="5" y="0" width="2.5" height="2.5" fill="rgb(55,0,199)" tooltip="enable"><title>(1,0 38)</title></rect><rect x="10" y="0" width="2.5" height="2.5" fill="rgb(18,0,236)" tooltip="enable"><title>(2,0 13)</title></rect><rect x="15" y="0" width="2.5" height="2.5" fill="rgb(34,0,220)" tooltip="enable"><title>(3,0 24)</title></rect><rect x="20" y="0" width="2.5" height="2.5" fill="rgb(21,0,233)" tooltip="enable"><title>(4,0 15)</title></rect><rect x="25" y="0" width="2.5" height="2.5" fill="rgb(26,0,228)" tooltip="enable"><title>(5,0 18)</title></rect><rect x="30" y="0" width="2.5" height="2.5" fill="rgb(30,0,224)" tooltip="enable"><title>(6,0 21)</title></rect><rect x="35" y="0" width="2.5" height="2.5" fill="rgb(36,0,218)" tooltip="enable"><title>(7,0 25)</title></rect><rect x="40" y="0" width="2.5" height="2.5" fill="rgb(30,0,224)" tooltip="enable"><title>(8,0 21)</title></rect><rect x="45" y="0" width="2.5" height="2.5" fill="rgb(33,0,221)" tooltip="enable"><title>(9,0 23)</title></rect><rect x="50" y="0" width="2.5" height="2.5" fill="rgb(27,0,227)" tooltip="enable"><title>(10,0 19)</title></rect><rect x="55" y="0" width="2.5" height="2.5" fill="rgb(28,0,226)" tooltip="enable"><title>(11,0 20)</title></rect><rect x="60" y="0" width="2.5" height="2.5" fill="rgb(42,0,212)" tooltip="enable"><title>(12,0 29)</title></rect><rect x="65" y="0" width="2.5" height="2.5" fill="rgb(30,0,224)" tooltip="enable"><title>(13,0 21)</title></rect><rect x="70" y="0" width="2.5" height="2.5" fill="rgb(26,0,228)" tooltip="enable"><title>(14,0 18)</title></rect><rect x="75" y="0" width="2.5" height="2.5" fill="rgb(33,0,221)" tooltip="enable"><title>(15,0 23)</title></rect><rect x="80" y="0" width="2.5" height="2.5" fill="rgb(24,0,230)" tooltip="enable"><title>(16,0 17)</title></rect><rect x="85" y="0" width="2.5" height="2.5" fill="rgb(8,0,246)" tooltip="enable"><title>(17,0 6)</title></rect><rect x="90" y="0" width="2.5" height="2.5" fill="rgb(18,0,236)" tooltip="enable"><title>(18,0 13)</title></rect><rect x="95" y="0" width="2.5" height="2.5" fill="rgb(10,0,244)" tooltip="enable"><title>(19,0 7)</title></rect><rect x="100" y="0" width="2.5" height="2.5" fill="rgb(10,0,244)" tooltip="enable"><title>(20,0 7)</title></rect><rect x="10" y="5" width="2.5" height="2.5" fill="rgb(8,0,246)" tooltip="enable"><title>(2,1 6)</title></rect><rect x="15" y="5" width="2.5" height="2.5" fill="rgb(15,0,239)" tooltip="enable"><title>(3,1 11)</title></rect><rect x="20" y="5" width="2.5" height="2.5" fill="rgb(7,0,247)" tooltip="enable"><title>(4,1 5)</title></rect><rect x="25" y="5" width="2.5" height="2.5" fill="rgb(18,0,236)" tooltip="enable"><title>(5,1 13)</title></rect><rect x="30" y="5" width="2.5" height="2.5" fill="rgb(18,0,236)" tooltip="enable"><title>(6,1 13)</title></rect><rect x="35" y="5" width="2.5" height="2.5" fill="rgb(11,0,243)" tooltip="enable"><title>(7,1 8)</title></rect><rect x="40" y="5" width="2.5" height="2.5" fill="rgb(18,0,236)" tooltip="enable"><title>(8,1 13)</title></rect><rect x="45" y="5" width="2.5" height="2.5" fill="rgb(20,0,234)" tooltip="enable"><title>(9,1 14)</title></rect><rect x="50" y="5" width="2.5" height="2.5" fill="rgb(18,0,236)" tooltip="enable"><title>(10,1 13)</title></rect><rect x="55" y="5" width="2.5" height="2.5" fill="rgb(30,0,224)" tooltip="enable"><title>(11,1 21)</title></rect><rect x="60" y="5" width="2.5" height="2.5" fill="rgb(46,0,208)" tooltip="enable"><title>(12,1 32)</title></rect><rect x="65" y="5" width="2.5" height="2.5" fill="rgb(24,0,230)" tooltip="enable"><title>(13,1 17)</title></rect><rect x="70" y="5" width="2.5" height="2.5" fill="rgb(40,0,214)" tooltip="enable"><title>(14,1 28)</title></rect><rect x="75" y="5" width="2.5" height="2.5" fill="rgb(26,0,228)" tooltip="enable"><title>(15,1 18)</title></rect><rect x="80" y="5" width="2.5" height="2.5" fill="rgb(11,0,243)" tooltip="enable"><title>(16,1 8)</title></rect><rect x="85" y="5" width="2.5" height="2.5" fill="rgb(13,0,241)" tooltip="enable"><title>(17,1 9)</title></rect><rect x="90" y="5" width="2.5" height="2.5" fill="rgb(10,0,244)" tooltip="enable"><title>(18,1 7)</title></rect><rect x="95" y="5" width="2.5" height="2.5" fill="rgb(7,0,247)" tooltip="enable"><title>(19,1 5)</title></rect><rect x="100" y="5" width="2.5" height="2.5" fill="rgb(11,0,243)" tooltip="enable"><title>(20,1 8)</title></rect><rect x="15" y="10" width="2.5" height="2.5" fill="rgb(65,0,189)" tooltip="enable"><title>(3,2 45)</title></rect><rect x="20" y="10" width="2.5" height="2.5" fill="rgb(50,0,204)" tooltip="enable"><title>(4,2 35)</title></rect><rect x="25" y="10" width="2.5" height="2.5" fill="rgb(37,0,217)" tooltip="enable"><title>(5,2 26)</title></rect><rect x="30" y="10" width="2.5" height="2.5" fill="rgb(42,0,212)" tooltip="enable"><title>(6,2 29)</title></rect><rect x="35" y="10" width="2.5" height="2.5" fill="rgb(34,0,220)" tooltip="enable"><title>(7,2 24)</title></rect><rect x="40" y="10" width="2.5" height="2.5" fill="rgb(34,0,220)" tooltip="enable"><title>(8,2 24)</title></rect><rect x="45" y="10" width="2.5" height="2.5" fill="rgb(31,0,223)" tooltip="enable"><title>(9,2 22)</title></rect><rect x="50" y="10" width="2.5" height="2.5" fill="rgb(21,0,233)" tooltip="enable"><title>(10,2 15)</title></rect><rect x="55" y="10" width="2.5" height="2.5" fill="rgb(28,0,226)" tooltip="enable"><title>(11,2 20)</title></rect><rect x="60" y="10" width="2.5" height="2.5" fill="rgb(7,0,247)" tooltip="enable"><title>(12,2 5)</title></rect><rect x="65" y="10" width="2.5" height="2.5" fill="rgb(20,0,234)" tooltip="enable"><title>(13,2 14)</title></rect><rect x="70" y="10" width="2.5" height="2.5" fill="rgb(23,0,231)" tooltip="enable"><title>(14,2 16)</title></rect><rect x="75" y="10" width="2.5" height="2.5" fill="rgb(18,0,236)" tooltip="enable"><title>(15,2 13)</title></rect><rect x="80" y="10" width="2.5" height="2.5" fill="rgb(20,0,234)" tooltip="enable"><title>(16,2 14)</title></rect><rect x="85" y="10" width="2.5" height="2.5" fill="rgb(20,0,234)" tooltip="enable"><title>(17,2 14)</title></rect><rect x="90" y="10" width="2.5" height="2.5" fill="rgb(17,0,237)" tooltip="enable"><title>(18,2 12)</title></rect><rect x="95" y="10" width="2.5" height="2.5" fill="rgb(17,0,237)" tooltip="enable"><title>(19,2 12)</title></rect><rect x="100" y="10" width="2.5" height="2.5" fill="rgb(17,0,237)" tooltip="enable"><title>(20,2 12)</title></rect><rect x="20" y="15" width="2.5" height="2.5" fill="rgb(104,0,150)" tooltip="enable"><title>(4,3 72)</title></rect><rect x="25" y="15" width="2.5" height="2.5" fill="rgb(89,0,165)" tooltip="enable"><title>(5,3 62)</title></rect><rect x="30" y="15" width="2.5" height="2.5" fill="rgb(75,0,179)" tooltip="enable"><title>(6,3 52)</title></rect><rect x="35" y="15" width="2.5" height="2.5" fill="rgb(70,0,184)" tooltip="enable"><title>(7,3 49)</title></rect><rect x="40" y="15" width="2.5" height="2.5" fill="rgb(46,0,208)" tooltip="enable"><title>(8,3 32)</title></rect><rect x="45" y="15" width="2.5" height="2.5" fill="rgb(55,0,199)" tooltip="enable"><title>(9,3 38)</title></rect><rect x="50" y="15" width="2.5" height="2.5" fill="rgb(40,0,214)" tooltip="enable"><title>(10,3 28)</title></rect><rect x="55" y="15" width="2.5" height="2.5" fill="rgb(53,0,201)" tooltip="enable"><title>(11,3 37)</title></rect><rect x="60" y="15" width="2.5" height="2.5" fill="rgb(17,0,237)" tooltip="enable"><title>(12,3 12)</title></rect><rect x="65" y="15" width="2.5" height="2.5" fill="rgb(42,0,212)" tooltip="enable"><title>(13,3 29)</title></rect><rect x="70" y="15" width="2.5" height="2.5" fill="rgb(28,0,226)" tooltip="enable"><title>(14,3 20)</title></rect><rect x="75" y="15" width="2.5" height="2.5" fill="rgb(21,0,233)" tooltip="enable"><title>(15,3 15)</title></rect><rect x="80" y="15" width="2.5" height="2.5" fill="rgb(24,0,230)" tooltip="enable"><title>(16,3 17)</title></rect><rect x="85" y="15" width="2.5" height="2.5" fill="rgb(14,0,240)" tooltip="enable"><title>(17,3 10)</title></rect><rect x="90" y="15" width="2.5" height="2.5" fill="rgb(15,0,239)" tooltip="enable"><title>(18,3 11)</title></rect><rect x="95" y="15" width="2.5" height="2.5" fill="rgb(23,0,231)" tooltip="enable"><title>(19,3 16)</title></rect><rect x="100" y="15" width="2.5" height="2.5" fill="rgb(20,0,234)" tooltip="enable"><title>(20,3 14)</title></rect><rect x="25" y="20" width="2.5" height="2.5" fill="rgb(97,0,157)" tooltip="enable"><title>(5,4 67)</title></rect><rect x="30" y="20" width="2.5" height="2.5" fill="rgb(70,0,184)" tooltip="enable"><title>(6,4 49)</title></rect><rect x="35" y="20" width="2.5" height="2.5" fill="rgb(50,0,204)" tooltip="enable"><title>(7,4 35)</title></rect><rect x="40" y="20" width="2.5" height="2.5" fill="rgb(55,0,199)" tooltip="enable"><title>(8,4 38)</title></rect><rect x="45" y="20" width="2.5" height="2.5" fill="rgb(50,0,204)" tooltip="enable"><title>(9,4 35)</title></rect><rect x="50" y="20" width="2.5" height="2.5" fill="rgb(23,0,231)" tooltip="enable"><title>(10,4 16)</title></rect><rect x="55" y="20" width="2.5" height="2.5" fill="rgb(39,0,215)" tooltip="enable"><title>(11,4 27)</title></rect><rect x="60" y="20" width="2.5" height="2.5" fill="rgb(13,0,241)" tooltip="enable"><title>(12,4 9)</title></rect><rect x="65" y="20" width="2.5" height="2.5" fill="rgb(30,0,224)" tooltip="enable"><title>(13,4 21)</title></rect><rect x="70" y="20" width="2.5" height="2.5" fill="rgb(18,0,236)" tooltip="enable"><title>(14,4 13)</title></rect><rect x="75" y="20" width="2.5" height="2.5" fill="rgb(14,0,240)" tooltip="enable"><title>(15,4 10)</title></rect><rect x="80" y="20" width="2.5" height="2.5" fill="rgb(13,0,241)" tooltip="enable"><title>(16,4 9)</title></rect><rect x="85" y="20" width="2.5" height="2.5" fill="rgb(8,0,246)" tooltip="enable"><title>(17,4 6)</title></rect><rect x="90" y="20" width="2.5" height="2.5" fill="rgb(18,0,236)" tooltip="enable"><title>(18,4 13)</title></rect><rect x="95" y="20" width="2.5" height="2.5" fill="rgb(18,0,236)" tooltip="enable"><title>(19,4 13)</title></rect><rect x="100" y="20" width="2.5" height="2.5" fill="rgb(21,0,233)" tooltip="enable"><title>(20,4 15)</title></rect><rect x="30" y="25" width="2.5" height="2.5" fill="rgb(124,0,130)" tooltip="enable"><title>(6,5 86)</title></rect><rect x="35" y="25" width="2.5" height="2.5" fill="rgb(94,0,160)" tooltip="enable"><title>(7,5 65)</title></rect><rect x="40" y="25" width="2.5" height="2.5" fill="rgb(70,0,184)" tooltip="enable"><title>(8,5 49)</title></rect><rect x="45" y="25" width="2.5" height="2.5" fill="rgb(68,0,186)" tooltip="enable"><title>(9,5 47)</title></rect><rect x="50" y="25" width="2.5" height="2.5" fill="rgb(47,0,207)" tooltip="enable"><title>(10,5 33)</title></rect><rect x="55" y="25" width="2.5" height="2.5" fill="rgb(47,0,207)" tooltip="enable"><title>(11,5 33)</title></rect><rect x="60" y="25" width="2.5" height="2.5" fill="rgb(15,0,239)" tooltip="enable"><title>(12,5 11)</title></rect><rect x="65" y="25" width="2.5" height="2.5" fill="rgb(55,0,199)" tooltip="enable"><title>(13,5 38)</title></rect><rect x="70" y="25" width="2.5" height="2.5" fill="rgb(11,0,243)" tooltip="enable"><title>(14,5 8)</title></rect><rect x="75" y="25" width="2.5" height="2.5" fill="rgb(18,0,236)" tooltip="enable"><title>(15,5 13)</title></rect><rect x="80" y="25" width="2.5" height="2.5" fill="rgb(14,0,240)" tooltip="enable"><title>(16,5 10)</title></rect><rect x="85" y="25" width="2.5" height="2.5" fill="rgb(11,0,243)" tooltip="enable"><title>(17,5 8)</title></rect><rect x="90" y="25" width="2.5" height="2.5" fill="rgb(18,0,236)" tooltip="enable"><title>(18,5 13)</title></rect><rect x="95" y="25" width="2.5" height="2.5" fill="rgb(21,0,233)" tooltip="enable"><title>(19,5 15)</title></rect><rect x="100" y="25" width="2.5" height="2.5" fill="rgb(11,0,243)" tooltip="enable"><title>(20,5 8)</title></rect><rect x="35" y="30" width="2.5" height="2.5" fill="rgb(197,0,57)" tooltip="enable"><title>(7,6 136)</title></rect><rect x="40" y="30" width="2.5" height="2.5" fill="rgb(99,0,155)" tooltip="enable"><title>(8,6 69)</title></rect><rect x="45" y="30" width="2.5" height="2.5" fill="rgb(97,0,157)" tooltip="enable"><title>(9,6 67)</title></rect><rect x="50" y="30" width="2.5" height="2.5" fill="rgb(53,0,201)" tooltip="enable"><title>(10,6 37)</title></rect><rect x="55" y="30" width="2.5" height="2.5" fill="rgb(66,0,188)" tooltip="enable"><title>(11,6 46)</title></rect><rect x="60" y="30" width="2.5" height="2.5" fill="rgb(24,0,230)" tooltip="enable"><title>(12,6 17)</title></rect><rect x="65" y="30" width="2.5" height="2.5" fill="rgb(53,0,201)" tooltip="enable"><title>(13,6 37)</title></rect><rect x="70" y="30" width="2.5" height="2.5" fill="rgb(24,0,230)" tooltip="enable"><title>(14,6 17)</title></rect><rect x="75" y="30" width="2.5" height="2.5" fill="rgb(24,0,230)" tooltip="enable"><title>(15,6 17)</title></rect><rect x="80" y="30" width="2.5" height="2.5" fill="rgb(13,0,241)" tooltip="enable"><title>(16,6 9)</title></rect><rect x="85" y="30" width="2.5" height="2.5" fill="rgb(15,0,239)" tooltip="enable"><title>(17,6 11)</title></rect><rect x="90" y="30" width="2.5" height="2.5" fill="rgb(26,0,228)" tooltip="enable"><title>(18,6 18)</title></rect><rect x="95" y="30" width="2.5" height="2.5" fill="rgb(26,0,228)" tooltip="enable"><title>(19,6 18)</title></rect><rect x="100" y="30" width="2.5" height="2.5" fill="rgb(15,0,239)" tooltip="enable"><title>(20,6 11)</title></rect><rect x="40" y="35" width="2.5" height="2.5" fill="rgb(143,0,111)" tooltip="enable"><title>(8,7 99)</title></rect><rect x="45" y="35" width="2.5" height="2.5" fill="rgb(123,0,131)" tooltip="enable"><title>(9,7 85)</title></rect><rect x="50" y="35" width="2.5" height="2.5" fill="rgb(55,0,199)" tooltip="enable"><title>(10,7 38)</title></rect><rect x="55" y="35" width="2.5" height="2.5" fill="rgb(72,0,182)" tooltip="enable"><title>(11,7 50)</title></rect><rect x="60" y="35" width="2.5" height="2.5" fill="rgb(23,0,231)" tooltip="enable"><title>(12,7 16)</title></rect><rect x="65" y="35" width="2.5" height="2.5" fill="rgb(73,0,181)" tooltip="enable"><title>(13,7 51)</title></rect><rect x="70" y="35" width="2.5" height="2.5" fill="rgb(33,0,221)" tooltip="enable"><title>(14,7 23)</title></rect><rect x="75" y="35" width="2.5" height="2.5" fill="rgb(31,0,223)" tooltip="enable"><title>(15,7 22)</title></rect><rect x="80" y="35" width="2.5" height="2.5" fill="rgb(18,0,236)" tooltip="enable"><title>(16,7 13)</title></rect><rect x="85" y="35" width="2.5" height="2.5" fill="rgb(23,0,231)" tooltip="enable"><title>(17,7 16)</title></rect><rect x="90" y="35" width="2.5" height="2.5" fill="rgb(21,0,233)" tooltip="enable"><title>(18,7 15)</title></rect><rect x="95" y="35" width="2.5" height="2.5" fill="rgb(20,0,234)" tooltip="enable"><title>(19,7 14)</title></rect><rect x="100" y="35" width="2.5" height="2.5" fill="rgb(18,0,236)" tooltip="enable"><title>(20,7 13)</title></rect><rect x="45" y="40" width="2.5" height="2.5" fill="rgb(169,0,85)" tooltip="enable"><title>(9,8 117)</title></rect><rect x="50" y="40" width="2.5" height="2.5" fill="rgb(102,0,152)" tooltip="enable"><title>(10,8 71)</title></rect><rect x="55" y="40" width="2.5" height="2.5" fill="rgb(101,0,153)" tooltip="enable"><title>(11,8 70)</title></rect><rect x="60" y="40" width="2.5" height="2.5" fill="rgb(17,0,237)" tooltip="enable"><title>(12,8 12)</title></rect><rect x="65" y="40" width="2.5" height="2.5" fill="rgb(97,0,157)" tooltip="enable"><title>(13,8 67)</title></rect><rect x="70" y="40" width="2.5" height="2.5" fill="rgb(33,0,221)" tooltip="enable"><title>(14,8 23)</title></rect><rect x="75" y="40" width="2.5" height="2.5" fill="rgb(26,0,228)" tooltip="enable"><title>(15,8 18)</title></rect><rect x="80" y="40" width="2.5" height="2.5" fill="rgb(28,0,226)" tooltip="enable"><title>(16,8 20)</title></rect><rect x="85" y="40" width="2.5" height="2.5" fill="rgb(27,0,227)" tooltip="enable"><title>(17,8 19)</title></rect><rect x="90" y="40" width="2.5" height="2.5" fill="rgb(21,0,233)" tooltip="enable"><title>(18,8 15)</title></rect><rect x="95" y="40" width="2.5" height="2.5" fill="rgb(20,0,234)" tooltip="enable"><title>(19,8 14)</title></rect><rect x="100" y="40" width="2.5" height="2.5" fill="rgb(20,0,234)" tooltip="enable"><title>(20,8 14)</title></rect><rect x="50" y="45" width="2.5" height="2.5" fill="rgb(144,0,110)" tooltip="enable"><title>(10,9 100)</title></rect><rect x="55" y="45" width="2.5" height="2.5" fill="rgb(131,0,123)" tooltip="enable"><title>(11,9 91)</title></rect><rect x="60" y="45" width="2.5" height="2.5" fill="rgb(24,0,230)" tooltip="enable"><title>(12,9 17)</title></rect><rect x="65" y="45" width="2.5" height="2.5" fill="rgb(127,0,127)" tooltip="enable"><title>(13,9 88)</title></rect><rect x="70" y="45" width="2.5" height="2.5" fill="rgb(33,0,221)" tooltip="enable"><title>(14,9 23)</title></rect><rect x="75" y="45" width="2.5" height="2.5" fill="rgb(39,0,215)" tooltip="enable"><title>(15,9 27)</title></rect><rect x="80" y="45" width="2.5" height="2.5" fill="rgb(17,0,237)" tooltip="enable"><title>(16,9 12)</title></rect><rect x="85" y="45" width="2.5" height="2.5" fill="rgb(24,0,230)" tooltip="enable"><title>(17,9 17)</title></rect><rect x="90" y="45" width="2.5" height="2.5" fill="rgb(27,0,227)" tooltip="enable"><title>(18,9 19)</title></rect><rect x="95" y="45" width="2.5" height="2.5" fill="rgb(24,0,230)" tooltip="enable"><title>(19,9 17)</title></rect><rect x="100" y="45" width="2.5" height="2.5" fill="rgb(18,0,236)" tooltip="enable"><title>(20,9 13)</title></rect><rect x="55" y="50" width="2.5" height="2.5" fill="rgb(199,0,55)" tooltip="enable"><title>(11,10 138)</title></rect><rect x="60" y="50" width="2.5" height="2.5" fill="rgb(27,0,227)" tooltip="enable"><title>(12,10 19)</title></rect><rect x="65" y="50" width="2.5" height="2.5" fill="rgb(182,0,72)" tooltip="enable"><title>(13,10 126)</title></rect><rect x="70" y="50" width="2.5" height="2.5" fill="rgb(30,0,224)" tooltip="enable"><title>(14,10 21)</title></rect><rect x="75" y="50" width="2.5" height="2.5" fill="rgb(31,0,223)" tooltip="enable"><title>(15,10 22)</title></rect><rect x="80" y="50" width="2.5" height="2.5" fill="rgb(33,0,221)" tooltip="enable"><title>(16,10 23)</title></rect><rect x="85" y="50" width="2.5" height="2.5" fill="rgb(20,0,234)" tooltip="enable"><title>(17,10 14)</title></rect><rect x="90" y="50" width="2.5" height="2.5" fill="rgb(20,0,234)" tooltip="enable"><title>(18,10 14)</title></rect><rect x="95" y="50" width="2.5" height="2.5" fill="rgb(20,0,234)" tooltip="enable"><title>(19,10 14)</title></rect><rect x="100" y="50" width="2.5" height="2.5" fill="rgb(14,0,240)" tooltip="enable"><title>(20,10 10)</title></rect><rect x="60" y="55" width="2.5" height="2.5" fill="rgb(33,0,221)" tooltip="enable"><title>(12,11 23)</title></rect><rect x="65" y="55" width="2.5" height="2.5" fill="rgb(255,0,0)" tooltip="enable"><title>(13,11 176)</title></rect><rect x="70" y="55" width="2.5" height="2.5" fill="rgb(31,0,223)" tooltip="enable"><title>(14,11 22)</title></rect><rect x="75" y="55" width="2.5" height="2.5" fill="rgb(27,0,227)" tooltip="enable"><title>(15,11 19)</title></rect><rect x="80" y="55" width="2.5" height="2.5" fill="rgb(26,0,228)" tooltip="enable"><title>(16,11 18)</title></rect><rect x="85" y="55" width="2.5" height="2.5" fill="rgb(24,0,230)" tooltip="enable"><title>(17,11 17)</title></rect><rect x="90" y="55" width="2.5" height="2.5" fill="rgb(21,0,233)" tooltip="enable"><title>(18,11 15)</title></rect><rect x="95" y="55" width="2.5" height="2.5" fill="rgb(26,0,228)" tooltip="enable"><title>(19,11 18)</title></rect><rect x="100" y="55" width="2.5" height="2.5" fill="rgb(20,0,234)" tooltip="enable"><title>(20,11 14)</title></rect><rect x="65" y="60" width="2.5" height="2.5" fill="rgb(34,0,220)" tooltip="enable"><title>(13,12 24)</title></rect><rect x="70" y="60" width="2.5" height="2.5" fill="rgb(44,0,210)" tooltip="enable"><title>(14,12 31)</title></rect><rect x="75" y="60" width="2.5" height="2.5" fill="rgb(28,0,226)" tooltip="enable"><title>(15,12 20)</title></rect><rect x="80" y="60" width="2.5" height="2.5" fill="rgb(21,0,233)" tooltip="enable"><title>(16,12 15)</title></rect><rect x="85" y="60" width="2.5" height="2.5" fill="rgb(17,0,237)" tooltip="enable"><title>(17,12 12)</title></rect><rect x="90" y="60" width="2.5" height="2.5" fill="rgb(17,0,237)" tooltip="enable"><title>(18,12 12)</title></rect><rect x="95" y="60" width="2.5" height="2.5" fill="rgb(7,0,247)" tooltip="enable"><title>(19,12 5)</title></rect><rect x="100" y="60" width="2.5" height="2.5" fill="rgb(17,0,237)" tooltip="enable"><title>(20,12 12)</title></rect><rect x="70" y="65" width="2.5" height="2.5" fill="rgb(31,0,223)" tooltip="enable"><title>(14,13 22)</title></rect><rect x="75" y="65" width="2.5" height="2.5" fill="rgb(37,0,217)" tooltip="enable"><title>(15,13 26)</title></rect><rect x="80" y="65" width="2.5" height="2.5" fill="rgb(30,0,224)" tooltip="enable"><title>(16,13 21)</title></rect><rect x="85" y="65" width="2.5" height="2.5" fill="rgb(24,0,230)" tooltip="enable"><title>(17,13 17)</title></rect><rect x="90" y="65" width="2.5" height="2.5" fill="rgb(23,0,231)" tooltip="enable"><title>(18,13 16)</title></rect><rect x="95" y="65" width="2.5" height="2.5" fill="rgb(17,0,237)" tooltip="enable"><title>(19,13 12)</title></rect><rect x="100" y="65" width="2.5" height="2.5" fill="rgb(24,0,230)" tooltip="enable"><title>(20,13 17)</title></rect><rect x="75" y="70" width="2.5" height="2.5" fill="rgb(65,0,189)" tooltip="enable"><title>(15,14 45)</title></rect><rect x="80" y="70" width="2.5" height="2.5" fill="rgb(27,0,227)" tooltip="enable"><title>(16,14 19)</title></rect><rect x="85" y="70" width="2.5" height="2.5" fill="rgb(23,0,231)" tooltip="enable"><title>(17,14 16)</title></rect><rect x="90" y="70" width="2.5" height="2.5" fill="rgb(14,0,240)" tooltip="enable"><title>(18,14 10)</title></rect><rect x="95" y="70" width="2.5" height="2.5" fill="rgb(15,0,239)" tooltip="enable"><title>(19,14 11)</title></rect><rect x="100" y="70" width="2.5" height="2.5" fill="rgb(11,0,243)" tooltip="enable"><title>(20,14 8)</title></rect><rect x="80" y="75" width="2.5" height="2.5" fill="rgb(40,0,214)" tooltip="enable"><title>(16,15 28)</title></rect><rect x="85" y="75" width="2.5" height="2.5" fill="rgb(21,0,233)" tooltip="enable"><title>(17,15 15)</title></rect><rect x="90" y="75" width="2.5" height="2.5" fill="rgb(24,0,230)" tooltip="enable"><title>(18,15 17)</title></rect><rect x="95" y="75" width="2.5" height="2.5" fill="rgb(24,0,230)" tooltip="enable"><title>(19,15 17)</title></rect><rect x="100" y="75" width="2.5" height="2.5" fill="rgb(14,0,240)" tooltip="enable"><title>(20,15 10)</title></rect><rect x="85" y="80" width="2.5" height="2.5" fill="rgb(39,0,215)" tooltip="enable"><title>(17,16 27)</title></rect><rect x="90" y="80" width="2.5" height="2.5" fill="rgb(23,0,231)" tooltip="enable"><title>(18,16 16)</title></rect><rect x="95" y="80" width="2.5" height="2.5" fill="rgb(18,0,236)" tooltip="enable"><title>(19,16 13)</title></rect><rect x="100" y="80" width="2.5" height="2.5" fill="rgb(21,0,233)" tooltip="enable"><title>(20,16 15)</title></rect><rect x="90" y="85" width="2.5" height="2.5" fill="rgb(27,0,227)" tooltip="enable"><title>(18,17 19)</title></rect><rect x="95" y="85" width="2.5" height="2.5" fill="rgb(17,0,237)" tooltip="enable"><title>(19,17 12)</title></rect><rect x="100" y="85" width="2.5" height="2.5" fill="rgb(14,0,240)" tooltip="enable"><title>(20,17 10)</title></rect><rect x="95" y="90" width="2.5" height="2.5" fill="rgb(24,0,230)" tooltip="enable"><title>(19,18 17)</title></rect><rect x="100" y="90" width="2.5" height="2.5" fill="rgb(17,0,237)" tooltip="enable"><title>(20,18 12)</title></rect><rect x="100" y="95" width="2.5" height="2.5" fill="rgb(33,0,221)" tooltip="enable"><title>(20,19 23)</title></rect><text x="110" y="5" font-size="5" fill="black">0</text>
<text x="110" y="100" font-size="5" fill="black">21</text>
<polyline points="110,10,110,95" stroke="black" stroke-width="1" fill="none"/>
<text x="5" y="110" font-size="5" fill="black">0</text>
<text x="100" y="110" font-size="5" fill="black">21</text>
<polyline points="10,110,95,110" stroke="black" stroke-width="1" fill="none"/>
</svg>