<?xml version="1.0" standalone="yes"?>
<!-- SVG graphic -->
<svg xmlns='http://www.w3.org/2000/svg' xmlns:xlink='http://www.w3.org/1999/xlink'
 version="1.1">
<rect x="0" y="0" width="6" height="200" stroke="black" stroke-width="1" fill="blue" tooltip="enable"><title>(0,492)</title></rect><rect x="6" y="72.7642" width="6" height="127.236" stroke="black" stroke-width="1" fill="blue" tooltip="enable"><title>(0.0393319,313)</title></rect><rect x="12" y="80.0813" width="6" height="119.919" stroke="black" stroke-width="1" fill="blue" tooltip="enable"><title>(0.0786638,295)</title></rect><rect x="18" y="97.561" width="6" height="102.439" stroke="black" stroke-width="1" fill="blue" tooltip="enable"><title>(0.117996,252)</title></rect><rect x="24" y="97.561" width="6" height="102.439" stroke="black" stroke-width="1" fill="blue" tooltip="enable"><title>(0.157328,252)</title></rect><rect x="30" y="117.886" width="6" height="82.1138" stroke="black" stroke-width="1" fill="blue" tooltip="enable"><title>(0.19666,202)</title></rect><rect x="36" y="131.301" width="6" height="68.6992" stroke="black" stroke-width="1" fill="blue" tooltip="enable"><title>(0.235991,169)</title></rect><rect x="42" y="133.333" width="6" height="66.6667" stroke="black" stroke-width="1" fill="blue" tooltip="enable"><title>(0.275323,164)</title></rect><rect x="48" y="132.52" width="6" height="67.4797" stroke="black" stroke-width="1" fill="blue" tooltip="enable"><title>(0.314655,166)</title></rect><rect x="54" y="131.707" width="6" height="68.2927" stroke="black" stroke-width="1" fill="blue" tooltip="enable"><title>(0.353987,168)</title></rect><rect x="60" y="123.171" width="6" height="76.8293" stroke="black" stroke-width="1" fill="blue" tooltip="enable"><title>(0.393319,189)</title></rect><rect x="66" y="138.211" width="6" height="61.7886" stroke="black" stroke-width="1" fill="blue" tooltip="enable"><title>(0.432651,152)</title></rect><rect x="72" y="138.618" width="6" height="61.3821" stroke="black" stroke-width="1" fill="blue" tooltip="enable"><title>(0.471983,151)</title></rect><rect x="78" y="142.276" width="6" height="57.7236" stroke="black" stroke-width="1" fill="blue" tooltip="enable"><title>(0.511315,142)</title></rect><rect x="84" y="133.74" width="6" height="66.2602" stroke="black" stroke-width="1" fill="blue" tooltip="enable"><title>(0.550647,163)</title></rect><rect x="90" y="143.496" width="6" height="56.5041" stroke="black" stroke-width="1" fill="blue" tooltip="enable"><title>(0.589979,139)</title></rect><rect x="96" y="148.374" width="6" height="51.626" stroke="black" stroke-width="1" fill="blue" tooltip="enable"><title>(0.62931,127)</title></rect><rect x="102" y="147.561" width="6" height="52.439" stroke="black" stroke-width="1" fill="blue" tooltip="enable"><title>(0.668642,129)</title></rect><rect x="108" y="142.276" width="6" height="57.7236" stroke="black" stroke-width="1" fill="blue" tooltip="enable"><title>(0.707974,142)</title></rect><rect x="114" y="150" width="6" height="50" stroke="black" stroke-width="1" fill="blue" tooltip="enable"><title>(0.747306,123)</title></rect><rect x="120" y="151.22" width="6" height="48.7805" stroke="black" stroke-width="1" fill="blue" tooltip="enable"><title>(0.786638,120)</title></rect><rect x="126" y="151.626" width="6" height="48.374" stroke="black" stroke-width="1" fill="blue" tooltip="enable"><title>(0.82597,119)</title></rect><rect x="132" y="160.569" width="6" height="39.4309" stroke="black" stroke-width="1" fill="blue" tooltip="enable"><title>(0.865302,97)</title></rect><rect x="138" y="162.195" width="6" height="37.8049" stroke="black" stroke-width="1" fill="blue" tooltip="enable"><title>(0.904634,93)</title></rect><rect x="144" y="150" width="6" height="50" stroke="black" stroke-width="1" fill="blue" tooltip="enable"><title>(0.943966,123)</title></rect><rect x="150" y="165.447" width="6" height="34.5528" stroke="black" stroke-width="1" fill="blue" tooltip="enable"><title>(0.983298,85)</title></rect><rect x="156" y="161.789" width="6" height="38.2114" stroke="black" stroke-width="1" fill="blue" tooltip="enable"><title>(1.02263,94)</title></rect><rect x="162" y="163.008" width="6" height="36.9919" stroke="black" stroke-width="1" fill="blue" tooltip="enable"><title>(1.06196,91)</title></rect><rect x="168" y="158.13" width="6" height="41.8699" stroke="black" stroke-width="1" fill="blue" tooltip="enable"><title>(1.10129,103)</title></rect><rect x="174" y="157.317" width="6" height="42.6829" stroke="black" stroke-width="1" fill="blue" tooltip="enable"><title>(1.14063,105)</title></rect><rect x="180" y="165.447" width="6" height="34.5528" stroke="black" stroke-width="1" fill="blue" tooltip="enable"><title>(1.17996,85)</title></rect><rect x="186" y="168.699" width="6" height="31.3008" stroke="black" stroke-width="1" fill="blue" tooltip="enable"><title>(1.21929,77)</title></rect><rect x="192" y="171.545" width="6" height="28.4553" stroke="black" stroke-width="1" fill="blue" tooltip="enable"><title>(1.25862,70)</title></rect><rect x="198" y="169.106" width="6" height="30.8943" stroke="black" stroke-width="1" fill="blue" tooltip="enable"><title>(1.29795,76)</title></rect><rect x="204" y="165.854" width="6" height="34.1463" stroke="black" stroke-width="1" fill="blue" tooltip="enable"><title>(1.33728,84)</title></rect><rect x="210" y="173.171" width="6" height="26.8293" stroke="black" stroke-width="1" fill="blue" tooltip="enable"><title>(1.37662,66)</title></rect><rect x="216" y="169.919" width="6" height="30.0813" stroke="black" stroke-width="1" fill="blue" tooltip="enable"><title>(1.41595,74)</title></rect><rect x="222" y="172.764" width="6" height="27.2358" stroke="black" stroke-width="1" fill="blue" tooltip="enable"><title>(1.45528,67)</title></rect><rect x="228" y="178.862" width="6" height="21.1382" stroke="black" stroke-width="1" fill="blue" tooltip="enable"><title>(1.49461,52)</title></rect><rect x="234" y="173.171" width="6" height="26.8293" stroke="black" stroke-width="1" fill="blue" tooltip="enable"><title>(1.53394,66)</title></rect><rect x="240" y="176.016" width="6" height="23.9837" stroke="black" stroke-width="1" fill="blue" tooltip="enable"><title>(1.57328,59)</title></rect><rect x="246" y="183.333" width="6" height="16.6667" stroke="black" stroke-width="1" fill="blue" tooltip="enable"><title>(1.61261,41)</title></rect><rect x="252" y="184.146" width="6" height="15.8537" stroke="black" stroke-width="1" fill="blue" tooltip="enable"><title>(1.65194,39)</title></rect><rect x="258" y="181.301" width="6" height="18.6992" stroke="black" stroke-width="1" fill="blue" tooltip="enable"><title>(1.69127,46)</title></rect><rect x="264" y="180.081" width="6" height="19.9187" stroke="black" stroke-width="1" fill="blue" tooltip="enable"><title>(1.7306,49)</title></rect><rect x="270" y="182.927" width="6" height="17.0732" stroke="black" stroke-width="1" fill="blue" tooltip="enable"><title>(1.76994,42)</title></rect><rect x="276" y="182.927" width="6" height="17.0732" stroke="black" stroke-width="1" fill="blue" tooltip="enable"><title>(1.80927,42)</title></rect><rect x="282" y="183.74" width="6" height="16.2602" stroke="black" stroke-width="1" fill="blue" tooltip="enable"><title>(1.8486,40)</title></rect><rect x="288" y="184.146" width="6" height="15.8537" stroke="black" stroke-width="1" fill="blue" tooltip="enable"><title>(1.88793,39)</title></rect><rect x="294" y="188.211" width="6" height="11.7886" stroke="black" stroke-width="1" fill="blue" tooltip="enable"><title>(1.92726,29)</title></rect><rect x="300" y="188.618" width="6" height="11.3821" stroke="black" stroke-width="1" fill="blue" tooltip="enable"><title>(1.9666,28)</title></rect><rect x="306" y="188.211" width="6" height="11.7886" stroke="black" stroke-width="1" fill="blue" tooltip="enable"><title>(2.00593,29)</title></rect><rect x="312" y="189.837" width="6" height="10.1626" stroke="black" stroke-width="1" fill="blue" tooltip="enable"><title>(2.04526,25)</title></rect><rect x="318" y="191.057" width="6" height="8.94309" stroke="black" stroke-width="1" fill="blue" tooltip="enable"><title>(2.08459,22)</title></rect><rect x="324" y="187.398" width="6" height="12.6016" stroke="black" stroke-width="1" fill="blue" tooltip="enable"><title>(2.12392,31)</title></rect><rect x="330" y="193.496" width="6" height="6.50407" stroke="black" stroke-width="1" fill="blue" tooltip="enable"><title>(2.16325,16)</title></rect><rect x="336" y="189.024" width="6" height="10.9756" stroke="black" stroke-width="1" fill="blue" tooltip="enable"><title>(2.20259,27)</title></rect><rect x="342" y="189.431" width="6" height="10.5691" stroke="black" stroke-width="1" fill="blue" tooltip="enable"><title>(2.24192,26)</title></rect><rect x="348" y="189.024" width="6" height="10.9756" stroke="black" stroke-width="1" fill="blue" tooltip="enable"><title>(2.28125,27)</title></rect><rect x="354" y="188.618" width="6" height="11.3821" stroke="black" stroke-width="1" fill="blue" tooltip="enable"><title>(2.32058,28)</title></rect><rect x="360" y="189.837" width="6" height="10.1626" stroke="black" stroke-width="1" fill="blue" tooltip="enable"><title>(2.35991,25)</title></rect><rect x="366" y="191.463" width="6" height="8.53659" stroke="black" stroke-width="1" fill="blue" tooltip="enable"><title>(2.39925,21)</title></rect><rect x="372" y="192.276" width="6" height="7.72358" stroke="black" stroke-width="1" fill="blue" tooltip="enable"><title>(2.43858,19)</title></rect><rect x="378" y="193.902" width="6" height="6.09756" stroke="black" stroke-width="1" fill="blue" tooltip="enable"><title>(2.47791,15)</title></rect><rect x="384" y="191.87" width="6" height="8.13008" stroke="black" stroke-width="1" fill="blue" tooltip="enable"><title>(2.51724,20)</title></rect><rect x="390" y="192.683" width="6" height="7.31707" stroke="black" stroke-width="1" fill="blue" tooltip="enable"><title>(2.55657,18)</title></rect><rect x="396" y="192.276" width="6" height="7.72358" stroke="black" stroke-width="1" fill="blue" tooltip="enable"><title>(2.59591,19)</title></rect><rect x="402" y="190.244" width="6" height="9.7561" stroke="black" stroke-width="1" fill="blue" tooltip="enable"><title>(2.63524,24)</title></rect><rect x="408" y="196.748" width="6" height="3.25203" stroke="black" stroke-width="1" fill="blue" tooltip="enable"><title>(2.67457,8)</title></rect><rect x="414" y="195.122" width="6" height="4.87805" stroke="black" stroke-width="1" fill="blue" tooltip="enable"><title>(2.7139,12)</title></rect><rect x="420" y="196.341" width="6" height="3.65854" stroke="black" stroke-width="1" fill="blue" tooltip="enable"><title>(2.75323,9)</title></rect><rect x="426" y="193.902" width="6" height="6.09756" stroke="black" stroke-width="1" fill="blue" tooltip="enable"><title>(2.79256,15)</title></rect><rect x="432" y="195.935" width="6" height="4.06504" stroke="black" stroke-width="1" fill="blue" tooltip="enable"><title>(2.8319,10)</title></rect><rect x="438" y="195.528" width="6" height="4.47154" stroke="black" stroke-width="1" fill="blue" tooltip="enable"><title>(2.87123,11)</title></rect><rect x="444" y="195.528" width="6" height="4.47154" stroke="black" stroke-width="1" fill="blue" tooltip="enable"><title>(2.91056,11)</title></rect><rect x="450" y="196.748" width="6" height="3.25203" stroke="black" stroke-width="1" fill="blue" tooltip="enable"><title>(2.94989,8)</title></rect><rect x="456" y="197.561" width="6" height="2.43902" stroke="black" stroke-width="1" fill="blue" tooltip="enable"><title>(2.98922,6)</title></rect><rect x="462" y="197.561" width="6" height="2.43902" stroke="black" stroke-width="1" fill="blue" tooltip="enable"><title>(3.02856,6)</title></rect><rect x="468" y="195.122" width="6" height="4.87805" stroke="black" stroke-width="1" fill="blue" tooltip="enable"><title>(3.06789,12)</title></rect><rect x="474" y="197.967" width="6" height="2.03252" stroke="black" stroke-width="1" fill="blue" tooltip="enable"><title>(3.10722,5)</title></rect><rect x="480" y="196.341" width="6" height="3.65854" stroke="black" stroke-width="1" fill="blue" tooltip="enable"><title>(3.14655,9)</title></rect><rect x="486" y="197.561" width="6" height="2.43902" stroke="black" stroke-width="1" fill="blue" tooltip="enable"><title>(3.18588,6)</title></rect><rect x="492" y="197.967" width="6" height="2.03252" stroke="black" stroke-width="1" fill="blue" tooltip="enable"><title>(3.22522,5)</title></rect><rect x="498" y="197.967" width="6" height="2.03252" stroke="black" stroke-width="1" fill="blue" tooltip="enable"><title>(3.26455,5)</title></rect><rect x="504" y="198.78" width="6" height="1.21951" stroke="black" stroke-width="1" fill="blue" tooltip="enable"><title>(3.30388,3)</title></rect><rect x="510" y="197.967" width="6" height="2.03252" stroke="black" stroke-width="1" fill="blue" tooltip="enable"><title>(3.34321,5)</title></rect><rect x="516" y="198.374" width="6" height="1.62602" stroke="black" stroke-width="1" fill="blue" tooltip="enable"><title>(3.38254,4)</title></rect><rect x="522" y="197.561" width="6" height="2.43902" stroke="black" stroke-width="1" fill="blue" tooltip="enable"><title>(3.42188,6)</title></rect><rect x="528" y="198.374" width="6" height="1.62602" stroke="black" stroke-width="1" fill="blue" tooltip="enable"><title>(3.46121,4)</title></rect><rect x="534" y="199.187" width="6" height="0.813008" stroke="black" stroke-width="1" fill="blue" tooltip="enable"><title>(3.50054,2)</title></rect><rect x="540" y="198.374" width="6" height="1.62602" stroke="black" stroke-width="1" fill="blue" tooltip="enable"><title>(3.53987,4)</title></rect><rect x="546" y="199.187" width="6" height="0.813008" stroke="black" stroke-width="1" fill="blue" tooltip="enable"><title>(3.5792,2)</title></rect><rect x="552" y="200" width="6" height="0" stroke="black" stroke-width="1" fill="blue" tooltip="enable"><title>(3.61854,0)</title></rect><rect x="558" y="199.187" width="6" height="0.813008" stroke="black" stroke-width="1" fill="blue" tooltip="enable"><title>(3.65787,2)</title></rect><rect x="564" y="200" width="6" height="0" stroke="black" stroke-width="1" fill="blue" tooltip="enable"><title>(3.6972,0)</title></rect><rect x="570" y="199.187" width="6" height="0.813008" stroke="black" stroke-width="1" fill="blue" tooltip="enable"><title>(3.73653,2)</title></rect><rect x="576" y="199.593" width="6" height="0.406504" stroke="black" stroke-width="1" fill="blue" tooltip="enable"><title>(3.77586,1)</title></rect><rect x="582" y="200" width="6" height="0" stroke="black" stroke-width="1" fill="blue" tooltip="enable"><title>(3.81519,0)</title></rect><rect x="588" y="199.187" width="6" height="0.813008" stroke="black" stroke-width="1" fill="blue" tooltip="enable"><title>(3.85453,2)</title></rect><rect x="594" y="199.593" width="6" height="0.406504" stroke="black" stroke-width="1" fill="blue" tooltip="enable"><title>(3.89386,1)</title></rect><text x="30" y="240" font-size="20" fill="black">0</text>
<text x="600" y="240" font-size="20" fill="black">3.93319</text>
<polyline points="0,220,600,220" stroke="black" stroke-width="1" fill="none"/>
<text x="720" y="20" font-size="20" fill="black">492</text>
<text x="720" y="200" font-size="20" fill="black">0</text>
<polyline points="660,0,660,200" stroke="black" stroke-width="1" fill="none"/>
</svg>