<?xml version="1.0" standalone="yes"?>
<!-- SVG graphic -->
<svg xmlns='http://www.w3.org/2000/svg' xmlns:xlink='http://www.w3.org/1999/xlink'
width="100px" height="100px" preserveAspectRatio="xMinYMin meet" viewBox="0 0 100 100" version="1.1">
<rect x="5" y="0" width="2.5" height="2.5" fill="rgb(69,0,185)" tooltip="enable"><title>(1,0 320)</title></rect><rect x="10" y="0" width="2.5" height="2.5" fill="rgb(56,0,198)" tooltip="enable"><title>(2,0 263)</title></rect><rect x="80" y="0" width="2.5" height="2.5" fill="rgb(24,0,230)" tooltip="enable"><title>(16,0 114)</title></rect><rect x="10" y="5" width="2.5" height="2.5" fill="rgb(225,0,29)" tooltip="enable"><title>(2,1 1044)</title></rect><rect x="15" y="10" width="2.5" height="2.5" fill="rgb(70,0,184)" tooltip="enable"><title>(3,2 325)</title></rect><rect x="20" y="15" width="2.5" height="2.5" fill="rgb(30,0,224)" tooltip="enable"><title>(4,3 141)</title></rect><rect x="25" y="15" width="2.5" height="2.5" fill="rgb(16,0,238)" tooltip="enable"><title>(5,3 77)</title></rect><rect x="25" y="20" width="2.5" height="2.5" fill="rgb(17,0,237)" tooltip="enable"><title>(5,4 83)</title></rect><rect x="30" y="25" width="2.5" height="2.5" fill="rgb(40,0,214)" tooltip="enable"><title>(6,5 189)</title></rect><rect x="35" y="30" width="2.5" height="2.5" fill="rgb(72,0,182)" tooltip="enable"><title>(7,6 334)</title></rect><rect x="45" y="40" width="2.5" height="2.5" fill="rgb(16,0,238)" tooltip="enable"><title>(9,8 77)</title></rect><rect x="50" y="45" width="2.5" height="2.5" fill="rgb(160,0,94)" tooltip="enable"><title>(10,9 744)</title></rect><rect x="55" y="45" width="2.5" height="2.5" fill="rgb(71,0,183)" tooltip="enable"><title>(11,9 333)</title></rect><rect x="55" y="50" width="2.5" height="2.5" fill="rgb(159,0,95)" tooltip="enable"><title>(11,10 740)</title></rect><rect x="60" y="50" width="2.5" height="2.5" fill="rgb(33,0,221)" tooltip="enable"><title>(12,10 153)</title></rect><rect x="60" y="55" width="2.5" height="2.5" fill="rgb(82,0,172)" tooltip="enable"><title>(12,11 384)</title></rect><rect x="65" y="55" width="2.5" height="2.5" fill="rgb(16,0,238)" tooltip="enable"><title>(13,11 77)</title></rect><rect x="65" y="60" width="2.5" height="2.5" fill="rgb(95,0,159)" tooltip="enable"><title>(13,12 443)</title></rect><rect x="70" y="65" width="2.5" height="2.5" fill="rgb(35,0,219)" tooltip="enable"><title>(14,13 164)</title></rect><rect x="75" y="70" width="2.5" height="2.5" fill="rgb(127,0,127)" tooltip="enable"><title>(15,14 592)</title></rect><rect x="80" y="70" width="2.5" height="2.5" fill="rgb(47,0,207)" tooltip="enable"><title>(16,14 218)</title></rect><rect x="80" y="75" width="2.5" height="2.5" fill="rgb(255,0,0)" tooltip="enable"><title>(16,15 1182)</title></rect><text x="90" y="5" font-size="5" fill="black">0</text>
<text x="90" y="80" font-size="5" fill="black">17</text>
<polyline points="90,10,90,75" stroke="black" stroke-width="1" fill="none"/>
<text x="5" y="90" font-size="5" fill="black">0</text>
<text x="80" y="90" font-size="5" fill="black">17</text>
<polyline points="10,90,75,90" stroke="black" stroke-width="1" fill="none"/>
</svg>