<?xml version="1.0" standalone="yes"?>
<!-- SVG graphic -->
<svg xmlns='http://www.w3.org/2000/svg' xmlns:xlink='http://www.w3.org/1999/xlink'
width="100px" height="100px" preserveAspectRatio="xMinYMin meet" viewBox="0 0 100 100" version="1.1">
<rect x="5" y="0" width="2.5" height="2.5" fill="rgb(105,0,149)" tooltip="enable"><title>(1,0 667)</title></rect><rect x="10" y="0" width="2.5" height="2.5" fill="rgb(84,0,170)" tooltip="enable"><title>(2,0 535)</title></rect><rect x="15" y="0" width="2.5" height="2.5" fill="rgb(29,0,225)" tooltip="enable"><title>(3,0 187)</title></rect><rect x="20" y="0" width="2.5" height="2.5" fill="rgb(17,0,237)" tooltip="enable"><title>(4,0 113)</title></rect><rect x="25" y="0" width="2.5" height="2.5" fill="rgb(17,0,237)" tooltip="enable"><title>(5,0 110)</title></rect><rect x="30" y="0" width="2.5" height="2.5" fill="rgb(15,0,239)" tooltip="enable"><title>(6,0 97)</title></rect><rect x="35" y="0" width="2.5" height="2.5" fill="rgb(15,0,239)" tooltip="enable"><title>(7,0 96)</title></rect><rect x="40" y="0" width="2.5" height="2.5" fill="rgb(16,0,238)" tooltip="enable"><title>(8,0 106)</title></rect><rect x="45" y="0" width="2.5" height="2.5" fill="rgb(13,0,241)" tooltip="enable"><title>(9,0 85)</title></rect><rect x="50" y="0" width="2.5" height="2.5" fill="rgb(14,0,240)" tooltip="enable"><title>(10,0 90)</title></rect><rect x="55" y="0" width="2.5" height="2.5" fill="rgb(12,0,242)" tooltip="enable"><title>(11,0 81)</title></rect><rect x="60" y="0" width="2.5" height="2.5" fill="rgb(18,0,236)" tooltip="enable"><title>(12,0 118)</title></rect><rect x="65" y="0" width="2.5" height="2.5" fill="rgb(15,0,239)" tooltip="enable"><title>(13,0 98)</title></rect><rect x="70" y="0" width="2.5" height="2.5" fill="rgb(19,0,235)" tooltip="enable"><title>(14,0 121)</title></rect><rect x="75" y="0" width="2.5" height="2.5" fill="rgb(31,0,223)" tooltip="enable"><title>(15,0 203)</title></rect><rect x="80" y="0" width="2.5" height="2.5" fill="rgb(53,0,201)" tooltip="enable"><title>(16,0 338)</title></rect><rect x="10" y="5" width="2.5" height="2.5" fill="rgb(255,0,0)" tooltip="enable"><title>(2,1 1618)</title></rect><rect x="15" y="5" width="2.5" height="2.5" fill="rgb(55,0,199)" tooltip="enable"><title>(3,1 355)</title></rect><rect x="20" y="5" width="2.5" height="2.5" fill="rgb(24,0,230)" tooltip="enable"><title>(4,1 154)</title></rect><rect x="25" y="5" width="2.5" height="2.5" fill="rgb(23,0,231)" tooltip="enable"><title>(5,1 150)</title></rect><rect x="30" y="5" width="2.5" height="2.5" fill="rgb(19,0,235)" tooltip="enable"><title>(6,1 122)</title></rect><rect x="35" y="5" width="2.5" height="2.5" fill="rgb(19,0,235)" tooltip="enable"><title>(7,1 121)</title></rect><rect x="40" y="5" width="2.5" height="2.5" fill="rgb(15,0,239)" tooltip="enable"><title>(8,1 98)</title></rect><rect x="45" y="5" width="2.5" height="2.5" fill="rgb(14,0,240)" tooltip="enable"><title>(9,1 89)</title></rect><rect x="50" y="5" width="2.5" height="2.5" fill="rgb(15,0,239)" tooltip="enable"><title>(10,1 100)</title></rect><rect x="55" y="5" width="2.5" height="2.5" fill="rgb(15,0,239)" tooltip="enable"><title>(11,1 96)</title></rect><rect x="60" y="5" width="2.5" height="2.5" fill="rgb(19,0,235)" tooltip="enable"><title>(12,1 123)</title></rect><rect x="65" y="5" width="2.5" height="2.5" fill="rgb(15,0,239)" tooltip="enable"><title>(13,1 98)</title></rect><rect x="70" y="5" width="2.5" height="2.5" fill="rgb(23,0,231)" tooltip="enable"><title>(14,1 148)</title></rect><rect x="75" y="5" width="2.5" height="2.5" fill="rgb(30,0,224)" tooltip="enable"><title>(15,1 193)</title></rect><rect x="80" y="5" width="2.5" height="2.5" fill="rgb(39,0,215)" tooltip="enable"><title>(16,1 252)</title></rect><rect x="15" y="10" width="2.5" height="2.5" fill="rgb(113,0,141)" tooltip="enable"><title>(3,2 722)</title></rect><rect x="20" y="10" width="2.5" height="2.5" fill="rgb(23,0,231)" tooltip="enable"><title>(4,2 147)</title></rect><rect x="25" y="10" width="2.5" height="2.5" fill="rgb(22,0,232)" tooltip="enable"><title>(5,2 145)</title></rect><rect x="30" y="10" width="2.5" height="2.5" fill="rgb(21,0,233)" tooltip="enable"><title>(6,2 135)</title></rect><rect x="35" y="10" width="2.5" height="2.5" fill="rgb(16,0,238)" tooltip="enable"><title>(7,2 103)</title></rect><rect x="40" y="10" width="2.5" height="2.5" fill="rgb(15,0,239)" tooltip="enable"><title>(8,2 96)</title></rect><rect x="45" y="10" width="2.5" height="2.5" fill="rgb(16,0,238)" tooltip="enable"><title>(9,2 102)</title></rect><rect x="50" y="10" width="2.5" height="2.5" fill="rgb(16,0,238)" tooltip="enable"><title>(10,2 107)</title></rect><rect x="55" y="10" width="2.5" height="2.5" fill="rgb(13,0,241)" tooltip="enable"><title>(11,2 83)</title></rect><rect x="60" y="10" width="2.5" height="2.5" fill="rgb(19,0,235)" tooltip="enable"><title>(12,2 124)</title></rect><rect x="65" y="10" width="2.5" height="2.5" fill="rgb(15,0,239)" tooltip="enable"><title>(13,2 97)</title></rect><rect x="70" y="10" width="2.5" height="2.5" fill="rgb(21,0,233)" tooltip="enable"><title>(14,2 135)</title></rect><rect x="75" y="10" width="2.5" height="2.5" fill="rgb(28,0,226)" tooltip="enable"><title>(15,2 184)</title></rect><rect x="80" y="10" width="2.5" height="2.5" fill="rgb(34,0,220)" tooltip="enable"><title>(16,2 217)</title></rect><rect x="20" y="15" width="2.5" height="2.5" fill="rgb(57,0,197)" tooltip="enable"><title>(4,3 363)</title></rect><rect x="25" y="15" width="2.5" height="2.5" fill="rgb(40,0,214)" tooltip="enable"><title>(5,3 256)</title></rect><rect x="30" y="15" width="2.5" height="2.5" fill="rgb(20,0,234)" tooltip="enable"><title>(6,3 128)</title></rect><rect x="35" y="15" width="2.5" height="2.5" fill="rgb(14,0,240)" tooltip="enable"><title>(7,3 93)</title></rect><rect x="40" y="15" width="2.5" height="2.5" fill="rgb(15,0,239)" tooltip="enable"><title>(8,3 98)</title></rect><rect x="45" y="15" width="2.5" height="2.5" fill="rgb(13,0,241)" tooltip="enable"><title>(9,3 86)</title></rect><rect x="50" y="15" width="2.5" height="2.5" fill="rgb(13,0,241)" tooltip="enable"><title>(10,3 86)</title></rect><rect x="55" y="15" width="2.5" height="2.5" fill="rgb(15,0,239)" tooltip="enable"><title>(11,3 100)</title></rect><rect x="60" y="15" width="2.5" height="2.5" fill="rgb(15,0,239)" tooltip="enable"><title>(12,3 99)</title></rect><rect x="65" y="15" width="2.5" height="2.5" fill="rgb(16,0,238)" tooltip="enable"><title>(13,3 104)</title></rect><rect x="70" y="15" width="2.5" height="2.5" fill="rgb(21,0,233)" tooltip="enable"><title>(14,3 139)</title></rect><rect x="75" y="15" width="2.5" height="2.5" fill="rgb(30,0,224)" tooltip="enable"><title>(15,3 194)</title></rect><rect x="80" y="15" width="2.5" height="2.5" fill="rgb(29,0,225)" tooltip="enable"><title>(16,3 188)</title></rect><rect x="25" y="20" width="2.5" height="2.5" fill="rgb(38,0,216)" tooltip="enable"><title>(5,4 245)</title></rect><rect x="30" y="20" width="2.5" height="2.5" fill="rgb(21,0,233)" tooltip="enable"><title>(6,4 139)</title></rect><rect x="35" y="20" width="2.5" height="2.5" fill="rgb(16,0,238)" tooltip="enable"><title>(7,4 103)</title></rect><rect x="40" y="20" width="2.5" height="2.5" fill="rgb(14,0,240)" tooltip="enable"><title>(8,4 91)</title></rect><rect x="45" y="20" width="2.5" height="2.5" fill="rgb(15,0,239)" tooltip="enable"><title>(9,4 98)</title></rect><rect x="50" y="20" width="2.5" height="2.5" fill="rgb(13,0,241)" tooltip="enable"><title>(10,4 84)</title></rect><rect x="55" y="20" width="2.5" height="2.5" fill="rgb(15,0,239)" tooltip="enable"><title>(11,4 98)</title></rect><rect x="60" y="20" width="2.5" height="2.5" fill="rgb(23,0,231)" tooltip="enable"><title>(12,4 147)</title></rect><rect x="65" y="20" width="2.5" height="2.5" fill="rgb(18,0,236)" tooltip="enable"><title>(13,4 115)</title></rect><rect x="70" y="20" width="2.5" height="2.5" fill="rgb(18,0,236)" tooltip="enable"><title>(14,4 116)</title></rect><rect x="75" y="20" width="2.5" height="2.5" fill="rgb(25,0,229)" tooltip="enable"><title>(15,4 163)</title></rect><rect x="80" y="20" width="2.5" height="2.5" fill="rgb(28,0,226)" tooltip="enable"><title>(16,4 182)</title></rect><rect x="30" y="25" width="2.5" height="2.5" fill="rgb(59,0,195)" tooltip="enable"><title>(6,5 376)</title></rect><rect x="35" y="25" width="2.5" height="2.5" fill="rgb(21,0,233)" tooltip="enable"><title>(7,5 139)</title></rect><rect x="40" y="25" width="2.5" height="2.5" fill="rgb(13,0,241)" tooltip="enable"><title>(8,5 83)</title></rect><rect x="45" y="25" width="2.5" height="2.5" fill="rgb(14,0,240)" tooltip="enable"><title>(9,5 90)</title></rect><rect x="50" y="25" width="2.5" height="2.5" fill="rgb(14,0,240)" tooltip="enable"><title>(10,5 91)</title></rect><rect x="55" y="25" width="2.5" height="2.5" fill="rgb(14,0,240)" tooltip="enable"><title>(11,5 90)</title></rect><rect x="60" y="25" width="2.5" height="2.5" fill="rgb(20,0,234)" tooltip="enable"><title>(12,5 132)</title></rect><rect x="65" y="25" width="2.5" height="2.5" fill="rgb(18,0,236)" tooltip="enable"><title>(13,5 117)</title></rect><rect x="70" y="25" width="2.5" height="2.5" fill="rgb(20,0,234)" tooltip="enable"><title>(14,5 129)</title></rect><rect x="75" y="25" width="2.5" height="2.5" fill="rgb(26,0,228)" tooltip="enable"><title>(15,5 166)</title></rect><rect x="80" y="25" width="2.5" height="2.5" fill="rgb(28,0,226)" tooltip="enable"><title>(16,5 184)</title></rect><rect x="35" y="30" width="2.5" height="2.5" fill="rgb(78,0,176)" tooltip="enable"><title>(7,6 496)</title></rect><rect x="40" y="30" width="2.5" height="2.5" fill="rgb(12,0,242)" tooltip="enable"><title>(8,6 82)</title></rect><rect x="45" y="30" width="2.5" height="2.5" fill="rgb(15,0,239)" tooltip="enable"><title>(9,6 98)</title></rect><rect x="50" y="30" width="2.5" height="2.5" fill="rgb(15,0,239)" tooltip="enable"><title>(10,6 100)</title></rect><rect x="55" y="30" width="2.5" height="2.5" fill="rgb(16,0,238)" tooltip="enable"><title>(11,6 107)</title></rect><rect x="60" y="30" width="2.5" height="2.5" fill="rgb(20,0,234)" tooltip="enable"><title>(12,6 128)</title></rect><rect x="65" y="30" width="2.5" height="2.5" fill="rgb(17,0,237)" tooltip="enable"><title>(13,6 109)</title></rect><rect x="70" y="30" width="2.5" height="2.5" fill="rgb(19,0,235)" tooltip="enable"><title>(14,6 126)</title></rect><rect x="75" y="30" width="2.5" height="2.5" fill="rgb(27,0,227)" tooltip="enable"><title>(15,6 175)</title></rect><rect x="80" y="30" width="2.5" height="2.5" fill="rgb(22,0,232)" tooltip="enable"><title>(16,6 144)</title></rect><rect x="40" y="35" width="2.5" height="2.5" fill="rgb(15,0,239)" tooltip="enable"><title>(8,7 98)</title></rect><rect x="45" y="35" width="2.5" height="2.5" fill="rgb(17,0,237)" tooltip="enable"><title>(9,7 109)</title></rect><rect x="50" y="35" width="2.5" height="2.5" fill="rgb(18,0,236)" tooltip="enable"><title>(10,7 116)</title></rect><rect x="55" y="35" width="2.5" height="2.5" fill="rgb(17,0,237)" tooltip="enable"><title>(11,7 108)</title></rect><rect x="60" y="35" width="2.5" height="2.5" fill="rgb(22,0,232)" tooltip="enable"><title>(12,7 145)</title></rect><rect x="65" y="35" width="2.5" height="2.5" fill="rgb(17,0,237)" tooltip="enable"><title>(13,7 113)</title></rect><rect x="70" y="35" width="2.5" height="2.5" fill="rgb(20,0,234)" tooltip="enable"><title>(14,7 132)</title></rect><rect x="75" y="35" width="2.5" height="2.5" fill="rgb(28,0,226)" tooltip="enable"><title>(15,7 178)</title></rect><rect x="80" y="35" width="2.5" height="2.5" fill="rgb(26,0,228)" tooltip="enable"><title>(16,7 167)</title></rect><rect x="45" y="40" width="2.5" height="2.5" fill="rgb(31,0,223)" tooltip="enable"><title>(9,8 203)</title></rect><rect x="50" y="40" width="2.5" height="2.5" fill="rgb(22,0,232)" tooltip="enable"><title>(10,8 144)</title></rect><rect x="55" y="40" width="2.5" height="2.5" fill="rgb(16,0,238)" tooltip="enable"><title>(11,8 105)</title></rect><rect x="60" y="40" width="2.5" height="2.5" fill="rgb(21,0,233)" tooltip="enable"><title>(12,8 135)</title></rect><rect x="65" y="40" width="2.5" height="2.5" fill="rgb(17,0,237)" tooltip="enable"><title>(13,8 109)</title></rect><rect x="70" y="40" width="2.5" height="2.5" fill="rgb(19,0,235)" tooltip="enable"><title>(14,8 125)</title></rect><rect x="75" y="40" width="2.5" height="2.5" fill="rgb(27,0,227)" tooltip="enable"><title>(15,8 173)</title></rect><rect x="80" y="40" width="2.5" height="2.5" fill="rgb(25,0,229)" tooltip="enable"><title>(16,8 160)</title></rect><rect x="50" y="45" width="2.5" height="2.5" fill="rgb(149,0,105)" tooltip="enable"><title>(10,9 947)</title></rect><rect x="55" y="45" width="2.5" height="2.5" fill="rgb(79,0,175)" tooltip="enable"><title>(11,9 506)</title></rect><rect x="60" y="45" width="2.5" height="2.5" fill="rgb(27,0,227)" tooltip="enable"><title>(12,9 174)</title></rect><rect x="65" y="45" width="2.5" height="2.5" fill="rgb(20,0,234)" tooltip="enable"><title>(13,9 132)</title></rect><rect x="70" y="45" width="2.5" height="2.5" fill="rgb(22,0,232)" tooltip="enable"><title>(14,9 145)</title></rect><rect x="75" y="45" width="2.5" height="2.5" fill="rgb(26,0,228)" tooltip="enable"><title>(15,9 168)</title></rect><rect x="80" y="45" width="2.5" height="2.5" fill="rgb(20,0,234)" tooltip="enable"><title>(16,9 133)</title></rect><rect x="55" y="50" width="2.5" height="2.5" fill="rgb(147,0,107)" tooltip="enable"><title>(11,10 935)</title></rect><rect x="60" y="50" width="2.5" height="2.5" fill="rgb(43,0,211)" tooltip="enable"><title>(12,10 276)</title></rect><rect x="65" y="50" width="2.5" height="2.5" fill="rgb(23,0,231)" tooltip="enable"><title>(13,10 151)</title></rect><rect x="70" y="50" width="2.5" height="2.5" fill="rgb(20,0,234)" tooltip="enable"><title>(14,10 127)</title></rect><rect x="75" y="50" width="2.5" height="2.5" fill="rgb(26,0,228)" tooltip="enable"><title>(15,10 169)</title></rect><rect x="80" y="50" width="2.5" height="2.5" fill="rgb(25,0,229)" tooltip="enable"><title>(16,10 163)</title></rect><rect x="60" y="55" width="2.5" height="2.5" fill="rgb(88,0,166)" tooltip="enable"><title>(12,11 564)</title></rect><rect x="65" y="55" width="2.5" height="2.5" fill="rgb(28,0,226)" tooltip="enable"><title>(13,11 180)</title></rect><rect x="70" y="55" width="2.5" height="2.5" fill="rgb(22,0,232)" tooltip="enable"><title>(14,11 144)</title></rect><rect x="75" y="55" width="2.5" height="2.5" fill="rgb(27,0,227)" tooltip="enable"><title>(15,11 175)</title></rect><rect x="80" y="55" width="2.5" height="2.5" fill="rgb(22,0,232)" tooltip="enable"><title>(16,11 142)</title></rect><rect x="65" y="60" width="2.5" height="2.5" fill="rgb(91,0,163)" tooltip="enable"><title>(13,12 581)</title></rect><rect x="70" y="60" width="2.5" height="2.5" fill="rgb(31,0,223)" tooltip="enable"><title>(14,12 201)</title></rect><rect x="75" y="60" width="2.5" height="2.5" fill="rgb(28,0,226)" tooltip="enable"><title>(15,12 183)</title></rect><rect x="80" y="60" width="2.5" height="2.5" fill="rgb(31,0,223)" tooltip="enable"><title>(16,12 201)</title></rect><rect x="70" y="65" width="2.5" height="2.5" fill="rgb(45,0,209)" tooltip="enable"><title>(14,13 291)</title></rect><rect x="75" y="65" width="2.5" height="2.5" fill="rgb(37,0,217)" tooltip="enable"><title>(15,13 240)</title></rect><rect x="80" y="65" width="2.5" height="2.5" fill="rgb(29,0,225)" tooltip="enable"><title>(16,13 187)</title></rect><rect x="75" y="70" width="2.5" height="2.5" fill="rgb(141,0,113)" tooltip="enable"><title>(15,14 896)</title></rect><rect x="80" y="70" width="2.5" height="2.5" fill="rgb(60,0,194)" tooltip="enable"><title>(16,14 387)</title></rect><rect x="80" y="75" width="2.5" height="2.5" fill="rgb(245,0,9)" tooltip="enable"><title>(16,15 1558)</title></rect><text x="90" y="5" font-size="5" fill="black">0</text>
<text x="90" y="80" font-size="5" fill="black">17</text>
<polyline points="90,10,90,75" stroke="black" stroke-width="1" fill="none"/>
<text x="5" y="90" font-size="5" fill="black">0</text>
<text x="80" y="90" font-size="5" fill="black">17</text>
<polyline points="10,90,75,90" stroke="black" stroke-width="1" fill="none"/>
</svg>