<?xml version="1.0" standalone="yes"?>
<!-- SVG graphic -->
<svg xmlns='http://www.w3.org/2000/svg' xmlns:xlink='http://www.w3.org/1999/xlink'
 version="1.1">
<rect x="0" y="0" width="6" height="200" stroke="black" stroke-width="1" fill="blue" tooltip="enable"><title>(0,23744)</title></rect><rect x="6" y="123.467" width="6" height="76.533" stroke="black" stroke-width="1" fill="blue" tooltip="enable"><title>(0.0397837,9086)</title></rect><rect x="12" y="137.416" width="6" height="62.5842" stroke="black" stroke-width="1" fill="blue" tooltip="enable"><title>(0.0795673,7430)</title></rect><rect x="18" y="146.092" width="6" height="53.9084" stroke="black" stroke-width="1" fill="blue" tooltip="enable"><title>(0.119351,6400)</title></rect><rect x="24" y="151.23" width="6" height="48.7702" stroke="black" stroke-width="1" fill="blue" tooltip="enable"><title>(0.159135,5790)</title></rect><rect x="30" y="154.22" width="6" height="45.78" stroke="black" stroke-width="1" fill="blue" tooltip="enable"><title>(0.198918,5435)</title></rect><rect x="36" y="159.316" width="6" height="40.684" stroke="black" stroke-width="1" fill="blue" tooltip="enable"><title>(0.238702,4830)</title></rect><rect x="42" y="162.281" width="6" height="37.719" stroke="black" stroke-width="1" fill="blue" tooltip="enable"><title>(0.278486,4478)</title></rect><rect x="48" y="166.265" width="6" height="33.7348" stroke="black" stroke-width="1" fill="blue" tooltip="enable"><title>(0.318269,4005)</title></rect><rect x="54" y="169.062" width="6" height="30.9383" stroke="black" stroke-width="1" fill="blue" tooltip="enable"><title>(0.358053,3673)</title></rect><rect x="60" y="172.861" width="6" height="27.1395" stroke="black" stroke-width="1" fill="blue" tooltip="enable"><title>(0.397837,3222)</title></rect><rect x="66" y="175.396" width="6" height="24.6041" stroke="black" stroke-width="1" fill="blue" tooltip="enable"><title>(0.43762,2921)</title></rect><rect x="72" y="177.679" width="6" height="22.3214" stroke="black" stroke-width="1" fill="blue" tooltip="enable"><title>(0.477404,2650)</title></rect><rect x="78" y="180.593" width="6" height="19.407" stroke="black" stroke-width="1" fill="blue" tooltip="enable"><title>(0.517188,2304)</title></rect><rect x="84" y="181.612" width="6" height="18.3878" stroke="black" stroke-width="1" fill="blue" tooltip="enable"><title>(0.556971,2183)</title></rect><rect x="90" y="183.726" width="6" height="16.2736" stroke="black" stroke-width="1" fill="blue" tooltip="enable"><title>(0.596755,1932)</title></rect><rect x="96" y="185.251" width="6" height="14.749" stroke="black" stroke-width="1" fill="blue" tooltip="enable"><title>(0.636539,1751)</title></rect><rect x="102" y="186.304" width="6" height="13.6961" stroke="black" stroke-width="1" fill="blue" tooltip="enable"><title>(0.676322,1626)</title></rect><rect x="108" y="187.357" width="6" height="12.6432" stroke="black" stroke-width="1" fill="blue" tooltip="enable"><title>(0.716106,1501)</title></rect><rect x="114" y="187.913" width="6" height="12.0873" stroke="black" stroke-width="1" fill="blue" tooltip="enable"><title>(0.75589,1435)</title></rect><rect x="120" y="189.749" width="6" height="10.251" stroke="black" stroke-width="1" fill="blue" tooltip="enable"><title>(0.795673,1217)</title></rect><rect x="126" y="190.212" width="6" height="9.78774" stroke="black" stroke-width="1" fill="blue" tooltip="enable"><title>(0.835457,1162)</title></rect><rect x="132" y="191.518" width="6" height="8.48214" stroke="black" stroke-width="1" fill="blue" tooltip="enable"><title>(0.875241,1007)</title></rect><rect x="138" y="191.888" width="6" height="8.11152" stroke="black" stroke-width="1" fill="blue" tooltip="enable"><title>(0.915024,963)</title></rect><rect x="144" y="192.849" width="6" height="7.15128" stroke="black" stroke-width="1" fill="blue" tooltip="enable"><title>(0.954808,849)</title></rect><rect x="150" y="193.523" width="6" height="6.47743" stroke="black" stroke-width="1" fill="blue" tooltip="enable"><title>(0.994592,769)</title></rect><rect x="156" y="193.826" width="6" height="6.17419" stroke="black" stroke-width="1" fill="blue" tooltip="enable"><title>(1.03438,733)</title></rect><rect x="162" y="194.542" width="6" height="5.45822" stroke="black" stroke-width="1" fill="blue" tooltip="enable"><title>(1.07416,648)</title></rect><rect x="168" y="194.508" width="6" height="5.49191" stroke="black" stroke-width="1" fill="blue" tooltip="enable"><title>(1.11394,652)</title></rect><rect x="174" y="194.912" width="6" height="5.0876" stroke="black" stroke-width="1" fill="blue" tooltip="enable"><title>(1.15373,604)</title></rect><rect x="180" y="195.443" width="6" height="4.55694" stroke="black" stroke-width="1" fill="blue" tooltip="enable"><title>(1.19351,541)</title></rect><rect x="186" y="195.393" width="6" height="4.60748" stroke="black" stroke-width="1" fill="blue" tooltip="enable"><title>(1.23329,547)</title></rect><rect x="192" y="195.704" width="6" height="4.29582" stroke="black" stroke-width="1" fill="blue" tooltip="enable"><title>(1.27308,510)</title></rect><rect x="198" y="196.218" width="6" height="3.78201" stroke="black" stroke-width="1" fill="blue" tooltip="enable"><title>(1.31286,449)</title></rect><rect x="204" y="196.285" width="6" height="3.71462" stroke="black" stroke-width="1" fill="blue" tooltip="enable"><title>(1.35264,441)</title></rect><rect x="210" y="196.808" width="6" height="3.19239" stroke="black" stroke-width="1" fill="blue" tooltip="enable"><title>(1.39243,379)</title></rect><rect x="216" y="196.681" width="6" height="3.31873" stroke="black" stroke-width="1" fill="blue" tooltip="enable"><title>(1.43221,394)</title></rect><rect x="222" y="197.212" width="6" height="2.78807" stroke="black" stroke-width="1" fill="blue" tooltip="enable"><title>(1.472,331)</title></rect><rect x="228" y="197.22" width="6" height="2.77965" stroke="black" stroke-width="1" fill="blue" tooltip="enable"><title>(1.51178,330)</title></rect><rect x="234" y="197.372" width="6" height="2.62803" stroke="black" stroke-width="1" fill="blue" tooltip="enable"><title>(1.55156,312)</title></rect><rect x="240" y="197.919" width="6" height="2.08053" stroke="black" stroke-width="1" fill="blue" tooltip="enable"><title>(1.59135,247)</title></rect><rect x="246" y="197.759" width="6" height="2.24057" stroke="black" stroke-width="1" fill="blue" tooltip="enable"><title>(1.63113,266)</title></rect><rect x="252" y="198.08" width="6" height="1.92049" stroke="black" stroke-width="1" fill="blue" tooltip="enable"><title>(1.67091,228)</title></rect><rect x="258" y="198.063" width="6" height="1.93733" stroke="black" stroke-width="1" fill="blue" tooltip="enable"><title>(1.7107,230)</title></rect><rect x="264" y="198.332" width="6" height="1.66779" stroke="black" stroke-width="1" fill="blue" tooltip="enable"><title>(1.75048,198)</title></rect><rect x="270" y="198.307" width="6" height="1.69306" stroke="black" stroke-width="1" fill="blue" tooltip="enable"><title>(1.79026,201)</title></rect><rect x="276" y="198.467" width="6" height="1.53302" stroke="black" stroke-width="1" fill="blue" tooltip="enable"><title>(1.83005,182)</title></rect><rect x="282" y="198.467" width="6" height="1.53302" stroke="black" stroke-width="1" fill="blue" tooltip="enable"><title>(1.86983,182)</title></rect><rect x="288" y="198.939" width="6" height="1.06132" stroke="black" stroke-width="1" fill="blue" tooltip="enable"><title>(1.90962,126)</title></rect><rect x="294" y="198.863" width="6" height="1.13713" stroke="black" stroke-width="1" fill="blue" tooltip="enable"><title>(1.9494,135)</title></rect><rect x="300" y="198.888" width="6" height="1.11186" stroke="black" stroke-width="1" fill="blue" tooltip="enable"><title>(1.98918,132)</title></rect><rect x="306" y="198.846" width="6" height="1.15398" stroke="black" stroke-width="1" fill="blue" tooltip="enable"><title>(2.02897,137)</title></rect><rect x="312" y="198.947" width="6" height="1.0529" stroke="black" stroke-width="1" fill="blue" tooltip="enable"><title>(2.06875,125)</title></rect><rect x="318" y="199.132" width="6" height="0.867588" stroke="black" stroke-width="1" fill="blue" tooltip="enable"><title>(2.10853,103)</title></rect><rect x="324" y="199.233" width="6" height="0.766509" stroke="black" stroke-width="1" fill="blue" tooltip="enable"><title>(2.14832,91)</title></rect><rect x="330" y="199.25" width="6" height="0.749663" stroke="black" stroke-width="1" fill="blue" tooltip="enable"><title>(2.1881,89)</title></rect><rect x="336" y="199.318" width="6" height="0.682278" stroke="black" stroke-width="1" fill="blue" tooltip="enable"><title>(2.22789,81)</title></rect><rect x="342" y="199.267" width="6" height="0.732817" stroke="black" stroke-width="1" fill="blue" tooltip="enable"><title>(2.26767,87)</title></rect><rect x="348" y="199.208" width="6" height="0.791779" stroke="black" stroke-width="1" fill="blue" tooltip="enable"><title>(2.30745,94)</title></rect><rect x="354" y="199.25" width="6" height="0.749663" stroke="black" stroke-width="1" fill="blue" tooltip="enable"><title>(2.34724,89)</title></rect><rect x="360" y="199.267" width="6" height="0.732817" stroke="black" stroke-width="1" fill="blue" tooltip="enable"><title>(2.38702,87)</title></rect><rect x="366" y="199.343" width="6" height="0.657008" stroke="black" stroke-width="1" fill="blue" tooltip="enable"><title>(2.4268,78)</title></rect><rect x="372" y="199.444" width="6" height="0.55593" stroke="black" stroke-width="1" fill="blue" tooltip="enable"><title>(2.46659,66)</title></rect><rect x="378" y="199.436" width="6" height="0.564353" stroke="black" stroke-width="1" fill="blue" tooltip="enable"><title>(2.50637,67)</title></rect><rect x="384" y="199.545" width="6" height="0.454852" stroke="black" stroke-width="1" fill="blue" tooltip="enable"><title>(2.54615,54)</title></rect><rect x="390" y="199.528" width="6" height="0.471698" stroke="black" stroke-width="1" fill="blue" tooltip="enable"><title>(2.58594,56)</title></rect><rect x="396" y="199.436" width="6" height="0.564353" stroke="black" stroke-width="1" fill="blue" tooltip="enable"><title>(2.62572,67)</title></rect><rect x="402" y="199.495" width="6" height="0.505391" stroke="black" stroke-width="1" fill="blue" tooltip="enable"><title>(2.66551,60)</title></rect><rect x="408" y="199.57" width="6" height="0.429582" stroke="black" stroke-width="1" fill="blue" tooltip="enable"><title>(2.70529,51)</title></rect><rect x="414" y="199.68" width="6" height="0.320081" stroke="black" stroke-width="1" fill="blue" tooltip="enable"><title>(2.74507,38)</title></rect><rect x="420" y="199.646" width="6" height="0.353774" stroke="black" stroke-width="1" fill="blue" tooltip="enable"><title>(2.78486,42)</title></rect><rect x="426" y="199.596" width="6" height="0.404313" stroke="black" stroke-width="1" fill="blue" tooltip="enable"><title>(2.82464,48)</title></rect><rect x="432" y="199.756" width="6" height="0.244272" stroke="black" stroke-width="1" fill="blue" tooltip="enable"><title>(2.86442,29)</title></rect><rect x="438" y="199.705" width="6" height="0.294811" stroke="black" stroke-width="1" fill="blue" tooltip="enable"><title>(2.90421,35)</title></rect><rect x="444" y="199.739" width="6" height="0.261119" stroke="black" stroke-width="1" fill="blue" tooltip="enable"><title>(2.94399,31)</title></rect><rect x="450" y="199.621" width="6" height="0.379043" stroke="black" stroke-width="1" fill="blue" tooltip="enable"><title>(2.98377,45)</title></rect><rect x="456" y="199.789" width="6" height="0.21058" stroke="black" stroke-width="1" fill="blue" tooltip="enable"><title>(3.02356,25)</title></rect><rect x="462" y="199.764" width="6" height="0.235849" stroke="black" stroke-width="1" fill="blue" tooltip="enable"><title>(3.06334,28)</title></rect><rect x="468" y="199.823" width="6" height="0.176887" stroke="black" stroke-width="1" fill="blue" tooltip="enable"><title>(3.10313,21)</title></rect><rect x="474" y="199.739" width="6" height="0.261119" stroke="black" stroke-width="1" fill="blue" tooltip="enable"><title>(3.14291,31)</title></rect><rect x="480" y="199.84" width="6" height="0.16004" stroke="black" stroke-width="1" fill="blue" tooltip="enable"><title>(3.18269,19)</title></rect><rect x="486" y="199.773" width="6" height="0.227426" stroke="black" stroke-width="1" fill="blue" tooltip="enable"><title>(3.22248,27)</title></rect><rect x="492" y="199.874" width="6" height="0.126348" stroke="black" stroke-width="1" fill="blue" tooltip="enable"><title>(3.26226,15)</title></rect><rect x="498" y="199.848" width="6" height="0.151617" stroke="black" stroke-width="1" fill="blue" tooltip="enable"><title>(3.30204,18)</title></rect><rect x="504" y="199.916" width="6" height="0.0842318" stroke="black" stroke-width="1" fill="blue" tooltip="enable"><title>(3.34183,10)</title></rect><rect x="510" y="199.848" width="6" height="0.151617" stroke="black" stroke-width="1" fill="blue" tooltip="enable"><title>(3.38161,18)</title></rect><rect x="516" y="199.933" width="6" height="0.0673854" stroke="black" stroke-width="1" fill="blue" tooltip="enable"><title>(3.4214,8)</title></rect><rect x="522" y="199.924" width="6" height="0.0758086" stroke="black" stroke-width="1" fill="blue" tooltip="enable"><title>(3.46118,9)</title></rect><rect x="528" y="199.941" width="6" height="0.0589623" stroke="black" stroke-width="1" fill="blue" tooltip="enable"><title>(3.50096,7)</title></rect><rect x="534" y="199.975" width="6" height="0.0252695" stroke="black" stroke-width="1" fill="blue" tooltip="enable"><title>(3.54075,3)</title></rect><rect x="540" y="199.975" width="6" height="0.0252695" stroke="black" stroke-width="1" fill="blue" tooltip="enable"><title>(3.58053,3)</title></rect><rect x="546" y="199.933" width="6" height="0.0673854" stroke="black" stroke-width="1" fill="blue" tooltip="enable"><title>(3.62031,8)</title></rect><rect x="552" y="199.958" width="6" height="0.0421159" stroke="black" stroke-width="1" fill="blue" tooltip="enable"><title>(3.6601,5)</title></rect><rect x="558" y="199.933" width="6" height="0.0673854" stroke="black" stroke-width="1" fill="blue" tooltip="enable"><title>(3.69988,8)</title></rect><rect x="564" y="199.975" width="6" height="0.0252695" stroke="black" stroke-width="1" fill="blue" tooltip="enable"><title>(3.73966,3)</title></rect><rect x="570" y="199.966" width="6" height="0.0336927" stroke="black" stroke-width="1" fill="blue" tooltip="enable"><title>(3.77945,4)</title></rect><rect x="576" y="199.933" width="6" height="0.0673854" stroke="black" stroke-width="1" fill="blue" tooltip="enable"><title>(3.81923,8)</title></rect><rect x="582" y="199.949" width="6" height="0.0505391" stroke="black" stroke-width="1" fill="blue" tooltip="enable"><title>(3.85902,6)</title></rect><rect x="588" y="199.992" width="6" height="0.00842318" stroke="black" stroke-width="1" fill="blue" tooltip="enable"><title>(3.8988,1)</title></rect><rect x="594" y="199.975" width="6" height="0.0252695" stroke="black" stroke-width="1" fill="blue" tooltip="enable"><title>(3.93858,3)</title></rect><text x="30" y="240" font-size="20" fill="black">0</text>
<text x="600" y="240" font-size="20" fill="black">3.97837</text>
<polyline points="0,220,600,220" stroke="black" stroke-width="1" fill="none"/>
<text x="720" y="20" font-size="20" fill="black">23744</text>
<text x="720" y="200" font-size="20" fill="black">0</text>
<polyline points="660,0,660,200" stroke="black" stroke-width="1" fill="none"/>
</svg>