<?xml version="1.0" standalone="yes"?>
<!-- SVG graphic -->
<svg xmlns='http://www.w3.org/2000/svg' xmlns:xlink='http://www.w3.org/1999/xlink'
width="80px" height="80px" preserveAspectRatio="xMinYMin meet" viewBox="0 0 80 80" version="1.1">
<rect x="5" y="0" width="2.5" height="2.5" fill="rgb(81,0,173)" tooltip="enable"><title>(1,0 68)</title></rect><rect x="10" y="0" width="2.5" height="2.5" fill="rgb(62,0,192)" tooltip="enable"><title>(2,0 52)</title></rect><rect x="15" y="0" width="2.5" height="2.5" fill="rgb(53,0,201)" tooltip="enable"><title>(3,0 45)</title></rect><rect x="20" y="0" width="2.5" height="2.5" fill="rgb(21,0,233)" tooltip="enable"><title>(4,0 18)</title></rect><rect x="25" y="0" width="2.5" height="2.5" fill="rgb(27,0,227)" tooltip="enable"><title>(5,0 23)</title></rect><rect x="30" y="0" width="2.5" height="2.5" fill="rgb(14,0,240)" tooltip="enable"><title>(6,0 12)</title></rect><rect x="35" y="0" width="2.5" height="2.5" fill="rgb(39,0,215)" tooltip="enable"><title>(7,0 33)</title></rect><rect x="40" y="0" width="2.5" height="2.5" fill="rgb(38,0,216)" tooltip="enable"><title>(8,0 32)</title></rect><rect x="45" y="0" width="2.5" height="2.5" fill="rgb(27,0,227)" tooltip="enable"><title>(9,0 23)</title></rect><rect x="50" y="0" width="2.5" height="2.5" fill="rgb(41,0,213)" tooltip="enable"><title>(10,0 35)</title></rect><rect x="55" y="0" width="2.5" height="2.5" fill="rgb(45,0,209)" tooltip="enable"><title>(11,0 38)</title></rect><rect x="60" y="0" width="2.5" height="2.5" fill="rgb(14,0,240)" tooltip="enable"><title>(12,0 12)</title></rect><rect x="10" y="5" width="2.5" height="2.5" fill="rgb(191,0,63)" tooltip="enable"><title>(2,1 160)</title></rect><rect x="15" y="5" width="2.5" height="2.5" fill="rgb(149,0,105)" tooltip="enable"><title>(3,1 125)</title></rect><rect x="20" y="5" width="2.5" height="2.5" fill="rgb(56,0,198)" tooltip="enable"><title>(4,1 47)</title></rect><rect x="25" y="5" width="2.5" height="2.5" fill="rgb(47,0,207)" tooltip="enable"><title>(5,1 40)</title></rect><rect x="30" y="5" width="2.5" height="2.5" fill="rgb(15,0,239)" tooltip="enable"><title>(6,1 13)</title></rect><rect x="35" y="5" width="2.5" height="2.5" fill="rgb(44,0,210)" tooltip="enable"><title>(7,1 37)</title></rect><rect x="40" y="5" width="2.5" height="2.5" fill="rgb(40,0,214)" tooltip="enable"><title>(8,1 34)</title></rect><rect x="45" y="5" width="2.5" height="2.5" fill="rgb(47,0,207)" tooltip="enable"><title>(9,1 40)</title></rect><rect x="50" y="5" width="2.5" height="2.5" fill="rgb(52,0,202)" tooltip="enable"><title>(10,1 44)</title></rect><rect x="55" y="5" width="2.5" height="2.5" fill="rgb(51,0,203)" tooltip="enable"><title>(11,1 43)</title></rect><rect x="60" y="5" width="2.5" height="2.5" fill="rgb(11,0,243)" tooltip="enable"><title>(12,1 10)</title></rect><rect x="15" y="10" width="2.5" height="2.5" fill="rgb(255,0,0)" tooltip="enable"><title>(3,2 213)</title></rect><rect x="20" y="10" width="2.5" height="2.5" fill="rgb(69,0,185)" tooltip="enable"><title>(4,2 58)</title></rect><rect x="25" y="10" width="2.5" height="2.5" fill="rgb(51,0,203)" tooltip="enable"><title>(5,2 43)</title></rect><rect x="30" y="10" width="2.5" height="2.5" fill="rgb(23,0,231)" tooltip="enable"><title>(6,2 20)</title></rect><rect x="35" y="10" width="2.5" height="2.5" fill="rgb(45,0,209)" tooltip="enable"><title>(7,2 38)</title></rect><rect x="40" y="10" width="2.5" height="2.5" fill="rgb(33,0,221)" tooltip="enable"><title>(8,2 28)</title></rect><rect x="45" y="10" width="2.5" height="2.5" fill="rgb(29,0,225)" tooltip="enable"><title>(9,2 25)</title></rect><rect x="50" y="10" width="2.5" height="2.5" fill="rgb(38,0,216)" tooltip="enable"><title>(10,2 32)</title></rect><rect x="55" y="10" width="2.5" height="2.5" fill="rgb(53,0,201)" tooltip="enable"><title>(11,2 45)</title></rect><rect x="60" y="10" width="2.5" height="2.5" fill="rgb(13,0,241)" tooltip="enable"><title>(12,2 11)</title></rect><rect x="20" y="15" width="2.5" height="2.5" fill="rgb(76,0,178)" tooltip="enable"><title>(4,3 64)</title></rect><rect x="25" y="15" width="2.5" height="2.5" fill="rgb(57,0,197)" tooltip="enable"><title>(5,3 48)</title></rect><rect x="30" y="15" width="2.5" height="2.5" fill="rgb(32,0,222)" tooltip="enable"><title>(6,3 27)</title></rect><rect x="35" y="15" width="2.5" height="2.5" fill="rgb(55,0,199)" tooltip="enable"><title>(7,3 46)</title></rect><rect x="40" y="15" width="2.5" height="2.5" fill="rgb(58,0,196)" tooltip="enable"><title>(8,3 49)</title></rect><rect x="45" y="15" width="2.5" height="2.5" fill="rgb(45,0,209)" tooltip="enable"><title>(9,3 38)</title></rect><rect x="50" y="15" width="2.5" height="2.5" fill="rgb(56,0,198)" tooltip="enable"><title>(10,3 47)</title></rect><rect x="55" y="15" width="2.5" height="2.5" fill="rgb(62,0,192)" tooltip="enable"><title>(11,3 52)</title></rect><rect x="60" y="15" width="2.5" height="2.5" fill="rgb(19,0,235)" tooltip="enable"><title>(12,3 16)</title></rect><rect x="25" y="20" width="2.5" height="2.5" fill="rgb(96,0,158)" tooltip="enable"><title>(5,4 81)</title></rect><rect x="30" y="20" width="2.5" height="2.5" fill="rgb(53,0,201)" tooltip="enable"><title>(6,4 45)</title></rect><rect x="35" y="20" width="2.5" height="2.5" fill="rgb(59,0,195)" tooltip="enable"><title>(7,4 50)</title></rect><rect x="40" y="20" width="2.5" height="2.5" fill="rgb(44,0,210)" tooltip="enable"><title>(8,4 37)</title></rect><rect x="45" y="20" width="2.5" height="2.5" fill="rgb(33,0,221)" tooltip="enable"><title>(9,4 28)</title></rect><rect x="50" y="20" width="2.5" height="2.5" fill="rgb(49,0,205)" tooltip="enable"><title>(10,4 41)</title></rect><rect x="55" y="20" width="2.5" height="2.5" fill="rgb(53,0,201)" tooltip="enable"><title>(11,4 45)</title></rect><rect x="60" y="20" width="2.5" height="2.5" fill="rgb(16,0,238)" tooltip="enable"><title>(12,4 14)</title></rect><rect x="30" y="25" width="2.5" height="2.5" fill="rgb(90,0,164)" tooltip="enable"><title>(6,5 76)</title></rect><rect x="35" y="25" width="2.5" height="2.5" fill="rgb(83,0,171)" tooltip="enable"><title>(7,5 70)</title></rect><rect x="40" y="25" width="2.5" height="2.5" fill="rgb(56,0,198)" tooltip="enable"><title>(8,5 47)</title></rect><rect x="45" y="25" width="2.5" height="2.5" fill="rgb(44,0,210)" tooltip="enable"><title>(9,5 37)</title></rect><rect x="50" y="25" width="2.5" height="2.5" fill="rgb(53,0,201)" tooltip="enable"><title>(10,5 45)</title></rect><rect x="55" y="25" width="2.5" height="2.5" fill="rgb(46,0,208)" tooltip="enable"><title>(11,5 39)</title></rect><rect x="60" y="25" width="2.5" height="2.5" fill="rgb(19,0,235)" tooltip="enable"><title>(12,5 16)</title></rect><rect x="35" y="30" width="2.5" height="2.5" fill="rgb(81,0,173)" tooltip="enable"><title>(7,6 68)</title></rect><rect x="40" y="30" width="2.5" height="2.5" fill="rgb(41,0,213)" tooltip="enable"><title>(8,6 35)</title></rect><rect x="45" y="30" width="2.5" height="2.5" fill="rgb(38,0,216)" tooltip="enable"><title>(9,6 32)</title></rect><rect x="50" y="30" width="2.5" height="2.5" fill="rgb(38,0,216)" tooltip="enable"><title>(10,6 32)</title></rect><rect x="55" y="30" width="2.5" height="2.5" fill="rgb(35,0,219)" tooltip="enable"><title>(11,6 30)</title></rect><rect x="60" y="30" width="2.5" height="2.5" fill="rgb(11,0,243)" tooltip="enable"><title>(12,6 10)</title></rect><rect x="40" y="35" width="2.5" height="2.5" fill="rgb(128,0,126)" tooltip="enable"><title>(8,7 107)</title></rect><rect x="45" y="35" width="2.5" height="2.5" fill="rgb(95,0,159)" tooltip="enable"><title>(9,7 80)</title></rect><rect x="50" y="35" width="2.5" height="2.5" fill="rgb(82,0,172)" tooltip="enable"><title>(10,7 69)</title></rect><rect x="55" y="35" width="2.5" height="2.5" fill="rgb(75,0,179)" tooltip="enable"><title>(11,7 63)</title></rect><rect x="60" y="35" width="2.5" height="2.5" fill="rgb(27,0,227)" tooltip="enable"><title>(12,7 23)</title></rect><rect x="45" y="40" width="2.5" height="2.5" fill="rgb(123,0,131)" tooltip="enable"><title>(9,8 103)</title></rect><rect x="50" y="40" width="2.5" height="2.5" fill="rgb(111,0,143)" tooltip="enable"><title>(10,8 93)</title></rect><rect x="55" y="40" width="2.5" height="2.5" fill="rgb(87,0,167)" tooltip="enable"><title>(11,8 73)</title></rect><rect x="60" y="40" width="2.5" height="2.5" fill="rgb(26,0,228)" tooltip="enable"><title>(12,8 22)</title></rect><rect x="50" y="45" width="2.5" height="2.5" fill="rgb(134,0,120)" tooltip="enable"><title>(10,9 112)</title></rect><rect x="55" y="45" width="2.5" height="2.5" fill="rgb(102,0,152)" tooltip="enable"><title>(11,9 86)</title></rect><rect x="60" y="45" width="2.5" height="2.5" fill="rgb(28,0,226)" tooltip="enable"><title>(12,9 24)</title></rect><rect x="55" y="50" width="2.5" height="2.5" fill="rgb(173,0,81)" tooltip="enable"><title>(11,10 145)</title></rect><rect x="60" y="50" width="2.5" height="2.5" fill="rgb(53,0,201)" tooltip="enable"><title>(12,10 45)</title></rect><rect x="60" y="55" width="2.5" height="2.5" fill="rgb(64,0,190)" tooltip="enable"><title>(12,11 54)</title></rect><text x="70" y="5" font-size="5" fill="black">0</text>
<text x="70" y="60" font-size="5" fill="black">13</text>
<polyline points="70,10,70,55" stroke="black" stroke-width="1" fill="none"/>
<text x="5" y="70" font-size="5" fill="black">0</text>
<text x="60" y="70" font-size="5" fill="black">13</text>
<polyline points="10,70,55,70" stroke="black" stroke-width="1" fill="none"/>
</svg>