<?xml version="1.0" standalone="yes"?>
<!-- SVG graphic -->
<svg xmlns='http://www.w3.org/2000/svg' xmlns:xlink='http://www.w3.org/1999/xlink'
width="115px" height="115px" preserveAspectRatio="xMinYMin meet" viewBox="0 0 115 115" version="1.1">
<rect x="5" y="0" width="2.5" height="2.5" fill="rgb(102,0,152)" tooltip="enable"><title>(1,0 21)</title></rect><rect x="35" y="0" width="2.5" height="2.5" fill="rgb(176,0,78)" tooltip="enable"><title>(7,0 36)</title></rect><rect x="90" y="0" width="2.5" height="2.5" fill="rgb(93,0,161)" tooltip="enable"><title>(18,0 19)</title></rect><rect x="95" y="0" width="2.5" height="2.5" fill="rgb(93,0,161)" tooltip="enable"><title>(19,0 19)</title></rect><rect x="20" y="5" width="2.5" height="2.5" fill="rgb(93,0,161)" tooltip="enable"><title>(4,1 19)</title></rect><rect x="30" y="5" width="2.5" height="2.5" fill="rgb(127,0,127)" tooltip="enable"><title>(6,1 26)</title></rect><rect x="35" y="5" width="2.5" height="2.5" fill="rgb(93,0,161)" tooltip="enable"><title>(7,1 19)</title></rect><rect x="25" y="20" width="2.5" height="2.5" fill="rgb(205,0,49)" tooltip="enable"><title>(5,4 42)</title></rect><rect x="30" y="20" width="2.5" height="2.5" fill="rgb(127,0,127)" tooltip="enable"><title>(6,4 26)</title></rect><rect x="30" y="25" width="2.5" height="2.5" fill="rgb(112,0,142)" tooltip="enable"><title>(6,5 23)</title></rect><rect x="90" y="40" width="2.5" height="2.5" fill="rgb(88,0,166)" tooltip="enable"><title>(18,8 18)</title></rect><rect x="80" y="45" width="2.5" height="2.5" fill="rgb(132,0,122)" tooltip="enable"><title>(16,9 27)</title></rect><rect x="55" y="50" width="2.5" height="2.5" fill="rgb(122,0,132)" tooltip="enable"><title>(11,10 25)</title></rect><rect x="75" y="50" width="2.5" height="2.5" fill="rgb(250,0,4)" tooltip="enable"><title>(15,10 51)</title></rect><rect x="80" y="50" width="2.5" height="2.5" fill="rgb(152,0,102)" tooltip="enable"><title>(16,10 31)</title></rect><rect x="60" y="55" width="2.5" height="2.5" fill="rgb(201,0,53)" tooltip="enable"><title>(12,11 41)</title></rect><rect x="65" y="55" width="2.5" height="2.5" fill="rgb(225,0,29)" tooltip="enable"><title>(13,11 46)</title></rect><rect x="70" y="55" width="2.5" height="2.5" fill="rgb(176,0,78)" tooltip="enable"><title>(14,11 36)</title></rect><rect x="75" y="55" width="2.5" height="2.5" fill="rgb(196,0,58)" tooltip="enable"><title>(15,11 40)</title></rect><rect x="65" y="60" width="2.5" height="2.5" fill="rgb(255,0,0)" tooltip="enable"><title>(13,12 52)</title></rect><rect x="70" y="60" width="2.5" height="2.5" fill="rgb(171,0,83)" tooltip="enable"><title>(14,12 35)</title></rect><rect x="70" y="65" width="2.5" height="2.5" fill="rgb(176,0,78)" tooltip="enable"><title>(14,13 36)</title></rect><rect x="75" y="65" width="2.5" height="2.5" fill="rgb(142,0,112)" tooltip="enable"><title>(15,13 29)</title></rect><rect x="80" y="75" width="2.5" height="2.5" fill="rgb(93,0,161)" tooltip="enable"><title>(16,15 19)</title></rect><rect x="90" y="85" width="2.5" height="2.5" fill="rgb(93,0,161)" tooltip="enable"><title>(18,17 19)</title></rect><rect x="95" y="90" width="2.5" height="2.5" fill="rgb(147,0,107)" tooltip="enable"><title>(19,18 30)</title></rect><text x="105" y="5" font-size="5" fill="black">0</text>
<text x="105" y="95" font-size="5" fill="black">20</text>
<polyline points="105,10,105,90" stroke="black" stroke-width="1" fill="none"/>
<text x="5" y="105" font-size="5" fill="black">0</text>
<text x="95" y="105" font-size="5" fill="black">20</text>
<polyline points="10,105,90,105" stroke="black" stroke-width="1" fill="none"/>
</svg>