<?xml version="1.0" standalone="yes"?>
<!-- SVG graphic -->
<svg xmlns='http://www.w3.org/2000/svg' xmlns:xlink='http://www.w3.org/1999/xlink'
width="115px" height="115px" preserveAspectRatio="xMinYMin meet" viewBox="0 0 115 115" version="1.1">
<rect x="5" y="0" width="2.5" height="2.5" fill="rgb(123,0,131)" tooltip="enable"><title>(1,0 32)</title></rect><rect x="10" y="0" width="2.5" height="2.5" fill="rgb(57,0,197)" tooltip="enable"><title>(2,0 15)</title></rect><rect x="15" y="0" width="2.5" height="2.5" fill="rgb(54,0,200)" tooltip="enable"><title>(3,0 14)</title></rect><rect x="20" y="0" width="2.5" height="2.5" fill="rgb(65,0,189)" tooltip="enable"><title>(4,0 17)</title></rect><rect x="25" y="0" width="2.5" height="2.5" fill="rgb(96,0,158)" tooltip="enable"><title>(5,0 25)</title></rect><rect x="30" y="0" width="2.5" height="2.5" fill="rgb(69,0,185)" tooltip="enable"><title>(6,0 18)</title></rect><rect x="35" y="0" width="2.5" height="2.5" fill="rgb(166,0,88)" tooltip="enable"><title>(7,0 43)</title></rect><rect x="40" y="0" width="2.5" height="2.5" fill="rgb(81,0,173)" tooltip="enable"><title>(8,0 21)</title></rect><rect x="45" y="0" width="2.5" height="2.5" fill="rgb(34,0,220)" tooltip="enable"><title>(9,0 9)</title></rect><rect x="50" y="0" width="2.5" height="2.5" fill="rgb(50,0,204)" tooltip="enable"><title>(10,0 13)</title></rect><rect x="55" y="0" width="2.5" height="2.5" fill="rgb(54,0,200)" tooltip="enable"><title>(11,0 14)</title></rect><rect x="60" y="0" width="2.5" height="2.5" fill="rgb(27,0,227)" tooltip="enable"><title>(12,0 7)</title></rect><rect x="65" y="0" width="2.5" height="2.5" fill="rgb(54,0,200)" tooltip="enable"><title>(13,0 14)</title></rect><rect x="70" y="0" width="2.5" height="2.5" fill="rgb(7,0,247)" tooltip="enable"><title>(14,0 2)</title></rect><rect x="75" y="0" width="2.5" height="2.5" fill="rgb(27,0,227)" tooltip="enable"><title>(15,0 7)</title></rect><rect x="80" y="0" width="2.5" height="2.5" fill="rgb(27,0,227)" tooltip="enable"><title>(16,0 7)</title></rect><rect x="85" y="0" width="2.5" height="2.5" fill="rgb(65,0,189)" tooltip="enable"><title>(17,0 17)</title></rect><rect x="90" y="0" width="2.5" height="2.5" fill="rgb(131,0,123)" tooltip="enable"><title>(18,0 34)</title></rect><rect x="95" y="0" width="2.5" height="2.5" fill="rgb(127,0,127)" tooltip="enable"><title>(19,0 33)</title></rect><rect x="10" y="5" width="2.5" height="2.5" fill="rgb(30,0,224)" tooltip="enable"><title>(2,1 8)</title></rect><rect x="15" y="5" width="2.5" height="2.5" fill="rgb(19,0,235)" tooltip="enable"><title>(3,1 5)</title></rect><rect x="20" y="5" width="2.5" height="2.5" fill="rgb(104,0,150)" tooltip="enable"><title>(4,1 27)</title></rect><rect x="25" y="5" width="2.5" height="2.5" fill="rgb(112,0,142)" tooltip="enable"><title>(5,1 29)</title></rect><rect x="30" y="5" width="2.5" height="2.5" fill="rgb(119,0,135)" tooltip="enable"><title>(6,1 31)</title></rect><rect x="35" y="5" width="2.5" height="2.5" fill="rgb(100,0,154)" tooltip="enable"><title>(7,1 26)</title></rect><rect x="40" y="5" width="2.5" height="2.5" fill="rgb(50,0,204)" tooltip="enable"><title>(8,1 13)</title></rect><rect x="45" y="5" width="2.5" height="2.5" fill="rgb(7,0,247)" tooltip="enable"><title>(9,1 2)</title></rect><rect x="50" y="5" width="2.5" height="2.5" fill="rgb(23,0,231)" tooltip="enable"><title>(10,1 6)</title></rect><rect x="55" y="5" width="2.5" height="2.5" fill="rgb(34,0,220)" tooltip="enable"><title>(11,1 9)</title></rect><rect x="60" y="5" width="2.5" height="2.5" fill="rgb(19,0,235)" tooltip="enable"><title>(12,1 5)</title></rect><rect x="65" y="5" width="2.5" height="2.5" fill="rgb(11,0,243)" tooltip="enable"><title>(13,1 3)</title></rect><rect x="70" y="5" width="2.5" height="2.5" fill="rgb(23,0,231)" tooltip="enable"><title>(14,1 6)</title></rect><rect x="75" y="5" width="2.5" height="2.5" fill="rgb(30,0,224)" tooltip="enable"><title>(15,1 8)</title></rect><rect x="80" y="5" width="2.5" height="2.5" fill="rgb(23,0,231)" tooltip="enable"><title>(16,1 6)</title></rect><rect x="85" y="5" width="2.5" height="2.5" fill="rgb(54,0,200)" tooltip="enable"><title>(17,1 14)</title></rect><rect x="90" y="5" width="2.5" height="2.5" fill="rgb(81,0,173)" tooltip="enable"><title>(18,1 21)</title></rect><rect x="95" y="5" width="2.5" height="2.5" fill="rgb(81,0,173)" tooltip="enable"><title>(19,1 21)</title></rect><rect x="15" y="10" width="2.5" height="2.5" fill="rgb(27,0,227)" tooltip="enable"><title>(3,2 7)</title></rect><rect x="20" y="10" width="2.5" height="2.5" fill="rgb(3,0,251)" tooltip="enable"><title>(4,2 1)</title></rect><rect x="25" y="10" width="2.5" height="2.5" fill="rgb(7,0,247)" tooltip="enable"><title>(5,2 2)</title></rect><rect x="30" y="10" width="2.5" height="2.5" fill="rgb(7,0,247)" tooltip="enable"><title>(6,2 2)</title></rect><rect x="35" y="10" width="2.5" height="2.5" fill="rgb(15,0,239)" tooltip="enable"><title>(7,2 4)</title></rect><rect x="40" y="10" width="2.5" height="2.5" fill="rgb(30,0,224)" tooltip="enable"><title>(8,2 8)</title></rect><rect x="45" y="10" width="2.5" height="2.5" fill="rgb(11,0,243)" tooltip="enable"><title>(9,2 3)</title></rect><rect x="50" y="10" width="2.5" height="2.5" fill="rgb(3,0,251)" tooltip="enable"><title>(10,2 1)</title></rect><rect x="55" y="10" width="2.5" height="2.5" fill="rgb(11,0,243)" tooltip="enable"><title>(11,2 3)</title></rect><rect x="60" y="10" width="2.5" height="2.5" fill="rgb(3,0,251)" tooltip="enable"><title>(12,2 1)</title></rect><rect x="65" y="10" width="2.5" height="2.5" fill="rgb(3,0,251)" tooltip="enable"><title>(13,2 1)</title></rect><rect x="70" y="10" width="2.5" height="2.5" fill="rgb(3,0,251)" tooltip="enable"><title>(14,2 1)</title></rect><rect x="75" y="10" width="2.5" height="2.5" fill="rgb(7,0,247)" tooltip="enable"><title>(15,2 2)</title></rect><rect x="80" y="10" width="2.5" height="2.5" fill="rgb(7,0,247)" tooltip="enable"><title>(16,2 2)</title></rect><rect x="85" y="10" width="2.5" height="2.5" fill="rgb(15,0,239)" tooltip="enable"><title>(17,2 4)</title></rect><rect x="90" y="10" width="2.5" height="2.5" fill="rgb(50,0,204)" tooltip="enable"><title>(18,2 13)</title></rect><rect x="95" y="10" width="2.5" height="2.5" fill="rgb(46,0,208)" tooltip="enable"><title>(19,2 12)</title></rect><rect x="20" y="15" width="2.5" height="2.5" fill="rgb(7,0,247)" tooltip="enable"><title>(4,3 2)</title></rect><rect x="30" y="15" width="2.5" height="2.5" fill="rgb(3,0,251)" tooltip="enable"><title>(6,3 1)</title></rect><rect x="35" y="15" width="2.5" height="2.5" fill="rgb(11,0,243)" tooltip="enable"><title>(7,3 3)</title></rect><rect x="40" y="15" width="2.5" height="2.5" fill="rgb(15,0,239)" tooltip="enable"><title>(8,3 4)</title></rect><rect x="45" y="15" width="2.5" height="2.5" fill="rgb(3,0,251)" tooltip="enable"><title>(9,3 1)</title></rect><rect x="50" y="15" width="2.5" height="2.5" fill="rgb(3,0,251)" tooltip="enable"><title>(10,3 1)</title></rect><rect x="55" y="15" width="2.5" height="2.5" fill="rgb(7,0,247)" tooltip="enable"><title>(11,3 2)</title></rect><rect x="60" y="15" width="2.5" height="2.5" fill="rgb(11,0,243)" tooltip="enable"><title>(12,3 3)</title></rect><rect x="65" y="15" width="2.5" height="2.5" fill="rgb(3,0,251)" tooltip="enable"><title>(13,3 1)</title></rect><rect x="75" y="15" width="2.5" height="2.5" fill="rgb(3,0,251)" tooltip="enable"><title>(15,3 1)</title></rect><rect x="80" y="15" width="2.5" height="2.5" fill="rgb(7,0,247)" tooltip="enable"><title>(16,3 2)</title></rect><rect x="85" y="15" width="2.5" height="2.5" fill="rgb(19,0,235)" tooltip="enable"><title>(17,3 5)</title></rect><rect x="90" y="15" width="2.5" height="2.5" fill="rgb(23,0,231)" tooltip="enable"><title>(18,3 6)</title></rect><rect x="95" y="15" width="2.5" height="2.5" fill="rgb(15,0,239)" tooltip="enable"><title>(19,3 4)</title></rect><rect x="25" y="20" width="2.5" height="2.5" fill="rgb(255,0,0)" tooltip="enable"><title>(5,4 66)</title></rect><rect x="30" y="20" width="2.5" height="2.5" fill="rgb(131,0,123)" tooltip="enable"><title>(6,4 34)</title></rect><rect x="35" y="20" width="2.5" height="2.5" fill="rgb(57,0,197)" tooltip="enable"><title>(7,4 15)</title></rect><rect x="40" y="20" width="2.5" height="2.5" fill="rgb(38,0,216)" tooltip="enable"><title>(8,4 10)</title></rect><rect x="45" y="20" width="2.5" height="2.5" fill="rgb(11,0,243)" tooltip="enable"><title>(9,4 3)</title></rect><rect x="50" y="20" width="2.5" height="2.5" fill="rgb(61,0,193)" tooltip="enable"><title>(10,4 16)</title></rect><rect x="55" y="20" width="2.5" height="2.5" fill="rgb(65,0,189)" tooltip="enable"><title>(11,4 17)</title></rect><rect x="60" y="20" width="2.5" height="2.5" fill="rgb(19,0,235)" tooltip="enable"><title>(12,4 5)</title></rect><rect x="65" y="20" width="2.5" height="2.5" fill="rgb(65,0,189)" tooltip="enable"><title>(13,4 17)</title></rect><rect x="70" y="20" width="2.5" height="2.5" fill="rgb(27,0,227)" tooltip="enable"><title>(14,4 7)</title></rect><rect x="75" y="20" width="2.5" height="2.5" fill="rgb(42,0,212)" tooltip="enable"><title>(15,4 11)</title></rect><rect x="80" y="20" width="2.5" height="2.5" fill="rgb(38,0,216)" tooltip="enable"><title>(16,4 10)</title></rect><rect x="85" y="20" width="2.5" height="2.5" fill="rgb(54,0,200)" tooltip="enable"><title>(17,4 14)</title></rect><rect x="90" y="20" width="2.5" height="2.5" fill="rgb(57,0,197)" tooltip="enable"><title>(18,4 15)</title></rect><rect x="95" y="20" width="2.5" height="2.5" fill="rgb(34,0,220)" tooltip="enable"><title>(19,4 9)</title></rect><rect x="30" y="25" width="2.5" height="2.5" fill="rgb(142,0,112)" tooltip="enable"><title>(6,5 37)</title></rect><rect x="35" y="25" width="2.5" height="2.5" fill="rgb(65,0,189)" tooltip="enable"><title>(7,5 17)</title></rect><rect x="40" y="25" width="2.5" height="2.5" fill="rgb(38,0,216)" tooltip="enable"><title>(8,5 10)</title></rect><rect x="45" y="25" width="2.5" height="2.5" fill="rgb(30,0,224)" tooltip="enable"><title>(9,5 8)</title></rect><rect x="50" y="25" width="2.5" height="2.5" fill="rgb(61,0,193)" tooltip="enable"><title>(10,5 16)</title></rect><rect x="55" y="25" width="2.5" height="2.5" fill="rgb(81,0,173)" tooltip="enable"><title>(11,5 21)</title></rect><rect x="60" y="25" width="2.5" height="2.5" fill="rgb(65,0,189)" tooltip="enable"><title>(12,5 17)</title></rect><rect x="65" y="25" width="2.5" height="2.5" fill="rgb(50,0,204)" tooltip="enable"><title>(13,5 13)</title></rect><rect x="70" y="25" width="2.5" height="2.5" fill="rgb(46,0,208)" tooltip="enable"><title>(14,5 12)</title></rect><rect x="75" y="25" width="2.5" height="2.5" fill="rgb(46,0,208)" tooltip="enable"><title>(15,5 12)</title></rect><rect x="80" y="25" width="2.5" height="2.5" fill="rgb(50,0,204)" tooltip="enable"><title>(16,5 13)</title></rect><rect x="85" y="25" width="2.5" height="2.5" fill="rgb(46,0,208)" tooltip="enable"><title>(17,5 12)</title></rect><rect x="90" y="25" width="2.5" height="2.5" fill="rgb(61,0,193)" tooltip="enable"><title>(18,5 16)</title></rect><rect x="95" y="25" width="2.5" height="2.5" fill="rgb(61,0,193)" tooltip="enable"><title>(19,5 16)</title></rect><rect x="35" y="30" width="2.5" height="2.5" fill="rgb(65,0,189)" tooltip="enable"><title>(7,6 17)</title></rect><rect x="40" y="30" width="2.5" height="2.5" fill="rgb(34,0,220)" tooltip="enable"><title>(8,6 9)</title></rect><rect x="45" y="30" width="2.5" height="2.5" fill="rgb(23,0,231)" tooltip="enable"><title>(9,6 6)</title></rect><rect x="50" y="30" width="2.5" height="2.5" fill="rgb(23,0,231)" tooltip="enable"><title>(10,6 6)</title></rect><rect x="55" y="30" width="2.5" height="2.5" fill="rgb(23,0,231)" tooltip="enable"><title>(11,6 6)</title></rect><rect x="60" y="30" width="2.5" height="2.5" fill="rgb(23,0,231)" tooltip="enable"><title>(12,6 6)</title></rect><rect x="65" y="30" width="2.5" height="2.5" fill="rgb(11,0,243)" tooltip="enable"><title>(13,6 3)</title></rect><rect x="70" y="30" width="2.5" height="2.5" fill="rgb(23,0,231)" tooltip="enable"><title>(14,6 6)</title></rect><rect x="75" y="30" width="2.5" height="2.5" fill="rgb(34,0,220)" tooltip="enable"><title>(15,6 9)</title></rect><rect x="80" y="30" width="2.5" height="2.5" fill="rgb(30,0,224)" tooltip="enable"><title>(16,6 8)</title></rect><rect x="85" y="30" width="2.5" height="2.5" fill="rgb(61,0,193)" tooltip="enable"><title>(17,6 16)</title></rect><rect x="90" y="30" width="2.5" height="2.5" fill="rgb(42,0,212)" tooltip="enable"><title>(18,6 11)</title></rect><rect x="95" y="30" width="2.5" height="2.5" fill="rgb(50,0,204)" tooltip="enable"><title>(19,6 13)</title></rect><rect x="40" y="35" width="2.5" height="2.5" fill="rgb(42,0,212)" tooltip="enable"><title>(8,7 11)</title></rect><rect x="50" y="35" width="2.5" height="2.5" fill="rgb(19,0,235)" tooltip="enable"><title>(10,7 5)</title></rect><rect x="55" y="35" width="2.5" height="2.5" fill="rgb(23,0,231)" tooltip="enable"><title>(11,7 6)</title></rect><rect x="60" y="35" width="2.5" height="2.5" fill="rgb(11,0,243)" tooltip="enable"><title>(12,7 3)</title></rect><rect x="65" y="35" width="2.5" height="2.5" fill="rgb(30,0,224)" tooltip="enable"><title>(13,7 8)</title></rect><rect x="70" y="35" width="2.5" height="2.5" fill="rgb(7,0,247)" tooltip="enable"><title>(14,7 2)</title></rect><rect x="75" y="35" width="2.5" height="2.5" fill="rgb(23,0,231)" tooltip="enable"><title>(15,7 6)</title></rect><rect x="80" y="35" width="2.5" height="2.5" fill="rgb(11,0,243)" tooltip="enable"><title>(16,7 3)</title></rect><rect x="85" y="35" width="2.5" height="2.5" fill="rgb(38,0,216)" tooltip="enable"><title>(17,7 10)</title></rect><rect x="90" y="35" width="2.5" height="2.5" fill="rgb(50,0,204)" tooltip="enable"><title>(18,7 13)</title></rect><rect x="95" y="35" width="2.5" height="2.5" fill="rgb(57,0,197)" tooltip="enable"><title>(19,7 15)</title></rect><rect x="45" y="40" width="2.5" height="2.5" fill="rgb(34,0,220)" tooltip="enable"><title>(9,8 9)</title></rect><rect x="50" y="40" width="2.5" height="2.5" fill="rgb(38,0,216)" tooltip="enable"><title>(10,8 10)</title></rect><rect x="55" y="40" width="2.5" height="2.5" fill="rgb(30,0,224)" tooltip="enable"><title>(11,8 8)</title></rect><rect x="60" y="40" width="2.5" height="2.5" fill="rgb(19,0,235)" tooltip="enable"><title>(12,8 5)</title></rect><rect x="65" y="40" width="2.5" height="2.5" fill="rgb(30,0,224)" tooltip="enable"><title>(13,8 8)</title></rect><rect x="70" y="40" width="2.5" height="2.5" fill="rgb(30,0,224)" tooltip="enable"><title>(14,8 8)</title></rect><rect x="75" y="40" width="2.5" height="2.5" fill="rgb(42,0,212)" tooltip="enable"><title>(15,8 11)</title></rect><rect x="80" y="40" width="2.5" height="2.5" fill="rgb(46,0,208)" tooltip="enable"><title>(16,8 12)</title></rect><rect x="85" y="40" width="2.5" height="2.5" fill="rgb(85,0,169)" tooltip="enable"><title>(17,8 22)</title></rect><rect x="90" y="40" width="2.5" height="2.5" fill="rgb(123,0,131)" tooltip="enable"><title>(18,8 32)</title></rect><rect x="95" y="40" width="2.5" height="2.5" fill="rgb(46,0,208)" tooltip="enable"><title>(19,8 12)</title></rect><rect x="50" y="45" width="2.5" height="2.5" fill="rgb(81,0,173)" tooltip="enable"><title>(10,9 21)</title></rect><rect x="55" y="45" width="2.5" height="2.5" fill="rgb(65,0,189)" tooltip="enable"><title>(11,9 17)</title></rect><rect x="60" y="45" width="2.5" height="2.5" fill="rgb(34,0,220)" tooltip="enable"><title>(12,9 9)</title></rect><rect x="65" y="45" width="2.5" height="2.5" fill="rgb(30,0,224)" tooltip="enable"><title>(13,9 8)</title></rect><rect x="70" y="45" width="2.5" height="2.5" fill="rgb(27,0,227)" tooltip="enable"><title>(14,9 7)</title></rect><rect x="75" y="45" width="2.5" height="2.5" fill="rgb(57,0,197)" tooltip="enable"><title>(15,9 15)</title></rect><rect x="80" y="45" width="2.5" height="2.5" fill="rgb(115,0,139)" tooltip="enable"><title>(16,9 30)</title></rect><rect x="85" y="45" width="2.5" height="2.5" fill="rgb(46,0,208)" tooltip="enable"><title>(17,9 12)</title></rect><rect x="90" y="45" width="2.5" height="2.5" fill="rgb(23,0,231)" tooltip="enable"><title>(18,9 6)</title></rect><rect x="95" y="45" width="2.5" height="2.5" fill="rgb(23,0,231)" tooltip="enable"><title>(19,9 6)</title></rect><rect x="55" y="50" width="2.5" height="2.5" fill="rgb(142,0,112)" tooltip="enable"><title>(11,10 37)</title></rect><rect x="60" y="50" width="2.5" height="2.5" fill="rgb(85,0,169)" tooltip="enable"><title>(12,10 22)</title></rect><rect x="65" y="50" width="2.5" height="2.5" fill="rgb(88,0,166)" tooltip="enable"><title>(13,10 23)</title></rect><rect x="70" y="50" width="2.5" height="2.5" fill="rgb(81,0,173)" tooltip="enable"><title>(14,10 21)</title></rect><rect x="75" y="50" width="2.5" height="2.5" fill="rgb(220,0,34)" tooltip="enable"><title>(15,10 57)</title></rect><rect x="80" y="50" width="2.5" height="2.5" fill="rgb(158,0,96)" tooltip="enable"><title>(16,10 41)</title></rect><rect x="85" y="50" width="2.5" height="2.5" fill="rgb(88,0,166)" tooltip="enable"><title>(17,10 23)</title></rect><rect x="90" y="50" width="2.5" height="2.5" fill="rgb(46,0,208)" tooltip="enable"><title>(18,10 12)</title></rect><rect x="95" y="50" width="2.5" height="2.5" fill="rgb(50,0,204)" tooltip="enable"><title>(19,10 13)</title></rect><rect x="60" y="55" width="2.5" height="2.5" fill="rgb(193,0,61)" tooltip="enable"><title>(12,11 50)</title></rect><rect x="65" y="55" width="2.5" height="2.5" fill="rgb(220,0,34)" tooltip="enable"><title>(13,11 57)</title></rect><rect x="70" y="55" width="2.5" height="2.5" fill="rgb(170,0,84)" tooltip="enable"><title>(14,11 44)</title></rect><rect x="75" y="55" width="2.5" height="2.5" fill="rgb(204,0,50)" tooltip="enable"><title>(15,11 53)</title></rect><rect x="80" y="55" width="2.5" height="2.5" fill="rgb(88,0,166)" tooltip="enable"><title>(16,11 23)</title></rect><rect x="85" y="55" width="2.5" height="2.5" fill="rgb(65,0,189)" tooltip="enable"><title>(17,11 17)</title></rect><rect x="90" y="55" width="2.5" height="2.5" fill="rgb(46,0,208)" tooltip="enable"><title>(18,11 12)</title></rect><rect x="95" y="55" width="2.5" height="2.5" fill="rgb(30,0,224)" tooltip="enable"><title>(19,11 8)</title></rect><rect x="65" y="60" width="2.5" height="2.5" fill="rgb(243,0,11)" tooltip="enable"><title>(13,12 63)</title></rect><rect x="70" y="60" width="2.5" height="2.5" fill="rgb(166,0,88)" tooltip="enable"><title>(14,12 43)</title></rect><rect x="75" y="60" width="2.5" height="2.5" fill="rgb(96,0,158)" tooltip="enable"><title>(15,12 25)</title></rect><rect x="80" y="60" width="2.5" height="2.5" fill="rgb(50,0,204)" tooltip="enable"><title>(16,12 13)</title></rect><rect x="85" y="60" width="2.5" height="2.5" fill="rgb(34,0,220)" tooltip="enable"><title>(17,12 9)</title></rect><rect x="90" y="60" width="2.5" height="2.5" fill="rgb(23,0,231)" tooltip="enable"><title>(18,12 6)</title></rect><rect x="95" y="60" width="2.5" height="2.5" fill="rgb(15,0,239)" tooltip="enable"><title>(19,12 4)</title></rect><rect x="70" y="65" width="2.5" height="2.5" fill="rgb(166,0,88)" tooltip="enable"><title>(14,13 43)</title></rect><rect x="75" y="65" width="2.5" height="2.5" fill="rgb(150,0,104)" tooltip="enable"><title>(15,13 39)</title></rect><rect x="80" y="65" width="2.5" height="2.5" fill="rgb(92,0,162)" tooltip="enable"><title>(16,13 24)</title></rect><rect x="85" y="65" width="2.5" height="2.5" fill="rgb(23,0,231)" tooltip="enable"><title>(17,13 6)</title></rect><rect x="90" y="65" width="2.5" height="2.5" fill="rgb(54,0,200)" tooltip="enable"><title>(18,13 14)</title></rect><rect x="95" y="65" width="2.5" height="2.5" fill="rgb(38,0,216)" tooltip="enable"><title>(19,13 10)</title></rect><rect x="75" y="70" width="2.5" height="2.5" fill="rgb(85,0,169)" tooltip="enable"><title>(15,14 22)</title></rect><rect x="80" y="70" width="2.5" height="2.5" fill="rgb(50,0,204)" tooltip="enable"><title>(16,14 13)</title></rect><rect x="85" y="70" width="2.5" height="2.5" fill="rgb(7,0,247)" tooltip="enable"><title>(17,14 2)</title></rect><rect x="90" y="70" width="2.5" height="2.5" fill="rgb(15,0,239)" tooltip="enable"><title>(18,14 4)</title></rect><rect x="95" y="70" width="2.5" height="2.5" fill="rgb(11,0,243)" tooltip="enable"><title>(19,14 3)</title></rect><rect x="80" y="75" width="2.5" height="2.5" fill="rgb(96,0,158)" tooltip="enable"><title>(16,15 25)</title></rect><rect x="85" y="75" width="2.5" height="2.5" fill="rgb(46,0,208)" tooltip="enable"><title>(17,15 12)</title></rect><rect x="90" y="75" width="2.5" height="2.5" fill="rgb(34,0,220)" tooltip="enable"><title>(18,15 9)</title></rect><rect x="95" y="75" width="2.5" height="2.5" fill="rgb(46,0,208)" tooltip="enable"><title>(19,15 12)</title></rect><rect x="85" y="80" width="2.5" height="2.5" fill="rgb(65,0,189)" tooltip="enable"><title>(17,16 17)</title></rect><rect x="90" y="80" width="2.5" height="2.5" fill="rgb(54,0,200)" tooltip="enable"><title>(18,16 14)</title></rect><rect x="95" y="80" width="2.5" height="2.5" fill="rgb(57,0,197)" tooltip="enable"><title>(19,16 15)</title></rect><rect x="90" y="85" width="2.5" height="2.5" fill="rgb(92,0,162)" tooltip="enable"><title>(18,17 24)</title></rect><rect x="95" y="85" width="2.5" height="2.5" fill="rgb(57,0,197)" tooltip="enable"><title>(19,17 15)</title></rect><rect x="95" y="90" width="2.5" height="2.5" fill="rgb(158,0,96)" tooltip="enable"><title>(19,18 41)</title></rect><text x="105" y="5" font-size="5" fill="black">0</text>
<text x="105" y="95" font-size="5" fill="black">20</text>
<polyline points="105,10,105,90" stroke="black" stroke-width="1" fill="none"/>
<text x="5" y="105" font-size="5" fill="black">0</text>
<text x="95" y="105" font-size="5" fill="black">20</text>
<polyline points="10,105,90,105" stroke="black" stroke-width="1" fill="none"/>
</svg>