<?xml version="1.0" standalone="yes"?>
<!-- SVG graphic -->
<svg xmlns='http://www.w3.org/2000/svg' xmlns:xlink='http://www.w3.org/1999/xlink'
width="105px" height="105px" preserveAspectRatio="xMinYMin meet" viewBox="0 0 105 105" version="1.1">
<rect x="5" y="0" width="2.5" height="2.5" fill="rgb(36,0,218)" tooltip="enable"><title>(1,0 27)</title></rect><rect x="65" y="0" width="2.5" height="2.5" fill="rgb(41,0,213)" tooltip="enable"><title>(13,0 31)</title></rect><rect x="70" y="0" width="2.5" height="2.5" fill="rgb(67,0,187)" tooltip="enable"><title>(14,0 50)</title></rect><rect x="65" y="5" width="2.5" height="2.5" fill="rgb(103,0,151)" tooltip="enable"><title>(13,1 77)</title></rect><rect x="15" y="10" width="2.5" height="2.5" fill="rgb(138,0,116)" tooltip="enable"><title>(3,2 103)</title></rect><rect x="20" y="10" width="2.5" height="2.5" fill="rgb(138,0,116)" tooltip="enable"><title>(4,2 103)</title></rect><rect x="25" y="10" width="2.5" height="2.5" fill="rgb(143,0,111)" tooltip="enable"><title>(5,2 106)</title></rect><rect x="30" y="10" width="2.5" height="2.5" fill="rgb(107,0,147)" tooltip="enable"><title>(6,2 80)</title></rect><rect x="35" y="10" width="2.5" height="2.5" fill="rgb(39,0,215)" tooltip="enable"><title>(7,2 29)</title></rect><rect x="80" y="10" width="2.5" height="2.5" fill="rgb(35,0,219)" tooltip="enable"><title>(16,2 26)</title></rect><rect x="85" y="10" width="2.5" height="2.5" fill="rgb(95,0,159)" tooltip="enable"><title>(17,2 71)</title></rect><rect x="20" y="15" width="2.5" height="2.5" fill="rgb(164,0,90)" tooltip="enable"><title>(4,3 122)</title></rect><rect x="25" y="15" width="2.5" height="2.5" fill="rgb(148,0,106)" tooltip="enable"><title>(5,3 110)</title></rect><rect x="30" y="15" width="2.5" height="2.5" fill="rgb(62,0,192)" tooltip="enable"><title>(6,3 46)</title></rect><rect x="35" y="15" width="2.5" height="2.5" fill="rgb(24,0,230)" tooltip="enable"><title>(7,3 18)</title></rect><rect x="85" y="15" width="2.5" height="2.5" fill="rgb(49,0,205)" tooltip="enable"><title>(17,3 37)</title></rect><rect x="25" y="20" width="2.5" height="2.5" fill="rgb(137,0,117)" tooltip="enable"><title>(5,4 102)</title></rect><rect x="30" y="20" width="2.5" height="2.5" fill="rgb(56,0,198)" tooltip="enable"><title>(6,4 42)</title></rect><rect x="85" y="20" width="2.5" height="2.5" fill="rgb(48,0,206)" tooltip="enable"><title>(17,4 36)</title></rect><rect x="30" y="25" width="2.5" height="2.5" fill="rgb(76,0,178)" tooltip="enable"><title>(6,5 57)</title></rect><rect x="35" y="25" width="2.5" height="2.5" fill="rgb(25,0,229)" tooltip="enable"><title>(7,5 19)</title></rect><rect x="80" y="25" width="2.5" height="2.5" fill="rgb(29,0,225)" tooltip="enable"><title>(16,5 22)</title></rect><rect x="85" y="25" width="2.5" height="2.5" fill="rgb(80,0,174)" tooltip="enable"><title>(17,5 60)</title></rect><rect x="35" y="30" width="2.5" height="2.5" fill="rgb(56,0,198)" tooltip="enable"><title>(7,6 42)</title></rect><rect x="40" y="30" width="2.5" height="2.5" fill="rgb(29,0,225)" tooltip="enable"><title>(8,6 22)</title></rect><rect x="80" y="30" width="2.5" height="2.5" fill="rgb(52,0,202)" tooltip="enable"><title>(16,6 39)</title></rect><rect x="85" y="30" width="2.5" height="2.5" fill="rgb(98,0,156)" tooltip="enable"><title>(17,6 73)</title></rect><rect x="40" y="35" width="2.5" height="2.5" fill="rgb(40,0,214)" tooltip="enable"><title>(8,7 30)</title></rect><rect x="80" y="35" width="2.5" height="2.5" fill="rgb(64,0,190)" tooltip="enable"><title>(16,7 48)</title></rect><rect x="85" y="35" width="2.5" height="2.5" fill="rgb(62,0,192)" tooltip="enable"><title>(17,7 46)</title></rect><rect x="45" y="40" width="2.5" height="2.5" fill="rgb(35,0,219)" tooltip="enable"><title>(9,8 26)</title></rect><rect x="75" y="40" width="2.5" height="2.5" fill="rgb(62,0,192)" tooltip="enable"><title>(15,8 46)</title></rect><rect x="80" y="40" width="2.5" height="2.5" fill="rgb(40,0,214)" tooltip="enable"><title>(16,8 30)</title></rect><rect x="85" y="40" width="2.5" height="2.5" fill="rgb(32,0,222)" tooltip="enable"><title>(17,8 24)</title></rect><rect x="70" y="45" width="2.5" height="2.5" fill="rgb(33,0,221)" tooltip="enable"><title>(14,9 25)</title></rect><rect x="75" y="45" width="2.5" height="2.5" fill="rgb(36,0,218)" tooltip="enable"><title>(15,9 27)</title></rect><rect x="55" y="50" width="2.5" height="2.5" fill="rgb(99,0,155)" tooltip="enable"><title>(11,10 74)</title></rect><rect x="60" y="50" width="2.5" height="2.5" fill="rgb(255,0,0)" tooltip="enable"><title>(12,10 189)</title></rect><rect x="65" y="50" width="2.5" height="2.5" fill="rgb(31,0,223)" tooltip="enable"><title>(13,10 23)</title></rect><rect x="60" y="55" width="2.5" height="2.5" fill="rgb(132,0,122)" tooltip="enable"><title>(12,11 98)</title></rect><rect x="65" y="55" width="2.5" height="2.5" fill="rgb(25,0,229)" tooltip="enable"><title>(13,11 19)</title></rect><rect x="65" y="60" width="2.5" height="2.5" fill="rgb(40,0,214)" tooltip="enable"><title>(13,12 30)</title></rect><rect x="70" y="65" width="2.5" height="2.5" fill="rgb(24,0,230)" tooltip="enable"><title>(14,13 18)</title></rect><rect x="75" y="70" width="2.5" height="2.5" fill="rgb(26,0,228)" tooltip="enable"><title>(15,14 20)</title></rect><rect x="80" y="75" width="2.5" height="2.5" fill="rgb(31,0,223)" tooltip="enable"><title>(16,15 23)</title></rect><rect x="85" y="80" width="2.5" height="2.5" fill="rgb(52,0,202)" tooltip="enable"><title>(17,16 39)</title></rect><text x="95" y="5" font-size="5" fill="black">0</text>
<text x="95" y="85" font-size="5" fill="black">18</text>
<polyline points="95,10,95,80" stroke="black" stroke-width="1" fill="none"/>
<text x="5" y="95" font-size="5" fill="black">0</text>
<text x="85" y="95" font-size="5" fill="black">18</text>
<polyline points="10,95,80,95" stroke="black" stroke-width="1" fill="none"/>
</svg>