<?xml version="1.0" standalone="yes"?>
<!-- SVG graphic -->
<svg xmlns='http://www.w3.org/2000/svg' xmlns:xlink='http://www.w3.org/1999/xlink'
width="105px" height="105px" preserveAspectRatio="xMinYMin meet" viewBox="0 0 105 105" version="1.1">
<rect x="5" y="0" width="2.5" height="2.5" fill="rgb(51,0,203)" tooltip="enable"><title>(1,0 44)</title></rect><rect x="10" y="0" width="2.5" height="2.5" fill="rgb(42,0,212)" tooltip="enable"><title>(2,0 36)</title></rect><rect x="15" y="0" width="2.5" height="2.5" fill="rgb(30,0,224)" tooltip="enable"><title>(3,0 26)</title></rect><rect x="20" y="0" width="2.5" height="2.5" fill="rgb(42,0,212)" tooltip="enable"><title>(4,0 36)</title></rect><rect x="25" y="0" width="2.5" height="2.5" fill="rgb(35,0,219)" tooltip="enable"><title>(5,0 30)</title></rect><rect x="30" y="0" width="2.5" height="2.5" fill="rgb(36,0,218)" tooltip="enable"><title>(6,0 31)</title></rect><rect x="35" y="0" width="2.5" height="2.5" fill="rgb(25,0,229)" tooltip="enable"><title>(7,0 22)</title></rect><rect x="40" y="0" width="2.5" height="2.5" fill="rgb(36,0,218)" tooltip="enable"><title>(8,0 31)</title></rect><rect x="45" y="0" width="2.5" height="2.5" fill="rgb(54,0,200)" tooltip="enable"><title>(9,0 46)</title></rect><rect x="50" y="0" width="2.5" height="2.5" fill="rgb(43,0,211)" tooltip="enable"><title>(10,0 37)</title></rect><rect x="55" y="0" width="2.5" height="2.5" fill="rgb(65,0,189)" tooltip="enable"><title>(11,0 56)</title></rect><rect x="60" y="0" width="2.5" height="2.5" fill="rgb(68,0,186)" tooltip="enable"><title>(12,0 58)</title></rect><rect x="65" y="0" width="2.5" height="2.5" fill="rgb(66,0,188)" tooltip="enable"><title>(13,0 57)</title></rect><rect x="70" y="0" width="2.5" height="2.5" fill="rgb(79,0,175)" tooltip="enable"><title>(14,0 68)</title></rect><rect x="75" y="0" width="2.5" height="2.5" fill="rgb(32,0,222)" tooltip="enable"><title>(15,0 28)</title></rect><rect x="80" y="0" width="2.5" height="2.5" fill="rgb(35,0,219)" tooltip="enable"><title>(16,0 30)</title></rect><rect x="85" y="0" width="2.5" height="2.5" fill="rgb(37,0,217)" tooltip="enable"><title>(17,0 32)</title></rect><rect x="10" y="5" width="2.5" height="2.5" fill="rgb(28,0,226)" tooltip="enable"><title>(2,1 24)</title></rect><rect x="15" y="5" width="2.5" height="2.5" fill="rgb(31,0,223)" tooltip="enable"><title>(3,1 27)</title></rect><rect x="20" y="5" width="2.5" height="2.5" fill="rgb(30,0,224)" tooltip="enable"><title>(4,1 26)</title></rect><rect x="25" y="5" width="2.5" height="2.5" fill="rgb(28,0,226)" tooltip="enable"><title>(5,1 24)</title></rect><rect x="30" y="5" width="2.5" height="2.5" fill="rgb(25,0,229)" tooltip="enable"><title>(6,1 22)</title></rect><rect x="35" y="5" width="2.5" height="2.5" fill="rgb(19,0,235)" tooltip="enable"><title>(7,1 17)</title></rect><rect x="40" y="5" width="2.5" height="2.5" fill="rgb(17,0,237)" tooltip="enable"><title>(8,1 15)</title></rect><rect x="45" y="5" width="2.5" height="2.5" fill="rgb(30,0,224)" tooltip="enable"><title>(9,1 26)</title></rect><rect x="50" y="5" width="2.5" height="2.5" fill="rgb(50,0,204)" tooltip="enable"><title>(10,1 43)</title></rect><rect x="55" y="5" width="2.5" height="2.5" fill="rgb(61,0,193)" tooltip="enable"><title>(11,1 52)</title></rect><rect x="60" y="5" width="2.5" height="2.5" fill="rgb(62,0,192)" tooltip="enable"><title>(12,1 53)</title></rect><rect x="65" y="5" width="2.5" height="2.5" fill="rgb(131,0,123)" tooltip="enable"><title>(13,1 112)</title></rect><rect x="70" y="5" width="2.5" height="2.5" fill="rgb(34,0,220)" tooltip="enable"><title>(14,1 29)</title></rect><rect x="75" y="5" width="2.5" height="2.5" fill="rgb(18,0,236)" tooltip="enable"><title>(15,1 16)</title></rect><rect x="80" y="5" width="2.5" height="2.5" fill="rgb(17,0,237)" tooltip="enable"><title>(16,1 15)</title></rect><rect x="85" y="5" width="2.5" height="2.5" fill="rgb(21,0,233)" tooltip="enable"><title>(17,1 18)</title></rect><rect x="15" y="10" width="2.5" height="2.5" fill="rgb(144,0,110)" tooltip="enable"><title>(3,2 123)</title></rect><rect x="20" y="10" width="2.5" height="2.5" fill="rgb(163,0,91)" tooltip="enable"><title>(4,2 139)</title></rect><rect x="25" y="10" width="2.5" height="2.5" fill="rgb(156,0,98)" tooltip="enable"><title>(5,2 133)</title></rect><rect x="30" y="10" width="2.5" height="2.5" fill="rgb(121,0,133)" tooltip="enable"><title>(6,2 103)</title></rect><rect x="35" y="10" width="2.5" height="2.5" fill="rgb(58,0,196)" tooltip="enable"><title>(7,2 50)</title></rect><rect x="40" y="10" width="2.5" height="2.5" fill="rgb(45,0,209)" tooltip="enable"><title>(8,2 39)</title></rect><rect x="45" y="10" width="2.5" height="2.5" fill="rgb(31,0,223)" tooltip="enable"><title>(9,2 27)</title></rect><rect x="50" y="10" width="2.5" height="2.5" fill="rgb(36,0,218)" tooltip="enable"><title>(10,2 31)</title></rect><rect x="55" y="10" width="2.5" height="2.5" fill="rgb(54,0,200)" tooltip="enable"><title>(11,2 46)</title></rect><rect x="60" y="10" width="2.5" height="2.5" fill="rgb(47,0,207)" tooltip="enable"><title>(12,2 40)</title></rect><rect x="65" y="10" width="2.5" height="2.5" fill="rgb(28,0,226)" tooltip="enable"><title>(13,2 24)</title></rect><rect x="70" y="10" width="2.5" height="2.5" fill="rgb(22,0,232)" tooltip="enable"><title>(14,2 19)</title></rect><rect x="75" y="10" width="2.5" height="2.5" fill="rgb(44,0,210)" tooltip="enable"><title>(15,2 38)</title></rect><rect x="80" y="10" width="2.5" height="2.5" fill="rgb(62,0,192)" tooltip="enable"><title>(16,2 53)</title></rect><rect x="85" y="10" width="2.5" height="2.5" fill="rgb(110,0,144)" tooltip="enable"><title>(17,2 94)</title></rect><rect x="20" y="15" width="2.5" height="2.5" fill="rgb(206,0,48)" tooltip="enable"><title>(4,3 176)</title></rect><rect x="25" y="15" width="2.5" height="2.5" fill="rgb(165,0,89)" tooltip="enable"><title>(5,3 141)</title></rect><rect x="30" y="15" width="2.5" height="2.5" fill="rgb(81,0,173)" tooltip="enable"><title>(6,3 69)</title></rect><rect x="35" y="15" width="2.5" height="2.5" fill="rgb(43,0,211)" tooltip="enable"><title>(7,3 37)</title></rect><rect x="40" y="15" width="2.5" height="2.5" fill="rgb(28,0,226)" tooltip="enable"><title>(8,3 24)</title></rect><rect x="45" y="15" width="2.5" height="2.5" fill="rgb(22,0,232)" tooltip="enable"><title>(9,3 19)</title></rect><rect x="50" y="15" width="2.5" height="2.5" fill="rgb(30,0,224)" tooltip="enable"><title>(10,3 26)</title></rect><rect x="55" y="15" width="2.5" height="2.5" fill="rgb(44,0,210)" tooltip="enable"><title>(11,3 38)</title></rect><rect x="60" y="15" width="2.5" height="2.5" fill="rgb(37,0,217)" tooltip="enable"><title>(12,3 32)</title></rect><rect x="65" y="15" width="2.5" height="2.5" fill="rgb(24,0,230)" tooltip="enable"><title>(13,3 21)</title></rect><rect x="70" y="15" width="2.5" height="2.5" fill="rgb(22,0,232)" tooltip="enable"><title>(14,3 19)</title></rect><rect x="75" y="15" width="2.5" height="2.5" fill="rgb(25,0,229)" tooltip="enable"><title>(15,3 22)</title></rect><rect x="80" y="15" width="2.5" height="2.5" fill="rgb(48,0,206)" tooltip="enable"><title>(16,3 41)</title></rect><rect x="85" y="15" width="2.5" height="2.5" fill="rgb(72,0,182)" tooltip="enable"><title>(17,3 62)</title></rect><rect x="25" y="20" width="2.5" height="2.5" fill="rgb(164,0,90)" tooltip="enable"><title>(5,4 140)</title></rect><rect x="30" y="20" width="2.5" height="2.5" fill="rgb(78,0,176)" tooltip="enable"><title>(6,4 67)</title></rect><rect x="35" y="20" width="2.5" height="2.5" fill="rgb(49,0,205)" tooltip="enable"><title>(7,4 42)</title></rect><rect x="40" y="20" width="2.5" height="2.5" fill="rgb(34,0,220)" tooltip="enable"><title>(8,4 29)</title></rect><rect x="45" y="20" width="2.5" height="2.5" fill="rgb(17,0,237)" tooltip="enable"><title>(9,4 15)</title></rect><rect x="50" y="20" width="2.5" height="2.5" fill="rgb(27,0,227)" tooltip="enable"><title>(10,4 23)</title></rect><rect x="55" y="20" width="2.5" height="2.5" fill="rgb(54,0,200)" tooltip="enable"><title>(11,4 46)</title></rect><rect x="60" y="20" width="2.5" height="2.5" fill="rgb(43,0,211)" tooltip="enable"><title>(12,4 37)</title></rect><rect x="65" y="20" width="2.5" height="2.5" fill="rgb(27,0,227)" tooltip="enable"><title>(13,4 23)</title></rect><rect x="70" y="20" width="2.5" height="2.5" fill="rgb(16,0,238)" tooltip="enable"><title>(14,4 14)</title></rect><rect x="75" y="20" width="2.5" height="2.5" fill="rgb(25,0,229)" tooltip="enable"><title>(15,4 22)</title></rect><rect x="80" y="20" width="2.5" height="2.5" fill="rgb(43,0,211)" tooltip="enable"><title>(16,4 37)</title></rect><rect x="85" y="20" width="2.5" height="2.5" fill="rgb(81,0,173)" tooltip="enable"><title>(17,4 69)</title></rect><rect x="30" y="25" width="2.5" height="2.5" fill="rgb(95,0,159)" tooltip="enable"><title>(6,5 81)</title></rect><rect x="35" y="25" width="2.5" height="2.5" fill="rgb(50,0,204)" tooltip="enable"><title>(7,5 43)</title></rect><rect x="40" y="25" width="2.5" height="2.5" fill="rgb(36,0,218)" tooltip="enable"><title>(8,5 31)</title></rect><rect x="45" y="25" width="2.5" height="2.5" fill="rgb(27,0,227)" tooltip="enable"><title>(9,5 23)</title></rect><rect x="50" y="25" width="2.5" height="2.5" fill="rgb(35,0,219)" tooltip="enable"><title>(10,5 30)</title></rect><rect x="55" y="25" width="2.5" height="2.5" fill="rgb(47,0,207)" tooltip="enable"><title>(11,5 40)</title></rect><rect x="60" y="25" width="2.5" height="2.5" fill="rgb(48,0,206)" tooltip="enable"><title>(12,5 41)</title></rect><rect x="65" y="25" width="2.5" height="2.5" fill="rgb(28,0,226)" tooltip="enable"><title>(13,5 24)</title></rect><rect x="70" y="25" width="2.5" height="2.5" fill="rgb(15,0,239)" tooltip="enable"><title>(14,5 13)</title></rect><rect x="75" y="25" width="2.5" height="2.5" fill="rgb(30,0,224)" tooltip="enable"><title>(15,5 26)</title></rect><rect x="80" y="25" width="2.5" height="2.5" fill="rgb(44,0,210)" tooltip="enable"><title>(16,5 38)</title></rect><rect x="85" y="25" width="2.5" height="2.5" fill="rgb(99,0,155)" tooltip="enable"><title>(17,5 85)</title></rect><rect x="35" y="30" width="2.5" height="2.5" fill="rgb(76,0,178)" tooltip="enable"><title>(7,6 65)</title></rect><rect x="40" y="30" width="2.5" height="2.5" fill="rgb(50,0,204)" tooltip="enable"><title>(8,6 43)</title></rect><rect x="45" y="30" width="2.5" height="2.5" fill="rgb(24,0,230)" tooltip="enable"><title>(9,6 21)</title></rect><rect x="50" y="30" width="2.5" height="2.5" fill="rgb(35,0,219)" tooltip="enable"><title>(10,6 30)</title></rect><rect x="55" y="30" width="2.5" height="2.5" fill="rgb(49,0,205)" tooltip="enable"><title>(11,6 42)</title></rect><rect x="60" y="30" width="2.5" height="2.5" fill="rgb(30,0,224)" tooltip="enable"><title>(12,6 26)</title></rect><rect x="65" y="30" width="2.5" height="2.5" fill="rgb(30,0,224)" tooltip="enable"><title>(13,6 26)</title></rect><rect x="70" y="30" width="2.5" height="2.5" fill="rgb(9,0,245)" tooltip="enable"><title>(14,6 8)</title></rect><rect x="75" y="30" width="2.5" height="2.5" fill="rgb(35,0,219)" tooltip="enable"><title>(15,6 30)</title></rect><rect x="80" y="30" width="2.5" height="2.5" fill="rgb(71,0,183)" tooltip="enable"><title>(16,6 61)</title></rect><rect x="85" y="30" width="2.5" height="2.5" fill="rgb(118,0,136)" tooltip="enable"><title>(17,6 101)</title></rect><rect x="40" y="35" width="2.5" height="2.5" fill="rgb(59,0,195)" tooltip="enable"><title>(8,7 51)</title></rect><rect x="45" y="35" width="2.5" height="2.5" fill="rgb(32,0,222)" tooltip="enable"><title>(9,7 28)</title></rect><rect x="50" y="35" width="2.5" height="2.5" fill="rgb(31,0,223)" tooltip="enable"><title>(10,7 27)</title></rect><rect x="55" y="35" width="2.5" height="2.5" fill="rgb(37,0,217)" tooltip="enable"><title>(11,7 32)</title></rect><rect x="60" y="35" width="2.5" height="2.5" fill="rgb(28,0,226)" tooltip="enable"><title>(12,7 24)</title></rect><rect x="65" y="35" width="2.5" height="2.5" fill="rgb(25,0,229)" tooltip="enable"><title>(13,7 22)</title></rect><rect x="70" y="35" width="2.5" height="2.5" fill="rgb(28,0,226)" tooltip="enable"><title>(14,7 24)</title></rect><rect x="75" y="35" width="2.5" height="2.5" fill="rgb(38,0,216)" tooltip="enable"><title>(15,7 33)</title></rect><rect x="80" y="35" width="2.5" height="2.5" fill="rgb(97,0,157)" tooltip="enable"><title>(16,7 83)</title></rect><rect x="85" y="35" width="2.5" height="2.5" fill="rgb(89,0,165)" tooltip="enable"><title>(17,7 76)</title></rect><rect x="45" y="40" width="2.5" height="2.5" fill="rgb(56,0,198)" tooltip="enable"><title>(9,8 48)</title></rect><rect x="50" y="40" width="2.5" height="2.5" fill="rgb(28,0,226)" tooltip="enable"><title>(10,8 24)</title></rect><rect x="55" y="40" width="2.5" height="2.5" fill="rgb(39,0,215)" tooltip="enable"><title>(11,8 34)</title></rect><rect x="60" y="40" width="2.5" height="2.5" fill="rgb(41,0,213)" tooltip="enable"><title>(12,8 35)</title></rect><rect x="65" y="40" width="2.5" height="2.5" fill="rgb(31,0,223)" tooltip="enable"><title>(13,8 27)</title></rect><rect x="70" y="40" width="2.5" height="2.5" fill="rgb(30,0,224)" tooltip="enable"><title>(14,8 26)</title></rect><rect x="75" y="40" width="2.5" height="2.5" fill="rgb(75,0,179)" tooltip="enable"><title>(15,8 64)</title></rect><rect x="80" y="40" width="2.5" height="2.5" fill="rgb(63,0,191)" tooltip="enable"><title>(16,8 54)</title></rect><rect x="85" y="40" width="2.5" height="2.5" fill="rgb(52,0,202)" tooltip="enable"><title>(17,8 45)</title></rect><rect x="50" y="45" width="2.5" height="2.5" fill="rgb(34,0,220)" tooltip="enable"><title>(10,9 29)</title></rect><rect x="55" y="45" width="2.5" height="2.5" fill="rgb(49,0,205)" tooltip="enable"><title>(11,9 42)</title></rect><rect x="60" y="45" width="2.5" height="2.5" fill="rgb(37,0,217)" tooltip="enable"><title>(12,9 32)</title></rect><rect x="65" y="45" width="2.5" height="2.5" fill="rgb(30,0,224)" tooltip="enable"><title>(13,9 26)</title></rect><rect x="70" y="45" width="2.5" height="2.5" fill="rgb(48,0,206)" tooltip="enable"><title>(14,9 41)</title></rect><rect x="75" y="45" width="2.5" height="2.5" fill="rgb(51,0,203)" tooltip="enable"><title>(15,9 44)</title></rect><rect x="80" y="45" width="2.5" height="2.5" fill="rgb(32,0,222)" tooltip="enable"><title>(16,9 28)</title></rect><rect x="85" y="45" width="2.5" height="2.5" fill="rgb(31,0,223)" tooltip="enable"><title>(17,9 27)</title></rect><rect x="55" y="50" width="2.5" height="2.5" fill="rgb(143,0,111)" tooltip="enable"><title>(11,10 122)</title></rect><rect x="60" y="50" width="2.5" height="2.5" fill="rgb(255,0,0)" tooltip="enable"><title>(12,10 217)</title></rect><rect x="65" y="50" width="2.5" height="2.5" fill="rgb(66,0,188)" tooltip="enable"><title>(13,10 57)</title></rect><rect x="70" y="50" width="2.5" height="2.5" fill="rgb(29,0,225)" tooltip="enable"><title>(14,10 25)</title></rect><rect x="75" y="50" width="2.5" height="2.5" fill="rgb(24,0,230)" tooltip="enable"><title>(15,10 21)</title></rect><rect x="80" y="50" width="2.5" height="2.5" fill="rgb(16,0,238)" tooltip="enable"><title>(16,10 14)</title></rect><rect x="85" y="50" width="2.5" height="2.5" fill="rgb(28,0,226)" tooltip="enable"><title>(17,10 24)</title></rect><rect x="60" y="55" width="2.5" height="2.5" fill="rgb(172,0,82)" tooltip="enable"><title>(12,11 147)</title></rect><rect x="65" y="55" width="2.5" height="2.5" fill="rgb(58,0,196)" tooltip="enable"><title>(13,11 50)</title></rect><rect x="70" y="55" width="2.5" height="2.5" fill="rgb(25,0,229)" tooltip="enable"><title>(14,11 22)</title></rect><rect x="75" y="55" width="2.5" height="2.5" fill="rgb(23,0,231)" tooltip="enable"><title>(15,11 20)</title></rect><rect x="80" y="55" width="2.5" height="2.5" fill="rgb(27,0,227)" tooltip="enable"><title>(16,11 23)</title></rect><rect x="85" y="55" width="2.5" height="2.5" fill="rgb(28,0,226)" tooltip="enable"><title>(17,11 24)</title></rect><rect x="65" y="60" width="2.5" height="2.5" fill="rgb(61,0,193)" tooltip="enable"><title>(13,12 52)</title></rect><rect x="70" y="60" width="2.5" height="2.5" fill="rgb(37,0,217)" tooltip="enable"><title>(14,12 32)</title></rect><rect x="75" y="60" width="2.5" height="2.5" fill="rgb(30,0,224)" tooltip="enable"><title>(15,12 26)</title></rect><rect x="80" y="60" width="2.5" height="2.5" fill="rgb(16,0,238)" tooltip="enable"><title>(16,12 14)</title></rect><rect x="85" y="60" width="2.5" height="2.5" fill="rgb(42,0,212)" tooltip="enable"><title>(17,12 36)</title></rect><rect x="70" y="65" width="2.5" height="2.5" fill="rgb(44,0,210)" tooltip="enable"><title>(14,13 38)</title></rect><rect x="75" y="65" width="2.5" height="2.5" fill="rgb(31,0,223)" tooltip="enable"><title>(15,13 27)</title></rect><rect x="80" y="65" width="2.5" height="2.5" fill="rgb(23,0,231)" tooltip="enable"><title>(16,13 20)</title></rect><rect x="85" y="65" width="2.5" height="2.5" fill="rgb(28,0,226)" tooltip="enable"><title>(17,13 24)</title></rect><rect x="75" y="70" width="2.5" height="2.5" fill="rgb(43,0,211)" tooltip="enable"><title>(15,14 37)</title></rect><rect x="80" y="70" width="2.5" height="2.5" fill="rgb(24,0,230)" tooltip="enable"><title>(16,14 21)</title></rect><rect x="85" y="70" width="2.5" height="2.5" fill="rgb(38,0,216)" tooltip="enable"><title>(17,14 33)</title></rect><rect x="80" y="75" width="2.5" height="2.5" fill="rgb(51,0,203)" tooltip="enable"><title>(16,15 44)</title></rect><rect x="85" y="75" width="2.5" height="2.5" fill="rgb(39,0,215)" tooltip="enable"><title>(17,15 34)</title></rect><rect x="85" y="80" width="2.5" height="2.5" fill="rgb(71,0,183)" tooltip="enable"><title>(17,16 61)</title></rect><text x="95" y="5" font-size="5" fill="black">0</text>
<text x="95" y="85" font-size="5" fill="black">18</text>
<polyline points="95,10,95,80" stroke="black" stroke-width="1" fill="none"/>
<text x="5" y="95" font-size="5" fill="black">0</text>
<text x="85" y="95" font-size="5" fill="black">18</text>
<polyline points="10,95,80,95" stroke="black" stroke-width="1" fill="none"/>
</svg>