<?xml version="1.0" standalone="yes"?>
<!-- SVG graphic -->
<svg xmlns='http://www.w3.org/2000/svg' xmlns:xlink='http://www.w3.org/1999/xlink'
width="175px" height="175px" preserveAspectRatio="xMinYMin meet" viewBox="0 0 175 175" version="1.1">
<rect x="80" y="5" width="2.5" height="2.5" fill="rgb(75,0,179)" tooltip="enable"><title>(16,1 44)</title></rect><rect x="95" y="5" width="2.5" height="2.5" fill="rgb(62,0,192)" tooltip="enable"><title>(19,1 36)</title></rect><rect x="100" y="5" width="2.5" height="2.5" fill="rgb(72,0,182)" tooltip="enable"><title>(20,1 42)</title></rect><rect x="105" y="5" width="2.5" height="2.5" fill="rgb(55,0,199)" tooltip="enable"><title>(21,1 32)</title></rect><rect x="150" y="5" width="2.5" height="2.5" fill="rgb(62,0,192)" tooltip="enable"><title>(30,1 36)</title></rect><rect x="155" y="5" width="2.5" height="2.5" fill="rgb(55,0,199)" tooltip="enable"><title>(31,1 32)</title></rect><rect x="50" y="45" width="2.5" height="2.5" fill="rgb(48,0,206)" tooltip="enable"><title>(10,9 28)</title></rect><rect x="55" y="45" width="2.5" height="2.5" fill="rgb(34,0,220)" tooltip="enable"><title>(11,9 20)</title></rect><rect x="65" y="45" width="2.5" height="2.5" fill="rgb(31,0,223)" tooltip="enable"><title>(13,9 18)</title></rect><rect x="75" y="45" width="2.5" height="2.5" fill="rgb(31,0,223)" tooltip="enable"><title>(15,9 18)</title></rect><rect x="85" y="45" width="2.5" height="2.5" fill="rgb(37,0,217)" tooltip="enable"><title>(17,9 22)</title></rect><rect x="90" y="45" width="2.5" height="2.5" fill="rgb(44,0,210)" tooltip="enable"><title>(18,9 26)</title></rect><rect x="130" y="45" width="2.5" height="2.5" fill="rgb(96,0,158)" tooltip="enable"><title>(26,9 56)</title></rect><rect x="135" y="45" width="2.5" height="2.5" fill="rgb(34,0,220)" tooltip="enable"><title>(27,9 20)</title></rect><rect x="145" y="45" width="2.5" height="2.5" fill="rgb(37,0,217)" tooltip="enable"><title>(29,9 22)</title></rect><rect x="55" y="50" width="2.5" height="2.5" fill="rgb(48,0,206)" tooltip="enable"><title>(11,10 28)</title></rect><rect x="65" y="50" width="2.5" height="2.5" fill="rgb(37,0,217)" tooltip="enable"><title>(13,10 22)</title></rect><rect x="75" y="50" width="2.5" height="2.5" fill="rgb(32,0,222)" tooltip="enable"><title>(15,10 19)</title></rect><rect x="85" y="50" width="2.5" height="2.5" fill="rgb(49,0,205)" tooltip="enable"><title>(17,10 29)</title></rect><rect x="90" y="50" width="2.5" height="2.5" fill="rgb(46,0,208)" tooltip="enable"><title>(18,10 27)</title></rect><rect x="130" y="50" width="2.5" height="2.5" fill="rgb(46,0,208)" tooltip="enable"><title>(26,10 27)</title></rect><rect x="135" y="50" width="2.5" height="2.5" fill="rgb(48,0,206)" tooltip="enable"><title>(27,10 28)</title></rect><rect x="145" y="50" width="2.5" height="2.5" fill="rgb(49,0,205)" tooltip="enable"><title>(29,10 29)</title></rect><rect x="65" y="55" width="2.5" height="2.5" fill="rgb(36,0,218)" tooltip="enable"><title>(13,11 21)</title></rect><rect x="75" y="55" width="2.5" height="2.5" fill="rgb(48,0,206)" tooltip="enable"><title>(15,11 28)</title></rect><rect x="85" y="55" width="2.5" height="2.5" fill="rgb(44,0,210)" tooltip="enable"><title>(17,11 26)</title></rect><rect x="90" y="55" width="2.5" height="2.5" fill="rgb(43,0,211)" tooltip="enable"><title>(18,11 25)</title></rect><rect x="130" y="55" width="2.5" height="2.5" fill="rgb(31,0,223)" tooltip="enable"><title>(26,11 18)</title></rect><rect x="135" y="55" width="2.5" height="2.5" fill="rgb(127,0,127)" tooltip="enable"><title>(27,11 74)</title></rect><rect x="145" y="55" width="2.5" height="2.5" fill="rgb(44,0,210)" tooltip="enable"><title>(29,11 26)</title></rect><rect x="75" y="65" width="2.5" height="2.5" fill="rgb(39,0,215)" tooltip="enable"><title>(15,13 23)</title></rect><rect x="85" y="65" width="2.5" height="2.5" fill="rgb(37,0,217)" tooltip="enable"><title>(17,13 22)</title></rect><rect x="90" y="65" width="2.5" height="2.5" fill="rgb(37,0,217)" tooltip="enable"><title>(18,13 22)</title></rect><rect x="135" y="65" width="2.5" height="2.5" fill="rgb(34,0,220)" tooltip="enable"><title>(27,13 20)</title></rect><rect x="145" y="65" width="2.5" height="2.5" fill="rgb(37,0,217)" tooltip="enable"><title>(29,13 22)</title></rect><rect x="140" y="70" width="2.5" height="2.5" fill="rgb(43,0,211)" tooltip="enable"><title>(28,14 25)</title></rect><rect x="85" y="75" width="2.5" height="2.5" fill="rgb(65,0,189)" tooltip="enable"><title>(17,15 38)</title></rect><rect x="90" y="75" width="2.5" height="2.5" fill="rgb(67,0,187)" tooltip="enable"><title>(18,15 39)</title></rect><rect x="130" y="75" width="2.5" height="2.5" fill="rgb(36,0,218)" tooltip="enable"><title>(26,15 21)</title></rect><rect x="135" y="75" width="2.5" height="2.5" fill="rgb(41,0,213)" tooltip="enable"><title>(27,15 24)</title></rect><rect x="145" y="75" width="2.5" height="2.5" fill="rgb(65,0,189)" tooltip="enable"><title>(29,15 38)</title></rect><rect x="95" y="80" width="2.5" height="2.5" fill="rgb(118,0,136)" tooltip="enable"><title>(19,16 69)</title></rect><rect x="100" y="80" width="2.5" height="2.5" fill="rgb(111,0,143)" tooltip="enable"><title>(20,16 65)</title></rect><rect x="105" y="80" width="2.5" height="2.5" fill="rgb(48,0,206)" tooltip="enable"><title>(21,16 28)</title></rect><rect x="150" y="80" width="2.5" height="2.5" fill="rgb(115,0,139)" tooltip="enable"><title>(30,16 67)</title></rect><rect x="155" y="80" width="2.5" height="2.5" fill="rgb(48,0,206)" tooltip="enable"><title>(31,16 28)</title></rect><rect x="90" y="85" width="2.5" height="2.5" fill="rgb(120,0,134)" tooltip="enable"><title>(18,17 70)</title></rect><rect x="130" y="85" width="2.5" height="2.5" fill="rgb(43,0,211)" tooltip="enable"><title>(26,17 25)</title></rect><rect x="135" y="85" width="2.5" height="2.5" fill="rgb(62,0,192)" tooltip="enable"><title>(27,17 36)</title></rect><rect x="140" y="85" width="2.5" height="2.5" fill="rgb(32,0,222)" tooltip="enable"><title>(28,17 19)</title></rect><rect x="145" y="85" width="2.5" height="2.5" fill="rgb(255,0,0)" tooltip="enable"><title>(29,17 148)</title></rect><rect x="130" y="90" width="2.5" height="2.5" fill="rgb(56,0,198)" tooltip="enable"><title>(26,18 33)</title></rect><rect x="135" y="90" width="2.5" height="2.5" fill="rgb(34,0,220)" tooltip="enable"><title>(27,18 20)</title></rect><rect x="140" y="90" width="2.5" height="2.5" fill="rgb(41,0,213)" tooltip="enable"><title>(28,18 24)</title></rect><rect x="145" y="90" width="2.5" height="2.5" fill="rgb(108,0,146)" tooltip="enable"><title>(29,18 63)</title></rect><rect x="100" y="95" width="2.5" height="2.5" fill="rgb(132,0,122)" tooltip="enable"><title>(20,19 77)</title></rect><rect x="105" y="95" width="2.5" height="2.5" fill="rgb(46,0,208)" tooltip="enable"><title>(21,19 27)</title></rect><rect x="150" y="95" width="2.5" height="2.5" fill="rgb(237,0,17)" tooltip="enable"><title>(30,19 138)</title></rect><rect x="155" y="95" width="2.5" height="2.5" fill="rgb(46,0,208)" tooltip="enable"><title>(31,19 27)</title></rect><rect x="105" y="100" width="2.5" height="2.5" fill="rgb(55,0,199)" tooltip="enable"><title>(21,20 32)</title></rect><rect x="150" y="100" width="2.5" height="2.5" fill="rgb(127,0,127)" tooltip="enable"><title>(30,20 74)</title></rect><rect x="155" y="100" width="2.5" height="2.5" fill="rgb(55,0,199)" tooltip="enable"><title>(31,20 32)</title></rect><rect x="150" y="105" width="2.5" height="2.5" fill="rgb(41,0,213)" tooltip="enable"><title>(30,21 24)</title></rect><rect x="155" y="105" width="2.5" height="2.5" fill="rgb(106,0,148)" tooltip="enable"><title>(31,21 62)</title></rect><rect x="130" y="115" width="2.5" height="2.5" fill="rgb(31,0,223)" tooltip="enable"><title>(26,23 18)</title></rect><rect x="135" y="130" width="2.5" height="2.5" fill="rgb(34,0,220)" tooltip="enable"><title>(27,26 20)</title></rect><rect x="145" y="130" width="2.5" height="2.5" fill="rgb(37,0,217)" tooltip="enable"><title>(29,26 22)</title></rect><rect x="145" y="135" width="2.5" height="2.5" fill="rgb(44,0,210)" tooltip="enable"><title>(29,27 26)</title></rect><rect x="155" y="150" width="2.5" height="2.5" fill="rgb(46,0,208)" tooltip="enable"><title>(31,30 27)</title></rect><text x="165" y="5" font-size="5" fill="black">0</text>
<text x="165" y="155" font-size="5" fill="black">32</text>
<polyline points="165,10,165,150" stroke="black" stroke-width="1" fill="none"/>
<text x="5" y="165" font-size="5" fill="black">0</text>
<text x="155" y="165" font-size="5" fill="black">32</text>
<polyline points="10,165,150,165" stroke="black" stroke-width="1" fill="none"/>
</svg>