<?xml version="1.0" standalone="yes"?>
<!-- SVG graphic -->
<svg xmlns='http://www.w3.org/2000/svg' xmlns:xlink='http://www.w3.org/1999/xlink'
width="175px" height="175px" preserveAspectRatio="xMinYMin meet" viewBox="0 0 175 175" version="1.1">
<rect x="5" y="0" width="2.5" height="2.5" fill="rgb(10,0,244)" tooltip="enable"><title>(1,0 6)</title></rect><rect x="10" y="0" width="2.5" height="2.5" fill="rgb(3,0,251)" tooltip="enable"><title>(2,0 2)</title></rect><rect x="35" y="0" width="2.5" height="2.5" fill="rgb(1,0,253)" tooltip="enable"><title>(7,0 1)</title></rect><rect x="45" y="0" width="2.5" height="2.5" fill="rgb(3,0,251)" tooltip="enable"><title>(9,0 2)</title></rect><rect x="50" y="0" width="2.5" height="2.5" fill="rgb(1,0,253)" tooltip="enable"><title>(10,0 1)</title></rect><rect x="55" y="0" width="2.5" height="2.5" fill="rgb(3,0,251)" tooltip="enable"><title>(11,0 2)</title></rect><rect x="65" y="0" width="2.5" height="2.5" fill="rgb(1,0,253)" tooltip="enable"><title>(13,0 1)</title></rect><rect x="80" y="0" width="2.5" height="2.5" fill="rgb(5,0,249)" tooltip="enable"><title>(16,0 3)</title></rect><rect x="85" y="0" width="2.5" height="2.5" fill="rgb(1,0,253)" tooltip="enable"><title>(17,0 1)</title></rect><rect x="90" y="0" width="2.5" height="2.5" fill="rgb(5,0,249)" tooltip="enable"><title>(18,0 3)</title></rect><rect x="95" y="0" width="2.5" height="2.5" fill="rgb(10,0,244)" tooltip="enable"><title>(19,0 6)</title></rect><rect x="100" y="0" width="2.5" height="2.5" fill="rgb(10,0,244)" tooltip="enable"><title>(20,0 6)</title></rect><rect x="105" y="0" width="2.5" height="2.5" fill="rgb(12,0,242)" tooltip="enable"><title>(21,0 7)</title></rect><rect x="110" y="0" width="2.5" height="2.5" fill="rgb(12,0,242)" tooltip="enable"><title>(22,0 7)</title></rect><rect x="115" y="0" width="2.5" height="2.5" fill="rgb(3,0,251)" tooltip="enable"><title>(23,0 2)</title></rect><rect x="120" y="0" width="2.5" height="2.5" fill="rgb(3,0,251)" tooltip="enable"><title>(24,0 2)</title></rect><rect x="125" y="0" width="2.5" height="2.5" fill="rgb(1,0,253)" tooltip="enable"><title>(25,0 1)</title></rect><rect x="130" y="0" width="2.5" height="2.5" fill="rgb(3,0,251)" tooltip="enable"><title>(26,0 2)</title></rect><rect x="135" y="0" width="2.5" height="2.5" fill="rgb(3,0,251)" tooltip="enable"><title>(27,0 2)</title></rect><rect x="145" y="0" width="2.5" height="2.5" fill="rgb(1,0,253)" tooltip="enable"><title>(29,0 1)</title></rect><rect x="150" y="0" width="2.5" height="2.5" fill="rgb(10,0,244)" tooltip="enable"><title>(30,0 6)</title></rect><rect x="155" y="0" width="2.5" height="2.5" fill="rgb(12,0,242)" tooltip="enable"><title>(31,0 7)</title></rect><rect x="10" y="5" width="2.5" height="2.5" fill="rgb(1,0,253)" tooltip="enable"><title>(2,1 1)</title></rect><rect x="15" y="5" width="2.5" height="2.5" fill="rgb(3,0,251)" tooltip="enable"><title>(3,1 2)</title></rect><rect x="30" y="5" width="2.5" height="2.5" fill="rgb(5,0,249)" tooltip="enable"><title>(6,1 3)</title></rect><rect x="35" y="5" width="2.5" height="2.5" fill="rgb(1,0,253)" tooltip="enable"><title>(7,1 1)</title></rect><rect x="40" y="5" width="2.5" height="2.5" fill="rgb(6,0,248)" tooltip="enable"><title>(8,1 4)</title></rect><rect x="45" y="5" width="2.5" height="2.5" fill="rgb(6,0,248)" tooltip="enable"><title>(9,1 4)</title></rect><rect x="50" y="5" width="2.5" height="2.5" fill="rgb(12,0,242)" tooltip="enable"><title>(10,1 7)</title></rect><rect x="55" y="5" width="2.5" height="2.5" fill="rgb(5,0,249)" tooltip="enable"><title>(11,1 3)</title></rect><rect x="60" y="5" width="2.5" height="2.5" fill="rgb(8,0,246)" tooltip="enable"><title>(12,1 5)</title></rect><rect x="65" y="5" width="2.5" height="2.5" fill="rgb(8,0,246)" tooltip="enable"><title>(13,1 5)</title></rect><rect x="70" y="5" width="2.5" height="2.5" fill="rgb(3,0,251)" tooltip="enable"><title>(14,1 2)</title></rect><rect x="75" y="5" width="2.5" height="2.5" fill="rgb(8,0,246)" tooltip="enable"><title>(15,1 5)</title></rect><rect x="80" y="5" width="2.5" height="2.5" fill="rgb(82,0,172)" tooltip="enable"><title>(16,1 48)</title></rect><rect x="85" y="5" width="2.5" height="2.5" fill="rgb(18,0,236)" tooltip="enable"><title>(17,1 11)</title></rect><rect x="90" y="5" width="2.5" height="2.5" fill="rgb(12,0,242)" tooltip="enable"><title>(18,1 7)</title></rect><rect x="95" y="5" width="2.5" height="2.5" fill="rgb(68,0,186)" tooltip="enable"><title>(19,1 40)</title></rect><rect x="100" y="5" width="2.5" height="2.5" fill="rgb(79,0,175)" tooltip="enable"><title>(20,1 46)</title></rect><rect x="105" y="5" width="2.5" height="2.5" fill="rgb(60,0,194)" tooltip="enable"><title>(21,1 35)</title></rect><rect x="110" y="5" width="2.5" height="2.5" fill="rgb(10,0,244)" tooltip="enable"><title>(22,1 6)</title></rect><rect x="115" y="5" width="2.5" height="2.5" fill="rgb(3,0,251)" tooltip="enable"><title>(23,1 2)</title></rect><rect x="120" y="5" width="2.5" height="2.5" fill="rgb(1,0,253)" tooltip="enable"><title>(24,1 1)</title></rect><rect x="125" y="5" width="2.5" height="2.5" fill="rgb(3,0,251)" tooltip="enable"><title>(25,1 2)</title></rect><rect x="130" y="5" width="2.5" height="2.5" fill="rgb(6,0,248)" tooltip="enable"><title>(26,1 4)</title></rect><rect x="135" y="5" width="2.5" height="2.5" fill="rgb(5,0,249)" tooltip="enable"><title>(27,1 3)</title></rect><rect x="140" y="5" width="2.5" height="2.5" fill="rgb(3,0,251)" tooltip="enable"><title>(28,1 2)</title></rect><rect x="145" y="5" width="2.5" height="2.5" fill="rgb(18,0,236)" tooltip="enable"><title>(29,1 11)</title></rect><rect x="150" y="5" width="2.5" height="2.5" fill="rgb(68,0,186)" tooltip="enable"><title>(30,1 40)</title></rect><rect x="155" y="5" width="2.5" height="2.5" fill="rgb(60,0,194)" tooltip="enable"><title>(31,1 35)</title></rect><rect x="30" y="10" width="2.5" height="2.5" fill="rgb(1,0,253)" tooltip="enable"><title>(6,2 1)</title></rect><rect x="40" y="10" width="2.5" height="2.5" fill="rgb(1,0,253)" tooltip="enable"><title>(8,2 1)</title></rect><rect x="115" y="10" width="2.5" height="2.5" fill="rgb(1,0,253)" tooltip="enable"><title>(23,2 1)</title></rect><rect x="120" y="10" width="2.5" height="2.5" fill="rgb(22,0,232)" tooltip="enable"><title>(24,2 13)</title></rect><rect x="105" y="15" width="2.5" height="2.5" fill="rgb(1,0,253)" tooltip="enable"><title>(21,3 1)</title></rect><rect x="155" y="15" width="2.5" height="2.5" fill="rgb(1,0,253)" tooltip="enable"><title>(31,3 1)</title></rect><rect x="50" y="20" width="2.5" height="2.5" fill="rgb(1,0,253)" tooltip="enable"><title>(10,4 1)</title></rect><rect x="55" y="20" width="2.5" height="2.5" fill="rgb(1,0,253)" tooltip="enable"><title>(11,4 1)</title></rect><rect x="60" y="20" width="2.5" height="2.5" fill="rgb(3,0,251)" tooltip="enable"><title>(12,4 2)</title></rect><rect x="75" y="20" width="2.5" height="2.5" fill="rgb(1,0,253)" tooltip="enable"><title>(15,4 1)</title></rect><rect x="80" y="20" width="2.5" height="2.5" fill="rgb(1,0,253)" tooltip="enable"><title>(16,4 1)</title></rect><rect x="85" y="20" width="2.5" height="2.5" fill="rgb(1,0,253)" tooltip="enable"><title>(17,4 1)</title></rect><rect x="90" y="20" width="2.5" height="2.5" fill="rgb(1,0,253)" tooltip="enable"><title>(18,4 1)</title></rect><rect x="95" y="20" width="2.5" height="2.5" fill="rgb(1,0,253)" tooltip="enable"><title>(19,4 1)</title></rect><rect x="100" y="20" width="2.5" height="2.5" fill="rgb(1,0,253)" tooltip="enable"><title>(20,4 1)</title></rect><rect x="135" y="20" width="2.5" height="2.5" fill="rgb(1,0,253)" tooltip="enable"><title>(27,4 1)</title></rect><rect x="145" y="20" width="2.5" height="2.5" fill="rgb(1,0,253)" tooltip="enable"><title>(29,4 1)</title></rect><rect x="150" y="20" width="2.5" height="2.5" fill="rgb(1,0,253)" tooltip="enable"><title>(30,4 1)</title></rect><rect x="30" y="25" width="2.5" height="2.5" fill="rgb(3,0,251)" tooltip="enable"><title>(6,5 2)</title></rect><rect x="45" y="25" width="2.5" height="2.5" fill="rgb(1,0,253)" tooltip="enable"><title>(9,5 1)</title></rect><rect x="50" y="25" width="2.5" height="2.5" fill="rgb(1,0,253)" tooltip="enable"><title>(10,5 1)</title></rect><rect x="65" y="25" width="2.5" height="2.5" fill="rgb(1,0,253)" tooltip="enable"><title>(13,5 1)</title></rect><rect x="80" y="25" width="2.5" height="2.5" fill="rgb(1,0,253)" tooltip="enable"><title>(16,5 1)</title></rect><rect x="100" y="25" width="2.5" height="2.5" fill="rgb(3,0,251)" tooltip="enable"><title>(20,5 2)</title></rect><rect x="105" y="25" width="2.5" height="2.5" fill="rgb(1,0,253)" tooltip="enable"><title>(21,5 1)</title></rect><rect x="130" y="25" width="2.5" height="2.5" fill="rgb(1,0,253)" tooltip="enable"><title>(26,5 1)</title></rect><rect x="155" y="25" width="2.5" height="2.5" fill="rgb(1,0,253)" tooltip="enable"><title>(31,5 1)</title></rect><rect x="35" y="30" width="2.5" height="2.5" fill="rgb(8,0,246)" tooltip="enable"><title>(7,6 5)</title></rect><rect x="45" y="30" width="2.5" height="2.5" fill="rgb(1,0,253)" tooltip="enable"><title>(9,6 1)</title></rect><rect x="50" y="30" width="2.5" height="2.5" fill="rgb(3,0,251)" tooltip="enable"><title>(10,6 2)</title></rect><rect x="55" y="30" width="2.5" height="2.5" fill="rgb(3,0,251)" tooltip="enable"><title>(11,6 2)</title></rect><rect x="60" y="30" width="2.5" height="2.5" fill="rgb(5,0,249)" tooltip="enable"><title>(12,6 3)</title></rect><rect x="65" y="30" width="2.5" height="2.5" fill="rgb(1,0,253)" tooltip="enable"><title>(13,6 1)</title></rect><rect x="70" y="30" width="2.5" height="2.5" fill="rgb(3,0,251)" tooltip="enable"><title>(14,6 2)</title></rect><rect x="75" y="30" width="2.5" height="2.5" fill="rgb(5,0,249)" tooltip="enable"><title>(15,6 3)</title></rect><rect x="80" y="30" width="2.5" height="2.5" fill="rgb(3,0,251)" tooltip="enable"><title>(16,6 2)</title></rect><rect x="85" y="30" width="2.5" height="2.5" fill="rgb(8,0,246)" tooltip="enable"><title>(17,6 5)</title></rect><rect x="90" y="30" width="2.5" height="2.5" fill="rgb(8,0,246)" tooltip="enable"><title>(18,6 5)</title></rect><rect x="95" y="30" width="2.5" height="2.5" fill="rgb(3,0,251)" tooltip="enable"><title>(19,6 2)</title></rect><rect x="100" y="30" width="2.5" height="2.5" fill="rgb(3,0,251)" tooltip="enable"><title>(20,6 2)</title></rect><rect x="105" y="30" width="2.5" height="2.5" fill="rgb(3,0,251)" tooltip="enable"><title>(21,6 2)</title></rect><rect x="115" y="30" width="2.5" height="2.5" fill="rgb(5,0,249)" tooltip="enable"><title>(23,6 3)</title></rect><rect x="120" y="30" width="2.5" height="2.5" fill="rgb(1,0,253)" tooltip="enable"><title>(24,6 1)</title></rect><rect x="130" y="30" width="2.5" height="2.5" fill="rgb(1,0,253)" tooltip="enable"><title>(26,6 1)</title></rect><rect x="135" y="30" width="2.5" height="2.5" fill="rgb(3,0,251)" tooltip="enable"><title>(27,6 2)</title></rect><rect x="140" y="30" width="2.5" height="2.5" fill="rgb(3,0,251)" tooltip="enable"><title>(28,6 2)</title></rect><rect x="145" y="30" width="2.5" height="2.5" fill="rgb(8,0,246)" tooltip="enable"><title>(29,6 5)</title></rect><rect x="150" y="30" width="2.5" height="2.5" fill="rgb(3,0,251)" tooltip="enable"><title>(30,6 2)</title></rect><rect x="155" y="30" width="2.5" height="2.5" fill="rgb(3,0,251)" tooltip="enable"><title>(31,6 2)</title></rect><rect x="40" y="35" width="2.5" height="2.5" fill="rgb(3,0,251)" tooltip="enable"><title>(8,7 2)</title></rect><rect x="45" y="35" width="2.5" height="2.5" fill="rgb(5,0,249)" tooltip="enable"><title>(9,7 3)</title></rect><rect x="50" y="35" width="2.5" height="2.5" fill="rgb(1,0,253)" tooltip="enable"><title>(10,7 1)</title></rect><rect x="60" y="35" width="2.5" height="2.5" fill="rgb(1,0,253)" tooltip="enable"><title>(12,7 1)</title></rect><rect x="80" y="35" width="2.5" height="2.5" fill="rgb(5,0,249)" tooltip="enable"><title>(16,7 3)</title></rect><rect x="85" y="35" width="2.5" height="2.5" fill="rgb(1,0,253)" tooltip="enable"><title>(17,7 1)</title></rect><rect x="90" y="35" width="2.5" height="2.5" fill="rgb(5,0,249)" tooltip="enable"><title>(18,7 3)</title></rect><rect x="95" y="35" width="2.5" height="2.5" fill="rgb(6,0,248)" tooltip="enable"><title>(19,7 4)</title></rect><rect x="100" y="35" width="2.5" height="2.5" fill="rgb(3,0,251)" tooltip="enable"><title>(20,7 2)</title></rect><rect x="110" y="35" width="2.5" height="2.5" fill="rgb(3,0,251)" tooltip="enable"><title>(22,7 2)</title></rect><rect x="115" y="35" width="2.5" height="2.5" fill="rgb(6,0,248)" tooltip="enable"><title>(23,7 4)</title></rect><rect x="120" y="35" width="2.5" height="2.5" fill="rgb(1,0,253)" tooltip="enable"><title>(24,7 1)</title></rect><rect x="130" y="35" width="2.5" height="2.5" fill="rgb(5,0,249)" tooltip="enable"><title>(26,7 3)</title></rect><rect x="145" y="35" width="2.5" height="2.5" fill="rgb(1,0,253)" tooltip="enable"><title>(29,7 1)</title></rect><rect x="150" y="35" width="2.5" height="2.5" fill="rgb(6,0,248)" tooltip="enable"><title>(30,7 4)</title></rect><rect x="45" y="40" width="2.5" height="2.5" fill="rgb(22,0,232)" tooltip="enable"><title>(9,8 13)</title></rect><rect x="50" y="40" width="2.5" height="2.5" fill="rgb(25,0,229)" tooltip="enable"><title>(10,8 15)</title></rect><rect x="55" y="40" width="2.5" height="2.5" fill="rgb(17,0,237)" tooltip="enable"><title>(11,8 10)</title></rect><rect x="60" y="40" width="2.5" height="2.5" fill="rgb(6,0,248)" tooltip="enable"><title>(12,8 4)</title></rect><rect x="65" y="40" width="2.5" height="2.5" fill="rgb(8,0,246)" tooltip="enable"><title>(13,8 5)</title></rect><rect x="70" y="40" width="2.5" height="2.5" fill="rgb(8,0,246)" tooltip="enable"><title>(14,8 5)</title></rect><rect x="75" y="40" width="2.5" height="2.5" fill="rgb(8,0,246)" tooltip="enable"><title>(15,8 5)</title></rect><rect x="80" y="40" width="2.5" height="2.5" fill="rgb(10,0,244)" tooltip="enable"><title>(16,8 6)</title></rect><rect x="85" y="40" width="2.5" height="2.5" fill="rgb(22,0,232)" tooltip="enable"><title>(17,8 13)</title></rect><rect x="90" y="40" width="2.5" height="2.5" fill="rgb(18,0,236)" tooltip="enable"><title>(18,8 11)</title></rect><rect x="95" y="40" width="2.5" height="2.5" fill="rgb(6,0,248)" tooltip="enable"><title>(19,8 4)</title></rect><rect x="100" y="40" width="2.5" height="2.5" fill="rgb(8,0,246)" tooltip="enable"><title>(20,8 5)</title></rect><rect x="105" y="40" width="2.5" height="2.5" fill="rgb(5,0,249)" tooltip="enable"><title>(21,8 3)</title></rect><rect x="115" y="40" width="2.5" height="2.5" fill="rgb(24,0,230)" tooltip="enable"><title>(23,8 14)</title></rect><rect x="125" y="40" width="2.5" height="2.5" fill="rgb(1,0,253)" tooltip="enable"><title>(25,8 1)</title></rect><rect x="130" y="40" width="2.5" height="2.5" fill="rgb(22,0,232)" tooltip="enable"><title>(26,8 13)</title></rect><rect x="135" y="40" width="2.5" height="2.5" fill="rgb(17,0,237)" tooltip="enable"><title>(27,8 10)</title></rect><rect x="140" y="40" width="2.5" height="2.5" fill="rgb(8,0,246)" tooltip="enable"><title>(28,8 5)</title></rect><rect x="145" y="40" width="2.5" height="2.5" fill="rgb(22,0,232)" tooltip="enable"><title>(29,8 13)</title></rect><rect x="150" y="40" width="2.5" height="2.5" fill="rgb(6,0,248)" tooltip="enable"><title>(30,8 4)</title></rect><rect x="155" y="40" width="2.5" height="2.5" fill="rgb(5,0,249)" tooltip="enable"><title>(31,8 3)</title></rect><rect x="50" y="45" width="2.5" height="2.5" fill="rgb(49,0,205)" tooltip="enable"><title>(10,9 29)</title></rect><rect x="55" y="45" width="2.5" height="2.5" fill="rgb(37,0,217)" tooltip="enable"><title>(11,9 22)</title></rect><rect x="60" y="45" width="2.5" height="2.5" fill="rgb(5,0,249)" tooltip="enable"><title>(12,9 3)</title></rect><rect x="65" y="45" width="2.5" height="2.5" fill="rgb(36,0,218)" tooltip="enable"><title>(13,9 21)</title></rect><rect x="70" y="45" width="2.5" height="2.5" fill="rgb(22,0,232)" tooltip="enable"><title>(14,9 13)</title></rect><rect x="75" y="45" width="2.5" height="2.5" fill="rgb(36,0,218)" tooltip="enable"><title>(15,9 21)</title></rect><rect x="80" y="45" width="2.5" height="2.5" fill="rgb(15,0,239)" tooltip="enable"><title>(16,9 9)</title></rect><rect x="85" y="45" width="2.5" height="2.5" fill="rgb(43,0,211)" tooltip="enable"><title>(17,9 25)</title></rect><rect x="90" y="45" width="2.5" height="2.5" fill="rgb(49,0,205)" tooltip="enable"><title>(18,9 29)</title></rect><rect x="95" y="45" width="2.5" height="2.5" fill="rgb(12,0,242)" tooltip="enable"><title>(19,9 7)</title></rect><rect x="100" y="45" width="2.5" height="2.5" fill="rgb(12,0,242)" tooltip="enable"><title>(20,9 7)</title></rect><rect x="105" y="45" width="2.5" height="2.5" fill="rgb(5,0,249)" tooltip="enable"><title>(21,9 3)</title></rect><rect x="110" y="45" width="2.5" height="2.5" fill="rgb(1,0,253)" tooltip="enable"><title>(22,9 1)</title></rect><rect x="115" y="45" width="2.5" height="2.5" fill="rgb(27,0,227)" tooltip="enable"><title>(23,9 16)</title></rect><rect x="120" y="45" width="2.5" height="2.5" fill="rgb(1,0,253)" tooltip="enable"><title>(24,9 1)</title></rect><rect x="125" y="45" width="2.5" height="2.5" fill="rgb(1,0,253)" tooltip="enable"><title>(25,9 1)</title></rect><rect x="130" y="45" width="2.5" height="2.5" fill="rgb(96,0,158)" tooltip="enable"><title>(26,9 56)</title></rect><rect x="135" y="45" width="2.5" height="2.5" fill="rgb(37,0,217)" tooltip="enable"><title>(27,9 22)</title></rect><rect x="140" y="45" width="2.5" height="2.5" fill="rgb(22,0,232)" tooltip="enable"><title>(28,9 13)</title></rect><rect x="145" y="45" width="2.5" height="2.5" fill="rgb(43,0,211)" tooltip="enable"><title>(29,9 25)</title></rect><rect x="150" y="45" width="2.5" height="2.5" fill="rgb(12,0,242)" tooltip="enable"><title>(30,9 7)</title></rect><rect x="155" y="45" width="2.5" height="2.5" fill="rgb(5,0,249)" tooltip="enable"><title>(31,9 3)</title></rect><rect x="55" y="50" width="2.5" height="2.5" fill="rgb(58,0,196)" tooltip="enable"><title>(11,10 34)</title></rect><rect x="60" y="50" width="2.5" height="2.5" fill="rgb(3,0,251)" tooltip="enable"><title>(12,10 2)</title></rect><rect x="65" y="50" width="2.5" height="2.5" fill="rgb(37,0,217)" tooltip="enable"><title>(13,10 22)</title></rect><rect x="70" y="50" width="2.5" height="2.5" fill="rgb(24,0,230)" tooltip="enable"><title>(14,10 14)</title></rect><rect x="75" y="50" width="2.5" height="2.5" fill="rgb(41,0,213)" tooltip="enable"><title>(15,10 24)</title></rect><rect x="80" y="50" width="2.5" height="2.5" fill="rgb(13,0,241)" tooltip="enable"><title>(16,10 8)</title></rect><rect x="85" y="50" width="2.5" height="2.5" fill="rgb(60,0,194)" tooltip="enable"><title>(17,10 35)</title></rect><rect x="90" y="50" width="2.5" height="2.5" fill="rgb(58,0,196)" tooltip="enable"><title>(18,10 34)</title></rect><rect x="95" y="50" width="2.5" height="2.5" fill="rgb(12,0,242)" tooltip="enable"><title>(19,10 7)</title></rect><rect x="100" y="50" width="2.5" height="2.5" fill="rgb(17,0,237)" tooltip="enable"><title>(20,10 10)</title></rect><rect x="105" y="50" width="2.5" height="2.5" fill="rgb(6,0,248)" tooltip="enable"><title>(21,10 4)</title></rect><rect x="110" y="50" width="2.5" height="2.5" fill="rgb(3,0,251)" tooltip="enable"><title>(22,10 2)</title></rect><rect x="115" y="50" width="2.5" height="2.5" fill="rgb(22,0,232)" tooltip="enable"><title>(23,10 13)</title></rect><rect x="120" y="50" width="2.5" height="2.5" fill="rgb(1,0,253)" tooltip="enable"><title>(24,10 1)</title></rect><rect x="130" y="50" width="2.5" height="2.5" fill="rgb(51,0,203)" tooltip="enable"><title>(26,10 30)</title></rect><rect x="135" y="50" width="2.5" height="2.5" fill="rgb(58,0,196)" tooltip="enable"><title>(27,10 34)</title></rect><rect x="140" y="50" width="2.5" height="2.5" fill="rgb(24,0,230)" tooltip="enable"><title>(28,10 14)</title></rect><rect x="145" y="50" width="2.5" height="2.5" fill="rgb(60,0,194)" tooltip="enable"><title>(29,10 35)</title></rect><rect x="150" y="50" width="2.5" height="2.5" fill="rgb(12,0,242)" tooltip="enable"><title>(30,10 7)</title></rect><rect x="155" y="50" width="2.5" height="2.5" fill="rgb(6,0,248)" tooltip="enable"><title>(31,10 4)</title></rect><rect x="60" y="55" width="2.5" height="2.5" fill="rgb(5,0,249)" tooltip="enable"><title>(12,11 3)</title></rect><rect x="65" y="55" width="2.5" height="2.5" fill="rgb(49,0,205)" tooltip="enable"><title>(13,11 29)</title></rect><rect x="70" y="55" width="2.5" height="2.5" fill="rgb(27,0,227)" tooltip="enable"><title>(14,11 16)</title></rect><rect x="75" y="55" width="2.5" height="2.5" fill="rgb(55,0,199)" tooltip="enable"><title>(15,11 32)</title></rect><rect x="80" y="55" width="2.5" height="2.5" fill="rgb(13,0,241)" tooltip="enable"><title>(16,11 8)</title></rect><rect x="85" y="55" width="2.5" height="2.5" fill="rgb(60,0,194)" tooltip="enable"><title>(17,11 35)</title></rect><rect x="90" y="55" width="2.5" height="2.5" fill="rgb(53,0,201)" tooltip="enable"><title>(18,11 31)</title></rect><rect x="95" y="55" width="2.5" height="2.5" fill="rgb(15,0,239)" tooltip="enable"><title>(19,11 9)</title></rect><rect x="100" y="55" width="2.5" height="2.5" fill="rgb(12,0,242)" tooltip="enable"><title>(20,11 7)</title></rect><rect x="105" y="55" width="2.5" height="2.5" fill="rgb(1,0,253)" tooltip="enable"><title>(21,11 1)</title></rect><rect x="110" y="55" width="2.5" height="2.5" fill="rgb(3,0,251)" tooltip="enable"><title>(22,11 2)</title></rect><rect x="115" y="55" width="2.5" height="2.5" fill="rgb(22,0,232)" tooltip="enable"><title>(23,11 13)</title></rect><rect x="125" y="55" width="2.5" height="2.5" fill="rgb(1,0,253)" tooltip="enable"><title>(25,11 1)</title></rect><rect x="130" y="55" width="2.5" height="2.5" fill="rgb(36,0,218)" tooltip="enable"><title>(26,11 21)</title></rect><rect x="135" y="55" width="2.5" height="2.5" fill="rgb(127,0,127)" tooltip="enable"><title>(27,11 74)</title></rect><rect x="140" y="55" width="2.5" height="2.5" fill="rgb(27,0,227)" tooltip="enable"><title>(28,11 16)</title></rect><rect x="145" y="55" width="2.5" height="2.5" fill="rgb(60,0,194)" tooltip="enable"><title>(29,11 35)</title></rect><rect x="150" y="55" width="2.5" height="2.5" fill="rgb(15,0,239)" tooltip="enable"><title>(30,11 9)</title></rect><rect x="155" y="55" width="2.5" height="2.5" fill="rgb(1,0,253)" tooltip="enable"><title>(31,11 1)</title></rect><rect x="70" y="60" width="2.5" height="2.5" fill="rgb(1,0,253)" tooltip="enable"><title>(14,12 1)</title></rect><rect x="75" y="60" width="2.5" height="2.5" fill="rgb(6,0,248)" tooltip="enable"><title>(15,12 4)</title></rect><rect x="80" y="60" width="2.5" height="2.5" fill="rgb(3,0,251)" tooltip="enable"><title>(16,12 2)</title></rect><rect x="85" y="60" width="2.5" height="2.5" fill="rgb(6,0,248)" tooltip="enable"><title>(17,12 4)</title></rect><rect x="90" y="60" width="2.5" height="2.5" fill="rgb(10,0,244)" tooltip="enable"><title>(18,12 6)</title></rect><rect x="95" y="60" width="2.5" height="2.5" fill="rgb(3,0,251)" tooltip="enable"><title>(19,12 2)</title></rect><rect x="100" y="60" width="2.5" height="2.5" fill="rgb(1,0,253)" tooltip="enable"><title>(20,12 1)</title></rect><rect x="105" y="60" width="2.5" height="2.5" fill="rgb(1,0,253)" tooltip="enable"><title>(21,12 1)</title></rect><rect x="115" y="60" width="2.5" height="2.5" fill="rgb(5,0,249)" tooltip="enable"><title>(23,12 3)</title></rect><rect x="125" y="60" width="2.5" height="2.5" fill="rgb(1,0,253)" tooltip="enable"><title>(25,12 1)</title></rect><rect x="130" y="60" width="2.5" height="2.5" fill="rgb(3,0,251)" tooltip="enable"><title>(26,12 2)</title></rect><rect x="135" y="60" width="2.5" height="2.5" fill="rgb(6,0,248)" tooltip="enable"><title>(27,12 4)</title></rect><rect x="140" y="60" width="2.5" height="2.5" fill="rgb(1,0,253)" tooltip="enable"><title>(28,12 1)</title></rect><rect x="145" y="60" width="2.5" height="2.5" fill="rgb(6,0,248)" tooltip="enable"><title>(29,12 4)</title></rect><rect x="150" y="60" width="2.5" height="2.5" fill="rgb(3,0,251)" tooltip="enable"><title>(30,12 2)</title></rect><rect x="155" y="60" width="2.5" height="2.5" fill="rgb(1,0,253)" tooltip="enable"><title>(31,12 1)</title></rect><rect x="70" y="65" width="2.5" height="2.5" fill="rgb(22,0,232)" tooltip="enable"><title>(14,13 13)</title></rect><rect x="75" y="65" width="2.5" height="2.5" fill="rgb(43,0,211)" tooltip="enable"><title>(15,13 25)</title></rect><rect x="80" y="65" width="2.5" height="2.5" fill="rgb(15,0,239)" tooltip="enable"><title>(16,13 9)</title></rect><rect x="85" y="65" width="2.5" height="2.5" fill="rgb(44,0,210)" tooltip="enable"><title>(17,13 26)</title></rect><rect x="90" y="65" width="2.5" height="2.5" fill="rgb(44,0,210)" tooltip="enable"><title>(18,13 26)</title></rect><rect x="95" y="65" width="2.5" height="2.5" fill="rgb(17,0,237)" tooltip="enable"><title>(19,13 10)</title></rect><rect x="100" y="65" width="2.5" height="2.5" fill="rgb(15,0,239)" tooltip="enable"><title>(20,13 9)</title></rect><rect x="105" y="65" width="2.5" height="2.5" fill="rgb(5,0,249)" tooltip="enable"><title>(21,13 3)</title></rect><rect x="110" y="65" width="2.5" height="2.5" fill="rgb(5,0,249)" tooltip="enable"><title>(22,13 3)</title></rect><rect x="115" y="65" width="2.5" height="2.5" fill="rgb(24,0,230)" tooltip="enable"><title>(23,13 14)</title></rect><rect x="120" y="65" width="2.5" height="2.5" fill="rgb(1,0,253)" tooltip="enable"><title>(24,13 1)</title></rect><rect x="130" y="65" width="2.5" height="2.5" fill="rgb(27,0,227)" tooltip="enable"><title>(26,13 16)</title></rect><rect x="135" y="65" width="2.5" height="2.5" fill="rgb(46,0,208)" tooltip="enable"><title>(27,13 27)</title></rect><rect x="140" y="65" width="2.5" height="2.5" fill="rgb(22,0,232)" tooltip="enable"><title>(28,13 13)</title></rect><rect x="145" y="65" width="2.5" height="2.5" fill="rgb(44,0,210)" tooltip="enable"><title>(29,13 26)</title></rect><rect x="150" y="65" width="2.5" height="2.5" fill="rgb(17,0,237)" tooltip="enable"><title>(30,13 10)</title></rect><rect x="155" y="65" width="2.5" height="2.5" fill="rgb(5,0,249)" tooltip="enable"><title>(31,13 3)</title></rect><rect x="75" y="70" width="2.5" height="2.5" fill="rgb(27,0,227)" tooltip="enable"><title>(15,14 16)</title></rect><rect x="80" y="70" width="2.5" height="2.5" fill="rgb(5,0,249)" tooltip="enable"><title>(16,14 3)</title></rect><rect x="85" y="70" width="2.5" height="2.5" fill="rgb(18,0,236)" tooltip="enable"><title>(17,14 11)</title></rect><rect x="90" y="70" width="2.5" height="2.5" fill="rgb(20,0,234)" tooltip="enable"><title>(18,14 12)</title></rect><rect x="95" y="70" width="2.5" height="2.5" fill="rgb(6,0,248)" tooltip="enable"><title>(19,14 4)</title></rect><rect x="100" y="70" width="2.5" height="2.5" fill="rgb(5,0,249)" tooltip="enable"><title>(20,14 3)</title></rect><rect x="110" y="70" width="2.5" height="2.5" fill="rgb(1,0,253)" tooltip="enable"><title>(22,14 1)</title></rect><rect x="115" y="70" width="2.5" height="2.5" fill="rgb(3,0,251)" tooltip="enable"><title>(23,14 2)</title></rect><rect x="120" y="70" width="2.5" height="2.5" fill="rgb(1,0,253)" tooltip="enable"><title>(24,14 1)</title></rect><rect x="130" y="70" width="2.5" height="2.5" fill="rgb(10,0,244)" tooltip="enable"><title>(26,14 6)</title></rect><rect x="135" y="70" width="2.5" height="2.5" fill="rgb(18,0,236)" tooltip="enable"><title>(27,14 11)</title></rect><rect x="140" y="70" width="2.5" height="2.5" fill="rgb(43,0,211)" tooltip="enable"><title>(28,14 25)</title></rect><rect x="145" y="70" width="2.5" height="2.5" fill="rgb(18,0,236)" tooltip="enable"><title>(29,14 11)</title></rect><rect x="150" y="70" width="2.5" height="2.5" fill="rgb(6,0,248)" tooltip="enable"><title>(30,14 4)</title></rect><rect x="80" y="75" width="2.5" height="2.5" fill="rgb(8,0,246)" tooltip="enable"><title>(16,15 5)</title></rect><rect x="85" y="75" width="2.5" height="2.5" fill="rgb(82,0,172)" tooltip="enable"><title>(17,15 48)</title></rect><rect x="90" y="75" width="2.5" height="2.5" fill="rgb(82,0,172)" tooltip="enable"><title>(18,15 48)</title></rect><rect x="95" y="75" width="2.5" height="2.5" fill="rgb(24,0,230)" tooltip="enable"><title>(19,15 14)</title></rect><rect x="100" y="75" width="2.5" height="2.5" fill="rgb(20,0,234)" tooltip="enable"><title>(20,15 12)</title></rect><rect x="105" y="75" width="2.5" height="2.5" fill="rgb(12,0,242)" tooltip="enable"><title>(21,15 7)</title></rect><rect x="110" y="75" width="2.5" height="2.5" fill="rgb(3,0,251)" tooltip="enable"><title>(22,15 2)</title></rect><rect x="115" y="75" width="2.5" height="2.5" fill="rgb(18,0,236)" tooltip="enable"><title>(23,15 11)</title></rect><rect x="130" y="75" width="2.5" height="2.5" fill="rgb(41,0,213)" tooltip="enable"><title>(26,15 24)</title></rect><rect x="135" y="75" width="2.5" height="2.5" fill="rgb(46,0,208)" tooltip="enable"><title>(27,15 27)</title></rect><rect x="140" y="75" width="2.5" height="2.5" fill="rgb(29,0,225)" tooltip="enable"><title>(28,15 17)</title></rect><rect x="145" y="75" width="2.5" height="2.5" fill="rgb(82,0,172)" tooltip="enable"><title>(29,15 48)</title></rect><rect x="150" y="75" width="2.5" height="2.5" fill="rgb(24,0,230)" tooltip="enable"><title>(30,15 14)</title></rect><rect x="155" y="75" width="2.5" height="2.5" fill="rgb(12,0,242)" tooltip="enable"><title>(31,15 7)</title></rect><rect x="85" y="80" width="2.5" height="2.5" fill="rgb(18,0,236)" tooltip="enable"><title>(17,16 11)</title></rect><rect x="90" y="80" width="2.5" height="2.5" fill="rgb(20,0,234)" tooltip="enable"><title>(18,16 12)</title></rect><rect x="95" y="80" width="2.5" height="2.5" fill="rgb(141,0,113)" tooltip="enable"><title>(19,16 82)</title></rect><rect x="100" y="80" width="2.5" height="2.5" fill="rgb(136,0,118)" tooltip="enable"><title>(20,16 79)</title></rect><rect x="105" y="80" width="2.5" height="2.5" fill="rgb(53,0,201)" tooltip="enable"><title>(21,16 31)</title></rect><rect x="110" y="80" width="2.5" height="2.5" fill="rgb(13,0,241)" tooltip="enable"><title>(22,16 8)</title></rect><rect x="115" y="80" width="2.5" height="2.5" fill="rgb(8,0,246)" tooltip="enable"><title>(23,16 5)</title></rect><rect x="125" y="80" width="2.5" height="2.5" fill="rgb(1,0,253)" tooltip="enable"><title>(25,16 1)</title></rect><rect x="130" y="80" width="2.5" height="2.5" fill="rgb(8,0,246)" tooltip="enable"><title>(26,16 5)</title></rect><rect x="135" y="80" width="2.5" height="2.5" fill="rgb(10,0,244)" tooltip="enable"><title>(27,16 6)</title></rect><rect x="140" y="80" width="2.5" height="2.5" fill="rgb(1,0,253)" tooltip="enable"><title>(28,16 1)</title></rect><rect x="145" y="80" width="2.5" height="2.5" fill="rgb(18,0,236)" tooltip="enable"><title>(29,16 11)</title></rect><rect x="150" y="80" width="2.5" height="2.5" fill="rgb(141,0,113)" tooltip="enable"><title>(30,16 82)</title></rect><rect x="155" y="80" width="2.5" height="2.5" fill="rgb(53,0,201)" tooltip="enable"><title>(31,16 31)</title></rect><rect x="90" y="85" width="2.5" height="2.5" fill="rgb(129,0,125)" tooltip="enable"><title>(18,17 75)</title></rect><rect x="95" y="85" width="2.5" height="2.5" fill="rgb(22,0,232)" tooltip="enable"><title>(19,17 13)</title></rect><rect x="100" y="85" width="2.5" height="2.5" fill="rgb(20,0,234)" tooltip="enable"><title>(20,17 12)</title></rect><rect x="105" y="85" width="2.5" height="2.5" fill="rgb(6,0,248)" tooltip="enable"><title>(21,17 4)</title></rect><rect x="110" y="85" width="2.5" height="2.5" fill="rgb(3,0,251)" tooltip="enable"><title>(22,17 2)</title></rect><rect x="115" y="85" width="2.5" height="2.5" fill="rgb(34,0,220)" tooltip="enable"><title>(23,17 20)</title></rect><rect x="125" y="85" width="2.5" height="2.5" fill="rgb(3,0,251)" tooltip="enable"><title>(25,17 2)</title></rect><rect x="130" y="85" width="2.5" height="2.5" fill="rgb(48,0,206)" tooltip="enable"><title>(26,17 28)</title></rect><rect x="135" y="85" width="2.5" height="2.5" fill="rgb(74,0,180)" tooltip="enable"><title>(27,17 43)</title></rect><rect x="140" y="85" width="2.5" height="2.5" fill="rgb(34,0,220)" tooltip="enable"><title>(28,17 20)</title></rect><rect x="145" y="85" width="2.5" height="2.5" fill="rgb(255,0,0)" tooltip="enable"><title>(29,17 148)</title></rect><rect x="150" y="85" width="2.5" height="2.5" fill="rgb(22,0,232)" tooltip="enable"><title>(30,17 13)</title></rect><rect x="155" y="85" width="2.5" height="2.5" fill="rgb(6,0,248)" tooltip="enable"><title>(31,17 4)</title></rect><rect x="95" y="90" width="2.5" height="2.5" fill="rgb(15,0,239)" tooltip="enable"><title>(19,18 9)</title></rect><rect x="100" y="90" width="2.5" height="2.5" fill="rgb(25,0,229)" tooltip="enable"><title>(20,18 15)</title></rect><rect x="105" y="90" width="2.5" height="2.5" fill="rgb(6,0,248)" tooltip="enable"><title>(21,18 4)</title></rect><rect x="110" y="90" width="2.5" height="2.5" fill="rgb(1,0,253)" tooltip="enable"><title>(22,18 1)</title></rect><rect x="115" y="90" width="2.5" height="2.5" fill="rgb(37,0,217)" tooltip="enable"><title>(23,18 22)</title></rect><rect x="120" y="90" width="2.5" height="2.5" fill="rgb(3,0,251)" tooltip="enable"><title>(24,18 2)</title></rect><rect x="125" y="90" width="2.5" height="2.5" fill="rgb(5,0,249)" tooltip="enable"><title>(25,18 3)</title></rect><rect x="130" y="90" width="2.5" height="2.5" fill="rgb(58,0,196)" tooltip="enable"><title>(26,18 34)</title></rect><rect x="135" y="90" width="2.5" height="2.5" fill="rgb(55,0,199)" tooltip="enable"><title>(27,18 32)</title></rect><rect x="140" y="90" width="2.5" height="2.5" fill="rgb(43,0,211)" tooltip="enable"><title>(28,18 25)</title></rect><rect x="145" y="90" width="2.5" height="2.5" fill="rgb(122,0,132)" tooltip="enable"><title>(29,18 71)</title></rect><rect x="150" y="90" width="2.5" height="2.5" fill="rgb(15,0,239)" tooltip="enable"><title>(30,18 9)</title></rect><rect x="155" y="90" width="2.5" height="2.5" fill="rgb(6,0,248)" tooltip="enable"><title>(31,18 4)</title></rect><rect x="100" y="95" width="2.5" height="2.5" fill="rgb(156,0,98)" tooltip="enable"><title>(20,19 91)</title></rect><rect x="105" y="95" width="2.5" height="2.5" fill="rgb(65,0,189)" tooltip="enable"><title>(21,19 38)</title></rect><rect x="110" y="95" width="2.5" height="2.5" fill="rgb(15,0,239)" tooltip="enable"><title>(22,19 9)</title></rect><rect x="115" y="95" width="2.5" height="2.5" fill="rgb(10,0,244)" tooltip="enable"><title>(23,19 6)</title></rect><rect x="125" y="95" width="2.5" height="2.5" fill="rgb(5,0,249)" tooltip="enable"><title>(25,19 3)</title></rect><rect x="130" y="95" width="2.5" height="2.5" fill="rgb(17,0,237)" tooltip="enable"><title>(26,19 10)</title></rect><rect x="135" y="95" width="2.5" height="2.5" fill="rgb(8,0,246)" tooltip="enable"><title>(27,19 5)</title></rect><rect x="140" y="95" width="2.5" height="2.5" fill="rgb(5,0,249)" tooltip="enable"><title>(28,19 3)</title></rect><rect x="145" y="95" width="2.5" height="2.5" fill="rgb(24,0,230)" tooltip="enable"><title>(29,19 14)</title></rect><rect x="150" y="95" width="2.5" height="2.5" fill="rgb(237,0,17)" tooltip="enable"><title>(30,19 138)</title></rect><rect x="155" y="95" width="2.5" height="2.5" fill="rgb(65,0,189)" tooltip="enable"><title>(31,19 38)</title></rect><rect x="105" y="100" width="2.5" height="2.5" fill="rgb(65,0,189)" tooltip="enable"><title>(21,20 38)</title></rect><rect x="110" y="100" width="2.5" height="2.5" fill="rgb(17,0,237)" tooltip="enable"><title>(22,20 10)</title></rect><rect x="115" y="100" width="2.5" height="2.5" fill="rgb(12,0,242)" tooltip="enable"><title>(23,20 7)</title></rect><rect x="120" y="100" width="2.5" height="2.5" fill="rgb(5,0,249)" tooltip="enable"><title>(24,20 3)</title></rect><rect x="125" y="100" width="2.5" height="2.5" fill="rgb(1,0,253)" tooltip="enable"><title>(25,20 1)</title></rect><rect x="130" y="100" width="2.5" height="2.5" fill="rgb(12,0,242)" tooltip="enable"><title>(26,20 7)</title></rect><rect x="135" y="100" width="2.5" height="2.5" fill="rgb(5,0,249)" tooltip="enable"><title>(27,20 3)</title></rect><rect x="140" y="100" width="2.5" height="2.5" fill="rgb(1,0,253)" tooltip="enable"><title>(28,20 1)</title></rect><rect x="145" y="100" width="2.5" height="2.5" fill="rgb(15,0,239)" tooltip="enable"><title>(29,20 9)</title></rect><rect x="150" y="100" width="2.5" height="2.5" fill="rgb(149,0,105)" tooltip="enable"><title>(30,20 87)</title></rect><rect x="155" y="100" width="2.5" height="2.5" fill="rgb(65,0,189)" tooltip="enable"><title>(31,20 38)</title></rect><rect x="110" y="105" width="2.5" height="2.5" fill="rgb(10,0,244)" tooltip="enable"><title>(22,21 6)</title></rect><rect x="115" y="105" width="2.5" height="2.5" fill="rgb(6,0,248)" tooltip="enable"><title>(23,21 4)</title></rect><rect x="125" y="105" width="2.5" height="2.5" fill="rgb(3,0,251)" tooltip="enable"><title>(25,21 2)</title></rect><rect x="130" y="105" width="2.5" height="2.5" fill="rgb(10,0,244)" tooltip="enable"><title>(26,21 6)</title></rect><rect x="135" y="105" width="2.5" height="2.5" fill="rgb(1,0,253)" tooltip="enable"><title>(27,21 1)</title></rect><rect x="145" y="105" width="2.5" height="2.5" fill="rgb(10,0,244)" tooltip="enable"><title>(29,21 6)</title></rect><rect x="150" y="105" width="2.5" height="2.5" fill="rgb(51,0,203)" tooltip="enable"><title>(30,21 30)</title></rect><rect x="155" y="105" width="2.5" height="2.5" fill="rgb(106,0,148)" tooltip="enable"><title>(31,21 62)</title></rect><rect x="120" y="110" width="2.5" height="2.5" fill="rgb(1,0,253)" tooltip="enable"><title>(24,22 1)</title></rect><rect x="125" y="110" width="2.5" height="2.5" fill="rgb(3,0,251)" tooltip="enable"><title>(25,22 2)</title></rect><rect x="130" y="110" width="2.5" height="2.5" fill="rgb(1,0,253)" tooltip="enable"><title>(26,22 1)</title></rect><rect x="135" y="110" width="2.5" height="2.5" fill="rgb(1,0,253)" tooltip="enable"><title>(27,22 1)</title></rect><rect x="145" y="110" width="2.5" height="2.5" fill="rgb(1,0,253)" tooltip="enable"><title>(29,22 1)</title></rect><rect x="150" y="110" width="2.5" height="2.5" fill="rgb(8,0,246)" tooltip="enable"><title>(30,22 5)</title></rect><rect x="155" y="110" width="2.5" height="2.5" fill="rgb(8,0,246)" tooltip="enable"><title>(31,22 5)</title></rect><rect x="130" y="115" width="2.5" height="2.5" fill="rgb(32,0,222)" tooltip="enable"><title>(26,23 19)</title></rect><rect x="135" y="115" width="2.5" height="2.5" fill="rgb(29,0,225)" tooltip="enable"><title>(27,23 17)</title></rect><rect x="140" y="115" width="2.5" height="2.5" fill="rgb(17,0,237)" tooltip="enable"><title>(28,23 10)</title></rect><rect x="145" y="115" width="2.5" height="2.5" fill="rgb(34,0,220)" tooltip="enable"><title>(29,23 20)</title></rect><rect x="150" y="115" width="2.5" height="2.5" fill="rgb(13,0,241)" tooltip="enable"><title>(30,23 8)</title></rect><rect x="155" y="115" width="2.5" height="2.5" fill="rgb(3,0,251)" tooltip="enable"><title>(31,23 2)</title></rect><rect x="155" y="125" width="2.5" height="2.5" fill="rgb(1,0,253)" tooltip="enable"><title>(31,25 1)</title></rect><rect x="135" y="130" width="2.5" height="2.5" fill="rgb(37,0,217)" tooltip="enable"><title>(27,26 22)</title></rect><rect x="140" y="130" width="2.5" height="2.5" fill="rgb(22,0,232)" tooltip="enable"><title>(28,26 13)</title></rect><rect x="145" y="130" width="2.5" height="2.5" fill="rgb(43,0,211)" tooltip="enable"><title>(29,26 25)</title></rect><rect x="150" y="130" width="2.5" height="2.5" fill="rgb(12,0,242)" tooltip="enable"><title>(30,26 7)</title></rect><rect x="155" y="130" width="2.5" height="2.5" fill="rgb(5,0,249)" tooltip="enable"><title>(31,26 3)</title></rect><rect x="140" y="135" width="2.5" height="2.5" fill="rgb(27,0,227)" tooltip="enable"><title>(28,27 16)</title></rect><rect x="145" y="135" width="2.5" height="2.5" fill="rgb(60,0,194)" tooltip="enable"><title>(29,27 35)</title></rect><rect x="150" y="135" width="2.5" height="2.5" fill="rgb(15,0,239)" tooltip="enable"><title>(30,27 9)</title></rect><rect x="155" y="135" width="2.5" height="2.5" fill="rgb(1,0,253)" tooltip="enable"><title>(31,27 1)</title></rect><rect x="145" y="140" width="2.5" height="2.5" fill="rgb(18,0,236)" tooltip="enable"><title>(29,28 11)</title></rect><rect x="150" y="140" width="2.5" height="2.5" fill="rgb(6,0,248)" tooltip="enable"><title>(30,28 4)</title></rect><rect x="150" y="145" width="2.5" height="2.5" fill="rgb(22,0,232)" tooltip="enable"><title>(30,29 13)</title></rect><rect x="155" y="145" width="2.5" height="2.5" fill="rgb(6,0,248)" tooltip="enable"><title>(31,29 4)</title></rect><rect x="155" y="150" width="2.5" height="2.5" fill="rgb(65,0,189)" tooltip="enable"><title>(31,30 38)</title></rect><text x="165" y="5" font-size="5" fill="black">0</text>
<text x="165" y="155" font-size="5" fill="black">32</text>
<polyline points="165,10,165,150" stroke="black" stroke-width="1" fill="none"/>
<text x="5" y="165" font-size="5" fill="black">0</text>
<text x="155" y="165" font-size="5" fill="black">32</text>
<polyline points="10,165,150,165" stroke="black" stroke-width="1" fill="none"/>
</svg>