<?xml version="1.0" standalone="yes"?>
<!-- SVG graphic -->
<svg xmlns='http://www.w3.org/2000/svg' xmlns:xlink='http://www.w3.org/1999/xlink'
width="120px" height="120px" preserveAspectRatio="xMinYMin meet" viewBox="0 0 120 120" version="1.1">
<rect x="35" y="0" width="2.5" height="2.5" fill="rgb(140,0,114)" tooltip="enable"><title>(7,0 28)</title></rect><rect x="40" y="0" width="2.5" height="2.5" fill="rgb(109,0,145)" tooltip="enable"><title>(8,0 22)</title></rect><rect x="70" y="0" width="2.5" height="2.5" fill="rgb(165,0,89)" tooltip="enable"><title>(14,0 33)</title></rect><rect x="75" y="0" width="2.5" height="2.5" fill="rgb(89,0,165)" tooltip="enable"><title>(15,0 18)</title></rect><rect x="80" y="5" width="2.5" height="2.5" fill="rgb(89,0,165)" tooltip="enable"><title>(16,1 18)</title></rect><rect x="40" y="10" width="2.5" height="2.5" fill="rgb(99,0,155)" tooltip="enable"><title>(8,2 20)</title></rect><rect x="45" y="10" width="2.5" height="2.5" fill="rgb(119,0,135)" tooltip="enable"><title>(9,2 24)</title></rect><rect x="25" y="15" width="2.5" height="2.5" fill="rgb(109,0,145)" tooltip="enable"><title>(5,3 22)</title></rect><rect x="50" y="15" width="2.5" height="2.5" fill="rgb(150,0,104)" tooltip="enable"><title>(10,3 30)</title></rect><rect x="30" y="20" width="2.5" height="2.5" fill="rgb(105,0,149)" tooltip="enable"><title>(6,4 21)</title></rect><rect x="90" y="20" width="2.5" height="2.5" fill="rgb(185,0,69)" tooltip="enable"><title>(18,4 37)</title></rect><rect x="40" y="35" width="2.5" height="2.5" fill="rgb(89,0,165)" tooltip="enable"><title>(8,7 18)</title></rect><rect x="75" y="35" width="2.5" height="2.5" fill="rgb(135,0,119)" tooltip="enable"><title>(15,7 27)</title></rect><rect x="100" y="35" width="2.5" height="2.5" fill="rgb(140,0,114)" tooltip="enable"><title>(20,7 28)</title></rect><rect x="45" y="40" width="2.5" height="2.5" fill="rgb(145,0,109)" tooltip="enable"><title>(9,8 29)</title></rect><rect x="70" y="40" width="2.5" height="2.5" fill="rgb(135,0,119)" tooltip="enable"><title>(14,8 27)</title></rect><rect x="60" y="45" width="2.5" height="2.5" fill="rgb(99,0,155)" tooltip="enable"><title>(12,9 20)</title></rect><rect x="75" y="70" width="2.5" height="2.5" fill="rgb(105,0,149)" tooltip="enable"><title>(15,14 21)</title></rect><rect x="100" y="75" width="2.5" height="2.5" fill="rgb(200,0,54)" tooltip="enable"><title>(20,15 40)</title></rect><rect x="95" y="80" width="2.5" height="2.5" fill="rgb(255,0,0)" tooltip="enable"><title>(19,16 51)</title></rect><rect x="90" y="85" width="2.5" height="2.5" fill="rgb(105,0,149)" tooltip="enable"><title>(18,17 21)</title></rect><text x="110" y="5" font-size="5" fill="black">0</text>
<text x="110" y="100" font-size="5" fill="black">21</text>
<polyline points="110,10,110,95" stroke="black" stroke-width="1" fill="none"/>
<text x="5" y="110" font-size="5" fill="black">0</text>
<text x="100" y="110" font-size="5" fill="black">21</text>
<polyline points="10,110,95,110" stroke="black" stroke-width="1" fill="none"/>
</svg>