<?xml version="1.0" standalone="yes"?>
<!-- SVG graphic -->
<svg xmlns='http://www.w3.org/2000/svg' xmlns:xlink='http://www.w3.org/1999/xlink'
width="120px" height="120px" preserveAspectRatio="xMinYMin meet" viewBox="0 0 120 120" version="1.1">
<rect x="5" y="0" width="2.5" height="2.5" fill="rgb(27,0,227)" tooltip="enable"><title>(1,0 7)</title></rect><rect x="10" y="0" width="2.5" height="2.5" fill="rgb(98,0,156)" tooltip="enable"><title>(2,0 25)</title></rect><rect x="15" y="0" width="2.5" height="2.5" fill="rgb(74,0,180)" tooltip="enable"><title>(3,0 19)</title></rect><rect x="20" y="0" width="2.5" height="2.5" fill="rgb(39,0,215)" tooltip="enable"><title>(4,0 10)</title></rect><rect x="25" y="0" width="2.5" height="2.5" fill="rgb(62,0,192)" tooltip="enable"><title>(5,0 16)</title></rect><rect x="30" y="0" width="2.5" height="2.5" fill="rgb(23,0,231)" tooltip="enable"><title>(6,0 6)</title></rect><rect x="35" y="0" width="2.5" height="2.5" fill="rgb(145,0,109)" tooltip="enable"><title>(7,0 37)</title></rect><rect x="40" y="0" width="2.5" height="2.5" fill="rgb(149,0,105)" tooltip="enable"><title>(8,0 38)</title></rect><rect x="45" y="0" width="2.5" height="2.5" fill="rgb(74,0,180)" tooltip="enable"><title>(9,0 19)</title></rect><rect x="50" y="0" width="2.5" height="2.5" fill="rgb(66,0,188)" tooltip="enable"><title>(10,0 17)</title></rect><rect x="55" y="0" width="2.5" height="2.5" fill="rgb(82,0,172)" tooltip="enable"><title>(11,0 21)</title></rect><rect x="60" y="0" width="2.5" height="2.5" fill="rgb(70,0,184)" tooltip="enable"><title>(12,0 18)</title></rect><rect x="65" y="0" width="2.5" height="2.5" fill="rgb(27,0,227)" tooltip="enable"><title>(13,0 7)</title></rect><rect x="70" y="0" width="2.5" height="2.5" fill="rgb(196,0,58)" tooltip="enable"><title>(14,0 50)</title></rect><rect x="75" y="0" width="2.5" height="2.5" fill="rgb(129,0,125)" tooltip="enable"><title>(15,0 33)</title></rect><rect x="80" y="0" width="2.5" height="2.5" fill="rgb(94,0,160)" tooltip="enable"><title>(16,0 24)</title></rect><rect x="85" y="0" width="2.5" height="2.5" fill="rgb(35,0,219)" tooltip="enable"><title>(17,0 9)</title></rect><rect x="90" y="0" width="2.5" height="2.5" fill="rgb(47,0,207)" tooltip="enable"><title>(18,0 12)</title></rect><rect x="95" y="0" width="2.5" height="2.5" fill="rgb(101,0,153)" tooltip="enable"><title>(19,0 26)</title></rect><rect x="100" y="0" width="2.5" height="2.5" fill="rgb(109,0,145)" tooltip="enable"><title>(20,0 28)</title></rect><rect x="10" y="5" width="2.5" height="2.5" fill="rgb(15,0,239)" tooltip="enable"><title>(2,1 4)</title></rect><rect x="15" y="5" width="2.5" height="2.5" fill="rgb(19,0,235)" tooltip="enable"><title>(3,1 5)</title></rect><rect x="20" y="5" width="2.5" height="2.5" fill="rgb(35,0,219)" tooltip="enable"><title>(4,1 9)</title></rect><rect x="25" y="5" width="2.5" height="2.5" fill="rgb(19,0,235)" tooltip="enable"><title>(5,1 5)</title></rect><rect x="30" y="5" width="2.5" height="2.5" fill="rgb(27,0,227)" tooltip="enable"><title>(6,1 7)</title></rect><rect x="35" y="5" width="2.5" height="2.5" fill="rgb(23,0,231)" tooltip="enable"><title>(7,1 6)</title></rect><rect x="40" y="5" width="2.5" height="2.5" fill="rgb(11,0,243)" tooltip="enable"><title>(8,1 3)</title></rect><rect x="45" y="5" width="2.5" height="2.5" fill="rgb(23,0,231)" tooltip="enable"><title>(9,1 6)</title></rect><rect x="50" y="5" width="2.5" height="2.5" fill="rgb(7,0,247)" tooltip="enable"><title>(10,1 2)</title></rect><rect x="55" y="5" width="2.5" height="2.5" fill="rgb(23,0,231)" tooltip="enable"><title>(11,1 6)</title></rect><rect x="60" y="5" width="2.5" height="2.5" fill="rgb(19,0,235)" tooltip="enable"><title>(12,1 5)</title></rect><rect x="65" y="5" width="2.5" height="2.5" fill="rgb(11,0,243)" tooltip="enable"><title>(13,1 3)</title></rect><rect x="70" y="5" width="2.5" height="2.5" fill="rgb(31,0,223)" tooltip="enable"><title>(14,1 8)</title></rect><rect x="75" y="5" width="2.5" height="2.5" fill="rgb(27,0,227)" tooltip="enable"><title>(15,1 7)</title></rect><rect x="80" y="5" width="2.5" height="2.5" fill="rgb(82,0,172)" tooltip="enable"><title>(16,1 21)</title></rect><rect x="85" y="5" width="2.5" height="2.5" fill="rgb(39,0,215)" tooltip="enable"><title>(17,1 10)</title></rect><rect x="90" y="5" width="2.5" height="2.5" fill="rgb(27,0,227)" tooltip="enable"><title>(18,1 7)</title></rect><rect x="95" y="5" width="2.5" height="2.5" fill="rgb(50,0,204)" tooltip="enable"><title>(19,1 13)</title></rect><rect x="100" y="5" width="2.5" height="2.5" fill="rgb(23,0,231)" tooltip="enable"><title>(20,1 6)</title></rect><rect x="15" y="10" width="2.5" height="2.5" fill="rgb(105,0,149)" tooltip="enable"><title>(3,2 27)</title></rect><rect x="20" y="10" width="2.5" height="2.5" fill="rgb(31,0,223)" tooltip="enable"><title>(4,2 8)</title></rect><rect x="25" y="10" width="2.5" height="2.5" fill="rgb(74,0,180)" tooltip="enable"><title>(5,2 19)</title></rect><rect x="30" y="10" width="2.5" height="2.5" fill="rgb(11,0,243)" tooltip="enable"><title>(6,2 3)</title></rect><rect x="35" y="10" width="2.5" height="2.5" fill="rgb(50,0,204)" tooltip="enable"><title>(7,2 13)</title></rect><rect x="40" y="10" width="2.5" height="2.5" fill="rgb(129,0,125)" tooltip="enable"><title>(8,2 33)</title></rect><rect x="45" y="10" width="2.5" height="2.5" fill="rgb(168,0,86)" tooltip="enable"><title>(9,2 43)</title></rect><rect x="50" y="10" width="2.5" height="2.5" fill="rgb(78,0,176)" tooltip="enable"><title>(10,2 20)</title></rect><rect x="55" y="10" width="2.5" height="2.5" fill="rgb(74,0,180)" tooltip="enable"><title>(11,2 19)</title></rect><rect x="60" y="10" width="2.5" height="2.5" fill="rgb(94,0,160)" tooltip="enable"><title>(12,2 24)</title></rect><rect x="65" y="10" width="2.5" height="2.5" fill="rgb(19,0,235)" tooltip="enable"><title>(13,2 5)</title></rect><rect x="70" y="10" width="2.5" height="2.5" fill="rgb(137,0,117)" tooltip="enable"><title>(14,2 35)</title></rect><rect x="75" y="10" width="2.5" height="2.5" fill="rgb(66,0,188)" tooltip="enable"><title>(15,2 17)</title></rect><rect x="80" y="10" width="2.5" height="2.5" fill="rgb(101,0,153)" tooltip="enable"><title>(16,2 26)</title></rect><rect x="85" y="10" width="2.5" height="2.5" fill="rgb(39,0,215)" tooltip="enable"><title>(17,2 10)</title></rect><rect x="90" y="10" width="2.5" height="2.5" fill="rgb(62,0,192)" tooltip="enable"><title>(18,2 16)</title></rect><rect x="95" y="10" width="2.5" height="2.5" fill="rgb(98,0,156)" tooltip="enable"><title>(19,2 25)</title></rect><rect x="100" y="10" width="2.5" height="2.5" fill="rgb(78,0,176)" tooltip="enable"><title>(20,2 20)</title></rect><rect x="20" y="15" width="2.5" height="2.5" fill="rgb(31,0,223)" tooltip="enable"><title>(4,3 8)</title></rect><rect x="25" y="15" width="2.5" height="2.5" fill="rgb(121,0,133)" tooltip="enable"><title>(5,3 31)</title></rect><rect x="30" y="15" width="2.5" height="2.5" fill="rgb(7,0,247)" tooltip="enable"><title>(6,3 2)</title></rect><rect x="35" y="15" width="2.5" height="2.5" fill="rgb(43,0,211)" tooltip="enable"><title>(7,3 11)</title></rect><rect x="40" y="15" width="2.5" height="2.5" fill="rgb(78,0,176)" tooltip="enable"><title>(8,3 20)</title></rect><rect x="45" y="15" width="2.5" height="2.5" fill="rgb(109,0,145)" tooltip="enable"><title>(9,3 28)</title></rect><rect x="50" y="15" width="2.5" height="2.5" fill="rgb(176,0,78)" tooltip="enable"><title>(10,3 45)</title></rect><rect x="55" y="15" width="2.5" height="2.5" fill="rgb(117,0,137)" tooltip="enable"><title>(11,3 30)</title></rect><rect x="60" y="15" width="2.5" height="2.5" fill="rgb(58,0,196)" tooltip="enable"><title>(12,3 15)</title></rect><rect x="65" y="15" width="2.5" height="2.5" fill="rgb(43,0,211)" tooltip="enable"><title>(13,3 11)</title></rect><rect x="70" y="15" width="2.5" height="2.5" fill="rgb(90,0,164)" tooltip="enable"><title>(14,3 23)</title></rect><rect x="75" y="15" width="2.5" height="2.5" fill="rgb(74,0,180)" tooltip="enable"><title>(15,3 19)</title></rect><rect x="80" y="15" width="2.5" height="2.5" fill="rgb(62,0,192)" tooltip="enable"><title>(16,3 16)</title></rect><rect x="85" y="15" width="2.5" height="2.5" fill="rgb(31,0,223)" tooltip="enable"><title>(17,3 8)</title></rect><rect x="90" y="15" width="2.5" height="2.5" fill="rgb(62,0,192)" tooltip="enable"><title>(18,3 16)</title></rect><rect x="95" y="15" width="2.5" height="2.5" fill="rgb(66,0,188)" tooltip="enable"><title>(19,3 17)</title></rect><rect x="100" y="15" width="2.5" height="2.5" fill="rgb(47,0,207)" tooltip="enable"><title>(20,3 12)</title></rect><rect x="25" y="20" width="2.5" height="2.5" fill="rgb(39,0,215)" tooltip="enable"><title>(5,4 10)</title></rect><rect x="30" y="20" width="2.5" height="2.5" fill="rgb(98,0,156)" tooltip="enable"><title>(6,4 25)</title></rect><rect x="35" y="20" width="2.5" height="2.5" fill="rgb(35,0,219)" tooltip="enable"><title>(7,4 9)</title></rect><rect x="40" y="20" width="2.5" height="2.5" fill="rgb(54,0,200)" tooltip="enable"><title>(8,4 14)</title></rect><rect x="45" y="20" width="2.5" height="2.5" fill="rgb(58,0,196)" tooltip="enable"><title>(9,4 15)</title></rect><rect x="50" y="20" width="2.5" height="2.5" fill="rgb(43,0,211)" tooltip="enable"><title>(10,4 11)</title></rect><rect x="55" y="20" width="2.5" height="2.5" fill="rgb(43,0,211)" tooltip="enable"><title>(11,4 11)</title></rect><rect x="60" y="20" width="2.5" height="2.5" fill="rgb(7,0,247)" tooltip="enable"><title>(12,4 2)</title></rect><rect x="65" y="20" width="2.5" height="2.5" fill="rgb(11,0,243)" tooltip="enable"><title>(13,4 3)</title></rect><rect x="70" y="20" width="2.5" height="2.5" fill="rgb(39,0,215)" tooltip="enable"><title>(14,4 10)</title></rect><rect x="75" y="20" width="2.5" height="2.5" fill="rgb(47,0,207)" tooltip="enable"><title>(15,4 12)</title></rect><rect x="80" y="20" width="2.5" height="2.5" fill="rgb(86,0,168)" tooltip="enable"><title>(16,4 22)</title></rect><rect x="85" y="20" width="2.5" height="2.5" fill="rgb(94,0,160)" tooltip="enable"><title>(17,4 24)</title></rect><rect x="90" y="20" width="2.5" height="2.5" fill="rgb(184,0,70)" tooltip="enable"><title>(18,4 47)</title></rect><rect x="95" y="20" width="2.5" height="2.5" fill="rgb(47,0,207)" tooltip="enable"><title>(19,4 12)</title></rect><rect x="100" y="20" width="2.5" height="2.5" fill="rgb(15,0,239)" tooltip="enable"><title>(20,4 4)</title></rect><rect x="30" y="25" width="2.5" height="2.5" fill="rgb(27,0,227)" tooltip="enable"><title>(6,5 7)</title></rect><rect x="35" y="25" width="2.5" height="2.5" fill="rgb(35,0,219)" tooltip="enable"><title>(7,5 9)</title></rect><rect x="40" y="25" width="2.5" height="2.5" fill="rgb(43,0,211)" tooltip="enable"><title>(8,5 11)</title></rect><rect x="45" y="25" width="2.5" height="2.5" fill="rgb(47,0,207)" tooltip="enable"><title>(9,5 12)</title></rect><rect x="50" y="25" width="2.5" height="2.5" fill="rgb(90,0,164)" tooltip="enable"><title>(10,5 23)</title></rect><rect x="55" y="25" width="2.5" height="2.5" fill="rgb(137,0,117)" tooltip="enable"><title>(11,5 35)</title></rect><rect x="60" y="25" width="2.5" height="2.5" fill="rgb(23,0,231)" tooltip="enable"><title>(12,5 6)</title></rect><rect x="65" y="25" width="2.5" height="2.5" fill="rgb(66,0,188)" tooltip="enable"><title>(13,5 17)</title></rect><rect x="70" y="25" width="2.5" height="2.5" fill="rgb(50,0,204)" tooltip="enable"><title>(14,5 13)</title></rect><rect x="75" y="25" width="2.5" height="2.5" fill="rgb(43,0,211)" tooltip="enable"><title>(15,5 11)</title></rect><rect x="80" y="25" width="2.5" height="2.5" fill="rgb(47,0,207)" tooltip="enable"><title>(16,5 12)</title></rect><rect x="85" y="25" width="2.5" height="2.5" fill="rgb(7,0,247)" tooltip="enable"><title>(17,5 2)</title></rect><rect x="90" y="25" width="2.5" height="2.5" fill="rgb(58,0,196)" tooltip="enable"><title>(18,5 15)</title></rect><rect x="95" y="25" width="2.5" height="2.5" fill="rgb(43,0,211)" tooltip="enable"><title>(19,5 11)</title></rect><rect x="100" y="25" width="2.5" height="2.5" fill="rgb(31,0,223)" tooltip="enable"><title>(20,5 8)</title></rect><rect x="35" y="30" width="2.5" height="2.5" fill="rgb(23,0,231)" tooltip="enable"><title>(7,6 6)</title></rect><rect x="40" y="30" width="2.5" height="2.5" fill="rgb(19,0,235)" tooltip="enable"><title>(8,6 5)</title></rect><rect x="45" y="30" width="2.5" height="2.5" fill="rgb(27,0,227)" tooltip="enable"><title>(9,6 7)</title></rect><rect x="55" y="30" width="2.5" height="2.5" fill="rgb(19,0,235)" tooltip="enable"><title>(11,6 5)</title></rect><rect x="60" y="30" width="2.5" height="2.5" fill="rgb(15,0,239)" tooltip="enable"><title>(12,6 4)</title></rect><rect x="65" y="30" width="2.5" height="2.5" fill="rgb(7,0,247)" tooltip="enable"><title>(13,6 2)</title></rect><rect x="70" y="30" width="2.5" height="2.5" fill="rgb(27,0,227)" tooltip="enable"><title>(14,6 7)</title></rect><rect x="75" y="30" width="2.5" height="2.5" fill="rgb(23,0,231)" tooltip="enable"><title>(15,6 6)</title></rect><rect x="80" y="30" width="2.5" height="2.5" fill="rgb(39,0,215)" tooltip="enable"><title>(16,6 10)</title></rect><rect x="85" y="30" width="2.5" height="2.5" fill="rgb(50,0,204)" tooltip="enable"><title>(17,6 13)</title></rect><rect x="90" y="30" width="2.5" height="2.5" fill="rgb(66,0,188)" tooltip="enable"><title>(18,6 17)</title></rect><rect x="95" y="30" width="2.5" height="2.5" fill="rgb(23,0,231)" tooltip="enable"><title>(19,6 6)</title></rect><rect x="100" y="30" width="2.5" height="2.5" fill="rgb(11,0,243)" tooltip="enable"><title>(20,6 3)</title></rect><rect x="40" y="35" width="2.5" height="2.5" fill="rgb(94,0,160)" tooltip="enable"><title>(8,7 24)</title></rect><rect x="45" y="35" width="2.5" height="2.5" fill="rgb(74,0,180)" tooltip="enable"><title>(9,7 19)</title></rect><rect x="50" y="35" width="2.5" height="2.5" fill="rgb(66,0,188)" tooltip="enable"><title>(10,7 17)</title></rect><rect x="55" y="35" width="2.5" height="2.5" fill="rgb(78,0,176)" tooltip="enable"><title>(11,7 20)</title></rect><rect x="60" y="35" width="2.5" height="2.5" fill="rgb(27,0,227)" tooltip="enable"><title>(12,7 7)</title></rect><rect x="65" y="35" width="2.5" height="2.5" fill="rgb(27,0,227)" tooltip="enable"><title>(13,7 7)</title></rect><rect x="70" y="35" width="2.5" height="2.5" fill="rgb(94,0,160)" tooltip="enable"><title>(14,7 24)</title></rect><rect x="75" y="35" width="2.5" height="2.5" fill="rgb(180,0,74)" tooltip="enable"><title>(15,7 46)</title></rect><rect x="80" y="35" width="2.5" height="2.5" fill="rgb(70,0,184)" tooltip="enable"><title>(16,7 18)</title></rect><rect x="85" y="35" width="2.5" height="2.5" fill="rgb(31,0,223)" tooltip="enable"><title>(17,7 8)</title></rect><rect x="90" y="35" width="2.5" height="2.5" fill="rgb(62,0,192)" tooltip="enable"><title>(18,7 16)</title></rect><rect x="95" y="35" width="2.5" height="2.5" fill="rgb(94,0,160)" tooltip="enable"><title>(19,7 24)</title></rect><rect x="100" y="35" width="2.5" height="2.5" fill="rgb(145,0,109)" tooltip="enable"><title>(20,7 37)</title></rect><rect x="45" y="40" width="2.5" height="2.5" fill="rgb(168,0,86)" tooltip="enable"><title>(9,8 43)</title></rect><rect x="50" y="40" width="2.5" height="2.5" fill="rgb(66,0,188)" tooltip="enable"><title>(10,8 17)</title></rect><rect x="55" y="40" width="2.5" height="2.5" fill="rgb(90,0,164)" tooltip="enable"><title>(11,8 23)</title></rect><rect x="60" y="40" width="2.5" height="2.5" fill="rgb(54,0,200)" tooltip="enable"><title>(12,8 14)</title></rect><rect x="65" y="40" width="2.5" height="2.5" fill="rgb(35,0,219)" tooltip="enable"><title>(13,8 9)</title></rect><rect x="70" y="40" width="2.5" height="2.5" fill="rgb(153,0,101)" tooltip="enable"><title>(14,8 39)</title></rect><rect x="75" y="40" width="2.5" height="2.5" fill="rgb(109,0,145)" tooltip="enable"><title>(15,8 28)</title></rect><rect x="80" y="40" width="2.5" height="2.5" fill="rgb(58,0,196)" tooltip="enable"><title>(16,8 15)</title></rect><rect x="85" y="40" width="2.5" height="2.5" fill="rgb(23,0,231)" tooltip="enable"><title>(17,8 6)</title></rect><rect x="90" y="40" width="2.5" height="2.5" fill="rgb(78,0,176)" tooltip="enable"><title>(18,8 20)</title></rect><rect x="95" y="40" width="2.5" height="2.5" fill="rgb(66,0,188)" tooltip="enable"><title>(19,8 17)</title></rect><rect x="100" y="40" width="2.5" height="2.5" fill="rgb(54,0,200)" tooltip="enable"><title>(20,8 14)</title></rect><rect x="50" y="45" width="2.5" height="2.5" fill="rgb(70,0,184)" tooltip="enable"><title>(10,9 18)</title></rect><rect x="55" y="45" width="2.5" height="2.5" fill="rgb(94,0,160)" tooltip="enable"><title>(11,9 24)</title></rect><rect x="60" y="45" width="2.5" height="2.5" fill="rgb(117,0,137)" tooltip="enable"><title>(12,9 30)</title></rect><rect x="65" y="45" width="2.5" height="2.5" fill="rgb(39,0,215)" tooltip="enable"><title>(13,9 10)</title></rect><rect x="70" y="45" width="2.5" height="2.5" fill="rgb(125,0,129)" tooltip="enable"><title>(14,9 32)</title></rect><rect x="75" y="45" width="2.5" height="2.5" fill="rgb(101,0,153)" tooltip="enable"><title>(15,9 26)</title></rect><rect x="80" y="45" width="2.5" height="2.5" fill="rgb(90,0,164)" tooltip="enable"><title>(16,9 23)</title></rect><rect x="85" y="45" width="2.5" height="2.5" fill="rgb(15,0,239)" tooltip="enable"><title>(17,9 4)</title></rect><rect x="90" y="45" width="2.5" height="2.5" fill="rgb(78,0,176)" tooltip="enable"><title>(18,9 20)</title></rect><rect x="95" y="45" width="2.5" height="2.5" fill="rgb(66,0,188)" tooltip="enable"><title>(19,9 17)</title></rect><rect x="100" y="45" width="2.5" height="2.5" fill="rgb(54,0,200)" tooltip="enable"><title>(20,9 14)</title></rect><rect x="55" y="50" width="2.5" height="2.5" fill="rgb(74,0,180)" tooltip="enable"><title>(11,10 19)</title></rect><rect x="60" y="50" width="2.5" height="2.5" fill="rgb(50,0,204)" tooltip="enable"><title>(12,10 13)</title></rect><rect x="65" y="50" width="2.5" height="2.5" fill="rgb(35,0,219)" tooltip="enable"><title>(13,10 9)</title></rect><rect x="70" y="50" width="2.5" height="2.5" fill="rgb(58,0,196)" tooltip="enable"><title>(14,10 15)</title></rect><rect x="75" y="50" width="2.5" height="2.5" fill="rgb(58,0,196)" tooltip="enable"><title>(15,10 15)</title></rect><rect x="80" y="50" width="2.5" height="2.5" fill="rgb(39,0,215)" tooltip="enable"><title>(16,10 10)</title></rect><rect x="85" y="50" width="2.5" height="2.5" fill="rgb(43,0,211)" tooltip="enable"><title>(17,10 11)</title></rect><rect x="90" y="50" width="2.5" height="2.5" fill="rgb(47,0,207)" tooltip="enable"><title>(18,10 12)</title></rect><rect x="95" y="50" width="2.5" height="2.5" fill="rgb(54,0,200)" tooltip="enable"><title>(19,10 14)</title></rect><rect x="100" y="50" width="2.5" height="2.5" fill="rgb(35,0,219)" tooltip="enable"><title>(20,10 9)</title></rect><rect x="60" y="55" width="2.5" height="2.5" fill="rgb(58,0,196)" tooltip="enable"><title>(12,11 15)</title></rect><rect x="65" y="55" width="2.5" height="2.5" fill="rgb(82,0,172)" tooltip="enable"><title>(13,11 21)</title></rect><rect x="70" y="55" width="2.5" height="2.5" fill="rgb(94,0,160)" tooltip="enable"><title>(14,11 24)</title></rect><rect x="75" y="55" width="2.5" height="2.5" fill="rgb(90,0,164)" tooltip="enable"><title>(15,11 23)</title></rect><rect x="80" y="55" width="2.5" height="2.5" fill="rgb(62,0,192)" tooltip="enable"><title>(16,11 16)</title></rect><rect x="85" y="55" width="2.5" height="2.5" fill="rgb(19,0,235)" tooltip="enable"><title>(17,11 5)</title></rect><rect x="90" y="55" width="2.5" height="2.5" fill="rgb(74,0,180)" tooltip="enable"><title>(18,11 19)</title></rect><rect x="95" y="55" width="2.5" height="2.5" fill="rgb(82,0,172)" tooltip="enable"><title>(19,11 21)</title></rect><rect x="100" y="55" width="2.5" height="2.5" fill="rgb(39,0,215)" tooltip="enable"><title>(20,11 10)</title></rect><rect x="65" y="60" width="2.5" height="2.5" fill="rgb(31,0,223)" tooltip="enable"><title>(13,12 8)</title></rect><rect x="70" y="60" width="2.5" height="2.5" fill="rgb(54,0,200)" tooltip="enable"><title>(14,12 14)</title></rect><rect x="75" y="60" width="2.5" height="2.5" fill="rgb(74,0,180)" tooltip="enable"><title>(15,12 19)</title></rect><rect x="80" y="60" width="2.5" height="2.5" fill="rgb(35,0,219)" tooltip="enable"><title>(16,12 9)</title></rect><rect x="85" y="60" width="2.5" height="2.5" fill="rgb(15,0,239)" tooltip="enable"><title>(17,12 4)</title></rect><rect x="90" y="60" width="2.5" height="2.5" fill="rgb(39,0,215)" tooltip="enable"><title>(18,12 10)</title></rect><rect x="95" y="60" width="2.5" height="2.5" fill="rgb(15,0,239)" tooltip="enable"><title>(19,12 4)</title></rect><rect x="100" y="60" width="2.5" height="2.5" fill="rgb(27,0,227)" tooltip="enable"><title>(20,12 7)</title></rect><rect x="70" y="65" width="2.5" height="2.5" fill="rgb(35,0,219)" tooltip="enable"><title>(14,13 9)</title></rect><rect x="75" y="65" width="2.5" height="2.5" fill="rgb(27,0,227)" tooltip="enable"><title>(15,13 7)</title></rect><rect x="80" y="65" width="2.5" height="2.5" fill="rgb(31,0,223)" tooltip="enable"><title>(16,13 8)</title></rect><rect x="85" y="65" width="2.5" height="2.5" fill="rgb(7,0,247)" tooltip="enable"><title>(17,13 2)</title></rect><rect x="90" y="65" width="2.5" height="2.5" fill="rgb(23,0,231)" tooltip="enable"><title>(18,13 6)</title></rect><rect x="95" y="65" width="2.5" height="2.5" fill="rgb(23,0,231)" tooltip="enable"><title>(19,13 6)</title></rect><rect x="100" y="65" width="2.5" height="2.5" fill="rgb(7,0,247)" tooltip="enable"><title>(20,13 2)</title></rect><rect x="75" y="70" width="2.5" height="2.5" fill="rgb(117,0,137)" tooltip="enable"><title>(15,14 30)</title></rect><rect x="80" y="70" width="2.5" height="2.5" fill="rgb(94,0,160)" tooltip="enable"><title>(16,14 24)</title></rect><rect x="85" y="70" width="2.5" height="2.5" fill="rgb(27,0,227)" tooltip="enable"><title>(17,14 7)</title></rect><rect x="90" y="70" width="2.5" height="2.5" fill="rgb(82,0,172)" tooltip="enable"><title>(18,14 21)</title></rect><rect x="95" y="70" width="2.5" height="2.5" fill="rgb(78,0,176)" tooltip="enable"><title>(19,14 20)</title></rect><rect x="100" y="70" width="2.5" height="2.5" fill="rgb(82,0,172)" tooltip="enable"><title>(20,14 21)</title></rect><rect x="80" y="75" width="2.5" height="2.5" fill="rgb(117,0,137)" tooltip="enable"><title>(16,15 30)</title></rect><rect x="85" y="75" width="2.5" height="2.5" fill="rgb(27,0,227)" tooltip="enable"><title>(17,15 7)</title></rect><rect x="90" y="75" width="2.5" height="2.5" fill="rgb(54,0,200)" tooltip="enable"><title>(18,15 14)</title></rect><rect x="95" y="75" width="2.5" height="2.5" fill="rgb(121,0,133)" tooltip="enable"><title>(19,15 31)</title></rect><rect x="100" y="75" width="2.5" height="2.5" fill="rgb(219,0,35)" tooltip="enable"><title>(20,15 56)</title></rect><rect x="85" y="80" width="2.5" height="2.5" fill="rgb(58,0,196)" tooltip="enable"><title>(17,16 15)</title></rect><rect x="90" y="80" width="2.5" height="2.5" fill="rgb(109,0,145)" tooltip="enable"><title>(18,16 28)</title></rect><rect x="95" y="80" width="2.5" height="2.5" fill="rgb(255,0,0)" tooltip="enable"><title>(19,16 65)</title></rect><rect x="100" y="80" width="2.5" height="2.5" fill="rgb(78,0,176)" tooltip="enable"><title>(20,16 20)</title></rect><rect x="90" y="85" width="2.5" height="2.5" fill="rgb(101,0,153)" tooltip="enable"><title>(18,17 26)</title></rect><rect x="95" y="85" width="2.5" height="2.5" fill="rgb(47,0,207)" tooltip="enable"><title>(19,17 12)</title></rect><rect x="100" y="85" width="2.5" height="2.5" fill="rgb(27,0,227)" tooltip="enable"><title>(20,17 7)</title></rect><rect x="95" y="90" width="2.5" height="2.5" fill="rgb(90,0,164)" tooltip="enable"><title>(19,18 23)</title></rect><rect x="100" y="90" width="2.5" height="2.5" fill="rgb(74,0,180)" tooltip="enable"><title>(20,18 19)</title></rect><rect x="100" y="95" width="2.5" height="2.5" fill="rgb(82,0,172)" tooltip="enable"><title>(20,19 21)</title></rect><text x="110" y="5" font-size="5" fill="black">0</text>
<text x="110" y="100" font-size="5" fill="black">21</text>
<polyline points="110,10,110,95" stroke="black" stroke-width="1" fill="none"/>
<text x="5" y="110" font-size="5" fill="black">0</text>
<text x="100" y="110" font-size="5" fill="black">21</text>
<polyline points="10,110,95,110" stroke="black" stroke-width="1" fill="none"/>
</svg>