<?xml version="1.0" standalone="yes"?>
<!-- SVG graphic -->
<svg xmlns='http://www.w3.org/2000/svg' xmlns:xlink='http://www.w3.org/1999/xlink'
width="160px" height="160px" preserveAspectRatio="xMinYMin meet" viewBox="0 0 160 160" version="1.1">
<rect x="5" y="0" width="2.5" height="2.5" fill="rgb(204,0,50)" tooltip="enable"><title>(1,0 170)</title></rect><rect x="60" y="0" width="2.5" height="2.5" fill="rgb(165,0,89)" tooltip="enable"><title>(12,0 138)</title></rect><rect x="110" y="0" width="2.5" height="2.5" fill="rgb(72,0,182)" tooltip="enable"><title>(22,0 60)</title></rect><rect x="115" y="0" width="2.5" height="2.5" fill="rgb(52,0,202)" tooltip="enable"><title>(23,0 44)</title></rect><rect x="120" y="0" width="2.5" height="2.5" fill="rgb(60,0,194)" tooltip="enable"><title>(24,0 50)</title></rect><rect x="130" y="0" width="2.5" height="2.5" fill="rgb(24,0,230)" tooltip="enable"><title>(26,0 20)</title></rect><rect x="60" y="5" width="2.5" height="2.5" fill="rgb(162,0,92)" tooltip="enable"><title>(12,1 135)</title></rect><rect x="110" y="5" width="2.5" height="2.5" fill="rgb(95,0,159)" tooltip="enable"><title>(22,1 79)</title></rect><rect x="115" y="5" width="2.5" height="2.5" fill="rgb(58,0,196)" tooltip="enable"><title>(23,1 49)</title></rect><rect x="120" y="5" width="2.5" height="2.5" fill="rgb(48,0,206)" tooltip="enable"><title>(24,1 40)</title></rect><rect x="130" y="5" width="2.5" height="2.5" fill="rgb(25,0,229)" tooltip="enable"><title>(26,1 21)</title></rect><rect x="15" y="10" width="2.5" height="2.5" fill="rgb(184,0,70)" tooltip="enable"><title>(3,2 153)</title></rect><rect x="20" y="10" width="2.5" height="2.5" fill="rgb(117,0,137)" tooltip="enable"><title>(4,2 98)</title></rect><rect x="25" y="10" width="2.5" height="2.5" fill="rgb(62,0,192)" tooltip="enable"><title>(5,2 52)</title></rect><rect x="30" y="10" width="2.5" height="2.5" fill="rgb(48,0,206)" tooltip="enable"><title>(6,2 40)</title></rect><rect x="115" y="10" width="2.5" height="2.5" fill="rgb(32,0,222)" tooltip="enable"><title>(23,2 27)</title></rect><rect x="120" y="10" width="2.5" height="2.5" fill="rgb(46,0,208)" tooltip="enable"><title>(24,2 39)</title></rect><rect x="125" y="10" width="2.5" height="2.5" fill="rgb(54,0,200)" tooltip="enable"><title>(25,2 45)</title></rect><rect x="130" y="10" width="2.5" height="2.5" fill="rgb(78,0,176)" tooltip="enable"><title>(26,2 65)</title></rect><rect x="135" y="10" width="2.5" height="2.5" fill="rgb(103,0,151)" tooltip="enable"><title>(27,2 86)</title></rect><rect x="140" y="10" width="2.5" height="2.5" fill="rgb(221,0,33)" tooltip="enable"><title>(28,2 184)</title></rect><rect x="20" y="15" width="2.5" height="2.5" fill="rgb(210,0,44)" tooltip="enable"><title>(4,3 175)</title></rect><rect x="25" y="15" width="2.5" height="2.5" fill="rgb(76,0,178)" tooltip="enable"><title>(5,3 64)</title></rect><rect x="30" y="15" width="2.5" height="2.5" fill="rgb(58,0,196)" tooltip="enable"><title>(6,3 49)</title></rect><rect x="40" y="15" width="2.5" height="2.5" fill="rgb(36,0,218)" tooltip="enable"><title>(8,3 30)</title></rect><rect x="120" y="15" width="2.5" height="2.5" fill="rgb(27,0,227)" tooltip="enable"><title>(24,3 23)</title></rect><rect x="125" y="15" width="2.5" height="2.5" fill="rgb(25,0,229)" tooltip="enable"><title>(25,3 21)</title></rect><rect x="130" y="15" width="2.5" height="2.5" fill="rgb(50,0,204)" tooltip="enable"><title>(26,3 42)</title></rect><rect x="135" y="15" width="2.5" height="2.5" fill="rgb(80,0,174)" tooltip="enable"><title>(27,3 67)</title></rect><rect x="140" y="15" width="2.5" height="2.5" fill="rgb(168,0,86)" tooltip="enable"><title>(28,3 140)</title></rect><rect x="25" y="20" width="2.5" height="2.5" fill="rgb(115,0,139)" tooltip="enable"><title>(5,4 96)</title></rect><rect x="30" y="20" width="2.5" height="2.5" fill="rgb(72,0,182)" tooltip="enable"><title>(6,4 60)</title></rect><rect x="35" y="20" width="2.5" height="2.5" fill="rgb(26,0,228)" tooltip="enable"><title>(7,4 22)</title></rect><rect x="40" y="20" width="2.5" height="2.5" fill="rgb(50,0,204)" tooltip="enable"><title>(8,4 42)</title></rect><rect x="120" y="20" width="2.5" height="2.5" fill="rgb(22,0,232)" tooltip="enable"><title>(24,4 19)</title></rect><rect x="130" y="20" width="2.5" height="2.5" fill="rgb(30,0,224)" tooltip="enable"><title>(26,4 25)</title></rect><rect x="135" y="20" width="2.5" height="2.5" fill="rgb(33,0,221)" tooltip="enable"><title>(27,4 28)</title></rect><rect x="140" y="20" width="2.5" height="2.5" fill="rgb(98,0,156)" tooltip="enable"><title>(28,4 82)</title></rect><rect x="30" y="25" width="2.5" height="2.5" fill="rgb(110,0,144)" tooltip="enable"><title>(6,5 92)</title></rect><rect x="35" y="25" width="2.5" height="2.5" fill="rgb(37,0,217)" tooltip="enable"><title>(7,5 31)</title></rect><rect x="40" y="25" width="2.5" height="2.5" fill="rgb(34,0,220)" tooltip="enable"><title>(8,5 29)</title></rect><rect x="130" y="25" width="2.5" height="2.5" fill="rgb(25,0,229)" tooltip="enable"><title>(26,5 21)</title></rect><rect x="135" y="25" width="2.5" height="2.5" fill="rgb(30,0,224)" tooltip="enable"><title>(27,5 25)</title></rect><rect x="140" y="25" width="2.5" height="2.5" fill="rgb(45,0,209)" tooltip="enable"><title>(28,5 38)</title></rect><rect x="35" y="30" width="2.5" height="2.5" fill="rgb(66,0,188)" tooltip="enable"><title>(7,6 55)</title></rect><rect x="40" y="30" width="2.5" height="2.5" fill="rgb(48,0,206)" tooltip="enable"><title>(8,6 40)</title></rect><rect x="45" y="30" width="2.5" height="2.5" fill="rgb(32,0,222)" tooltip="enable"><title>(9,6 27)</title></rect><rect x="40" y="35" width="2.5" height="2.5" fill="rgb(56,0,198)" tooltip="enable"><title>(8,7 47)</title></rect><rect x="45" y="35" width="2.5" height="2.5" fill="rgb(51,0,203)" tooltip="enable"><title>(9,7 43)</title></rect><rect x="50" y="35" width="2.5" height="2.5" fill="rgb(31,0,223)" tooltip="enable"><title>(10,7 26)</title></rect><rect x="45" y="40" width="2.5" height="2.5" fill="rgb(82,0,172)" tooltip="enable"><title>(9,8 69)</title></rect><rect x="50" y="40" width="2.5" height="2.5" fill="rgb(56,0,198)" tooltip="enable"><title>(10,8 47)</title></rect><rect x="55" y="40" width="2.5" height="2.5" fill="rgb(25,0,229)" tooltip="enable"><title>(11,8 21)</title></rect><rect x="75" y="40" width="2.5" height="2.5" fill="rgb(30,0,224)" tooltip="enable"><title>(15,8 25)</title></rect><rect x="80" y="40" width="2.5" height="2.5" fill="rgb(27,0,227)" tooltip="enable"><title>(16,8 23)</title></rect><rect x="50" y="45" width="2.5" height="2.5" fill="rgb(80,0,174)" tooltip="enable"><title>(10,9 67)</title></rect><rect x="55" y="45" width="2.5" height="2.5" fill="rgb(36,0,218)" tooltip="enable"><title>(11,9 30)</title></rect><rect x="65" y="45" width="2.5" height="2.5" fill="rgb(24,0,230)" tooltip="enable"><title>(13,9 20)</title></rect><rect x="55" y="50" width="2.5" height="2.5" fill="rgb(82,0,172)" tooltip="enable"><title>(11,10 69)</title></rect><rect x="65" y="50" width="2.5" height="2.5" fill="rgb(48,0,206)" tooltip="enable"><title>(13,10 40)</title></rect><rect x="65" y="55" width="2.5" height="2.5" fill="rgb(68,0,186)" tooltip="enable"><title>(13,11 57)</title></rect><rect x="70" y="55" width="2.5" height="2.5" fill="rgb(33,0,221)" tooltip="enable"><title>(14,11 28)</title></rect><rect x="110" y="60" width="2.5" height="2.5" fill="rgb(128,0,126)" tooltip="enable"><title>(22,12 107)</title></rect><rect x="115" y="60" width="2.5" height="2.5" fill="rgb(80,0,174)" tooltip="enable"><title>(23,12 67)</title></rect><rect x="120" y="60" width="2.5" height="2.5" fill="rgb(70,0,184)" tooltip="enable"><title>(24,12 59)</title></rect><rect x="125" y="60" width="2.5" height="2.5" fill="rgb(40,0,214)" tooltip="enable"><title>(25,12 34)</title></rect><rect x="130" y="60" width="2.5" height="2.5" fill="rgb(33,0,221)" tooltip="enable"><title>(26,12 28)</title></rect><rect x="135" y="60" width="2.5" height="2.5" fill="rgb(38,0,216)" tooltip="enable"><title>(27,12 32)</title></rect><rect x="70" y="65" width="2.5" height="2.5" fill="rgb(82,0,172)" tooltip="enable"><title>(14,13 69)</title></rect><rect x="75" y="65" width="2.5" height="2.5" fill="rgb(50,0,204)" tooltip="enable"><title>(15,13 42)</title></rect><rect x="80" y="65" width="2.5" height="2.5" fill="rgb(27,0,227)" tooltip="enable"><title>(16,13 23)</title></rect><rect x="75" y="70" width="2.5" height="2.5" fill="rgb(66,0,188)" tooltip="enable"><title>(15,14 55)</title></rect><rect x="80" y="70" width="2.5" height="2.5" fill="rgb(46,0,208)" tooltip="enable"><title>(16,14 39)</title></rect><rect x="80" y="75" width="2.5" height="2.5" fill="rgb(255,0,0)" tooltip="enable"><title>(16,15 212)</title></rect><rect x="85" y="75" width="2.5" height="2.5" fill="rgb(61,0,193)" tooltip="enable"><title>(17,15 51)</title></rect><rect x="90" y="75" width="2.5" height="2.5" fill="rgb(96,0,158)" tooltip="enable"><title>(18,15 80)</title></rect><rect x="105" y="75" width="2.5" height="2.5" fill="rgb(21,0,233)" tooltip="enable"><title>(21,15 18)</title></rect><rect x="85" y="80" width="2.5" height="2.5" fill="rgb(84,0,170)" tooltip="enable"><title>(17,16 70)</title></rect><rect x="90" y="80" width="2.5" height="2.5" fill="rgb(115,0,139)" tooltip="enable"><title>(18,16 96)</title></rect><rect x="95" y="80" width="2.5" height="2.5" fill="rgb(43,0,211)" tooltip="enable"><title>(19,16 36)</title></rect><rect x="105" y="80" width="2.5" height="2.5" fill="rgb(45,0,209)" tooltip="enable"><title>(21,16 38)</title></rect><rect x="90" y="85" width="2.5" height="2.5" fill="rgb(91,0,163)" tooltip="enable"><title>(18,17 76)</title></rect><rect x="95" y="85" width="2.5" height="2.5" fill="rgb(51,0,203)" tooltip="enable"><title>(19,17 43)</title></rect><rect x="105" y="85" width="2.5" height="2.5" fill="rgb(43,0,211)" tooltip="enable"><title>(21,17 36)</title></rect><rect x="95" y="90" width="2.5" height="2.5" fill="rgb(104,0,150)" tooltip="enable"><title>(19,18 87)</title></rect><rect x="100" y="90" width="2.5" height="2.5" fill="rgb(43,0,211)" tooltip="enable"><title>(20,18 36)</title></rect><rect x="105" y="90" width="2.5" height="2.5" fill="rgb(109,0,145)" tooltip="enable"><title>(21,18 91)</title></rect><rect x="100" y="95" width="2.5" height="2.5" fill="rgb(58,0,196)" tooltip="enable"><title>(20,19 49)</title></rect><rect x="105" y="95" width="2.5" height="2.5" fill="rgb(95,0,159)" tooltip="enable"><title>(21,19 79)</title></rect><rect x="105" y="100" width="2.5" height="2.5" fill="rgb(70,0,184)" tooltip="enable"><title>(21,20 59)</title></rect><rect x="115" y="110" width="2.5" height="2.5" fill="rgb(95,0,159)" tooltip="enable"><title>(23,22 79)</title></rect><rect x="120" y="110" width="2.5" height="2.5" fill="rgb(69,0,185)" tooltip="enable"><title>(24,22 58)</title></rect><rect x="125" y="110" width="2.5" height="2.5" fill="rgb(46,0,208)" tooltip="enable"><title>(25,22 39)</title></rect><rect x="130" y="110" width="2.5" height="2.5" fill="rgb(40,0,214)" tooltip="enable"><title>(26,22 34)</title></rect><rect x="135" y="110" width="2.5" height="2.5" fill="rgb(33,0,221)" tooltip="enable"><title>(27,22 28)</title></rect><rect x="120" y="115" width="2.5" height="2.5" fill="rgb(105,0,149)" tooltip="enable"><title>(24,23 88)</title></rect><rect x="125" y="115" width="2.5" height="2.5" fill="rgb(67,0,187)" tooltip="enable"><title>(25,23 56)</title></rect><rect x="130" y="115" width="2.5" height="2.5" fill="rgb(60,0,194)" tooltip="enable"><title>(26,23 50)</title></rect><rect x="135" y="115" width="2.5" height="2.5" fill="rgb(46,0,208)" tooltip="enable"><title>(27,23 39)</title></rect><rect x="125" y="120" width="2.5" height="2.5" fill="rgb(91,0,163)" tooltip="enable"><title>(25,24 76)</title></rect><rect x="130" y="120" width="2.5" height="2.5" fill="rgb(107,0,147)" tooltip="enable"><title>(26,24 89)</title></rect><rect x="135" y="120" width="2.5" height="2.5" fill="rgb(76,0,178)" tooltip="enable"><title>(27,24 64)</title></rect><rect x="140" y="120" width="2.5" height="2.5" fill="rgb(60,0,194)" tooltip="enable"><title>(28,24 50)</title></rect><rect x="130" y="125" width="2.5" height="2.5" fill="rgb(96,0,158)" tooltip="enable"><title>(26,25 80)</title></rect><rect x="135" y="125" width="2.5" height="2.5" fill="rgb(57,0,197)" tooltip="enable"><title>(27,25 48)</title></rect><rect x="140" y="125" width="2.5" height="2.5" fill="rgb(40,0,214)" tooltip="enable"><title>(28,25 34)</title></rect><rect x="135" y="130" width="2.5" height="2.5" fill="rgb(103,0,151)" tooltip="enable"><title>(27,26 86)</title></rect><rect x="140" y="130" width="2.5" height="2.5" fill="rgb(90,0,164)" tooltip="enable"><title>(28,26 75)</title></rect><rect x="140" y="135" width="2.5" height="2.5" fill="rgb(122,0,132)" tooltip="enable"><title>(28,27 102)</title></rect><text x="150" y="5" font-size="5" fill="black">0</text>
<text x="150" y="140" font-size="5" fill="black">29</text>
<polyline points="150,10,150,135" stroke="black" stroke-width="1" fill="none"/>
<text x="5" y="150" font-size="5" fill="black">0</text>
<text x="140" y="150" font-size="5" fill="black">29</text>
<polyline points="10,150,135,150" stroke="black" stroke-width="1" fill="none"/>
</svg>