<?xml version="1.0" standalone="yes"?>
<!-- SVG graphic -->
<svg xmlns='http://www.w3.org/2000/svg' xmlns:xlink='http://www.w3.org/1999/xlink'
width="160px" height="160px" preserveAspectRatio="xMinYMin meet" viewBox="0 0 160 160" version="1.1">
<rect x="5" y="0" width="2.5" height="2.5" fill="rgb(207,0,47)" tooltip="enable"><title>(1,0 226)</title></rect><rect x="10" y="0" width="2.5" height="2.5" fill="rgb(67,0,187)" tooltip="enable"><title>(2,0 74)</title></rect><rect x="15" y="0" width="2.5" height="2.5" fill="rgb(74,0,180)" tooltip="enable"><title>(3,0 81)</title></rect><rect x="20" y="0" width="2.5" height="2.5" fill="rgb(74,0,180)" tooltip="enable"><title>(4,0 81)</title></rect><rect x="25" y="0" width="2.5" height="2.5" fill="rgb(39,0,215)" tooltip="enable"><title>(5,0 43)</title></rect><rect x="30" y="0" width="2.5" height="2.5" fill="rgb(41,0,213)" tooltip="enable"><title>(6,0 45)</title></rect><rect x="35" y="0" width="2.5" height="2.5" fill="rgb(32,0,222)" tooltip="enable"><title>(7,0 35)</title></rect><rect x="40" y="0" width="2.5" height="2.5" fill="rgb(52,0,202)" tooltip="enable"><title>(8,0 57)</title></rect><rect x="45" y="0" width="2.5" height="2.5" fill="rgb(21,0,233)" tooltip="enable"><title>(9,0 23)</title></rect><rect x="50" y="0" width="2.5" height="2.5" fill="rgb(33,0,221)" tooltip="enable"><title>(10,0 37)</title></rect><rect x="55" y="0" width="2.5" height="2.5" fill="rgb(27,0,227)" tooltip="enable"><title>(11,0 30)</title></rect><rect x="60" y="0" width="2.5" height="2.5" fill="rgb(177,0,77)" tooltip="enable"><title>(12,0 193)</title></rect><rect x="65" y="0" width="2.5" height="2.5" fill="rgb(33,0,221)" tooltip="enable"><title>(13,0 37)</title></rect><rect x="70" y="0" width="2.5" height="2.5" fill="rgb(35,0,219)" tooltip="enable"><title>(14,0 39)</title></rect><rect x="75" y="0" width="2.5" height="2.5" fill="rgb(80,0,174)" tooltip="enable"><title>(15,0 88)</title></rect><rect x="80" y="0" width="2.5" height="2.5" fill="rgb(81,0,173)" tooltip="enable"><title>(16,0 89)</title></rect><rect x="85" y="0" width="2.5" height="2.5" fill="rgb(49,0,205)" tooltip="enable"><title>(17,0 54)</title></rect><rect x="90" y="0" width="2.5" height="2.5" fill="rgb(99,0,155)" tooltip="enable"><title>(18,0 109)</title></rect><rect x="95" y="0" width="2.5" height="2.5" fill="rgb(79,0,175)" tooltip="enable"><title>(19,0 87)</title></rect><rect x="100" y="0" width="2.5" height="2.5" fill="rgb(47,0,207)" tooltip="enable"><title>(20,0 52)</title></rect><rect x="105" y="0" width="2.5" height="2.5" fill="rgb(71,0,183)" tooltip="enable"><title>(21,0 78)</title></rect><rect x="110" y="0" width="2.5" height="2.5" fill="rgb(92,0,162)" tooltip="enable"><title>(22,0 101)</title></rect><rect x="115" y="0" width="2.5" height="2.5" fill="rgb(69,0,185)" tooltip="enable"><title>(23,0 76)</title></rect><rect x="120" y="0" width="2.5" height="2.5" fill="rgb(79,0,175)" tooltip="enable"><title>(24,0 87)</title></rect><rect x="125" y="0" width="2.5" height="2.5" fill="rgb(44,0,210)" tooltip="enable"><title>(25,0 48)</title></rect><rect x="130" y="0" width="2.5" height="2.5" fill="rgb(43,0,211)" tooltip="enable"><title>(26,0 47)</title></rect><rect x="135" y="0" width="2.5" height="2.5" fill="rgb(61,0,193)" tooltip="enable"><title>(27,0 67)</title></rect><rect x="140" y="0" width="2.5" height="2.5" fill="rgb(60,0,194)" tooltip="enable"><title>(28,0 66)</title></rect><rect x="10" y="5" width="2.5" height="2.5" fill="rgb(55,0,199)" tooltip="enable"><title>(2,1 60)</title></rect><rect x="15" y="5" width="2.5" height="2.5" fill="rgb(70,0,184)" tooltip="enable"><title>(3,1 77)</title></rect><rect x="20" y="5" width="2.5" height="2.5" fill="rgb(66,0,188)" tooltip="enable"><title>(4,1 72)</title></rect><rect x="25" y="5" width="2.5" height="2.5" fill="rgb(32,0,222)" tooltip="enable"><title>(5,1 35)</title></rect><rect x="30" y="5" width="2.5" height="2.5" fill="rgb(28,0,226)" tooltip="enable"><title>(6,1 31)</title></rect><rect x="35" y="5" width="2.5" height="2.5" fill="rgb(31,0,223)" tooltip="enable"><title>(7,1 34)</title></rect><rect x="40" y="5" width="2.5" height="2.5" fill="rgb(62,0,192)" tooltip="enable"><title>(8,1 68)</title></rect><rect x="45" y="5" width="2.5" height="2.5" fill="rgb(20,0,234)" tooltip="enable"><title>(9,1 22)</title></rect><rect x="50" y="5" width="2.5" height="2.5" fill="rgb(41,0,213)" tooltip="enable"><title>(10,1 45)</title></rect><rect x="55" y="5" width="2.5" height="2.5" fill="rgb(22,0,232)" tooltip="enable"><title>(11,1 25)</title></rect><rect x="60" y="5" width="2.5" height="2.5" fill="rgb(175,0,79)" tooltip="enable"><title>(12,1 191)</title></rect><rect x="65" y="5" width="2.5" height="2.5" fill="rgb(40,0,214)" tooltip="enable"><title>(13,1 44)</title></rect><rect x="70" y="5" width="2.5" height="2.5" fill="rgb(35,0,219)" tooltip="enable"><title>(14,1 39)</title></rect><rect x="75" y="5" width="2.5" height="2.5" fill="rgb(88,0,166)" tooltip="enable"><title>(15,1 97)</title></rect><rect x="80" y="5" width="2.5" height="2.5" fill="rgb(97,0,157)" tooltip="enable"><title>(16,1 106)</title></rect><rect x="85" y="5" width="2.5" height="2.5" fill="rgb(47,0,207)" tooltip="enable"><title>(17,1 52)</title></rect><rect x="90" y="5" width="2.5" height="2.5" fill="rgb(99,0,155)" tooltip="enable"><title>(18,1 108)</title></rect><rect x="95" y="5" width="2.5" height="2.5" fill="rgb(88,0,166)" tooltip="enable"><title>(19,1 97)</title></rect><rect x="100" y="5" width="2.5" height="2.5" fill="rgb(55,0,199)" tooltip="enable"><title>(20,1 60)</title></rect><rect x="105" y="5" width="2.5" height="2.5" fill="rgb(79,0,175)" tooltip="enable"><title>(21,1 87)</title></rect><rect x="110" y="5" width="2.5" height="2.5" fill="rgb(112,0,142)" tooltip="enable"><title>(22,1 123)</title></rect><rect x="115" y="5" width="2.5" height="2.5" fill="rgb(87,0,167)" tooltip="enable"><title>(23,1 95)</title></rect><rect x="120" y="5" width="2.5" height="2.5" fill="rgb(77,0,177)" tooltip="enable"><title>(24,1 85)</title></rect><rect x="125" y="5" width="2.5" height="2.5" fill="rgb(49,0,205)" tooltip="enable"><title>(25,1 54)</title></rect><rect x="130" y="5" width="2.5" height="2.5" fill="rgb(56,0,198)" tooltip="enable"><title>(26,1 62)</title></rect><rect x="135" y="5" width="2.5" height="2.5" fill="rgb(65,0,189)" tooltip="enable"><title>(27,1 71)</title></rect><rect x="140" y="5" width="2.5" height="2.5" fill="rgb(64,0,190)" tooltip="enable"><title>(28,1 70)</title></rect><rect x="15" y="10" width="2.5" height="2.5" fill="rgb(204,0,50)" tooltip="enable"><title>(3,2 223)</title></rect><rect x="20" y="10" width="2.5" height="2.5" fill="rgb(154,0,100)" tooltip="enable"><title>(4,2 168)</title></rect><rect x="25" y="10" width="2.5" height="2.5" fill="rgb(77,0,177)" tooltip="enable"><title>(5,2 84)</title></rect><rect x="30" y="10" width="2.5" height="2.5" fill="rgb(73,0,181)" tooltip="enable"><title>(6,2 80)</title></rect><rect x="35" y="10" width="2.5" height="2.5" fill="rgb(44,0,210)" tooltip="enable"><title>(7,2 48)</title></rect><rect x="40" y="10" width="2.5" height="2.5" fill="rgb(74,0,180)" tooltip="enable"><title>(8,2 81)</title></rect><rect x="45" y="10" width="2.5" height="2.5" fill="rgb(36,0,218)" tooltip="enable"><title>(9,2 40)</title></rect><rect x="50" y="10" width="2.5" height="2.5" fill="rgb(44,0,210)" tooltip="enable"><title>(10,2 48)</title></rect><rect x="55" y="10" width="2.5" height="2.5" fill="rgb(26,0,228)" tooltip="enable"><title>(11,2 29)</title></rect><rect x="60" y="10" width="2.5" height="2.5" fill="rgb(74,0,180)" tooltip="enable"><title>(12,2 81)</title></rect><rect x="65" y="10" width="2.5" height="2.5" fill="rgb(36,0,218)" tooltip="enable"><title>(13,2 40)</title></rect><rect x="70" y="10" width="2.5" height="2.5" fill="rgb(42,0,212)" tooltip="enable"><title>(14,2 46)</title></rect><rect x="75" y="10" width="2.5" height="2.5" fill="rgb(81,0,173)" tooltip="enable"><title>(15,2 89)</title></rect><rect x="80" y="10" width="2.5" height="2.5" fill="rgb(96,0,158)" tooltip="enable"><title>(16,2 105)</title></rect><rect x="85" y="10" width="2.5" height="2.5" fill="rgb(49,0,205)" tooltip="enable"><title>(17,2 54)</title></rect><rect x="90" y="10" width="2.5" height="2.5" fill="rgb(110,0,144)" tooltip="enable"><title>(18,2 120)</title></rect><rect x="95" y="10" width="2.5" height="2.5" fill="rgb(87,0,167)" tooltip="enable"><title>(19,2 95)</title></rect><rect x="100" y="10" width="2.5" height="2.5" fill="rgb(58,0,196)" tooltip="enable"><title>(20,2 64)</title></rect><rect x="105" y="10" width="2.5" height="2.5" fill="rgb(80,0,174)" tooltip="enable"><title>(21,2 88)</title></rect><rect x="110" y="10" width="2.5" height="2.5" fill="rgb(62,0,192)" tooltip="enable"><title>(22,2 68)</title></rect><rect x="115" y="10" width="2.5" height="2.5" fill="rgb(58,0,196)" tooltip="enable"><title>(23,2 64)</title></rect><rect x="120" y="10" width="2.5" height="2.5" fill="rgb(76,0,178)" tooltip="enable"><title>(24,2 83)</title></rect><rect x="125" y="10" width="2.5" height="2.5" fill="rgb(56,0,198)" tooltip="enable"><title>(25,2 62)</title></rect><rect x="130" y="10" width="2.5" height="2.5" fill="rgb(81,0,173)" tooltip="enable"><title>(26,2 89)</title></rect><rect x="135" y="10" width="2.5" height="2.5" fill="rgb(118,0,136)" tooltip="enable"><title>(27,2 129)</title></rect><rect x="140" y="10" width="2.5" height="2.5" fill="rgb(215,0,39)" tooltip="enable"><title>(28,2 235)</title></rect><rect x="20" y="15" width="2.5" height="2.5" fill="rgb(227,0,27)" tooltip="enable"><title>(4,3 248)</title></rect><rect x="25" y="15" width="2.5" height="2.5" fill="rgb(94,0,160)" tooltip="enable"><title>(5,3 103)</title></rect><rect x="30" y="15" width="2.5" height="2.5" fill="rgb(66,0,188)" tooltip="enable"><title>(6,3 73)</title></rect><rect x="35" y="15" width="2.5" height="2.5" fill="rgb(43,0,211)" tooltip="enable"><title>(7,3 47)</title></rect><rect x="40" y="15" width="2.5" height="2.5" fill="rgb(77,0,177)" tooltip="enable"><title>(8,3 84)</title></rect><rect x="45" y="15" width="2.5" height="2.5" fill="rgb(35,0,219)" tooltip="enable"><title>(9,3 39)</title></rect><rect x="50" y="15" width="2.5" height="2.5" fill="rgb(48,0,206)" tooltip="enable"><title>(10,3 53)</title></rect><rect x="55" y="15" width="2.5" height="2.5" fill="rgb(27,0,227)" tooltip="enable"><title>(11,3 30)</title></rect><rect x="60" y="15" width="2.5" height="2.5" fill="rgb(63,0,191)" tooltip="enable"><title>(12,3 69)</title></rect><rect x="65" y="15" width="2.5" height="2.5" fill="rgb(32,0,222)" tooltip="enable"><title>(13,3 35)</title></rect><rect x="70" y="15" width="2.5" height="2.5" fill="rgb(41,0,213)" tooltip="enable"><title>(14,3 45)</title></rect><rect x="75" y="15" width="2.5" height="2.5" fill="rgb(94,0,160)" tooltip="enable"><title>(15,3 103)</title></rect><rect x="80" y="15" width="2.5" height="2.5" fill="rgb(95,0,159)" tooltip="enable"><title>(16,3 104)</title></rect><rect x="85" y="15" width="2.5" height="2.5" fill="rgb(48,0,206)" tooltip="enable"><title>(17,3 53)</title></rect><rect x="90" y="15" width="2.5" height="2.5" fill="rgb(99,0,155)" tooltip="enable"><title>(18,3 108)</title></rect><rect x="95" y="15" width="2.5" height="2.5" fill="rgb(59,0,195)" tooltip="enable"><title>(19,3 65)</title></rect><rect x="100" y="15" width="2.5" height="2.5" fill="rgb(48,0,206)" tooltip="enable"><title>(20,3 53)</title></rect><rect x="105" y="15" width="2.5" height="2.5" fill="rgb(76,0,178)" tooltip="enable"><title>(21,3 83)</title></rect><rect x="110" y="15" width="2.5" height="2.5" fill="rgb(41,0,213)" tooltip="enable"><title>(22,3 45)</title></rect><rect x="115" y="15" width="2.5" height="2.5" fill="rgb(41,0,213)" tooltip="enable"><title>(23,3 45)</title></rect><rect x="120" y="15" width="2.5" height="2.5" fill="rgb(59,0,195)" tooltip="enable"><title>(24,3 65)</title></rect><rect x="125" y="15" width="2.5" height="2.5" fill="rgb(47,0,207)" tooltip="enable"><title>(25,3 52)</title></rect><rect x="130" y="15" width="2.5" height="2.5" fill="rgb(59,0,195)" tooltip="enable"><title>(26,3 65)</title></rect><rect x="135" y="15" width="2.5" height="2.5" fill="rgb(103,0,151)" tooltip="enable"><title>(27,3 113)</title></rect><rect x="140" y="15" width="2.5" height="2.5" fill="rgb(168,0,86)" tooltip="enable"><title>(28,3 184)</title></rect><rect x="25" y="20" width="2.5" height="2.5" fill="rgb(126,0,128)" tooltip="enable"><title>(5,4 138)</title></rect><rect x="30" y="20" width="2.5" height="2.5" fill="rgb(88,0,166)" tooltip="enable"><title>(6,4 96)</title></rect><rect x="35" y="20" width="2.5" height="2.5" fill="rgb(60,0,194)" tooltip="enable"><title>(7,4 66)</title></rect><rect x="40" y="20" width="2.5" height="2.5" fill="rgb(80,0,174)" tooltip="enable"><title>(8,4 88)</title></rect><rect x="45" y="20" width="2.5" height="2.5" fill="rgb(34,0,220)" tooltip="enable"><title>(9,4 38)</title></rect><rect x="50" y="20" width="2.5" height="2.5" fill="rgb(38,0,216)" tooltip="enable"><title>(10,4 42)</title></rect><rect x="55" y="20" width="2.5" height="2.5" fill="rgb(31,0,223)" tooltip="enable"><title>(11,4 34)</title></rect><rect x="60" y="20" width="2.5" height="2.5" fill="rgb(53,0,201)" tooltip="enable"><title>(12,4 58)</title></rect><rect x="65" y="20" width="2.5" height="2.5" fill="rgb(33,0,221)" tooltip="enable"><title>(13,4 37)</title></rect><rect x="70" y="20" width="2.5" height="2.5" fill="rgb(30,0,224)" tooltip="enable"><title>(14,4 33)</title></rect><rect x="75" y="20" width="2.5" height="2.5" fill="rgb(72,0,182)" tooltip="enable"><title>(15,4 79)</title></rect><rect x="80" y="20" width="2.5" height="2.5" fill="rgb(93,0,161)" tooltip="enable"><title>(16,4 102)</title></rect><rect x="85" y="20" width="2.5" height="2.5" fill="rgb(56,0,198)" tooltip="enable"><title>(17,4 62)</title></rect><rect x="90" y="20" width="2.5" height="2.5" fill="rgb(100,0,154)" tooltip="enable"><title>(18,4 110)</title></rect><rect x="95" y="20" width="2.5" height="2.5" fill="rgb(72,0,182)" tooltip="enable"><title>(19,4 79)</title></rect><rect x="100" y="20" width="2.5" height="2.5" fill="rgb(59,0,195)" tooltip="enable"><title>(20,4 65)</title></rect><rect x="105" y="20" width="2.5" height="2.5" fill="rgb(84,0,170)" tooltip="enable"><title>(21,4 92)</title></rect><rect x="110" y="20" width="2.5" height="2.5" fill="rgb(40,0,214)" tooltip="enable"><title>(22,4 44)</title></rect><rect x="115" y="20" width="2.5" height="2.5" fill="rgb(33,0,221)" tooltip="enable"><title>(23,4 36)</title></rect><rect x="120" y="20" width="2.5" height="2.5" fill="rgb(46,0,208)" tooltip="enable"><title>(24,4 51)</title></rect><rect x="125" y="20" width="2.5" height="2.5" fill="rgb(44,0,210)" tooltip="enable"><title>(25,4 48)</title></rect><rect x="130" y="20" width="2.5" height="2.5" fill="rgb(39,0,215)" tooltip="enable"><title>(26,4 43)</title></rect><rect x="135" y="20" width="2.5" height="2.5" fill="rgb(64,0,190)" tooltip="enable"><title>(27,4 70)</title></rect><rect x="140" y="20" width="2.5" height="2.5" fill="rgb(123,0,131)" tooltip="enable"><title>(28,4 135)</title></rect><rect x="30" y="25" width="2.5" height="2.5" fill="rgb(132,0,122)" tooltip="enable"><title>(6,5 144)</title></rect><rect x="35" y="25" width="2.5" height="2.5" fill="rgb(60,0,194)" tooltip="enable"><title>(7,5 66)</title></rect><rect x="40" y="25" width="2.5" height="2.5" fill="rgb(80,0,174)" tooltip="enable"><title>(8,5 88)</title></rect><rect x="45" y="25" width="2.5" height="2.5" fill="rgb(55,0,199)" tooltip="enable"><title>(9,5 60)</title></rect><rect x="50" y="25" width="2.5" height="2.5" fill="rgb(46,0,208)" tooltip="enable"><title>(10,5 51)</title></rect><rect x="55" y="25" width="2.5" height="2.5" fill="rgb(35,0,219)" tooltip="enable"><title>(11,5 39)</title></rect><rect x="60" y="25" width="2.5" height="2.5" fill="rgb(64,0,190)" tooltip="enable"><title>(12,5 70)</title></rect><rect x="65" y="25" width="2.5" height="2.5" fill="rgb(37,0,217)" tooltip="enable"><title>(13,5 41)</title></rect><rect x="70" y="25" width="2.5" height="2.5" fill="rgb(45,0,209)" tooltip="enable"><title>(14,5 50)</title></rect><rect x="75" y="25" width="2.5" height="2.5" fill="rgb(98,0,156)" tooltip="enable"><title>(15,5 107)</title></rect><rect x="80" y="25" width="2.5" height="2.5" fill="rgb(84,0,170)" tooltip="enable"><title>(16,5 92)</title></rect><rect x="85" y="25" width="2.5" height="2.5" fill="rgb(63,0,191)" tooltip="enable"><title>(17,5 69)</title></rect><rect x="90" y="25" width="2.5" height="2.5" fill="rgb(114,0,140)" tooltip="enable"><title>(18,5 125)</title></rect><rect x="95" y="25" width="2.5" height="2.5" fill="rgb(88,0,166)" tooltip="enable"><title>(19,5 96)</title></rect><rect x="100" y="25" width="2.5" height="2.5" fill="rgb(65,0,189)" tooltip="enable"><title>(20,5 71)</title></rect><rect x="105" y="25" width="2.5" height="2.5" fill="rgb(81,0,173)" tooltip="enable"><title>(21,5 89)</title></rect><rect x="110" y="25" width="2.5" height="2.5" fill="rgb(49,0,205)" tooltip="enable"><title>(22,5 54)</title></rect><rect x="115" y="25" width="2.5" height="2.5" fill="rgb(44,0,210)" tooltip="enable"><title>(23,5 48)</title></rect><rect x="120" y="25" width="2.5" height="2.5" fill="rgb(56,0,198)" tooltip="enable"><title>(24,5 62)</title></rect><rect x="125" y="25" width="2.5" height="2.5" fill="rgb(34,0,220)" tooltip="enable"><title>(25,5 38)</title></rect><rect x="130" y="25" width="2.5" height="2.5" fill="rgb(41,0,213)" tooltip="enable"><title>(26,5 45)</title></rect><rect x="135" y="25" width="2.5" height="2.5" fill="rgb(66,0,188)" tooltip="enable"><title>(27,5 72)</title></rect><rect x="140" y="25" width="2.5" height="2.5" fill="rgb(103,0,151)" tooltip="enable"><title>(28,5 113)</title></rect><rect x="35" y="30" width="2.5" height="2.5" fill="rgb(79,0,175)" tooltip="enable"><title>(7,6 87)</title></rect><rect x="40" y="30" width="2.5" height="2.5" fill="rgb(99,0,155)" tooltip="enable"><title>(8,6 109)</title></rect><rect x="45" y="30" width="2.5" height="2.5" fill="rgb(54,0,200)" tooltip="enable"><title>(9,6 59)</title></rect><rect x="50" y="30" width="2.5" height="2.5" fill="rgb(55,0,199)" tooltip="enable"><title>(10,6 60)</title></rect><rect x="55" y="30" width="2.5" height="2.5" fill="rgb(41,0,213)" tooltip="enable"><title>(11,6 45)</title></rect><rect x="60" y="30" width="2.5" height="2.5" fill="rgb(58,0,196)" tooltip="enable"><title>(12,6 64)</title></rect><rect x="65" y="30" width="2.5" height="2.5" fill="rgb(45,0,209)" tooltip="enable"><title>(13,6 50)</title></rect><rect x="70" y="30" width="2.5" height="2.5" fill="rgb(44,0,210)" tooltip="enable"><title>(14,6 48)</title></rect><rect x="75" y="30" width="2.5" height="2.5" fill="rgb(95,0,159)" tooltip="enable"><title>(15,6 104)</title></rect><rect x="80" y="30" width="2.5" height="2.5" fill="rgb(93,0,161)" tooltip="enable"><title>(16,6 102)</title></rect><rect x="85" y="30" width="2.5" height="2.5" fill="rgb(54,0,200)" tooltip="enable"><title>(17,6 59)</title></rect><rect x="90" y="30" width="2.5" height="2.5" fill="rgb(103,0,151)" tooltip="enable"><title>(18,6 113)</title></rect><rect x="95" y="30" width="2.5" height="2.5" fill="rgb(80,0,174)" tooltip="enable"><title>(19,6 88)</title></rect><rect x="100" y="30" width="2.5" height="2.5" fill="rgb(72,0,182)" tooltip="enable"><title>(20,6 79)</title></rect><rect x="105" y="30" width="2.5" height="2.5" fill="rgb(84,0,170)" tooltip="enable"><title>(21,6 92)</title></rect><rect x="110" y="30" width="2.5" height="2.5" fill="rgb(48,0,206)" tooltip="enable"><title>(22,6 53)</title></rect><rect x="115" y="30" width="2.5" height="2.5" fill="rgb(30,0,224)" tooltip="enable"><title>(23,6 33)</title></rect><rect x="120" y="30" width="2.5" height="2.5" fill="rgb(48,0,206)" tooltip="enable"><title>(24,6 53)</title></rect><rect x="125" y="30" width="2.5" height="2.5" fill="rgb(38,0,216)" tooltip="enable"><title>(25,6 42)</title></rect><rect x="130" y="30" width="2.5" height="2.5" fill="rgb(51,0,203)" tooltip="enable"><title>(26,6 56)</title></rect><rect x="135" y="30" width="2.5" height="2.5" fill="rgb(57,0,197)" tooltip="enable"><title>(27,6 63)</title></rect><rect x="140" y="30" width="2.5" height="2.5" fill="rgb(71,0,183)" tooltip="enable"><title>(28,6 78)</title></rect><rect x="40" y="35" width="2.5" height="2.5" fill="rgb(103,0,151)" tooltip="enable"><title>(8,7 113)</title></rect><rect x="45" y="35" width="2.5" height="2.5" fill="rgb(71,0,183)" tooltip="enable"><title>(9,7 78)</title></rect><rect x="50" y="35" width="2.5" height="2.5" fill="rgb(59,0,195)" tooltip="enable"><title>(10,7 65)</title></rect><rect x="55" y="35" width="2.5" height="2.5" fill="rgb(44,0,210)" tooltip="enable"><title>(11,7 48)</title></rect><rect x="60" y="35" width="2.5" height="2.5" fill="rgb(59,0,195)" tooltip="enable"><title>(12,7 65)</title></rect><rect x="65" y="35" width="2.5" height="2.5" fill="rgb(58,0,196)" tooltip="enable"><title>(13,7 64)</title></rect><rect x="70" y="35" width="2.5" height="2.5" fill="rgb(53,0,201)" tooltip="enable"><title>(14,7 58)</title></rect><rect x="75" y="35" width="2.5" height="2.5" fill="rgb(96,0,158)" tooltip="enable"><title>(15,7 105)</title></rect><rect x="80" y="35" width="2.5" height="2.5" fill="rgb(101,0,153)" tooltip="enable"><title>(16,7 111)</title></rect><rect x="85" y="35" width="2.5" height="2.5" fill="rgb(62,0,192)" tooltip="enable"><title>(17,7 68)</title></rect><rect x="90" y="35" width="2.5" height="2.5" fill="rgb(108,0,146)" tooltip="enable"><title>(18,7 118)</title></rect><rect x="95" y="35" width="2.5" height="2.5" fill="rgb(83,0,171)" tooltip="enable"><title>(19,7 91)</title></rect><rect x="100" y="35" width="2.5" height="2.5" fill="rgb(76,0,178)" tooltip="enable"><title>(20,7 83)</title></rect><rect x="105" y="35" width="2.5" height="2.5" fill="rgb(81,0,173)" tooltip="enable"><title>(21,7 89)</title></rect><rect x="110" y="35" width="2.5" height="2.5" fill="rgb(56,0,198)" tooltip="enable"><title>(22,7 62)</title></rect><rect x="115" y="35" width="2.5" height="2.5" fill="rgb(38,0,216)" tooltip="enable"><title>(23,7 42)</title></rect><rect x="120" y="35" width="2.5" height="2.5" fill="rgb(38,0,216)" tooltip="enable"><title>(24,7 42)</title></rect><rect x="125" y="35" width="2.5" height="2.5" fill="rgb(36,0,218)" tooltip="enable"><title>(25,7 40)</title></rect><rect x="130" y="35" width="2.5" height="2.5" fill="rgb(33,0,221)" tooltip="enable"><title>(26,7 36)</title></rect><rect x="135" y="35" width="2.5" height="2.5" fill="rgb(47,0,207)" tooltip="enable"><title>(27,7 52)</title></rect><rect x="140" y="35" width="2.5" height="2.5" fill="rgb(66,0,188)" tooltip="enable"><title>(28,7 72)</title></rect><rect x="45" y="40" width="2.5" height="2.5" fill="rgb(98,0,156)" tooltip="enable"><title>(9,8 107)</title></rect><rect x="50" y="40" width="2.5" height="2.5" fill="rgb(72,0,182)" tooltip="enable"><title>(10,8 79)</title></rect><rect x="55" y="40" width="2.5" height="2.5" fill="rgb(47,0,207)" tooltip="enable"><title>(11,8 52)</title></rect><rect x="60" y="40" width="2.5" height="2.5" fill="rgb(66,0,188)" tooltip="enable"><title>(12,8 73)</title></rect><rect x="65" y="40" width="2.5" height="2.5" fill="rgb(52,0,202)" tooltip="enable"><title>(13,8 57)</title></rect><rect x="70" y="40" width="2.5" height="2.5" fill="rgb(40,0,214)" tooltip="enable"><title>(14,8 44)</title></rect><rect x="75" y="40" width="2.5" height="2.5" fill="rgb(119,0,135)" tooltip="enable"><title>(15,8 130)</title></rect><rect x="80" y="40" width="2.5" height="2.5" fill="rgb(104,0,150)" tooltip="enable"><title>(16,8 114)</title></rect><rect x="85" y="40" width="2.5" height="2.5" fill="rgb(63,0,191)" tooltip="enable"><title>(17,8 69)</title></rect><rect x="90" y="40" width="2.5" height="2.5" fill="rgb(121,0,133)" tooltip="enable"><title>(18,8 133)</title></rect><rect x="95" y="40" width="2.5" height="2.5" fill="rgb(78,0,176)" tooltip="enable"><title>(19,8 86)</title></rect><rect x="100" y="40" width="2.5" height="2.5" fill="rgb(60,0,194)" tooltip="enable"><title>(20,8 66)</title></rect><rect x="105" y="40" width="2.5" height="2.5" fill="rgb(80,0,174)" tooltip="enable"><title>(21,8 88)</title></rect><rect x="110" y="40" width="2.5" height="2.5" fill="rgb(38,0,216)" tooltip="enable"><title>(22,8 42)</title></rect><rect x="115" y="40" width="2.5" height="2.5" fill="rgb(36,0,218)" tooltip="enable"><title>(23,8 40)</title></rect><rect x="120" y="40" width="2.5" height="2.5" fill="rgb(29,0,225)" tooltip="enable"><title>(24,8 32)</title></rect><rect x="125" y="40" width="2.5" height="2.5" fill="rgb(31,0,223)" tooltip="enable"><title>(25,8 34)</title></rect><rect x="130" y="40" width="2.5" height="2.5" fill="rgb(33,0,221)" tooltip="enable"><title>(26,8 37)</title></rect><rect x="135" y="40" width="2.5" height="2.5" fill="rgb(44,0,210)" tooltip="enable"><title>(27,8 48)</title></rect><rect x="140" y="40" width="2.5" height="2.5" fill="rgb(56,0,198)" tooltip="enable"><title>(28,8 62)</title></rect><rect x="50" y="45" width="2.5" height="2.5" fill="rgb(98,0,156)" tooltip="enable"><title>(10,9 107)</title></rect><rect x="55" y="45" width="2.5" height="2.5" fill="rgb(59,0,195)" tooltip="enable"><title>(11,9 65)</title></rect><rect x="60" y="45" width="2.5" height="2.5" fill="rgb(55,0,199)" tooltip="enable"><title>(12,9 60)</title></rect><rect x="65" y="45" width="2.5" height="2.5" fill="rgb(63,0,191)" tooltip="enable"><title>(13,9 69)</title></rect><rect x="70" y="45" width="2.5" height="2.5" fill="rgb(50,0,204)" tooltip="enable"><title>(14,9 55)</title></rect><rect x="75" y="45" width="2.5" height="2.5" fill="rgb(99,0,155)" tooltip="enable"><title>(15,9 108)</title></rect><rect x="80" y="45" width="2.5" height="2.5" fill="rgb(109,0,145)" tooltip="enable"><title>(16,9 119)</title></rect><rect x="85" y="45" width="2.5" height="2.5" fill="rgb(68,0,186)" tooltip="enable"><title>(17,9 75)</title></rect><rect x="90" y="45" width="2.5" height="2.5" fill="rgb(107,0,147)" tooltip="enable"><title>(18,9 117)</title></rect><rect x="95" y="45" width="2.5" height="2.5" fill="rgb(83,0,171)" tooltip="enable"><title>(19,9 91)</title></rect><rect x="100" y="45" width="2.5" height="2.5" fill="rgb(70,0,184)" tooltip="enable"><title>(20,9 77)</title></rect><rect x="105" y="45" width="2.5" height="2.5" fill="rgb(80,0,174)" tooltip="enable"><title>(21,9 88)</title></rect><rect x="110" y="45" width="2.5" height="2.5" fill="rgb(39,0,215)" tooltip="enable"><title>(22,9 43)</title></rect><rect x="115" y="45" width="2.5" height="2.5" fill="rgb(36,0,218)" tooltip="enable"><title>(23,9 40)</title></rect><rect x="120" y="45" width="2.5" height="2.5" fill="rgb(40,0,214)" tooltip="enable"><title>(24,9 44)</title></rect><rect x="125" y="45" width="2.5" height="2.5" fill="rgb(31,0,223)" tooltip="enable"><title>(25,9 34)</title></rect><rect x="130" y="45" width="2.5" height="2.5" fill="rgb(44,0,210)" tooltip="enable"><title>(26,9 49)</title></rect><rect x="135" y="45" width="2.5" height="2.5" fill="rgb(44,0,210)" tooltip="enable"><title>(27,9 49)</title></rect><rect x="140" y="45" width="2.5" height="2.5" fill="rgb(56,0,198)" tooltip="enable"><title>(28,9 62)</title></rect><rect x="55" y="50" width="2.5" height="2.5" fill="rgb(99,0,155)" tooltip="enable"><title>(11,10 108)</title></rect><rect x="60" y="50" width="2.5" height="2.5" fill="rgb(57,0,197)" tooltip="enable"><title>(12,10 63)</title></rect><rect x="65" y="50" width="2.5" height="2.5" fill="rgb(76,0,178)" tooltip="enable"><title>(13,10 83)</title></rect><rect x="70" y="50" width="2.5" height="2.5" fill="rgb(59,0,195)" tooltip="enable"><title>(14,10 65)</title></rect><rect x="75" y="50" width="2.5" height="2.5" fill="rgb(108,0,146)" tooltip="enable"><title>(15,10 118)</title></rect><rect x="80" y="50" width="2.5" height="2.5" fill="rgb(107,0,147)" tooltip="enable"><title>(16,10 117)</title></rect><rect x="85" y="50" width="2.5" height="2.5" fill="rgb(78,0,176)" tooltip="enable"><title>(17,10 86)</title></rect><rect x="90" y="50" width="2.5" height="2.5" fill="rgb(106,0,148)" tooltip="enable"><title>(18,10 116)</title></rect><rect x="95" y="50" width="2.5" height="2.5" fill="rgb(92,0,162)" tooltip="enable"><title>(19,10 101)</title></rect><rect x="100" y="50" width="2.5" height="2.5" fill="rgb(75,0,179)" tooltip="enable"><title>(20,10 82)</title></rect><rect x="105" y="50" width="2.5" height="2.5" fill="rgb(86,0,168)" tooltip="enable"><title>(21,10 94)</title></rect><rect x="110" y="50" width="2.5" height="2.5" fill="rgb(42,0,212)" tooltip="enable"><title>(22,10 46)</title></rect><rect x="115" y="50" width="2.5" height="2.5" fill="rgb(38,0,216)" tooltip="enable"><title>(23,10 42)</title></rect><rect x="120" y="50" width="2.5" height="2.5" fill="rgb(33,0,221)" tooltip="enable"><title>(24,10 36)</title></rect><rect x="125" y="50" width="2.5" height="2.5" fill="rgb(28,0,226)" tooltip="enable"><title>(25,10 31)</title></rect><rect x="130" y="50" width="2.5" height="2.5" fill="rgb(26,0,228)" tooltip="enable"><title>(26,10 29)</title></rect><rect x="135" y="50" width="2.5" height="2.5" fill="rgb(51,0,203)" tooltip="enable"><title>(27,10 56)</title></rect><rect x="140" y="50" width="2.5" height="2.5" fill="rgb(57,0,197)" tooltip="enable"><title>(28,10 63)</title></rect><rect x="60" y="55" width="2.5" height="2.5" fill="rgb(57,0,197)" tooltip="enable"><title>(12,11 63)</title></rect><rect x="65" y="55" width="2.5" height="2.5" fill="rgb(88,0,166)" tooltip="enable"><title>(13,11 97)</title></rect><rect x="70" y="55" width="2.5" height="2.5" fill="rgb(68,0,186)" tooltip="enable"><title>(14,11 75)</title></rect><rect x="75" y="55" width="2.5" height="2.5" fill="rgb(104,0,150)" tooltip="enable"><title>(15,11 114)</title></rect><rect x="80" y="55" width="2.5" height="2.5" fill="rgb(103,0,151)" tooltip="enable"><title>(16,11 113)</title></rect><rect x="85" y="55" width="2.5" height="2.5" fill="rgb(60,0,194)" tooltip="enable"><title>(17,11 66)</title></rect><rect x="90" y="55" width="2.5" height="2.5" fill="rgb(105,0,149)" tooltip="enable"><title>(18,11 115)</title></rect><rect x="95" y="55" width="2.5" height="2.5" fill="rgb(93,0,161)" tooltip="enable"><title>(19,11 102)</title></rect><rect x="100" y="55" width="2.5" height="2.5" fill="rgb(66,0,188)" tooltip="enable"><title>(20,11 73)</title></rect><rect x="105" y="55" width="2.5" height="2.5" fill="rgb(97,0,157)" tooltip="enable"><title>(21,11 106)</title></rect><rect x="110" y="55" width="2.5" height="2.5" fill="rgb(45,0,209)" tooltip="enable"><title>(22,11 50)</title></rect><rect x="115" y="55" width="2.5" height="2.5" fill="rgb(32,0,222)" tooltip="enable"><title>(23,11 35)</title></rect><rect x="120" y="55" width="2.5" height="2.5" fill="rgb(42,0,212)" tooltip="enable"><title>(24,11 46)</title></rect><rect x="125" y="55" width="2.5" height="2.5" fill="rgb(33,0,221)" tooltip="enable"><title>(25,11 37)</title></rect><rect x="130" y="55" width="2.5" height="2.5" fill="rgb(33,0,221)" tooltip="enable"><title>(26,11 37)</title></rect><rect x="135" y="55" width="2.5" height="2.5" fill="rgb(49,0,205)" tooltip="enable"><title>(27,11 54)</title></rect><rect x="140" y="55" width="2.5" height="2.5" fill="rgb(63,0,191)" tooltip="enable"><title>(28,11 69)</title></rect><rect x="65" y="60" width="2.5" height="2.5" fill="rgb(41,0,213)" tooltip="enable"><title>(13,12 45)</title></rect><rect x="70" y="60" width="2.5" height="2.5" fill="rgb(35,0,219)" tooltip="enable"><title>(14,12 39)</title></rect><rect x="75" y="60" width="2.5" height="2.5" fill="rgb(98,0,156)" tooltip="enable"><title>(15,12 107)</title></rect><rect x="80" y="60" width="2.5" height="2.5" fill="rgb(101,0,153)" tooltip="enable"><title>(16,12 111)</title></rect><rect x="85" y="60" width="2.5" height="2.5" fill="rgb(50,0,204)" tooltip="enable"><title>(17,12 55)</title></rect><rect x="90" y="60" width="2.5" height="2.5" fill="rgb(106,0,148)" tooltip="enable"><title>(18,12 116)</title></rect><rect x="95" y="60" width="2.5" height="2.5" fill="rgb(66,0,188)" tooltip="enable"><title>(19,12 72)</title></rect><rect x="100" y="60" width="2.5" height="2.5" fill="rgb(57,0,197)" tooltip="enable"><title>(20,12 63)</title></rect><rect x="105" y="60" width="2.5" height="2.5" fill="rgb(82,0,172)" tooltip="enable"><title>(21,12 90)</title></rect><rect x="110" y="60" width="2.5" height="2.5" fill="rgb(135,0,119)" tooltip="enable"><title>(22,12 148)</title></rect><rect x="115" y="60" width="2.5" height="2.5" fill="rgb(87,0,167)" tooltip="enable"><title>(23,12 95)</title></rect><rect x="120" y="60" width="2.5" height="2.5" fill="rgb(94,0,160)" tooltip="enable"><title>(24,12 103)</title></rect><rect x="125" y="60" width="2.5" height="2.5" fill="rgb(58,0,196)" tooltip="enable"><title>(25,12 64)</title></rect><rect x="130" y="60" width="2.5" height="2.5" fill="rgb(59,0,195)" tooltip="enable"><title>(26,12 65)</title></rect><rect x="135" y="60" width="2.5" height="2.5" fill="rgb(75,0,179)" tooltip="enable"><title>(27,12 82)</title></rect><rect x="140" y="60" width="2.5" height="2.5" fill="rgb(68,0,186)" tooltip="enable"><title>(28,12 75)</title></rect><rect x="70" y="65" width="2.5" height="2.5" fill="rgb(102,0,152)" tooltip="enable"><title>(14,13 112)</title></rect><rect x="75" y="65" width="2.5" height="2.5" fill="rgb(132,0,122)" tooltip="enable"><title>(15,13 144)</title></rect><rect x="80" y="65" width="2.5" height="2.5" fill="rgb(132,0,122)" tooltip="enable"><title>(16,13 144)</title></rect><rect x="85" y="65" width="2.5" height="2.5" fill="rgb(77,0,177)" tooltip="enable"><title>(17,13 84)</title></rect><rect x="90" y="65" width="2.5" height="2.5" fill="rgb(124,0,130)" tooltip="enable"><title>(18,13 136)</title></rect><rect x="95" y="65" width="2.5" height="2.5" fill="rgb(107,0,147)" tooltip="enable"><title>(19,13 117)</title></rect><rect x="100" y="65" width="2.5" height="2.5" fill="rgb(71,0,183)" tooltip="enable"><title>(20,13 78)</title></rect><rect x="105" y="65" width="2.5" height="2.5" fill="rgb(98,0,156)" tooltip="enable"><title>(21,13 107)</title></rect><rect x="110" y="65" width="2.5" height="2.5" fill="rgb(55,0,199)" tooltip="enable"><title>(22,13 61)</title></rect><rect x="115" y="65" width="2.5" height="2.5" fill="rgb(42,0,212)" tooltip="enable"><title>(23,13 46)</title></rect><rect x="120" y="65" width="2.5" height="2.5" fill="rgb(42,0,212)" tooltip="enable"><title>(24,13 46)</title></rect><rect x="125" y="65" width="2.5" height="2.5" fill="rgb(33,0,221)" tooltip="enable"><title>(25,13 37)</title></rect><rect x="130" y="65" width="2.5" height="2.5" fill="rgb(31,0,223)" tooltip="enable"><title>(26,13 34)</title></rect><rect x="135" y="65" width="2.5" height="2.5" fill="rgb(48,0,206)" tooltip="enable"><title>(27,13 53)</title></rect><rect x="140" y="65" width="2.5" height="2.5" fill="rgb(56,0,198)" tooltip="enable"><title>(28,13 62)</title></rect><rect x="75" y="70" width="2.5" height="2.5" fill="rgb(159,0,95)" tooltip="enable"><title>(15,14 174)</title></rect><rect x="80" y="70" width="2.5" height="2.5" fill="rgb(134,0,120)" tooltip="enable"><title>(16,14 147)</title></rect><rect x="85" y="70" width="2.5" height="2.5" fill="rgb(72,0,182)" tooltip="enable"><title>(17,14 79)</title></rect><rect x="90" y="70" width="2.5" height="2.5" fill="rgb(118,0,136)" tooltip="enable"><title>(18,14 129)</title></rect><rect x="95" y="70" width="2.5" height="2.5" fill="rgb(103,0,151)" tooltip="enable"><title>(19,14 113)</title></rect><rect x="100" y="70" width="2.5" height="2.5" fill="rgb(71,0,183)" tooltip="enable"><title>(20,14 78)</title></rect><rect x="105" y="70" width="2.5" height="2.5" fill="rgb(120,0,134)" tooltip="enable"><title>(21,14 131)</title></rect><rect x="110" y="70" width="2.5" height="2.5" fill="rgb(42,0,212)" tooltip="enable"><title>(22,14 46)</title></rect><rect x="115" y="70" width="2.5" height="2.5" fill="rgb(38,0,216)" tooltip="enable"><title>(23,14 42)</title></rect><rect x="120" y="70" width="2.5" height="2.5" fill="rgb(35,0,219)" tooltip="enable"><title>(24,14 39)</title></rect><rect x="125" y="70" width="2.5" height="2.5" fill="rgb(33,0,221)" tooltip="enable"><title>(25,14 36)</title></rect><rect x="130" y="70" width="2.5" height="2.5" fill="rgb(31,0,223)" tooltip="enable"><title>(26,14 34)</title></rect><rect x="135" y="70" width="2.5" height="2.5" fill="rgb(50,0,204)" tooltip="enable"><title>(27,14 55)</title></rect><rect x="140" y="70" width="2.5" height="2.5" fill="rgb(72,0,182)" tooltip="enable"><title>(28,14 79)</title></rect><rect x="80" y="75" width="2.5" height="2.5" fill="rgb(255,0,0)" tooltip="enable"><title>(16,15 278)</title></rect><rect x="85" y="75" width="2.5" height="2.5" fill="rgb(93,0,161)" tooltip="enable"><title>(17,15 102)</title></rect><rect x="90" y="75" width="2.5" height="2.5" fill="rgb(165,0,89)" tooltip="enable"><title>(18,15 180)</title></rect><rect x="95" y="75" width="2.5" height="2.5" fill="rgb(86,0,168)" tooltip="enable"><title>(19,15 94)</title></rect><rect x="100" y="75" width="2.5" height="2.5" fill="rgb(56,0,198)" tooltip="enable"><title>(20,15 62)</title></rect><rect x="105" y="75" width="2.5" height="2.5" fill="rgb(82,0,172)" tooltip="enable"><title>(21,15 90)</title></rect><rect x="110" y="75" width="2.5" height="2.5" fill="rgb(34,0,220)" tooltip="enable"><title>(22,15 38)</title></rect><rect x="115" y="75" width="2.5" height="2.5" fill="rgb(20,0,234)" tooltip="enable"><title>(23,15 22)</title></rect><rect x="120" y="75" width="2.5" height="2.5" fill="rgb(29,0,225)" tooltip="enable"><title>(24,15 32)</title></rect><rect x="125" y="75" width="2.5" height="2.5" fill="rgb(33,0,221)" tooltip="enable"><title>(25,15 37)</title></rect><rect x="130" y="75" width="2.5" height="2.5" fill="rgb(22,0,232)" tooltip="enable"><title>(26,15 25)</title></rect><rect x="135" y="75" width="2.5" height="2.5" fill="rgb(35,0,219)" tooltip="enable"><title>(27,15 39)</title></rect><rect x="140" y="75" width="2.5" height="2.5" fill="rgb(49,0,205)" tooltip="enable"><title>(28,15 54)</title></rect><rect x="85" y="80" width="2.5" height="2.5" fill="rgb(112,0,142)" tooltip="enable"><title>(17,16 123)</title></rect><rect x="90" y="80" width="2.5" height="2.5" fill="rgb(175,0,79)" tooltip="enable"><title>(18,16 191)</title></rect><rect x="95" y="80" width="2.5" height="2.5" fill="rgb(107,0,147)" tooltip="enable"><title>(19,16 117)</title></rect><rect x="100" y="80" width="2.5" height="2.5" fill="rgb(63,0,191)" tooltip="enable"><title>(20,16 69)</title></rect><rect x="105" y="80" width="2.5" height="2.5" fill="rgb(100,0,154)" tooltip="enable"><title>(21,16 110)</title></rect><rect x="110" y="80" width="2.5" height="2.5" fill="rgb(26,0,228)" tooltip="enable"><title>(22,16 29)</title></rect><rect x="115" y="80" width="2.5" height="2.5" fill="rgb(24,0,230)" tooltip="enable"><title>(23,16 27)</title></rect><rect x="120" y="80" width="2.5" height="2.5" fill="rgb(33,0,221)" tooltip="enable"><title>(24,16 36)</title></rect><rect x="125" y="80" width="2.5" height="2.5" fill="rgb(21,0,233)" tooltip="enable"><title>(25,16 23)</title></rect><rect x="130" y="80" width="2.5" height="2.5" fill="rgb(19,0,235)" tooltip="enable"><title>(26,16 21)</title></rect><rect x="135" y="80" width="2.5" height="2.5" fill="rgb(29,0,225)" tooltip="enable"><title>(27,16 32)</title></rect><rect x="140" y="80" width="2.5" height="2.5" fill="rgb(56,0,198)" tooltip="enable"><title>(28,16 62)</title></rect><rect x="90" y="85" width="2.5" height="2.5" fill="rgb(171,0,83)" tooltip="enable"><title>(18,17 187)</title></rect><rect x="95" y="85" width="2.5" height="2.5" fill="rgb(129,0,125)" tooltip="enable"><title>(19,17 141)</title></rect><rect x="100" y="85" width="2.5" height="2.5" fill="rgb(84,0,170)" tooltip="enable"><title>(20,17 92)</title></rect><rect x="105" y="85" width="2.5" height="2.5" fill="rgb(120,0,134)" tooltip="enable"><title>(21,17 131)</title></rect><rect x="110" y="85" width="2.5" height="2.5" fill="rgb(48,0,206)" tooltip="enable"><title>(22,17 53)</title></rect><rect x="115" y="85" width="2.5" height="2.5" fill="rgb(29,0,225)" tooltip="enable"><title>(23,17 32)</title></rect><rect x="120" y="85" width="2.5" height="2.5" fill="rgb(41,0,213)" tooltip="enable"><title>(24,17 45)</title></rect><rect x="125" y="85" width="2.5" height="2.5" fill="rgb(28,0,226)" tooltip="enable"><title>(25,17 31)</title></rect><rect x="130" y="85" width="2.5" height="2.5" fill="rgb(22,0,232)" tooltip="enable"><title>(26,17 25)</title></rect><rect x="135" y="85" width="2.5" height="2.5" fill="rgb(50,0,204)" tooltip="enable"><title>(27,17 55)</title></rect><rect x="140" y="85" width="2.5" height="2.5" fill="rgb(64,0,190)" tooltip="enable"><title>(28,17 70)</title></rect><rect x="95" y="90" width="2.5" height="2.5" fill="rgb(151,0,103)" tooltip="enable"><title>(19,18 165)</title></rect><rect x="100" y="90" width="2.5" height="2.5" fill="rgb(73,0,181)" tooltip="enable"><title>(20,18 80)</title></rect><rect x="105" y="90" width="2.5" height="2.5" fill="rgb(152,0,102)" tooltip="enable"><title>(21,18 166)</title></rect><rect x="110" y="90" width="2.5" height="2.5" fill="rgb(29,0,225)" tooltip="enable"><title>(22,18 32)</title></rect><rect x="115" y="90" width="2.5" height="2.5" fill="rgb(24,0,230)" tooltip="enable"><title>(23,18 27)</title></rect><rect x="120" y="90" width="2.5" height="2.5" fill="rgb(28,0,226)" tooltip="enable"><title>(24,18 31)</title></rect><rect x="125" y="90" width="2.5" height="2.5" fill="rgb(15,0,239)" tooltip="enable"><title>(25,18 17)</title></rect><rect x="130" y="90" width="2.5" height="2.5" fill="rgb(22,0,232)" tooltip="enable"><title>(26,18 25)</title></rect><rect x="135" y="90" width="2.5" height="2.5" fill="rgb(38,0,216)" tooltip="enable"><title>(27,18 42)</title></rect><rect x="140" y="90" width="2.5" height="2.5" fill="rgb(52,0,202)" tooltip="enable"><title>(28,18 57)</title></rect><rect x="100" y="95" width="2.5" height="2.5" fill="rgb(110,0,144)" tooltip="enable"><title>(20,19 121)</title></rect><rect x="105" y="95" width="2.5" height="2.5" fill="rgb(153,0,101)" tooltip="enable"><title>(21,19 167)</title></rect><rect x="110" y="95" width="2.5" height="2.5" fill="rgb(31,0,223)" tooltip="enable"><title>(22,19 34)</title></rect><rect x="115" y="95" width="2.5" height="2.5" fill="rgb(26,0,228)" tooltip="enable"><title>(23,19 29)</title></rect><rect x="120" y="95" width="2.5" height="2.5" fill="rgb(35,0,219)" tooltip="enable"><title>(24,19 39)</title></rect><rect x="125" y="95" width="2.5" height="2.5" fill="rgb(25,0,229)" tooltip="enable"><title>(25,19 28)</title></rect><rect x="130" y="95" width="2.5" height="2.5" fill="rgb(29,0,225)" tooltip="enable"><title>(26,19 32)</title></rect><rect x="135" y="95" width="2.5" height="2.5" fill="rgb(44,0,210)" tooltip="enable"><title>(27,19 49)</title></rect><rect x="140" y="95" width="2.5" height="2.5" fill="rgb(47,0,207)" tooltip="enable"><title>(28,19 52)</title></rect><rect x="105" y="100" width="2.5" height="2.5" fill="rgb(149,0,105)" tooltip="enable"><title>(21,20 163)</title></rect><rect x="110" y="100" width="2.5" height="2.5" fill="rgb(39,0,215)" tooltip="enable"><title>(22,20 43)</title></rect><rect x="115" y="100" width="2.5" height="2.5" fill="rgb(23,0,231)" tooltip="enable"><title>(23,20 26)</title></rect><rect x="120" y="100" width="2.5" height="2.5" fill="rgb(28,0,226)" tooltip="enable"><title>(24,20 31)</title></rect><rect x="125" y="100" width="2.5" height="2.5" fill="rgb(27,0,227)" tooltip="enable"><title>(25,20 30)</title></rect><rect x="130" y="100" width="2.5" height="2.5" fill="rgb(25,0,229)" tooltip="enable"><title>(26,20 28)</title></rect><rect x="135" y="100" width="2.5" height="2.5" fill="rgb(40,0,214)" tooltip="enable"><title>(27,20 44)</title></rect><rect x="140" y="100" width="2.5" height="2.5" fill="rgb(62,0,192)" tooltip="enable"><title>(28,20 68)</title></rect><rect x="110" y="105" width="2.5" height="2.5" fill="rgb(38,0,216)" tooltip="enable"><title>(22,21 42)</title></rect><rect x="115" y="105" width="2.5" height="2.5" fill="rgb(38,0,216)" tooltip="enable"><title>(23,21 42)</title></rect><rect x="120" y="105" width="2.5" height="2.5" fill="rgb(33,0,221)" tooltip="enable"><title>(24,21 37)</title></rect><rect x="125" y="105" width="2.5" height="2.5" fill="rgb(22,0,232)" tooltip="enable"><title>(25,21 24)</title></rect><rect x="130" y="105" width="2.5" height="2.5" fill="rgb(35,0,219)" tooltip="enable"><title>(26,21 39)</title></rect><rect x="135" y="105" width="2.5" height="2.5" fill="rgb(41,0,213)" tooltip="enable"><title>(27,21 45)</title></rect><rect x="140" y="105" width="2.5" height="2.5" fill="rgb(60,0,194)" tooltip="enable"><title>(28,21 66)</title></rect><rect x="115" y="110" width="2.5" height="2.5" fill="rgb(104,0,150)" tooltip="enable"><title>(23,22 114)</title></rect><rect x="120" y="110" width="2.5" height="2.5" fill="rgb(96,0,158)" tooltip="enable"><title>(24,22 105)</title></rect><rect x="125" y="110" width="2.5" height="2.5" fill="rgb(74,0,180)" tooltip="enable"><title>(25,22 81)</title></rect><rect x="130" y="110" width="2.5" height="2.5" fill="rgb(74,0,180)" tooltip="enable"><title>(26,22 81)</title></rect><rect x="135" y="110" width="2.5" height="2.5" fill="rgb(69,0,185)" tooltip="enable"><title>(27,22 76)</title></rect><rect x="140" y="110" width="2.5" height="2.5" fill="rgb(79,0,175)" tooltip="enable"><title>(28,22 87)</title></rect><rect x="120" y="115" width="2.5" height="2.5" fill="rgb(117,0,137)" tooltip="enable"><title>(24,23 128)</title></rect><rect x="125" y="115" width="2.5" height="2.5" fill="rgb(88,0,166)" tooltip="enable"><title>(25,23 96)</title></rect><rect x="130" y="115" width="2.5" height="2.5" fill="rgb(85,0,169)" tooltip="enable"><title>(26,23 93)</title></rect><rect x="135" y="115" width="2.5" height="2.5" fill="rgb(78,0,176)" tooltip="enable"><title>(27,23 86)</title></rect><rect x="140" y="115" width="2.5" height="2.5" fill="rgb(75,0,179)" tooltip="enable"><title>(28,23 82)</title></rect><rect x="125" y="120" width="2.5" height="2.5" fill="rgb(112,0,142)" tooltip="enable"><title>(25,24 123)</title></rect><rect x="130" y="120" width="2.5" height="2.5" fill="rgb(115,0,139)" tooltip="enable"><title>(26,24 126)</title></rect><rect x="135" y="120" width="2.5" height="2.5" fill="rgb(99,0,155)" tooltip="enable"><title>(27,24 109)</title></rect><rect x="140" y="120" width="2.5" height="2.5" fill="rgb(109,0,145)" tooltip="enable"><title>(28,24 119)</title></rect><rect x="130" y="125" width="2.5" height="2.5" fill="rgb(108,0,146)" tooltip="enable"><title>(26,25 118)</title></rect><rect x="135" y="125" width="2.5" height="2.5" fill="rgb(92,0,162)" tooltip="enable"><title>(27,25 101)</title></rect><rect x="140" y="125" width="2.5" height="2.5" fill="rgb(104,0,150)" tooltip="enable"><title>(28,25 114)</title></rect><rect x="135" y="130" width="2.5" height="2.5" fill="rgb(121,0,133)" tooltip="enable"><title>(27,26 132)</title></rect><rect x="140" y="130" width="2.5" height="2.5" fill="rgb(129,0,125)" tooltip="enable"><title>(28,26 141)</title></rect><rect x="140" y="135" width="2.5" height="2.5" fill="rgb(164,0,90)" tooltip="enable"><title>(28,27 179)</title></rect><text x="150" y="5" font-size="5" fill="black">0</text>
<text x="150" y="140" font-size="5" fill="black">29</text>
<polyline points="150,10,150,135" stroke="black" stroke-width="1" fill="none"/>
<text x="5" y="150" font-size="5" fill="black">0</text>
<text x="140" y="150" font-size="5" fill="black">29</text>
<polyline points="10,150,135,150" stroke="black" stroke-width="1" fill="none"/>
</svg>