<?xml version="1.0" standalone="yes"?>
<!-- SVG graphic -->
<svg xmlns='http://www.w3.org/2000/svg' xmlns:xlink='http://www.w3.org/1999/xlink'
 version="1.1">
<rect x="0" y="0" width="6" height="200" stroke="black" stroke-width="1" fill="blue" tooltip="enable"><title>(0,2812)</title></rect><rect x="6" y="67.2831" width="6" height="132.717" stroke="black" stroke-width="1" fill="blue" tooltip="enable"><title>(0.0396206,1866)</title></rect><rect x="12" y="88.0512" width="6" height="111.949" stroke="black" stroke-width="1" fill="blue" tooltip="enable"><title>(0.0792412,1574)</title></rect><rect x="18" y="98.3642" width="6" height="101.636" stroke="black" stroke-width="1" fill="blue" tooltip="enable"><title>(0.118862,1429)</title></rect><rect x="24" y="111.309" width="6" height="88.6913" stroke="black" stroke-width="1" fill="blue" tooltip="enable"><title>(0.158482,1247)</title></rect><rect x="30" y="119.061" width="6" height="80.9388" stroke="black" stroke-width="1" fill="blue" tooltip="enable"><title>(0.198103,1138)</title></rect><rect x="36" y="121.337" width="6" height="78.6629" stroke="black" stroke-width="1" fill="blue" tooltip="enable"><title>(0.237724,1106)</title></rect><rect x="42" y="128.236" width="6" height="71.7639" stroke="black" stroke-width="1" fill="blue" tooltip="enable"><title>(0.277344,1009)</title></rect><rect x="48" y="135.349" width="6" height="64.6515" stroke="black" stroke-width="1" fill="blue" tooltip="enable"><title>(0.316965,909)</title></rect><rect x="54" y="134.353" width="6" height="65.6472" stroke="black" stroke-width="1" fill="blue" tooltip="enable"><title>(0.356586,923)</title></rect><rect x="60" y="141.181" width="6" height="58.8193" stroke="black" stroke-width="1" fill="blue" tooltip="enable"><title>(0.396206,827)</title></rect><rect x="66" y="144.808" width="6" height="55.192" stroke="black" stroke-width="1" fill="blue" tooltip="enable"><title>(0.435827,776)</title></rect><rect x="72" y="144.808" width="6" height="55.192" stroke="black" stroke-width="1" fill="blue" tooltip="enable"><title>(0.475447,776)</title></rect><rect x="78" y="151.422" width="6" height="48.5775" stroke="black" stroke-width="1" fill="blue" tooltip="enable"><title>(0.515068,683)</title></rect><rect x="84" y="149.858" width="6" height="50.1423" stroke="black" stroke-width="1" fill="blue" tooltip="enable"><title>(0.554689,705)</title></rect><rect x="90" y="152.347" width="6" height="47.6529" stroke="black" stroke-width="1" fill="blue" tooltip="enable"><title>(0.594309,670)</title></rect><rect x="96" y="154.694" width="6" height="45.3058" stroke="black" stroke-width="1" fill="blue" tooltip="enable"><title>(0.63393,637)</title></rect><rect x="102" y="154.908" width="6" height="45.0925" stroke="black" stroke-width="1" fill="blue" tooltip="enable"><title>(0.673551,634)</title></rect><rect x="108" y="159.602" width="6" height="40.3983" stroke="black" stroke-width="1" fill="blue" tooltip="enable"><title>(0.713171,568)</title></rect><rect x="114" y="161.878" width="6" height="38.1223" stroke="black" stroke-width="1" fill="blue" tooltip="enable"><title>(0.752792,536)</title></rect><rect x="120" y="164.438" width="6" height="35.5619" stroke="black" stroke-width="1" fill="blue" tooltip="enable"><title>(0.792412,500)</title></rect><rect x="126" y="161.095" width="6" height="38.9047" stroke="black" stroke-width="1" fill="blue" tooltip="enable"><title>(0.832033,547)</title></rect><rect x="132" y="163.087" width="6" height="36.9132" stroke="black" stroke-width="1" fill="blue" tooltip="enable"><title>(0.871654,519)</title></rect><rect x="138" y="171.55" width="6" height="28.4495" stroke="black" stroke-width="1" fill="blue" tooltip="enable"><title>(0.911274,400)</title></rect><rect x="144" y="168.848" width="6" height="31.1522" stroke="black" stroke-width="1" fill="blue" tooltip="enable"><title>(0.950895,438)</title></rect><rect x="150" y="168.919" width="6" height="31.0811" stroke="black" stroke-width="1" fill="blue" tooltip="enable"><title>(0.990516,437)</title></rect><rect x="156" y="171.479" width="6" height="28.5206" stroke="black" stroke-width="1" fill="blue" tooltip="enable"><title>(1.03014,401)</title></rect><rect x="162" y="174.893" width="6" height="25.1067" stroke="black" stroke-width="1" fill="blue" tooltip="enable"><title>(1.06976,353)</title></rect><rect x="168" y="174.467" width="6" height="25.5334" stroke="black" stroke-width="1" fill="blue" tooltip="enable"><title>(1.10938,359)</title></rect><rect x="174" y="177.596" width="6" height="22.404" stroke="black" stroke-width="1" fill="blue" tooltip="enable"><title>(1.149,315)</title></rect><rect x="180" y="177.098" width="6" height="22.9018" stroke="black" stroke-width="1" fill="blue" tooltip="enable"><title>(1.18862,322)</title></rect><rect x="186" y="179.303" width="6" height="20.697" stroke="black" stroke-width="1" fill="blue" tooltip="enable"><title>(1.22824,291)</title></rect><rect x="192" y="177.383" width="6" height="22.6174" stroke="black" stroke-width="1" fill="blue" tooltip="enable"><title>(1.26786,318)</title></rect><rect x="198" y="180.868" width="6" height="19.1323" stroke="black" stroke-width="1" fill="blue" tooltip="enable"><title>(1.30748,269)</title></rect><rect x="204" y="182.361" width="6" height="17.6387" stroke="black" stroke-width="1" fill="blue" tooltip="enable"><title>(1.3471,248)</title></rect><rect x="210" y="183.642" width="6" height="16.3585" stroke="black" stroke-width="1" fill="blue" tooltip="enable"><title>(1.38672,230)</title></rect><rect x="216" y="181.01" width="6" height="18.99" stroke="black" stroke-width="1" fill="blue" tooltip="enable"><title>(1.42634,267)</title></rect><rect x="222" y="183.997" width="6" height="16.0028" stroke="black" stroke-width="1" fill="blue" tooltip="enable"><title>(1.46596,225)</title></rect><rect x="228" y="185.277" width="6" height="14.7226" stroke="black" stroke-width="1" fill="blue" tooltip="enable"><title>(1.50558,207)</title></rect><rect x="234" y="185.917" width="6" height="14.0825" stroke="black" stroke-width="1" fill="blue" tooltip="enable"><title>(1.5452,198)</title></rect><rect x="240" y="185.917" width="6" height="14.0825" stroke="black" stroke-width="1" fill="blue" tooltip="enable"><title>(1.58482,198)</title></rect><rect x="246" y="186.06" width="6" height="13.9403" stroke="black" stroke-width="1" fill="blue" tooltip="enable"><title>(1.62445,196)</title></rect><rect x="252" y="189.331" width="6" height="10.6686" stroke="black" stroke-width="1" fill="blue" tooltip="enable"><title>(1.66407,150)</title></rect><rect x="258" y="187.767" width="6" height="12.2333" stroke="black" stroke-width="1" fill="blue" tooltip="enable"><title>(1.70369,172)</title></rect><rect x="264" y="189.687" width="6" height="10.3129" stroke="black" stroke-width="1" fill="blue" tooltip="enable"><title>(1.74331,145)</title></rect><rect x="270" y="189.9" width="6" height="10.0996" stroke="black" stroke-width="1" fill="blue" tooltip="enable"><title>(1.78293,142)</title></rect><rect x="276" y="191.323" width="6" height="8.6771" stroke="black" stroke-width="1" fill="blue" tooltip="enable"><title>(1.82255,122)</title></rect><rect x="282" y="191.465" width="6" height="8.53485" stroke="black" stroke-width="1" fill="blue" tooltip="enable"><title>(1.86217,120)</title></rect><rect x="288" y="191.679" width="6" height="8.32148" stroke="black" stroke-width="1" fill="blue" tooltip="enable"><title>(1.90179,117)</title></rect><rect x="294" y="190.896" width="6" height="9.10384" stroke="black" stroke-width="1" fill="blue" tooltip="enable"><title>(1.94141,128)</title></rect><rect x="300" y="191.892" width="6" height="8.10811" stroke="black" stroke-width="1" fill="blue" tooltip="enable"><title>(1.98103,114)</title></rect><rect x="306" y="193.67" width="6" height="6.33001" stroke="black" stroke-width="1" fill="blue" tooltip="enable"><title>(2.02065,89)</title></rect><rect x="312" y="193.954" width="6" height="6.04552" stroke="black" stroke-width="1" fill="blue" tooltip="enable"><title>(2.06027,85)</title></rect><rect x="318" y="193.03" width="6" height="6.97013" stroke="black" stroke-width="1" fill="blue" tooltip="enable"><title>(2.09989,98)</title></rect><rect x="324" y="194.168" width="6" height="5.83215" stroke="black" stroke-width="1" fill="blue" tooltip="enable"><title>(2.13951,82)</title></rect><rect x="330" y="194.737" width="6" height="5.26316" stroke="black" stroke-width="1" fill="blue" tooltip="enable"><title>(2.17913,74)</title></rect><rect x="336" y="194.239" width="6" height="5.76102" stroke="black" stroke-width="1" fill="blue" tooltip="enable"><title>(2.21875,81)</title></rect><rect x="342" y="194.666" width="6" height="5.33428" stroke="black" stroke-width="1" fill="blue" tooltip="enable"><title>(2.25838,75)</title></rect><rect x="348" y="193.883" width="6" height="6.11664" stroke="black" stroke-width="1" fill="blue" tooltip="enable"><title>(2.298,86)</title></rect><rect x="354" y="194.879" width="6" height="5.12091" stroke="black" stroke-width="1" fill="blue" tooltip="enable"><title>(2.33762,72)</title></rect><rect x="360" y="194.523" width="6" height="5.47653" stroke="black" stroke-width="1" fill="blue" tooltip="enable"><title>(2.37724,77)</title></rect><rect x="366" y="195.021" width="6" height="4.97866" stroke="black" stroke-width="1" fill="blue" tooltip="enable"><title>(2.41686,70)</title></rect><rect x="372" y="195.661" width="6" height="4.33855" stroke="black" stroke-width="1" fill="blue" tooltip="enable"><title>(2.45648,61)</title></rect><rect x="378" y="196.871" width="6" height="3.12945" stroke="black" stroke-width="1" fill="blue" tooltip="enable"><title>(2.4961,44)</title></rect><rect x="384" y="195.946" width="6" height="4.05405" stroke="black" stroke-width="1" fill="blue" tooltip="enable"><title>(2.53572,57)</title></rect><rect x="390" y="195.661" width="6" height="4.33855" stroke="black" stroke-width="1" fill="blue" tooltip="enable"><title>(2.57534,61)</title></rect><rect x="396" y="196.515" width="6" height="3.48506" stroke="black" stroke-width="1" fill="blue" tooltip="enable"><title>(2.61496,49)</title></rect><rect x="402" y="197.368" width="6" height="2.63158" stroke="black" stroke-width="1" fill="blue" tooltip="enable"><title>(2.65458,37)</title></rect><rect x="408" y="197.084" width="6" height="2.91607" stroke="black" stroke-width="1" fill="blue" tooltip="enable"><title>(2.6942,41)</title></rect><rect x="414" y="196.942" width="6" height="3.05832" stroke="black" stroke-width="1" fill="blue" tooltip="enable"><title>(2.73382,43)</title></rect><rect x="420" y="197.084" width="6" height="2.91607" stroke="black" stroke-width="1" fill="blue" tooltip="enable"><title>(2.77344,41)</title></rect><rect x="426" y="198.151" width="6" height="1.84922" stroke="black" stroke-width="1" fill="blue" tooltip="enable"><title>(2.81306,26)</title></rect><rect x="432" y="197.866" width="6" height="2.13371" stroke="black" stroke-width="1" fill="blue" tooltip="enable"><title>(2.85268,30)</title></rect><rect x="438" y="198.08" width="6" height="1.92034" stroke="black" stroke-width="1" fill="blue" tooltip="enable"><title>(2.89231,27)</title></rect><rect x="444" y="198.435" width="6" height="1.56472" stroke="black" stroke-width="1" fill="blue" tooltip="enable"><title>(2.93193,22)</title></rect><rect x="450" y="197.795" width="6" height="2.20484" stroke="black" stroke-width="1" fill="blue" tooltip="enable"><title>(2.97155,31)</title></rect><rect x="456" y="198.578" width="6" height="1.42248" stroke="black" stroke-width="1" fill="blue" tooltip="enable"><title>(3.01117,20)</title></rect><rect x="462" y="198.293" width="6" height="1.70697" stroke="black" stroke-width="1" fill="blue" tooltip="enable"><title>(3.05079,24)</title></rect><rect x="468" y="198.222" width="6" height="1.77809" stroke="black" stroke-width="1" fill="blue" tooltip="enable"><title>(3.09041,25)</title></rect><rect x="474" y="198.578" width="6" height="1.42248" stroke="black" stroke-width="1" fill="blue" tooltip="enable"><title>(3.13003,20)</title></rect><rect x="480" y="198.435" width="6" height="1.56472" stroke="black" stroke-width="1" fill="blue" tooltip="enable"><title>(3.16965,22)</title></rect><rect x="486" y="198.933" width="6" height="1.06686" stroke="black" stroke-width="1" fill="blue" tooltip="enable"><title>(3.20927,15)</title></rect><rect x="492" y="199.075" width="6" height="0.924609" stroke="black" stroke-width="1" fill="blue" tooltip="enable"><title>(3.24889,13)</title></rect><rect x="498" y="198.72" width="6" height="1.28023" stroke="black" stroke-width="1" fill="blue" tooltip="enable"><title>(3.28851,18)</title></rect><rect x="504" y="199.502" width="6" height="0.497866" stroke="black" stroke-width="1" fill="blue" tooltip="enable"><title>(3.32813,7)</title></rect><rect x="510" y="199.289" width="6" height="0.711238" stroke="black" stroke-width="1" fill="blue" tooltip="enable"><title>(3.36775,10)</title></rect><rect x="516" y="199.218" width="6" height="0.782361" stroke="black" stroke-width="1" fill="blue" tooltip="enable"><title>(3.40737,11)</title></rect><rect x="522" y="199.289" width="6" height="0.711238" stroke="black" stroke-width="1" fill="blue" tooltip="enable"><title>(3.44699,10)</title></rect><rect x="528" y="199.075" width="6" height="0.924609" stroke="black" stroke-width="1" fill="blue" tooltip="enable"><title>(3.48661,13)</title></rect><rect x="534" y="199.502" width="6" height="0.497866" stroke="black" stroke-width="1" fill="blue" tooltip="enable"><title>(3.52624,7)</title></rect><rect x="540" y="199.431" width="6" height="0.56899" stroke="black" stroke-width="1" fill="blue" tooltip="enable"><title>(3.56586,8)</title></rect><rect x="546" y="199.502" width="6" height="0.497866" stroke="black" stroke-width="1" fill="blue" tooltip="enable"><title>(3.60548,7)</title></rect><rect x="552" y="199.787" width="6" height="0.213371" stroke="black" stroke-width="1" fill="blue" tooltip="enable"><title>(3.6451,3)</title></rect><rect x="558" y="199.502" width="6" height="0.497866" stroke="black" stroke-width="1" fill="blue" tooltip="enable"><title>(3.68472,7)</title></rect><rect x="564" y="199.573" width="6" height="0.426743" stroke="black" stroke-width="1" fill="blue" tooltip="enable"><title>(3.72434,6)</title></rect><rect x="570" y="199.715" width="6" height="0.284495" stroke="black" stroke-width="1" fill="blue" tooltip="enable"><title>(3.76396,4)</title></rect><rect x="576" y="199.787" width="6" height="0.213371" stroke="black" stroke-width="1" fill="blue" tooltip="enable"><title>(3.80358,3)</title></rect><rect x="582" y="199.858" width="6" height="0.142248" stroke="black" stroke-width="1" fill="blue" tooltip="enable"><title>(3.8432,2)</title></rect><rect x="588" y="199.715" width="6" height="0.284495" stroke="black" stroke-width="1" fill="blue" tooltip="enable"><title>(3.88282,4)</title></rect><rect x="594" y="199.858" width="6" height="0.142248" stroke="black" stroke-width="1" fill="blue" tooltip="enable"><title>(3.92244,2)</title></rect><text x="30" y="240" font-size="20" fill="black">0</text>
<text x="600" y="240" font-size="20" fill="black">3.96206</text>
<polyline points="0,220,600,220" stroke="black" stroke-width="1" fill="none"/>
<text x="720" y="20" font-size="20" fill="black">2812</text>
<text x="720" y="200" font-size="20" fill="black">0</text>
<polyline points="660,0,660,200" stroke="black" stroke-width="1" fill="none"/>
</svg>