<?xml version="1.0" standalone="yes"?>
<!-- SVG graphic -->
<svg xmlns='http://www.w3.org/2000/svg' xmlns:xlink='http://www.w3.org/1999/xlink'
width="70px" height="70px" preserveAspectRatio="xMinYMin meet" viewBox="0 0 70 70" version="1.1">
<rect x="5" y="0" width="2.5" height="2.5" fill="rgb(188,0,66)" tooltip="enable"><title>(1,0 3018)</title></rect><rect x="10" y="0" width="2.5" height="2.5" fill="rgb(128,0,126)" tooltip="enable"><title>(2,0 2065)</title></rect><rect x="15" y="0" width="2.5" height="2.5" fill="rgb(104,0,150)" tooltip="enable"><title>(3,0 1684)</title></rect><rect x="20" y="0" width="2.5" height="2.5" fill="rgb(83,0,171)" tooltip="enable"><title>(4,0 1342)</title></rect><rect x="25" y="0" width="2.5" height="2.5" fill="rgb(65,0,189)" tooltip="enable"><title>(5,0 1052)</title></rect><rect x="30" y="0" width="2.5" height="2.5" fill="rgb(57,0,197)" tooltip="enable"><title>(6,0 929)</title></rect><rect x="35" y="0" width="2.5" height="2.5" fill="rgb(58,0,196)" tooltip="enable"><title>(7,0 933)</title></rect><rect x="40" y="0" width="2.5" height="2.5" fill="rgb(55,0,199)" tooltip="enable"><title>(8,0 887)</title></rect><rect x="45" y="0" width="2.5" height="2.5" fill="rgb(49,0,205)" tooltip="enable"><title>(9,0 792)</title></rect><rect x="50" y="0" width="2.5" height="2.5" fill="rgb(44,0,210)" tooltip="enable"><title>(10,0 708)</title></rect><rect x="10" y="5" width="2.5" height="2.5" fill="rgb(233,0,21)" tooltip="enable"><title>(2,1 3741)</title></rect><rect x="15" y="5" width="2.5" height="2.5" fill="rgb(193,0,61)" tooltip="enable"><title>(3,1 3100)</title></rect><rect x="20" y="5" width="2.5" height="2.5" fill="rgb(139,0,115)" tooltip="enable"><title>(4,1 2230)</title></rect><rect x="25" y="5" width="2.5" height="2.5" fill="rgb(105,0,149)" tooltip="enable"><title>(5,1 1685)</title></rect><rect x="30" y="5" width="2.5" height="2.5" fill="rgb(91,0,163)" tooltip="enable"><title>(6,1 1462)</title></rect><rect x="35" y="5" width="2.5" height="2.5" fill="rgb(77,0,177)" tooltip="enable"><title>(7,1 1244)</title></rect><rect x="40" y="5" width="2.5" height="2.5" fill="rgb(65,0,189)" tooltip="enable"><title>(8,1 1043)</title></rect><rect x="45" y="5" width="2.5" height="2.5" fill="rgb(55,0,199)" tooltip="enable"><title>(9,1 883)</title></rect><rect x="50" y="5" width="2.5" height="2.5" fill="rgb(46,0,208)" tooltip="enable"><title>(10,1 743)</title></rect><rect x="15" y="10" width="2.5" height="2.5" fill="rgb(255,0,0)" tooltip="enable"><title>(3,2 4090)</title></rect><rect x="20" y="10" width="2.5" height="2.5" fill="rgb(178,0,76)" tooltip="enable"><title>(4,2 2862)</title></rect><rect x="25" y="10" width="2.5" height="2.5" fill="rgb(138,0,116)" tooltip="enable"><title>(5,2 2223)</title></rect><rect x="30" y="10" width="2.5" height="2.5" fill="rgb(112,0,142)" tooltip="enable"><title>(6,2 1805)</title></rect><rect x="35" y="10" width="2.5" height="2.5" fill="rgb(88,0,166)" tooltip="enable"><title>(7,2 1416)</title></rect><rect x="40" y="10" width="2.5" height="2.5" fill="rgb(73,0,181)" tooltip="enable"><title>(8,2 1171)</title></rect><rect x="45" y="10" width="2.5" height="2.5" fill="rgb(53,0,201)" tooltip="enable"><title>(9,2 864)</title></rect><rect x="50" y="10" width="2.5" height="2.5" fill="rgb(47,0,207)" tooltip="enable"><title>(10,2 765)</title></rect><rect x="20" y="15" width="2.5" height="2.5" fill="rgb(218,0,36)" tooltip="enable"><title>(4,3 3504)</title></rect><rect x="25" y="15" width="2.5" height="2.5" fill="rgb(162,0,92)" tooltip="enable"><title>(5,3 2606)</title></rect><rect x="30" y="15" width="2.5" height="2.5" fill="rgb(131,0,123)" tooltip="enable"><title>(6,3 2113)</title></rect><rect x="35" y="15" width="2.5" height="2.5" fill="rgb(102,0,152)" tooltip="enable"><title>(7,3 1642)</title></rect><rect x="40" y="15" width="2.5" height="2.5" fill="rgb(82,0,172)" tooltip="enable"><title>(8,3 1316)</title></rect><rect x="45" y="15" width="2.5" height="2.5" fill="rgb(60,0,194)" tooltip="enable"><title>(9,3 963)</title></rect><rect x="50" y="15" width="2.5" height="2.5" fill="rgb(44,0,210)" tooltip="enable"><title>(10,3 715)</title></rect><rect x="25" y="20" width="2.5" height="2.5" fill="rgb(212,0,42)" tooltip="enable"><title>(5,4 3409)</title></rect><rect x="30" y="20" width="2.5" height="2.5" fill="rgb(166,0,88)" tooltip="enable"><title>(6,4 2673)</title></rect><rect x="35" y="20" width="2.5" height="2.5" fill="rgb(128,0,126)" tooltip="enable"><title>(7,4 2064)</title></rect><rect x="40" y="20" width="2.5" height="2.5" fill="rgb(98,0,156)" tooltip="enable"><title>(8,4 1576)</title></rect><rect x="45" y="20" width="2.5" height="2.5" fill="rgb(65,0,189)" tooltip="enable"><title>(9,4 1048)</title></rect><rect x="50" y="20" width="2.5" height="2.5" fill="rgb(47,0,207)" tooltip="enable"><title>(10,4 757)</title></rect><rect x="30" y="25" width="2.5" height="2.5" fill="rgb(220,0,34)" tooltip="enable"><title>(6,5 3535)</title></rect><rect x="35" y="25" width="2.5" height="2.5" fill="rgb(160,0,94)" tooltip="enable"><title>(7,5 2574)</title></rect><rect x="40" y="25" width="2.5" height="2.5" fill="rgb(115,0,139)" tooltip="enable"><title>(8,5 1847)</title></rect><rect x="45" y="25" width="2.5" height="2.5" fill="rgb(75,0,179)" tooltip="enable"><title>(9,5 1204)</title></rect><rect x="50" y="25" width="2.5" height="2.5" fill="rgb(48,0,206)" tooltip="enable"><title>(10,5 779)</title></rect><rect x="35" y="30" width="2.5" height="2.5" fill="rgb(218,0,36)" tooltip="enable"><title>(7,6 3506)</title></rect><rect x="40" y="30" width="2.5" height="2.5" fill="rgb(157,0,97)" tooltip="enable"><title>(8,6 2523)</title></rect><rect x="45" y="30" width="2.5" height="2.5" fill="rgb(94,0,160)" tooltip="enable"><title>(9,6 1508)</title></rect><rect x="50" y="30" width="2.5" height="2.5" fill="rgb(57,0,197)" tooltip="enable"><title>(10,6 920)</title></rect><rect x="40" y="35" width="2.5" height="2.5" fill="rgb(242,0,12)" tooltip="enable"><title>(8,7 3896)</title></rect><rect x="45" y="35" width="2.5" height="2.5" fill="rgb(140,0,114)" tooltip="enable"><title>(9,7 2257)</title></rect><rect x="50" y="35" width="2.5" height="2.5" fill="rgb(84,0,170)" tooltip="enable"><title>(10,7 1348)</title></rect><rect x="45" y="40" width="2.5" height="2.5" fill="rgb(231,0,23)" tooltip="enable"><title>(9,8 3719)</title></rect><rect x="50" y="40" width="2.5" height="2.5" fill="rgb(123,0,131)" tooltip="enable"><title>(10,8 1977)</title></rect><rect x="50" y="45" width="2.5" height="2.5" fill="rgb(165,0,89)" tooltip="enable"><title>(10,9 2653)</title></rect><text x="60" y="5" font-size="5" fill="black">0</text>
<text x="60" y="50" font-size="5" fill="black">11</text>
<polyline points="60,10,60,45" stroke="black" stroke-width="1" fill="none"/>
<text x="5" y="60" font-size="5" fill="black">0</text>
<text x="50" y="60" font-size="5" fill="black">11</text>
<polyline points="10,60,45,60" stroke="black" stroke-width="1" fill="none"/>
</svg>