<?xml version="1.0" standalone="yes"?>
<!-- SVG graphic -->
<svg xmlns='http://www.w3.org/2000/svg' xmlns:xlink='http://www.w3.org/1999/xlink'
width="70px" height="70px" preserveAspectRatio="xMinYMin meet" viewBox="0 0 70 70" version="1.1">
<rect x="5" y="0" width="2.5" height="2.5" fill="rgb(176,0,78)" tooltip="enable"><title>(1,0 2363)</title></rect><rect x="10" y="0" width="2.5" height="2.5" fill="rgb(110,0,144)" tooltip="enable"><title>(2,0 1481)</title></rect><rect x="15" y="0" width="2.5" height="2.5" fill="rgb(81,0,173)" tooltip="enable"><title>(3,0 1087)</title></rect><rect x="20" y="0" width="2.5" height="2.5" fill="rgb(57,0,197)" tooltip="enable"><title>(4,0 762)</title></rect><rect x="25" y="0" width="2.5" height="2.5" fill="rgb(37,0,217)" tooltip="enable"><title>(5,0 496)</title></rect><rect x="30" y="0" width="2.5" height="2.5" fill="rgb(28,0,226)" tooltip="enable"><title>(6,0 376)</title></rect><rect x="35" y="0" width="2.5" height="2.5" fill="rgb(26,0,228)" tooltip="enable"><title>(7,0 350)</title></rect><rect x="40" y="0" width="2.5" height="2.5" fill="rgb(23,0,231)" tooltip="enable"><title>(8,0 314)</title></rect><rect x="10" y="5" width="2.5" height="2.5" fill="rgb(236,0,18)" tooltip="enable"><title>(2,1 3156)</title></rect><rect x="15" y="5" width="2.5" height="2.5" fill="rgb(174,0,80)" tooltip="enable"><title>(3,1 2334)</title></rect><rect x="20" y="5" width="2.5" height="2.5" fill="rgb(100,0,154)" tooltip="enable"><title>(4,1 1342)</title></rect><rect x="25" y="5" width="2.5" height="2.5" fill="rgb(76,0,178)" tooltip="enable"><title>(5,1 1025)</title></rect><rect x="30" y="5" width="2.5" height="2.5" fill="rgb(54,0,200)" tooltip="enable"><title>(6,1 725)</title></rect><rect x="35" y="5" width="2.5" height="2.5" fill="rgb(52,0,202)" tooltip="enable"><title>(7,1 695)</title></rect><rect x="40" y="5" width="2.5" height="2.5" fill="rgb(32,0,222)" tooltip="enable"><title>(8,1 436)</title></rect><rect x="15" y="10" width="2.5" height="2.5" fill="rgb(255,0,0)" tooltip="enable"><title>(3,2 3407)</title></rect><rect x="20" y="10" width="2.5" height="2.5" fill="rgb(160,0,94)" tooltip="enable"><title>(4,2 2139)</title></rect><rect x="25" y="10" width="2.5" height="2.5" fill="rgb(120,0,134)" tooltip="enable"><title>(5,2 1606)</title></rect><rect x="30" y="10" width="2.5" height="2.5" fill="rgb(95,0,159)" tooltip="enable"><title>(6,2 1279)</title></rect><rect x="35" y="10" width="2.5" height="2.5" fill="rgb(59,0,195)" tooltip="enable"><title>(7,2 799)</title></rect><rect x="40" y="10" width="2.5" height="2.5" fill="rgb(44,0,210)" tooltip="enable"><title>(8,2 589)</title></rect><rect x="45" y="10" width="2.5" height="2.5" fill="rgb(24,0,230)" tooltip="enable"><title>(9,2 322)</title></rect><rect x="20" y="15" width="2.5" height="2.5" fill="rgb(211,0,43)" tooltip="enable"><title>(4,3 2824)</title></rect><rect x="25" y="15" width="2.5" height="2.5" fill="rgb(123,0,131)" tooltip="enable"><title>(5,3 1655)</title></rect><rect x="30" y="15" width="2.5" height="2.5" fill="rgb(110,0,144)" tooltip="enable"><title>(6,3 1475)</title></rect><rect x="35" y="15" width="2.5" height="2.5" fill="rgb(80,0,174)" tooltip="enable"><title>(7,3 1069)</title></rect><rect x="40" y="15" width="2.5" height="2.5" fill="rgb(49,0,205)" tooltip="enable"><title>(8,3 665)</title></rect><rect x="45" y="15" width="2.5" height="2.5" fill="rgb(28,0,226)" tooltip="enable"><title>(9,3 382)</title></rect><rect x="25" y="20" width="2.5" height="2.5" fill="rgb(206,0,48)" tooltip="enable"><title>(5,4 2755)</title></rect><rect x="30" y="20" width="2.5" height="2.5" fill="rgb(125,0,129)" tooltip="enable"><title>(6,4 1678)</title></rect><rect x="35" y="20" width="2.5" height="2.5" fill="rgb(110,0,144)" tooltip="enable"><title>(7,4 1477)</title></rect><rect x="40" y="20" width="2.5" height="2.5" fill="rgb(74,0,180)" tooltip="enable"><title>(8,4 989)</title></rect><rect x="45" y="20" width="2.5" height="2.5" fill="rgb(34,0,220)" tooltip="enable"><title>(9,4 460)</title></rect><rect x="30" y="25" width="2.5" height="2.5" fill="rgb(182,0,72)" tooltip="enable"><title>(6,5 2445)</title></rect><rect x="35" y="25" width="2.5" height="2.5" fill="rgb(145,0,109)" tooltip="enable"><title>(7,5 1940)</title></rect><rect x="40" y="25" width="2.5" height="2.5" fill="rgb(90,0,164)" tooltip="enable"><title>(8,5 1207)</title></rect><rect x="45" y="25" width="2.5" height="2.5" fill="rgb(44,0,210)" tooltip="enable"><title>(9,5 595)</title></rect><rect x="35" y="30" width="2.5" height="2.5" fill="rgb(223,0,31)" tooltip="enable"><title>(7,6 2990)</title></rect><rect x="40" y="30" width="2.5" height="2.5" fill="rgb(140,0,114)" tooltip="enable"><title>(8,6 1874)</title></rect><rect x="45" y="30" width="2.5" height="2.5" fill="rgb(68,0,186)" tooltip="enable"><title>(9,6 918)</title></rect><rect x="50" y="30" width="2.5" height="2.5" fill="rgb(20,0,234)" tooltip="enable"><title>(10,6 277)</title></rect><rect x="40" y="35" width="2.5" height="2.5" fill="rgb(231,0,23)" tooltip="enable"><title>(8,7 3096)</title></rect><rect x="45" y="35" width="2.5" height="2.5" fill="rgb(113,0,141)" tooltip="enable"><title>(9,7 1523)</title></rect><rect x="50" y="35" width="2.5" height="2.5" fill="rgb(37,0,217)" tooltip="enable"><title>(10,7 505)</title></rect><rect x="45" y="40" width="2.5" height="2.5" fill="rgb(214,0,40)" tooltip="enable"><title>(9,8 2869)</title></rect><rect x="50" y="40" width="2.5" height="2.5" fill="rgb(70,0,184)" tooltip="enable"><title>(10,8 937)</title></rect><rect x="50" y="45" width="2.5" height="2.5" fill="rgb(116,0,138)" tooltip="enable"><title>(10,9 1551)</title></rect><text x="60" y="5" font-size="5" fill="black">0</text>
<text x="60" y="50" font-size="5" fill="black">11</text>
<polyline points="60,10,60,45" stroke="black" stroke-width="1" fill="none"/>
<text x="5" y="60" font-size="5" fill="black">0</text>
<text x="50" y="60" font-size="5" fill="black">11</text>
<polyline points="10,60,45,60" stroke="black" stroke-width="1" fill="none"/>
</svg>