<?xml version="1.0" standalone="yes"?>
<!-- SVG graphic -->
<svg xmlns='http://www.w3.org/2000/svg' xmlns:xlink='http://www.w3.org/1999/xlink'
 version="1.1">
<rect x="0" y="0" width="6" height="200" stroke="black" stroke-width="1" fill="blue" tooltip="enable"><title>(0,92)</title></rect><rect x="6" y="58.6956" width="6" height="141.304" stroke="black" stroke-width="1" fill="blue" tooltip="enable"><title>(0.039502,65)</title></rect><rect x="12" y="26.087" width="6" height="173.913" stroke="black" stroke-width="1" fill="blue" tooltip="enable"><title>(0.079004,80)</title></rect><rect x="18" y="52.1739" width="6" height="147.826" stroke="black" stroke-width="1" fill="blue" tooltip="enable"><title>(0.118506,68)</title></rect><rect x="24" y="45.6522" width="6" height="154.348" stroke="black" stroke-width="1" fill="blue" tooltip="enable"><title>(0.158008,71)</title></rect><rect x="30" y="80.4348" width="6" height="119.565" stroke="black" stroke-width="1" fill="blue" tooltip="enable"><title>(0.19751,55)</title></rect><rect x="36" y="97.8261" width="6" height="102.174" stroke="black" stroke-width="1" fill="blue" tooltip="enable"><title>(0.237012,47)</title></rect><rect x="42" y="106.522" width="6" height="93.4783" stroke="black" stroke-width="1" fill="blue" tooltip="enable"><title>(0.276514,43)</title></rect><rect x="48" y="132.609" width="6" height="67.3913" stroke="black" stroke-width="1" fill="blue" tooltip="enable"><title>(0.316016,31)</title></rect><rect x="54" y="121.739" width="6" height="78.2609" stroke="black" stroke-width="1" fill="blue" tooltip="enable"><title>(0.355518,36)</title></rect><rect x="60" y="147.826" width="6" height="52.1739" stroke="black" stroke-width="1" fill="blue" tooltip="enable"><title>(0.39502,24)</title></rect><rect x="66" y="130.435" width="6" height="69.5652" stroke="black" stroke-width="1" fill="blue" tooltip="enable"><title>(0.434522,32)</title></rect><rect x="72" y="108.696" width="6" height="91.3043" stroke="black" stroke-width="1" fill="blue" tooltip="enable"><title>(0.474024,42)</title></rect><rect x="78" y="113.043" width="6" height="86.9565" stroke="black" stroke-width="1" fill="blue" tooltip="enable"><title>(0.513526,40)</title></rect><rect x="84" y="143.478" width="6" height="56.5217" stroke="black" stroke-width="1" fill="blue" tooltip="enable"><title>(0.553028,26)</title></rect><rect x="90" y="145.652" width="6" height="54.3478" stroke="black" stroke-width="1" fill="blue" tooltip="enable"><title>(0.59253,25)</title></rect><rect x="96" y="136.957" width="6" height="63.0435" stroke="black" stroke-width="1" fill="blue" tooltip="enable"><title>(0.632032,29)</title></rect><rect x="102" y="121.739" width="6" height="78.2609" stroke="black" stroke-width="1" fill="blue" tooltip="enable"><title>(0.671534,36)</title></rect><rect x="108" y="154.348" width="6" height="45.6522" stroke="black" stroke-width="1" fill="blue" tooltip="enable"><title>(0.711036,21)</title></rect><rect x="114" y="156.522" width="6" height="43.4783" stroke="black" stroke-width="1" fill="blue" tooltip="enable"><title>(0.750538,20)</title></rect><rect x="120" y="141.304" width="6" height="58.6957" stroke="black" stroke-width="1" fill="blue" tooltip="enable"><title>(0.79004,27)</title></rect><rect x="126" y="152.174" width="6" height="47.8261" stroke="black" stroke-width="1" fill="blue" tooltip="enable"><title>(0.829542,22)</title></rect><rect x="132" y="136.957" width="6" height="63.0435" stroke="black" stroke-width="1" fill="blue" tooltip="enable"><title>(0.869044,29)</title></rect><rect x="138" y="145.652" width="6" height="54.3478" stroke="black" stroke-width="1" fill="blue" tooltip="enable"><title>(0.908546,25)</title></rect><rect x="144" y="160.87" width="6" height="39.1304" stroke="black" stroke-width="1" fill="blue" tooltip="enable"><title>(0.948048,18)</title></rect><rect x="150" y="169.565" width="6" height="30.4348" stroke="black" stroke-width="1" fill="blue" tooltip="enable"><title>(0.98755,14)</title></rect><rect x="156" y="141.304" width="6" height="58.6957" stroke="black" stroke-width="1" fill="blue" tooltip="enable"><title>(1.02705,27)</title></rect><rect x="162" y="160.87" width="6" height="39.1304" stroke="black" stroke-width="1" fill="blue" tooltip="enable"><title>(1.06655,18)</title></rect><rect x="168" y="141.304" width="6" height="58.6957" stroke="black" stroke-width="1" fill="blue" tooltip="enable"><title>(1.10606,27)</title></rect><rect x="174" y="156.522" width="6" height="43.4783" stroke="black" stroke-width="1" fill="blue" tooltip="enable"><title>(1.14556,20)</title></rect><rect x="180" y="171.739" width="6" height="28.2609" stroke="black" stroke-width="1" fill="blue" tooltip="enable"><title>(1.18506,13)</title></rect><rect x="186" y="165.217" width="6" height="34.7826" stroke="black" stroke-width="1" fill="blue" tooltip="enable"><title>(1.22456,16)</title></rect><rect x="192" y="169.565" width="6" height="30.4348" stroke="black" stroke-width="1" fill="blue" tooltip="enable"><title>(1.26406,14)</title></rect><rect x="198" y="167.391" width="6" height="32.6087" stroke="black" stroke-width="1" fill="blue" tooltip="enable"><title>(1.30357,15)</title></rect><rect x="204" y="154.348" width="6" height="45.6522" stroke="black" stroke-width="1" fill="blue" tooltip="enable"><title>(1.34307,21)</title></rect><rect x="210" y="147.826" width="6" height="52.1739" stroke="black" stroke-width="1" fill="blue" tooltip="enable"><title>(1.38257,24)</title></rect><rect x="216" y="191.304" width="6" height="8.69565" stroke="black" stroke-width="1" fill="blue" tooltip="enable"><title>(1.42207,4)</title></rect><rect x="222" y="154.348" width="6" height="45.6522" stroke="black" stroke-width="1" fill="blue" tooltip="enable"><title>(1.46157,21)</title></rect><rect x="228" y="186.957" width="6" height="13.0435" stroke="black" stroke-width="1" fill="blue" tooltip="enable"><title>(1.50108,6)</title></rect><rect x="234" y="169.565" width="6" height="30.4348" stroke="black" stroke-width="1" fill="blue" tooltip="enable"><title>(1.54058,14)</title></rect><rect x="240" y="171.739" width="6" height="28.2609" stroke="black" stroke-width="1" fill="blue" tooltip="enable"><title>(1.58008,13)</title></rect><rect x="246" y="186.957" width="6" height="13.0435" stroke="black" stroke-width="1" fill="blue" tooltip="enable"><title>(1.61958,6)</title></rect><rect x="252" y="178.261" width="6" height="21.7391" stroke="black" stroke-width="1" fill="blue" tooltip="enable"><title>(1.65908,10)</title></rect><rect x="258" y="186.957" width="6" height="13.0435" stroke="black" stroke-width="1" fill="blue" tooltip="enable"><title>(1.69859,6)</title></rect><rect x="264" y="173.913" width="6" height="26.087" stroke="black" stroke-width="1" fill="blue" tooltip="enable"><title>(1.73809,12)</title></rect><rect x="270" y="180.435" width="6" height="19.5652" stroke="black" stroke-width="1" fill="blue" tooltip="enable"><title>(1.77759,9)</title></rect><rect x="276" y="189.13" width="6" height="10.8696" stroke="black" stroke-width="1" fill="blue" tooltip="enable"><title>(1.81709,5)</title></rect><rect x="282" y="191.304" width="6" height="8.69565" stroke="black" stroke-width="1" fill="blue" tooltip="enable"><title>(1.85659,4)</title></rect><rect x="288" y="189.13" width="6" height="10.8696" stroke="black" stroke-width="1" fill="blue" tooltip="enable"><title>(1.8961,5)</title></rect><rect x="294" y="184.783" width="6" height="15.2174" stroke="black" stroke-width="1" fill="blue" tooltip="enable"><title>(1.9356,7)</title></rect><rect x="300" y="184.783" width="6" height="15.2174" stroke="black" stroke-width="1" fill="blue" tooltip="enable"><title>(1.9751,7)</title></rect><rect x="306" y="184.783" width="6" height="15.2174" stroke="black" stroke-width="1" fill="blue" tooltip="enable"><title>(2.0146,7)</title></rect><rect x="312" y="193.478" width="6" height="6.52174" stroke="black" stroke-width="1" fill="blue" tooltip="enable"><title>(2.0541,3)</title></rect><rect x="318" y="184.783" width="6" height="15.2174" stroke="black" stroke-width="1" fill="blue" tooltip="enable"><title>(2.09361,7)</title></rect><rect x="324" y="193.478" width="6" height="6.52174" stroke="black" stroke-width="1" fill="blue" tooltip="enable"><title>(2.13311,3)</title></rect><rect x="330" y="178.261" width="6" height="21.7391" stroke="black" stroke-width="1" fill="blue" tooltip="enable"><title>(2.17261,10)</title></rect><rect x="336" y="186.957" width="6" height="13.0435" stroke="black" stroke-width="1" fill="blue" tooltip="enable"><title>(2.21211,6)</title></rect><rect x="342" y="184.783" width="6" height="15.2174" stroke="black" stroke-width="1" fill="blue" tooltip="enable"><title>(2.25161,7)</title></rect><rect x="348" y="178.261" width="6" height="21.7391" stroke="black" stroke-width="1" fill="blue" tooltip="enable"><title>(2.29112,10)</title></rect><rect x="354" y="189.13" width="6" height="10.8696" stroke="black" stroke-width="1" fill="blue" tooltip="enable"><title>(2.33062,5)</title></rect><rect x="360" y="193.478" width="6" height="6.52174" stroke="black" stroke-width="1" fill="blue" tooltip="enable"><title>(2.37012,3)</title></rect><rect x="366" y="195.652" width="6" height="4.34783" stroke="black" stroke-width="1" fill="blue" tooltip="enable"><title>(2.40962,2)</title></rect><rect x="372" y="195.652" width="6" height="4.34783" stroke="black" stroke-width="1" fill="blue" tooltip="enable"><title>(2.44913,2)</title></rect><rect x="378" y="193.478" width="6" height="6.52174" stroke="black" stroke-width="1" fill="blue" tooltip="enable"><title>(2.48863,3)</title></rect><rect x="384" y="197.826" width="6" height="2.17391" stroke="black" stroke-width="1" fill="blue" tooltip="enable"><title>(2.52813,1)</title></rect><rect x="390" y="189.13" width="6" height="10.8696" stroke="black" stroke-width="1" fill="blue" tooltip="enable"><title>(2.56763,5)</title></rect><rect x="396" y="200" width="6" height="0" stroke="black" stroke-width="1" fill="blue" tooltip="enable"><title>(2.60713,0)</title></rect><rect x="402" y="195.652" width="6" height="4.34783" stroke="black" stroke-width="1" fill="blue" tooltip="enable"><title>(2.64664,2)</title></rect><rect x="408" y="193.478" width="6" height="6.52174" stroke="black" stroke-width="1" fill="blue" tooltip="enable"><title>(2.68614,3)</title></rect><rect x="414" y="195.652" width="6" height="4.34783" stroke="black" stroke-width="1" fill="blue" tooltip="enable"><title>(2.72564,2)</title></rect><rect x="420" y="189.13" width="6" height="10.8696" stroke="black" stroke-width="1" fill="blue" tooltip="enable"><title>(2.76514,5)</title></rect><rect x="426" y="189.13" width="6" height="10.8696" stroke="black" stroke-width="1" fill="blue" tooltip="enable"><title>(2.80464,5)</title></rect><rect x="432" y="197.826" width="6" height="2.17391" stroke="black" stroke-width="1" fill="blue" tooltip="enable"><title>(2.84415,1)</title></rect><rect x="438" y="191.304" width="6" height="8.69565" stroke="black" stroke-width="1" fill="blue" tooltip="enable"><title>(2.88365,4)</title></rect><rect x="444" y="195.652" width="6" height="4.34783" stroke="black" stroke-width="1" fill="blue" tooltip="enable"><title>(2.92315,2)</title></rect><rect x="450" y="197.826" width="6" height="2.17391" stroke="black" stroke-width="1" fill="blue" tooltip="enable"><title>(2.96265,1)</title></rect><rect x="456" y="200" width="6" height="0" stroke="black" stroke-width="1" fill="blue" tooltip="enable"><title>(3.00215,0)</title></rect><rect x="462" y="200" width="6" height="0" stroke="black" stroke-width="1" fill="blue" tooltip="enable"><title>(3.04166,0)</title></rect><rect x="468" y="197.826" width="6" height="2.17391" stroke="black" stroke-width="1" fill="blue" tooltip="enable"><title>(3.08116,1)</title></rect><rect x="474" y="197.826" width="6" height="2.17391" stroke="black" stroke-width="1" fill="blue" tooltip="enable"><title>(3.12066,1)</title></rect><rect x="480" y="200" width="6" height="0" stroke="black" stroke-width="1" fill="blue" tooltip="enable"><title>(3.16016,0)</title></rect><rect x="486" y="197.826" width="6" height="2.17391" stroke="black" stroke-width="1" fill="blue" tooltip="enable"><title>(3.19966,1)</title></rect><rect x="492" y="197.826" width="6" height="2.17391" stroke="black" stroke-width="1" fill="blue" tooltip="enable"><title>(3.23917,1)</title></rect><rect x="498" y="200" width="6" height="0" stroke="black" stroke-width="1" fill="blue" tooltip="enable"><title>(3.27867,0)</title></rect><rect x="504" y="200" width="6" height="0" stroke="black" stroke-width="1" fill="blue" tooltip="enable"><title>(3.31817,0)</title></rect><rect x="510" y="197.826" width="6" height="2.17391" stroke="black" stroke-width="1" fill="blue" tooltip="enable"><title>(3.35767,1)</title></rect><rect x="516" y="200" width="6" height="0" stroke="black" stroke-width="1" fill="blue" tooltip="enable"><title>(3.39717,0)</title></rect><rect x="522" y="197.826" width="6" height="2.17391" stroke="black" stroke-width="1" fill="blue" tooltip="enable"><title>(3.43668,1)</title></rect><rect x="528" y="197.826" width="6" height="2.17391" stroke="black" stroke-width="1" fill="blue" tooltip="enable"><title>(3.47618,1)</title></rect><rect x="534" y="200" width="6" height="0" stroke="black" stroke-width="1" fill="blue" tooltip="enable"><title>(3.51568,0)</title></rect><rect x="540" y="197.826" width="6" height="2.17391" stroke="black" stroke-width="1" fill="blue" tooltip="enable"><title>(3.55518,1)</title></rect><rect x="546" y="197.826" width="6" height="2.17391" stroke="black" stroke-width="1" fill="blue" tooltip="enable"><title>(3.59468,1)</title></rect><rect x="552" y="197.826" width="6" height="2.17391" stroke="black" stroke-width="1" fill="blue" tooltip="enable"><title>(3.63419,1)</title></rect><rect x="558" y="200" width="6" height="0" stroke="black" stroke-width="1" fill="blue" tooltip="enable"><title>(3.67369,0)</title></rect><rect x="564" y="200" width="6" height="0" stroke="black" stroke-width="1" fill="blue" tooltip="enable"><title>(3.71319,0)</title></rect><rect x="570" y="197.826" width="6" height="2.17391" stroke="black" stroke-width="1" fill="blue" tooltip="enable"><title>(3.75269,1)</title></rect><rect x="576" y="197.826" width="6" height="2.17391" stroke="black" stroke-width="1" fill="blue" tooltip="enable"><title>(3.79219,1)</title></rect><rect x="582" y="200" width="6" height="0" stroke="black" stroke-width="1" fill="blue" tooltip="enable"><title>(3.8317,0)</title></rect><rect x="588" y="200" width="6" height="0" stroke="black" stroke-width="1" fill="blue" tooltip="enable"><title>(3.8712,0)</title></rect><rect x="594" y="200" width="6" height="0" stroke="black" stroke-width="1" fill="blue" tooltip="enable"><title>(3.9107,0)</title></rect><text x="30" y="240" font-size="20" fill="black">0</text>
<text x="600" y="240" font-size="20" fill="black">3.9502</text>
<polyline points="0,220,600,220" stroke="black" stroke-width="1" fill="none"/>
<text x="720" y="20" font-size="20" fill="black">92</text>
<text x="720" y="200" font-size="20" fill="black">0</text>
<polyline points="660,0,660,200" stroke="black" stroke-width="1" fill="none"/>
</svg>