<?xml version="1.0" standalone="yes"?>
<!-- SVG graphic -->
<svg xmlns='http://www.w3.org/2000/svg' xmlns:xlink='http://www.w3.org/1999/xlink'
 version="1.1">
<rect x="0" y="0" width="6" height="200" stroke="black" stroke-width="1" fill="blue" tooltip="enable"><title>(0,715)</title></rect><rect x="6" y="90.3497" width="6" height="109.65" stroke="black" stroke-width="1" fill="blue" tooltip="enable"><title>(0.0305656,392)</title></rect><rect x="12" y="113.007" width="6" height="86.993" stroke="black" stroke-width="1" fill="blue" tooltip="enable"><title>(0.0611313,311)</title></rect><rect x="18" y="133.147" width="6" height="66.8531" stroke="black" stroke-width="1" fill="blue" tooltip="enable"><title>(0.0916969,239)</title></rect><rect x="24" y="135.944" width="6" height="64.0559" stroke="black" stroke-width="1" fill="blue" tooltip="enable"><title>(0.122263,229)</title></rect><rect x="30" y="148.811" width="6" height="51.1888" stroke="black" stroke-width="1" fill="blue" tooltip="enable"><title>(0.152828,183)</title></rect><rect x="36" y="154.965" width="6" height="45.035" stroke="black" stroke-width="1" fill="blue" tooltip="enable"><title>(0.183394,161)</title></rect><rect x="42" y="154.126" width="6" height="45.8741" stroke="black" stroke-width="1" fill="blue" tooltip="enable"><title>(0.21396,164)</title></rect><rect x="48" y="160.28" width="6" height="39.7203" stroke="black" stroke-width="1" fill="blue" tooltip="enable"><title>(0.244525,142)</title></rect><rect x="54" y="162.797" width="6" height="37.2028" stroke="black" stroke-width="1" fill="blue" tooltip="enable"><title>(0.275091,133)</title></rect><rect x="60" y="169.231" width="6" height="30.7692" stroke="black" stroke-width="1" fill="blue" tooltip="enable"><title>(0.305657,110)</title></rect><rect x="66" y="169.231" width="6" height="30.7692" stroke="black" stroke-width="1" fill="blue" tooltip="enable"><title>(0.336222,110)</title></rect><rect x="72" y="170.35" width="6" height="29.6503" stroke="black" stroke-width="1" fill="blue" tooltip="enable"><title>(0.366788,106)</title></rect><rect x="78" y="174.545" width="6" height="25.4545" stroke="black" stroke-width="1" fill="blue" tooltip="enable"><title>(0.397353,91)</title></rect><rect x="84" y="172.028" width="6" height="27.972" stroke="black" stroke-width="1" fill="blue" tooltip="enable"><title>(0.427919,100)</title></rect><rect x="90" y="174.266" width="6" height="25.7343" stroke="black" stroke-width="1" fill="blue" tooltip="enable"><title>(0.458485,92)</title></rect><rect x="96" y="175.385" width="6" height="24.6154" stroke="black" stroke-width="1" fill="blue" tooltip="enable"><title>(0.48905,88)</title></rect><rect x="102" y="182.937" width="6" height="17.0629" stroke="black" stroke-width="1" fill="blue" tooltip="enable"><title>(0.519616,61)</title></rect><rect x="108" y="182.378" width="6" height="17.6224" stroke="black" stroke-width="1" fill="blue" tooltip="enable"><title>(0.550182,63)</title></rect><rect x="114" y="182.937" width="6" height="17.0629" stroke="black" stroke-width="1" fill="blue" tooltip="enable"><title>(0.580747,61)</title></rect><rect x="120" y="182.657" width="6" height="17.3427" stroke="black" stroke-width="1" fill="blue" tooltip="enable"><title>(0.611313,62)</title></rect><rect x="126" y="188.531" width="6" height="11.4685" stroke="black" stroke-width="1" fill="blue" tooltip="enable"><title>(0.641879,41)</title></rect><rect x="132" y="181.538" width="6" height="18.4615" stroke="black" stroke-width="1" fill="blue" tooltip="enable"><title>(0.672444,66)</title></rect><rect x="138" y="187.133" width="6" height="12.8671" stroke="black" stroke-width="1" fill="blue" tooltip="enable"><title>(0.70301,46)</title></rect><rect x="144" y="189.93" width="6" height="10.0699" stroke="black" stroke-width="1" fill="blue" tooltip="enable"><title>(0.733576,36)</title></rect><rect x="150" y="191.888" width="6" height="8.11189" stroke="black" stroke-width="1" fill="blue" tooltip="enable"><title>(0.764141,29)</title></rect><rect x="156" y="188.811" width="6" height="11.1888" stroke="black" stroke-width="1" fill="blue" tooltip="enable"><title>(0.794707,40)</title></rect><rect x="162" y="186.573" width="6" height="13.4266" stroke="black" stroke-width="1" fill="blue" tooltip="enable"><title>(0.825273,48)</title></rect><rect x="168" y="193.287" width="6" height="6.71329" stroke="black" stroke-width="1" fill="blue" tooltip="enable"><title>(0.855838,24)</title></rect><rect x="174" y="188.252" width="6" height="11.7483" stroke="black" stroke-width="1" fill="blue" tooltip="enable"><title>(0.886404,42)</title></rect><rect x="180" y="192.168" width="6" height="7.83217" stroke="black" stroke-width="1" fill="blue" tooltip="enable"><title>(0.91697,28)</title></rect><rect x="186" y="191.329" width="6" height="8.67133" stroke="black" stroke-width="1" fill="blue" tooltip="enable"><title>(0.947535,31)</title></rect><rect x="192" y="194.406" width="6" height="5.59441" stroke="black" stroke-width="1" fill="blue" tooltip="enable"><title>(0.978101,20)</title></rect><rect x="198" y="194.965" width="6" height="5.03497" stroke="black" stroke-width="1" fill="blue" tooltip="enable"><title>(1.00867,18)</title></rect><rect x="204" y="193.846" width="6" height="6.15385" stroke="black" stroke-width="1" fill="blue" tooltip="enable"><title>(1.03923,22)</title></rect><rect x="210" y="195.804" width="6" height="4.1958" stroke="black" stroke-width="1" fill="blue" tooltip="enable"><title>(1.0698,15)</title></rect><rect x="216" y="193.007" width="6" height="6.99301" stroke="black" stroke-width="1" fill="blue" tooltip="enable"><title>(1.10036,25)</title></rect><rect x="222" y="197.203" width="6" height="2.7972" stroke="black" stroke-width="1" fill="blue" tooltip="enable"><title>(1.13093,10)</title></rect><rect x="228" y="195.804" width="6" height="4.1958" stroke="black" stroke-width="1" fill="blue" tooltip="enable"><title>(1.16149,15)</title></rect><rect x="234" y="196.643" width="6" height="3.35664" stroke="black" stroke-width="1" fill="blue" tooltip="enable"><title>(1.19206,12)</title></rect><rect x="240" y="196.643" width="6" height="3.35664" stroke="black" stroke-width="1" fill="blue" tooltip="enable"><title>(1.22263,12)</title></rect><rect x="246" y="195.245" width="6" height="4.75524" stroke="black" stroke-width="1" fill="blue" tooltip="enable"><title>(1.25319,17)</title></rect><rect x="252" y="196.643" width="6" height="3.35664" stroke="black" stroke-width="1" fill="blue" tooltip="enable"><title>(1.28376,12)</title></rect><rect x="258" y="196.364" width="6" height="3.63636" stroke="black" stroke-width="1" fill="blue" tooltip="enable"><title>(1.31432,13)</title></rect><rect x="264" y="196.084" width="6" height="3.91608" stroke="black" stroke-width="1" fill="blue" tooltip="enable"><title>(1.34489,14)</title></rect><rect x="270" y="197.203" width="6" height="2.7972" stroke="black" stroke-width="1" fill="blue" tooltip="enable"><title>(1.37545,10)</title></rect><rect x="276" y="195.524" width="6" height="4.47552" stroke="black" stroke-width="1" fill="blue" tooltip="enable"><title>(1.40602,16)</title></rect><rect x="282" y="196.923" width="6" height="3.07692" stroke="black" stroke-width="1" fill="blue" tooltip="enable"><title>(1.43659,11)</title></rect><rect x="288" y="197.483" width="6" height="2.51748" stroke="black" stroke-width="1" fill="blue" tooltip="enable"><title>(1.46715,9)</title></rect><rect x="294" y="198.042" width="6" height="1.95804" stroke="black" stroke-width="1" fill="blue" tooltip="enable"><title>(1.49772,7)</title></rect><rect x="300" y="197.203" width="6" height="2.7972" stroke="black" stroke-width="1" fill="blue" tooltip="enable"><title>(1.52828,10)</title></rect><rect x="306" y="197.762" width="6" height="2.23776" stroke="black" stroke-width="1" fill="blue" tooltip="enable"><title>(1.55885,8)</title></rect><rect x="312" y="199.161" width="6" height="0.839161" stroke="black" stroke-width="1" fill="blue" tooltip="enable"><title>(1.58941,3)</title></rect><rect x="318" y="198.881" width="6" height="1.11888" stroke="black" stroke-width="1" fill="blue" tooltip="enable"><title>(1.61998,4)</title></rect><rect x="324" y="197.483" width="6" height="2.51748" stroke="black" stroke-width="1" fill="blue" tooltip="enable"><title>(1.65055,9)</title></rect><rect x="330" y="198.601" width="6" height="1.3986" stroke="black" stroke-width="1" fill="blue" tooltip="enable"><title>(1.68111,5)</title></rect><rect x="336" y="199.161" width="6" height="0.839161" stroke="black" stroke-width="1" fill="blue" tooltip="enable"><title>(1.71168,3)</title></rect><rect x="342" y="198.881" width="6" height="1.11888" stroke="black" stroke-width="1" fill="blue" tooltip="enable"><title>(1.74224,4)</title></rect><rect x="348" y="198.042" width="6" height="1.95804" stroke="black" stroke-width="1" fill="blue" tooltip="enable"><title>(1.77281,7)</title></rect><rect x="354" y="198.881" width="6" height="1.11888" stroke="black" stroke-width="1" fill="blue" tooltip="enable"><title>(1.80337,4)</title></rect><rect x="360" y="199.72" width="6" height="0.27972" stroke="black" stroke-width="1" fill="blue" tooltip="enable"><title>(1.83394,1)</title></rect><rect x="366" y="199.72" width="6" height="0.27972" stroke="black" stroke-width="1" fill="blue" tooltip="enable"><title>(1.8645,1)</title></rect><rect x="372" y="199.441" width="6" height="0.559441" stroke="black" stroke-width="1" fill="blue" tooltip="enable"><title>(1.89507,2)</title></rect><rect x="378" y="200" width="6" height="0" stroke="black" stroke-width="1" fill="blue" tooltip="enable"><title>(1.92564,0)</title></rect><rect x="384" y="199.441" width="6" height="0.559441" stroke="black" stroke-width="1" fill="blue" tooltip="enable"><title>(1.9562,2)</title></rect><rect x="390" y="199.72" width="6" height="0.27972" stroke="black" stroke-width="1" fill="blue" tooltip="enable"><title>(1.98677,1)</title></rect><rect x="396" y="199.72" width="6" height="0.27972" stroke="black" stroke-width="1" fill="blue" tooltip="enable"><title>(2.01733,1)</title></rect><rect x="402" y="199.161" width="6" height="0.839161" stroke="black" stroke-width="1" fill="blue" tooltip="enable"><title>(2.0479,3)</title></rect><rect x="408" y="198.881" width="6" height="1.11888" stroke="black" stroke-width="1" fill="blue" tooltip="enable"><title>(2.07846,4)</title></rect><rect x="414" y="200" width="6" height="0" stroke="black" stroke-width="1" fill="blue" tooltip="enable"><title>(2.10903,0)</title></rect><rect x="420" y="199.72" width="6" height="0.27972" stroke="black" stroke-width="1" fill="blue" tooltip="enable"><title>(2.1396,1)</title></rect><rect x="426" y="199.161" width="6" height="0.839161" stroke="black" stroke-width="1" fill="blue" tooltip="enable"><title>(2.17016,3)</title></rect><rect x="432" y="199.161" width="6" height="0.839161" stroke="black" stroke-width="1" fill="blue" tooltip="enable"><title>(2.20073,3)</title></rect><rect x="438" y="200" width="6" height="0" stroke="black" stroke-width="1" fill="blue" tooltip="enable"><title>(2.23129,0)</title></rect><rect x="444" y="199.72" width="6" height="0.27972" stroke="black" stroke-width="1" fill="blue" tooltip="enable"><title>(2.26186,1)</title></rect><rect x="450" y="199.161" width="6" height="0.839161" stroke="black" stroke-width="1" fill="blue" tooltip="enable"><title>(2.29242,3)</title></rect><rect x="456" y="199.72" width="6" height="0.27972" stroke="black" stroke-width="1" fill="blue" tooltip="enable"><title>(2.32299,1)</title></rect><rect x="462" y="199.72" width="6" height="0.27972" stroke="black" stroke-width="1" fill="blue" tooltip="enable"><title>(2.35355,1)</title></rect><rect x="468" y="199.441" width="6" height="0.559441" stroke="black" stroke-width="1" fill="blue" tooltip="enable"><title>(2.38412,2)</title></rect><rect x="474" y="199.441" width="6" height="0.559441" stroke="black" stroke-width="1" fill="blue" tooltip="enable"><title>(2.41469,2)</title></rect><rect x="480" y="199.72" width="6" height="0.27972" stroke="black" stroke-width="1" fill="blue" tooltip="enable"><title>(2.44525,1)</title></rect><rect x="486" y="199.72" width="6" height="0.27972" stroke="black" stroke-width="1" fill="blue" tooltip="enable"><title>(2.47582,1)</title></rect><rect x="492" y="200" width="6" height="0" stroke="black" stroke-width="1" fill="blue" tooltip="enable"><title>(2.50638,0)</title></rect><rect x="498" y="199.72" width="6" height="0.27972" stroke="black" stroke-width="1" fill="blue" tooltip="enable"><title>(2.53695,1)</title></rect><rect x="504" y="200" width="6" height="0" stroke="black" stroke-width="1" fill="blue" tooltip="enable"><title>(2.56751,0)</title></rect><rect x="510" y="200" width="6" height="0" stroke="black" stroke-width="1" fill="blue" tooltip="enable"><title>(2.59808,0)</title></rect><rect x="516" y="199.72" width="6" height="0.27972" stroke="black" stroke-width="1" fill="blue" tooltip="enable"><title>(2.62865,1)</title></rect><rect x="522" y="199.72" width="6" height="0.27972" stroke="black" stroke-width="1" fill="blue" tooltip="enable"><title>(2.65921,1)</title></rect><rect x="528" y="199.441" width="6" height="0.559441" stroke="black" stroke-width="1" fill="blue" tooltip="enable"><title>(2.68978,2)</title></rect><rect x="534" y="199.441" width="6" height="0.559441" stroke="black" stroke-width="1" fill="blue" tooltip="enable"><title>(2.72034,2)</title></rect><rect x="540" y="200" width="6" height="0" stroke="black" stroke-width="1" fill="blue" tooltip="enable"><title>(2.75091,0)</title></rect><rect x="546" y="200" width="6" height="0" stroke="black" stroke-width="1" fill="blue" tooltip="enable"><title>(2.78147,0)</title></rect><rect x="552" y="200" width="6" height="0" stroke="black" stroke-width="1" fill="blue" tooltip="enable"><title>(2.81204,0)</title></rect><rect x="558" y="199.72" width="6" height="0.27972" stroke="black" stroke-width="1" fill="blue" tooltip="enable"><title>(2.84261,1)</title></rect><rect x="564" y="199.441" width="6" height="0.559441" stroke="black" stroke-width="1" fill="blue" tooltip="enable"><title>(2.87317,2)</title></rect><rect x="570" y="200" width="6" height="0" stroke="black" stroke-width="1" fill="blue" tooltip="enable"><title>(2.90374,0)</title></rect><rect x="576" y="200" width="6" height="0" stroke="black" stroke-width="1" fill="blue" tooltip="enable"><title>(2.9343,0)</title></rect><rect x="582" y="200" width="6" height="0" stroke="black" stroke-width="1" fill="blue" tooltip="enable"><title>(2.96487,0)</title></rect><rect x="588" y="199.441" width="6" height="0.559441" stroke="black" stroke-width="1" fill="blue" tooltip="enable"><title>(2.99543,2)</title></rect><rect x="594" y="200" width="6" height="0" stroke="black" stroke-width="1" fill="blue" tooltip="enable"><title>(3.026,0)</title></rect><text x="30" y="240" font-size="20" fill="black">0</text>
<text x="600" y="240" font-size="20" fill="black">3.05657</text>
<polyline points="0,220,600,220" stroke="black" stroke-width="1" fill="none"/>
<text x="720" y="20" font-size="20" fill="black">715</text>
<text x="720" y="200" font-size="20" fill="black">0</text>
<polyline points="660,0,660,200" stroke="black" stroke-width="1" fill="none"/>
</svg>