<?xml version="1.0" standalone="yes"?>
<!-- SVG graphic -->
<svg xmlns='http://www.w3.org/2000/svg' xmlns:xlink='http://www.w3.org/1999/xlink'
width="70px" height="70px" preserveAspectRatio="xMinYMin meet" viewBox="0 0 70 70" version="1.1">
<rect x="5" y="0" width="2.5" height="2.5" fill="rgb(174,0,80)" tooltip="enable"><title>(1,0 203)</title></rect><rect x="10" y="0" width="2.5" height="2.5" fill="rgb(32,0,222)" tooltip="enable"><title>(2,0 38)</title></rect><rect x="15" y="0" width="2.5" height="2.5" fill="rgb(170,0,84)" tooltip="enable"><title>(3,0 199)</title></rect><rect x="20" y="0" width="2.5" height="2.5" fill="rgb(124,0,130)" tooltip="enable"><title>(4,0 145)</title></rect><rect x="25" y="0" width="2.5" height="2.5" fill="rgb(111,0,143)" tooltip="enable"><title>(5,0 130)</title></rect><rect x="30" y="0" width="2.5" height="2.5" fill="rgb(99,0,155)" tooltip="enable"><title>(6,0 116)</title></rect><rect x="35" y="0" width="2.5" height="2.5" fill="rgb(77,0,177)" tooltip="enable"><title>(7,0 90)</title></rect><rect x="40" y="0" width="2.5" height="2.5" fill="rgb(60,0,194)" tooltip="enable"><title>(8,0 70)</title></rect><rect x="45" y="0" width="2.5" height="2.5" fill="rgb(53,0,201)" tooltip="enable"><title>(9,0 62)</title></rect><rect x="50" y="0" width="2.5" height="2.5" fill="rgb(41,0,213)" tooltip="enable"><title>(10,0 48)</title></rect><rect x="10" y="5" width="2.5" height="2.5" fill="rgb(31,0,223)" tooltip="enable"><title>(2,1 37)</title></rect><rect x="15" y="5" width="2.5" height="2.5" fill="rgb(255,0,0)" tooltip="enable"><title>(3,1 297)</title></rect><rect x="20" y="5" width="2.5" height="2.5" fill="rgb(134,0,120)" tooltip="enable"><title>(4,1 157)</title></rect><rect x="25" y="5" width="2.5" height="2.5" fill="rgb(106,0,148)" tooltip="enable"><title>(5,1 124)</title></rect><rect x="30" y="5" width="2.5" height="2.5" fill="rgb(99,0,155)" tooltip="enable"><title>(6,1 116)</title></rect><rect x="35" y="5" width="2.5" height="2.5" fill="rgb(78,0,176)" tooltip="enable"><title>(7,1 91)</title></rect><rect x="40" y="5" width="2.5" height="2.5" fill="rgb(74,0,180)" tooltip="enable"><title>(8,1 87)</title></rect><rect x="45" y="5" width="2.5" height="2.5" fill="rgb(50,0,204)" tooltip="enable"><title>(9,1 59)</title></rect><rect x="50" y="5" width="2.5" height="2.5" fill="rgb(28,0,226)" tooltip="enable"><title>(10,1 33)</title></rect><rect x="15" y="10" width="2.5" height="2.5" fill="rgb(40,0,214)" tooltip="enable"><title>(3,2 47)</title></rect><rect x="20" y="10" width="2.5" height="2.5" fill="rgb(34,0,220)" tooltip="enable"><title>(4,2 40)</title></rect><rect x="25" y="10" width="2.5" height="2.5" fill="rgb(48,0,206)" tooltip="enable"><title>(5,2 56)</title></rect><rect x="30" y="10" width="2.5" height="2.5" fill="rgb(45,0,209)" tooltip="enable"><title>(6,2 53)</title></rect><rect x="35" y="10" width="2.5" height="2.5" fill="rgb(43,0,211)" tooltip="enable"><title>(7,2 51)</title></rect><rect x="40" y="10" width="2.5" height="2.5" fill="rgb(83,0,171)" tooltip="enable"><title>(8,2 97)</title></rect><rect x="45" y="10" width="2.5" height="2.5" fill="rgb(146,0,108)" tooltip="enable"><title>(9,2 171)</title></rect><rect x="50" y="10" width="2.5" height="2.5" fill="rgb(198,0,56)" tooltip="enable"><title>(10,2 231)</title></rect><rect x="20" y="15" width="2.5" height="2.5" fill="rgb(127,0,127)" tooltip="enable"><title>(4,3 149)</title></rect><rect x="25" y="15" width="2.5" height="2.5" fill="rgb(104,0,150)" tooltip="enable"><title>(5,3 122)</title></rect><rect x="30" y="15" width="2.5" height="2.5" fill="rgb(117,0,137)" tooltip="enable"><title>(6,3 137)</title></rect><rect x="35" y="15" width="2.5" height="2.5" fill="rgb(97,0,157)" tooltip="enable"><title>(7,3 113)</title></rect><rect x="40" y="15" width="2.5" height="2.5" fill="rgb(57,0,197)" tooltip="enable"><title>(8,3 67)</title></rect><rect x="45" y="15" width="2.5" height="2.5" fill="rgb(54,0,200)" tooltip="enable"><title>(9,3 63)</title></rect><rect x="50" y="15" width="2.5" height="2.5" fill="rgb(34,0,220)" tooltip="enable"><title>(10,3 40)</title></rect><rect x="25" y="20" width="2.5" height="2.5" fill="rgb(136,0,118)" tooltip="enable"><title>(5,4 159)</title></rect><rect x="30" y="20" width="2.5" height="2.5" fill="rgb(93,0,161)" tooltip="enable"><title>(6,4 109)</title></rect><rect x="35" y="20" width="2.5" height="2.5" fill="rgb(91,0,163)" tooltip="enable"><title>(7,4 107)</title></rect><rect x="40" y="20" width="2.5" height="2.5" fill="rgb(53,0,201)" tooltip="enable"><title>(8,4 62)</title></rect><rect x="45" y="20" width="2.5" height="2.5" fill="rgb(34,0,220)" tooltip="enable"><title>(9,4 40)</title></rect><rect x="50" y="20" width="2.5" height="2.5" fill="rgb(29,0,225)" tooltip="enable"><title>(10,4 34)</title></rect><rect x="30" y="25" width="2.5" height="2.5" fill="rgb(124,0,130)" tooltip="enable"><title>(6,5 145)</title></rect><rect x="35" y="25" width="2.5" height="2.5" fill="rgb(82,0,172)" tooltip="enable"><title>(7,5 96)</title></rect><rect x="40" y="25" width="2.5" height="2.5" fill="rgb(54,0,200)" tooltip="enable"><title>(8,5 63)</title></rect><rect x="45" y="25" width="2.5" height="2.5" fill="rgb(44,0,210)" tooltip="enable"><title>(9,5 52)</title></rect><rect x="50" y="25" width="2.5" height="2.5" fill="rgb(36,0,218)" tooltip="enable"><title>(10,5 43)</title></rect><rect x="35" y="30" width="2.5" height="2.5" fill="rgb(120,0,134)" tooltip="enable"><title>(7,6 140)</title></rect><rect x="40" y="30" width="2.5" height="2.5" fill="rgb(55,0,199)" tooltip="enable"><title>(8,6 65)</title></rect><rect x="45" y="30" width="2.5" height="2.5" fill="rgb(52,0,202)" tooltip="enable"><title>(9,6 61)</title></rect><rect x="50" y="30" width="2.5" height="2.5" fill="rgb(41,0,213)" tooltip="enable"><title>(10,6 48)</title></rect><rect x="40" y="35" width="2.5" height="2.5" fill="rgb(113,0,141)" tooltip="enable"><title>(8,7 132)</title></rect><rect x="45" y="35" width="2.5" height="2.5" fill="rgb(66,0,188)" tooltip="enable"><title>(9,7 77)</title></rect><rect x="50" y="35" width="2.5" height="2.5" fill="rgb(48,0,206)" tooltip="enable"><title>(10,7 57)</title></rect><rect x="45" y="40" width="2.5" height="2.5" fill="rgb(137,0,117)" tooltip="enable"><title>(9,8 160)</title></rect><rect x="50" y="40" width="2.5" height="2.5" fill="rgb(61,0,193)" tooltip="enable"><title>(10,8 72)</title></rect><rect x="50" y="45" width="2.5" height="2.5" fill="rgb(125,0,129)" tooltip="enable"><title>(10,9 146)</title></rect><text x="60" y="5" font-size="5" fill="black">0</text>
<text x="60" y="50" font-size="5" fill="black">11</text>
<polyline points="60,10,60,45" stroke="black" stroke-width="1" fill="none"/>
<text x="5" y="60" font-size="5" fill="black">0</text>
<text x="50" y="60" font-size="5" fill="black">11</text>
<polyline points="10,60,45,60" stroke="black" stroke-width="1" fill="none"/>
</svg>