<?xml version="1.0" standalone="yes"?>
<!-- SVG graphic -->
<svg xmlns='http://www.w3.org/2000/svg' xmlns:xlink='http://www.w3.org/1999/xlink'
width="70px" height="70px" preserveAspectRatio="xMinYMin meet" viewBox="0 0 70 70" version="1.1">
<rect x="5" y="0" width="2.5" height="2.5" fill="rgb(198,0,56)" tooltip="enable"><title>(1,0 335)</title></rect><rect x="10" y="0" width="2.5" height="2.5" fill="rgb(94,0,160)" tooltip="enable"><title>(2,0 159)</title></rect><rect x="15" y="0" width="2.5" height="2.5" fill="rgb(198,0,56)" tooltip="enable"><title>(3,0 335)</title></rect><rect x="20" y="0" width="2.5" height="2.5" fill="rgb(137,0,117)" tooltip="enable"><title>(4,0 232)</title></rect><rect x="25" y="0" width="2.5" height="2.5" fill="rgb(130,0,124)" tooltip="enable"><title>(5,0 220)</title></rect><rect x="30" y="0" width="2.5" height="2.5" fill="rgb(123,0,131)" tooltip="enable"><title>(6,0 209)</title></rect><rect x="35" y="0" width="2.5" height="2.5" fill="rgb(123,0,131)" tooltip="enable"><title>(7,0 208)</title></rect><rect x="40" y="0" width="2.5" height="2.5" fill="rgb(97,0,157)" tooltip="enable"><title>(8,0 165)</title></rect><rect x="45" y="0" width="2.5" height="2.5" fill="rgb(98,0,156)" tooltip="enable"><title>(9,0 166)</title></rect><rect x="50" y="0" width="2.5" height="2.5" fill="rgb(71,0,183)" tooltip="enable"><title>(10,0 121)</title></rect><rect x="10" y="5" width="2.5" height="2.5" fill="rgb(85,0,169)" tooltip="enable"><title>(2,1 145)</title></rect><rect x="15" y="5" width="2.5" height="2.5" fill="rgb(255,0,0)" tooltip="enable"><title>(3,1 430)</title></rect><rect x="20" y="5" width="2.5" height="2.5" fill="rgb(143,0,111)" tooltip="enable"><title>(4,1 242)</title></rect><rect x="25" y="5" width="2.5" height="2.5" fill="rgb(125,0,129)" tooltip="enable"><title>(5,1 212)</title></rect><rect x="30" y="5" width="2.5" height="2.5" fill="rgb(119,0,135)" tooltip="enable"><title>(6,1 201)</title></rect><rect x="35" y="5" width="2.5" height="2.5" fill="rgb(121,0,133)" tooltip="enable"><title>(7,1 205)</title></rect><rect x="40" y="5" width="2.5" height="2.5" fill="rgb(97,0,157)" tooltip="enable"><title>(8,1 165)</title></rect><rect x="45" y="5" width="2.5" height="2.5" fill="rgb(90,0,164)" tooltip="enable"><title>(9,1 153)</title></rect><rect x="50" y="5" width="2.5" height="2.5" fill="rgb(55,0,199)" tooltip="enable"><title>(10,1 94)</title></rect><rect x="15" y="10" width="2.5" height="2.5" fill="rgb(95,0,159)" tooltip="enable"><title>(3,2 161)</title></rect><rect x="20" y="10" width="2.5" height="2.5" fill="rgb(83,0,171)" tooltip="enable"><title>(4,2 140)</title></rect><rect x="25" y="10" width="2.5" height="2.5" fill="rgb(99,0,155)" tooltip="enable"><title>(5,2 167)</title></rect><rect x="30" y="10" width="2.5" height="2.5" fill="rgb(99,0,155)" tooltip="enable"><title>(6,2 168)</title></rect><rect x="35" y="10" width="2.5" height="2.5" fill="rgb(110,0,144)" tooltip="enable"><title>(7,2 186)</title></rect><rect x="40" y="10" width="2.5" height="2.5" fill="rgb(139,0,115)" tooltip="enable"><title>(8,2 236)</title></rect><rect x="45" y="10" width="2.5" height="2.5" fill="rgb(167,0,87)" tooltip="enable"><title>(9,2 282)</title></rect><rect x="50" y="10" width="2.5" height="2.5" fill="rgb(176,0,78)" tooltip="enable"><title>(10,2 298)</title></rect><rect x="20" y="15" width="2.5" height="2.5" fill="rgb(148,0,106)" tooltip="enable"><title>(4,3 250)</title></rect><rect x="25" y="15" width="2.5" height="2.5" fill="rgb(127,0,127)" tooltip="enable"><title>(5,3 215)</title></rect><rect x="30" y="15" width="2.5" height="2.5" fill="rgb(129,0,125)" tooltip="enable"><title>(6,3 218)</title></rect><rect x="35" y="15" width="2.5" height="2.5" fill="rgb(129,0,125)" tooltip="enable"><title>(7,3 219)</title></rect><rect x="40" y="15" width="2.5" height="2.5" fill="rgb(101,0,153)" tooltip="enable"><title>(8,3 172)</title></rect><rect x="45" y="15" width="2.5" height="2.5" fill="rgb(91,0,163)" tooltip="enable"><title>(9,3 155)</title></rect><rect x="50" y="15" width="2.5" height="2.5" fill="rgb(77,0,177)" tooltip="enable"><title>(10,3 131)</title></rect><rect x="25" y="20" width="2.5" height="2.5" fill="rgb(150,0,104)" tooltip="enable"><title>(5,4 254)</title></rect><rect x="30" y="20" width="2.5" height="2.5" fill="rgb(128,0,126)" tooltip="enable"><title>(6,4 216)</title></rect><rect x="35" y="20" width="2.5" height="2.5" fill="rgb(125,0,129)" tooltip="enable"><title>(7,4 212)</title></rect><rect x="40" y="20" width="2.5" height="2.5" fill="rgb(101,0,153)" tooltip="enable"><title>(8,4 171)</title></rect><rect x="45" y="20" width="2.5" height="2.5" fill="rgb(89,0,165)" tooltip="enable"><title>(9,4 151)</title></rect><rect x="50" y="20" width="2.5" height="2.5" fill="rgb(67,0,187)" tooltip="enable"><title>(10,4 114)</title></rect><rect x="30" y="25" width="2.5" height="2.5" fill="rgb(150,0,104)" tooltip="enable"><title>(6,5 254)</title></rect><rect x="35" y="25" width="2.5" height="2.5" fill="rgb(136,0,118)" tooltip="enable"><title>(7,5 230)</title></rect><rect x="40" y="25" width="2.5" height="2.5" fill="rgb(111,0,143)" tooltip="enable"><title>(8,5 188)</title></rect><rect x="45" y="25" width="2.5" height="2.5" fill="rgb(97,0,157)" tooltip="enable"><title>(9,5 164)</title></rect><rect x="50" y="25" width="2.5" height="2.5" fill="rgb(73,0,181)" tooltip="enable"><title>(10,5 124)</title></rect><rect x="35" y="30" width="2.5" height="2.5" fill="rgb(141,0,113)" tooltip="enable"><title>(7,6 239)</title></rect><rect x="40" y="30" width="2.5" height="2.5" fill="rgb(107,0,147)" tooltip="enable"><title>(8,6 182)</title></rect><rect x="45" y="30" width="2.5" height="2.5" fill="rgb(99,0,155)" tooltip="enable"><title>(9,6 168)</title></rect><rect x="50" y="30" width="2.5" height="2.5" fill="rgb(78,0,176)" tooltip="enable"><title>(10,6 133)</title></rect><rect x="40" y="35" width="2.5" height="2.5" fill="rgb(139,0,115)" tooltip="enable"><title>(8,7 235)</title></rect><rect x="45" y="35" width="2.5" height="2.5" fill="rgb(118,0,136)" tooltip="enable"><title>(9,7 199)</title></rect><rect x="50" y="35" width="2.5" height="2.5" fill="rgb(87,0,167)" tooltip="enable"><title>(10,7 148)</title></rect><rect x="45" y="40" width="2.5" height="2.5" fill="rgb(166,0,88)" tooltip="enable"><title>(9,8 280)</title></rect><rect x="50" y="40" width="2.5" height="2.5" fill="rgb(110,0,144)" tooltip="enable"><title>(10,8 186)</title></rect><rect x="50" y="45" width="2.5" height="2.5" fill="rgb(164,0,90)" tooltip="enable"><title>(10,9 277)</title></rect><text x="60" y="5" font-size="5" fill="black">0</text>
<text x="60" y="50" font-size="5" fill="black">11</text>
<polyline points="60,10,60,45" stroke="black" stroke-width="1" fill="none"/>
<text x="5" y="60" font-size="5" fill="black">0</text>
<text x="50" y="60" font-size="5" fill="black">11</text>
<polyline points="10,60,45,60" stroke="black" stroke-width="1" fill="none"/>
</svg>