<?xml version="1.0" standalone="yes"?>
<!-- SVG graphic -->
<svg xmlns='http://www.w3.org/2000/svg' xmlns:xlink='http://www.w3.org/1999/xlink'
width="105px" height="105px" preserveAspectRatio="xMinYMin meet" viewBox="0 0 105 105" version="1.1">
<rect x="5" y="0" width="2.5" height="2.5" fill="rgb(211,0,43)" tooltip="enable"><title>(1,0 680)</title></rect><rect x="10" y="0" width="2.5" height="2.5" fill="rgb(139,0,115)" tooltip="enable"><title>(2,0 448)</title></rect><rect x="15" y="0" width="2.5" height="2.5" fill="rgb(136,0,118)" tooltip="enable"><title>(3,0 440)</title></rect><rect x="20" y="0" width="2.5" height="2.5" fill="rgb(98,0,156)" tooltip="enable"><title>(4,0 315)</title></rect><rect x="25" y="0" width="2.5" height="2.5" fill="rgb(83,0,171)" tooltip="enable"><title>(5,0 269)</title></rect><rect x="30" y="0" width="2.5" height="2.5" fill="rgb(98,0,156)" tooltip="enable"><title>(6,0 316)</title></rect><rect x="35" y="0" width="2.5" height="2.5" fill="rgb(83,0,171)" tooltip="enable"><title>(7,0 267)</title></rect><rect x="40" y="0" width="2.5" height="2.5" fill="rgb(67,0,187)" tooltip="enable"><title>(8,0 216)</title></rect><rect x="45" y="0" width="2.5" height="2.5" fill="rgb(51,0,203)" tooltip="enable"><title>(9,0 167)</title></rect><rect x="50" y="0" width="2.5" height="2.5" fill="rgb(51,0,203)" tooltip="enable"><title>(10,0 164)</title></rect><rect x="55" y="0" width="2.5" height="2.5" fill="rgb(63,0,191)" tooltip="enable"><title>(11,0 203)</title></rect><rect x="60" y="0" width="2.5" height="2.5" fill="rgb(56,0,198)" tooltip="enable"><title>(12,0 181)</title></rect><rect x="65" y="0" width="2.5" height="2.5" fill="rgb(32,0,222)" tooltip="enable"><title>(13,0 105)</title></rect><rect x="70" y="0" width="2.5" height="2.5" fill="rgb(19,0,235)" tooltip="enable"><title>(14,0 62)</title></rect><rect x="75" y="0" width="2.5" height="2.5" fill="rgb(48,0,206)" tooltip="enable"><title>(15,0 155)</title></rect><rect x="80" y="0" width="2.5" height="2.5" fill="rgb(31,0,223)" tooltip="enable"><title>(16,0 101)</title></rect><rect x="85" y="0" width="2.5" height="2.5" fill="rgb(69,0,185)" tooltip="enable"><title>(17,0 224)</title></rect><rect x="10" y="5" width="2.5" height="2.5" fill="rgb(117,0,137)" tooltip="enable"><title>(2,1 376)</title></rect><rect x="15" y="5" width="2.5" height="2.5" fill="rgb(183,0,71)" tooltip="enable"><title>(3,1 588)</title></rect><rect x="20" y="5" width="2.5" height="2.5" fill="rgb(114,0,140)" tooltip="enable"><title>(4,1 369)</title></rect><rect x="25" y="5" width="2.5" height="2.5" fill="rgb(98,0,156)" tooltip="enable"><title>(5,1 315)</title></rect><rect x="30" y="5" width="2.5" height="2.5" fill="rgb(67,0,187)" tooltip="enable"><title>(6,1 218)</title></rect><rect x="35" y="5" width="2.5" height="2.5" fill="rgb(82,0,172)" tooltip="enable"><title>(7,1 265)</title></rect><rect x="40" y="5" width="2.5" height="2.5" fill="rgb(86,0,168)" tooltip="enable"><title>(8,1 278)</title></rect><rect x="45" y="5" width="2.5" height="2.5" fill="rgb(76,0,178)" tooltip="enable"><title>(9,1 247)</title></rect><rect x="50" y="5" width="2.5" height="2.5" fill="rgb(78,0,176)" tooltip="enable"><title>(10,1 253)</title></rect><rect x="55" y="5" width="2.5" height="2.5" fill="rgb(48,0,206)" tooltip="enable"><title>(11,1 157)</title></rect><rect x="60" y="5" width="2.5" height="2.5" fill="rgb(46,0,208)" tooltip="enable"><title>(12,1 149)</title></rect><rect x="65" y="5" width="2.5" height="2.5" fill="rgb(55,0,199)" tooltip="enable"><title>(13,1 177)</title></rect><rect x="70" y="5" width="2.5" height="2.5" fill="rgb(37,0,217)" tooltip="enable"><title>(14,1 119)</title></rect><rect x="75" y="5" width="2.5" height="2.5" fill="rgb(45,0,209)" tooltip="enable"><title>(15,1 145)</title></rect><rect x="80" y="5" width="2.5" height="2.5" fill="rgb(56,0,198)" tooltip="enable"><title>(16,1 181)</title></rect><rect x="85" y="5" width="2.5" height="2.5" fill="rgb(45,0,209)" tooltip="enable"><title>(17,1 145)</title></rect><rect x="15" y="10" width="2.5" height="2.5" fill="rgb(88,0,166)" tooltip="enable"><title>(3,2 284)</title></rect><rect x="20" y="10" width="2.5" height="2.5" fill="rgb(45,0,209)" tooltip="enable"><title>(4,2 146)</title></rect><rect x="25" y="10" width="2.5" height="2.5" fill="rgb(59,0,195)" tooltip="enable"><title>(5,2 192)</title></rect><rect x="30" y="10" width="2.5" height="2.5" fill="rgb(76,0,178)" tooltip="enable"><title>(6,2 245)</title></rect><rect x="35" y="10" width="2.5" height="2.5" fill="rgb(52,0,202)" tooltip="enable"><title>(7,2 170)</title></rect><rect x="40" y="10" width="2.5" height="2.5" fill="rgb(42,0,212)" tooltip="enable"><title>(8,2 135)</title></rect><rect x="45" y="10" width="2.5" height="2.5" fill="rgb(39,0,215)" tooltip="enable"><title>(9,2 126)</title></rect><rect x="50" y="10" width="2.5" height="2.5" fill="rgb(29,0,225)" tooltip="enable"><title>(10,2 94)</title></rect><rect x="55" y="10" width="2.5" height="2.5" fill="rgb(52,0,202)" tooltip="enable"><title>(11,2 170)</title></rect><rect x="60" y="10" width="2.5" height="2.5" fill="rgb(35,0,219)" tooltip="enable"><title>(12,2 114)</title></rect><rect x="70" y="10" width="2.5" height="2.5" fill="rgb(16,0,238)" tooltip="enable"><title>(14,2 53)</title></rect><rect x="75" y="10" width="2.5" height="2.5" fill="rgb(25,0,229)" tooltip="enable"><title>(15,2 81)</title></rect><rect x="80" y="10" width="2.5" height="2.5" fill="rgb(21,0,233)" tooltip="enable"><title>(16,2 70)</title></rect><rect x="85" y="10" width="2.5" height="2.5" fill="rgb(57,0,197)" tooltip="enable"><title>(17,2 184)</title></rect><rect x="20" y="15" width="2.5" height="2.5" fill="rgb(182,0,72)" tooltip="enable"><title>(4,3 587)</title></rect><rect x="25" y="15" width="2.5" height="2.5" fill="rgb(143,0,111)" tooltip="enable"><title>(5,3 462)</title></rect><rect x="30" y="15" width="2.5" height="2.5" fill="rgb(96,0,158)" tooltip="enable"><title>(6,3 309)</title></rect><rect x="35" y="15" width="2.5" height="2.5" fill="rgb(116,0,138)" tooltip="enable"><title>(7,3 375)</title></rect><rect x="40" y="15" width="2.5" height="2.5" fill="rgb(122,0,132)" tooltip="enable"><title>(8,3 393)</title></rect><rect x="45" y="15" width="2.5" height="2.5" fill="rgb(109,0,145)" tooltip="enable"><title>(9,3 353)</title></rect><rect x="50" y="15" width="2.5" height="2.5" fill="rgb(89,0,165)" tooltip="enable"><title>(10,3 287)</title></rect><rect x="55" y="15" width="2.5" height="2.5" fill="rgb(67,0,187)" tooltip="enable"><title>(11,3 216)</title></rect><rect x="60" y="15" width="2.5" height="2.5" fill="rgb(71,0,183)" tooltip="enable"><title>(12,3 229)</title></rect><rect x="65" y="15" width="2.5" height="2.5" fill="rgb(69,0,185)" tooltip="enable"><title>(13,3 222)</title></rect><rect x="70" y="15" width="2.5" height="2.5" fill="rgb(42,0,212)" tooltip="enable"><title>(14,3 138)</title></rect><rect x="75" y="15" width="2.5" height="2.5" fill="rgb(68,0,186)" tooltip="enable"><title>(15,3 220)</title></rect><rect x="80" y="15" width="2.5" height="2.5" fill="rgb(60,0,194)" tooltip="enable"><title>(16,3 195)</title></rect><rect x="85" y="15" width="2.5" height="2.5" fill="rgb(61,0,193)" tooltip="enable"><title>(17,3 199)</title></rect><rect x="25" y="20" width="2.5" height="2.5" fill="rgb(180,0,74)" tooltip="enable"><title>(5,4 581)</title></rect><rect x="30" y="20" width="2.5" height="2.5" fill="rgb(127,0,127)" tooltip="enable"><title>(6,4 409)</title></rect><rect x="35" y="20" width="2.5" height="2.5" fill="rgb(148,0,106)" tooltip="enable"><title>(7,4 476)</title></rect><rect x="40" y="20" width="2.5" height="2.5" fill="rgb(132,0,122)" tooltip="enable"><title>(8,4 424)</title></rect><rect x="45" y="20" width="2.5" height="2.5" fill="rgb(138,0,116)" tooltip="enable"><title>(9,4 444)</title></rect><rect x="50" y="20" width="2.5" height="2.5" fill="rgb(131,0,123)" tooltip="enable"><title>(10,4 423)</title></rect><rect x="55" y="20" width="2.5" height="2.5" fill="rgb(76,0,178)" tooltip="enable"><title>(11,4 247)</title></rect><rect x="60" y="20" width="2.5" height="2.5" fill="rgb(83,0,171)" tooltip="enable"><title>(12,4 269)</title></rect><rect x="65" y="20" width="2.5" height="2.5" fill="rgb(78,0,176)" tooltip="enable"><title>(13,4 252)</title></rect><rect x="70" y="20" width="2.5" height="2.5" fill="rgb(44,0,210)" tooltip="enable"><title>(14,4 143)</title></rect><rect x="75" y="20" width="2.5" height="2.5" fill="rgb(88,0,166)" tooltip="enable"><title>(15,4 285)</title></rect><rect x="80" y="20" width="2.5" height="2.5" fill="rgb(72,0,182)" tooltip="enable"><title>(16,4 233)</title></rect><rect x="85" y="20" width="2.5" height="2.5" fill="rgb(89,0,165)" tooltip="enable"><title>(17,4 287)</title></rect><rect x="30" y="25" width="2.5" height="2.5" fill="rgb(163,0,91)" tooltip="enable"><title>(6,5 525)</title></rect><rect x="35" y="25" width="2.5" height="2.5" fill="rgb(188,0,66)" tooltip="enable"><title>(7,5 605)</title></rect><rect x="40" y="25" width="2.5" height="2.5" fill="rgb(157,0,97)" tooltip="enable"><title>(8,5 506)</title></rect><rect x="45" y="25" width="2.5" height="2.5" fill="rgb(142,0,112)" tooltip="enable"><title>(9,5 457)</title></rect><rect x="50" y="25" width="2.5" height="2.5" fill="rgb(141,0,113)" tooltip="enable"><title>(10,5 455)</title></rect><rect x="55" y="25" width="2.5" height="2.5" fill="rgb(105,0,149)" tooltip="enable"><title>(11,5 340)</title></rect><rect x="60" y="25" width="2.5" height="2.5" fill="rgb(85,0,169)" tooltip="enable"><title>(12,5 274)</title></rect><rect x="65" y="25" width="2.5" height="2.5" fill="rgb(82,0,172)" tooltip="enable"><title>(13,5 266)</title></rect><rect x="70" y="25" width="2.5" height="2.5" fill="rgb(48,0,206)" tooltip="enable"><title>(14,5 156)</title></rect><rect x="75" y="25" width="2.5" height="2.5" fill="rgb(86,0,168)" tooltip="enable"><title>(15,5 278)</title></rect><rect x="80" y="25" width="2.5" height="2.5" fill="rgb(70,0,184)" tooltip="enable"><title>(16,5 225)</title></rect><rect x="85" y="25" width="2.5" height="2.5" fill="rgb(90,0,164)" tooltip="enable"><title>(17,5 292)</title></rect><rect x="35" y="30" width="2.5" height="2.5" fill="rgb(188,0,66)" tooltip="enable"><title>(7,6 605)</title></rect><rect x="40" y="30" width="2.5" height="2.5" fill="rgb(148,0,106)" tooltip="enable"><title>(8,6 477)</title></rect><rect x="45" y="30" width="2.5" height="2.5" fill="rgb(148,0,106)" tooltip="enable"><title>(9,6 478)</title></rect><rect x="50" y="30" width="2.5" height="2.5" fill="rgb(103,0,151)" tooltip="enable"><title>(10,6 334)</title></rect><rect x="55" y="30" width="2.5" height="2.5" fill="rgb(136,0,118)" tooltip="enable"><title>(11,6 438)</title></rect><rect x="60" y="30" width="2.5" height="2.5" fill="rgb(91,0,163)" tooltip="enable"><title>(12,6 294)</title></rect><rect x="65" y="30" width="2.5" height="2.5" fill="rgb(61,0,193)" tooltip="enable"><title>(13,6 198)</title></rect><rect x="70" y="30" width="2.5" height="2.5" fill="rgb(41,0,213)" tooltip="enable"><title>(14,6 133)</title></rect><rect x="75" y="30" width="2.5" height="2.5" fill="rgb(70,0,184)" tooltip="enable"><title>(15,6 226)</title></rect><rect x="80" y="30" width="2.5" height="2.5" fill="rgb(65,0,189)" tooltip="enable"><title>(16,6 210)</title></rect><rect x="85" y="30" width="2.5" height="2.5" fill="rgb(141,0,113)" tooltip="enable"><title>(17,6 453)</title></rect><rect x="40" y="35" width="2.5" height="2.5" fill="rgb(228,0,26)" tooltip="enable"><title>(8,7 734)</title></rect><rect x="45" y="35" width="2.5" height="2.5" fill="rgb(255,0,0)" tooltip="enable"><title>(9,7 819)</title></rect><rect x="50" y="35" width="2.5" height="2.5" fill="rgb(155,0,99)" tooltip="enable"><title>(10,7 501)</title></rect><rect x="55" y="35" width="2.5" height="2.5" fill="rgb(134,0,120)" tooltip="enable"><title>(11,7 433)</title></rect><rect x="60" y="35" width="2.5" height="2.5" fill="rgb(105,0,149)" tooltip="enable"><title>(12,7 339)</title></rect><rect x="65" y="35" width="2.5" height="2.5" fill="rgb(89,0,165)" tooltip="enable"><title>(13,7 286)</title></rect><rect x="70" y="35" width="2.5" height="2.5" fill="rgb(54,0,200)" tooltip="enable"><title>(14,7 174)</title></rect><rect x="75" y="35" width="2.5" height="2.5" fill="rgb(82,0,172)" tooltip="enable"><title>(15,7 266)</title></rect><rect x="80" y="35" width="2.5" height="2.5" fill="rgb(72,0,182)" tooltip="enable"><title>(16,7 234)</title></rect><rect x="85" y="35" width="2.5" height="2.5" fill="rgb(151,0,103)" tooltip="enable"><title>(17,7 487)</title></rect><rect x="45" y="40" width="2.5" height="2.5" fill="rgb(227,0,27)" tooltip="enable"><title>(9,8 732)</title></rect><rect x="50" y="40" width="2.5" height="2.5" fill="rgb(170,0,84)" tooltip="enable"><title>(10,8 546)</title></rect><rect x="55" y="40" width="2.5" height="2.5" fill="rgb(117,0,137)" tooltip="enable"><title>(11,8 376)</title></rect><rect x="60" y="40" width="2.5" height="2.5" fill="rgb(94,0,160)" tooltip="enable"><title>(12,8 303)</title></rect><rect x="65" y="40" width="2.5" height="2.5" fill="rgb(118,0,136)" tooltip="enable"><title>(13,8 379)</title></rect><rect x="70" y="40" width="2.5" height="2.5" fill="rgb(76,0,178)" tooltip="enable"><title>(14,8 247)</title></rect><rect x="75" y="40" width="2.5" height="2.5" fill="rgb(111,0,143)" tooltip="enable"><title>(15,8 358)</title></rect><rect x="80" y="40" width="2.5" height="2.5" fill="rgb(99,0,155)" tooltip="enable"><title>(16,8 321)</title></rect><rect x="85" y="40" width="2.5" height="2.5" fill="rgb(154,0,100)" tooltip="enable"><title>(17,8 495)</title></rect><rect x="50" y="45" width="2.5" height="2.5" fill="rgb(196,0,58)" tooltip="enable"><title>(10,9 630)</title></rect><rect x="55" y="45" width="2.5" height="2.5" fill="rgb(144,0,110)" tooltip="enable"><title>(11,9 465)</title></rect><rect x="60" y="45" width="2.5" height="2.5" fill="rgb(111,0,143)" tooltip="enable"><title>(12,9 359)</title></rect><rect x="65" y="45" width="2.5" height="2.5" fill="rgb(111,0,143)" tooltip="enable"><title>(13,9 358)</title></rect><rect x="70" y="45" width="2.5" height="2.5" fill="rgb(70,0,184)" tooltip="enable"><title>(14,9 228)</title></rect><rect x="75" y="45" width="2.5" height="2.5" fill="rgb(95,0,159)" tooltip="enable"><title>(15,9 307)</title></rect><rect x="80" y="45" width="2.5" height="2.5" fill="rgb(63,0,191)" tooltip="enable"><title>(16,9 203)</title></rect><rect x="85" y="45" width="2.5" height="2.5" fill="rgb(165,0,89)" tooltip="enable"><title>(17,9 530)</title></rect><rect x="55" y="50" width="2.5" height="2.5" fill="rgb(188,0,66)" tooltip="enable"><title>(11,10 604)</title></rect><rect x="60" y="50" width="2.5" height="2.5" fill="rgb(137,0,117)" tooltip="enable"><title>(12,10 443)</title></rect><rect x="65" y="50" width="2.5" height="2.5" fill="rgb(165,0,89)" tooltip="enable"><title>(13,10 533)</title></rect><rect x="70" y="50" width="2.5" height="2.5" fill="rgb(98,0,156)" tooltip="enable"><title>(14,10 317)</title></rect><rect x="75" y="50" width="2.5" height="2.5" fill="rgb(118,0,136)" tooltip="enable"><title>(15,10 382)</title></rect><rect x="80" y="50" width="2.5" height="2.5" fill="rgb(106,0,148)" tooltip="enable"><title>(16,10 341)</title></rect><rect x="85" y="50" width="2.5" height="2.5" fill="rgb(151,0,103)" tooltip="enable"><title>(17,10 486)</title></rect><rect x="60" y="55" width="2.5" height="2.5" fill="rgb(205,0,49)" tooltip="enable"><title>(12,11 660)</title></rect><rect x="65" y="55" width="2.5" height="2.5" fill="rgb(147,0,107)" tooltip="enable"><title>(13,11 473)</title></rect><rect x="70" y="55" width="2.5" height="2.5" fill="rgb(101,0,153)" tooltip="enable"><title>(14,11 325)</title></rect><rect x="75" y="55" width="2.5" height="2.5" fill="rgb(134,0,120)" tooltip="enable"><title>(15,11 432)</title></rect><rect x="80" y="55" width="2.5" height="2.5" fill="rgb(106,0,148)" tooltip="enable"><title>(16,11 343)</title></rect><rect x="85" y="55" width="2.5" height="2.5" fill="rgb(184,0,70)" tooltip="enable"><title>(17,11 593)</title></rect><rect x="65" y="60" width="2.5" height="2.5" fill="rgb(188,0,66)" tooltip="enable"><title>(13,12 607)</title></rect><rect x="70" y="60" width="2.5" height="2.5" fill="rgb(136,0,118)" tooltip="enable"><title>(14,12 437)</title></rect><rect x="75" y="60" width="2.5" height="2.5" fill="rgb(183,0,71)" tooltip="enable"><title>(15,12 590)</title></rect><rect x="80" y="60" width="2.5" height="2.5" fill="rgb(125,0,129)" tooltip="enable"><title>(16,12 403)</title></rect><rect x="85" y="60" width="2.5" height="2.5" fill="rgb(128,0,126)" tooltip="enable"><title>(17,12 412)</title></rect><rect x="70" y="65" width="2.5" height="2.5" fill="rgb(252,0,2)" tooltip="enable"><title>(14,13 812)</title></rect><rect x="75" y="65" width="2.5" height="2.5" fill="rgb(207,0,47)" tooltip="enable"><title>(15,13 667)</title></rect><rect x="80" y="65" width="2.5" height="2.5" fill="rgb(187,0,67)" tooltip="enable"><title>(16,13 601)</title></rect><rect x="85" y="65" width="2.5" height="2.5" fill="rgb(84,0,170)" tooltip="enable"><title>(17,13 270)</title></rect><rect x="75" y="70" width="2.5" height="2.5" fill="rgb(151,0,103)" tooltip="enable"><title>(15,14 488)</title></rect><rect x="80" y="70" width="2.5" height="2.5" fill="rgb(146,0,108)" tooltip="enable"><title>(16,14 470)</title></rect><rect x="85" y="70" width="2.5" height="2.5" fill="rgb(59,0,195)" tooltip="enable"><title>(17,14 190)</title></rect><rect x="80" y="75" width="2.5" height="2.5" fill="rgb(244,0,10)" tooltip="enable"><title>(16,15 786)</title></rect><rect x="85" y="75" width="2.5" height="2.5" fill="rgb(85,0,169)" tooltip="enable"><title>(17,15 274)</title></rect><rect x="85" y="80" width="2.5" height="2.5" fill="rgb(71,0,183)" tooltip="enable"><title>(17,16 230)</title></rect><text x="95" y="5" font-size="5" fill="black">0</text>
<text x="95" y="85" font-size="5" fill="black">18</text>
<polyline points="95,10,95,80" stroke="black" stroke-width="1" fill="none"/>
<text x="5" y="95" font-size="5" fill="black">0</text>
<text x="85" y="95" font-size="5" fill="black">18</text>
<polyline points="10,95,80,95" stroke="black" stroke-width="1" fill="none"/>
</svg>