<?xml version="1.0" standalone="yes"?>
<!-- SVG graphic -->
<svg xmlns='http://www.w3.org/2000/svg' xmlns:xlink='http://www.w3.org/1999/xlink'
width="105px" height="105px" preserveAspectRatio="xMinYMin meet" viewBox="0 0 105 105" version="1.1">
<rect x="5" y="0" width="2.5" height="2.5" fill="rgb(208,0,46)" tooltip="enable"><title>(1,0 828)</title></rect><rect x="10" y="0" width="2.5" height="2.5" fill="rgb(134,0,120)" tooltip="enable"><title>(2,0 533)</title></rect><rect x="15" y="0" width="2.5" height="2.5" fill="rgb(141,0,113)" tooltip="enable"><title>(3,0 563)</title></rect><rect x="20" y="0" width="2.5" height="2.5" fill="rgb(111,0,143)" tooltip="enable"><title>(4,0 444)</title></rect><rect x="25" y="0" width="2.5" height="2.5" fill="rgb(99,0,155)" tooltip="enable"><title>(5,0 393)</title></rect><rect x="30" y="0" width="2.5" height="2.5" fill="rgb(101,0,153)" tooltip="enable"><title>(6,0 402)</title></rect><rect x="35" y="0" width="2.5" height="2.5" fill="rgb(101,0,153)" tooltip="enable"><title>(7,0 404)</title></rect><rect x="40" y="0" width="2.5" height="2.5" fill="rgb(89,0,165)" tooltip="enable"><title>(8,0 354)</title></rect><rect x="45" y="0" width="2.5" height="2.5" fill="rgb(85,0,169)" tooltip="enable"><title>(9,0 338)</title></rect><rect x="50" y="0" width="2.5" height="2.5" fill="rgb(75,0,179)" tooltip="enable"><title>(10,0 301)</title></rect><rect x="55" y="0" width="2.5" height="2.5" fill="rgb(86,0,168)" tooltip="enable"><title>(11,0 345)</title></rect><rect x="60" y="0" width="2.5" height="2.5" fill="rgb(77,0,177)" tooltip="enable"><title>(12,0 309)</title></rect><rect x="65" y="0" width="2.5" height="2.5" fill="rgb(60,0,194)" tooltip="enable"><title>(13,0 240)</title></rect><rect x="70" y="0" width="2.5" height="2.5" fill="rgb(45,0,209)" tooltip="enable"><title>(14,0 179)</title></rect><rect x="75" y="0" width="2.5" height="2.5" fill="rgb(76,0,178)" tooltip="enable"><title>(15,0 303)</title></rect><rect x="80" y="0" width="2.5" height="2.5" fill="rgb(66,0,188)" tooltip="enable"><title>(16,0 265)</title></rect><rect x="85" y="0" width="2.5" height="2.5" fill="rgb(79,0,175)" tooltip="enable"><title>(17,0 317)</title></rect><rect x="10" y="5" width="2.5" height="2.5" fill="rgb(113,0,141)" tooltip="enable"><title>(2,1 451)</title></rect><rect x="15" y="5" width="2.5" height="2.5" fill="rgb(182,0,72)" tooltip="enable"><title>(3,1 723)</title></rect><rect x="20" y="5" width="2.5" height="2.5" fill="rgb(141,0,113)" tooltip="enable"><title>(4,1 563)</title></rect><rect x="25" y="5" width="2.5" height="2.5" fill="rgb(104,0,150)" tooltip="enable"><title>(5,1 416)</title></rect><rect x="30" y="5" width="2.5" height="2.5" fill="rgb(74,0,180)" tooltip="enable"><title>(6,1 297)</title></rect><rect x="35" y="5" width="2.5" height="2.5" fill="rgb(100,0,154)" tooltip="enable"><title>(7,1 399)</title></rect><rect x="40" y="5" width="2.5" height="2.5" fill="rgb(121,0,133)" tooltip="enable"><title>(8,1 481)</title></rect><rect x="45" y="5" width="2.5" height="2.5" fill="rgb(93,0,161)" tooltip="enable"><title>(9,1 373)</title></rect><rect x="50" y="5" width="2.5" height="2.5" fill="rgb(98,0,156)" tooltip="enable"><title>(10,1 389)</title></rect><rect x="55" y="5" width="2.5" height="2.5" fill="rgb(65,0,189)" tooltip="enable"><title>(11,1 261)</title></rect><rect x="60" y="5" width="2.5" height="2.5" fill="rgb(65,0,189)" tooltip="enable"><title>(12,1 261)</title></rect><rect x="65" y="5" width="2.5" height="2.5" fill="rgb(80,0,174)" tooltip="enable"><title>(13,1 318)</title></rect><rect x="70" y="5" width="2.5" height="2.5" fill="rgb(57,0,197)" tooltip="enable"><title>(14,1 229)</title></rect><rect x="75" y="5" width="2.5" height="2.5" fill="rgb(80,0,174)" tooltip="enable"><title>(15,1 320)</title></rect><rect x="80" y="5" width="2.5" height="2.5" fill="rgb(74,0,180)" tooltip="enable"><title>(16,1 297)</title></rect><rect x="85" y="5" width="2.5" height="2.5" fill="rgb(64,0,190)" tooltip="enable"><title>(17,1 257)</title></rect><rect x="15" y="10" width="2.5" height="2.5" fill="rgb(112,0,142)" tooltip="enable"><title>(3,2 446)</title></rect><rect x="20" y="10" width="2.5" height="2.5" fill="rgb(80,0,174)" tooltip="enable"><title>(4,2 320)</title></rect><rect x="25" y="10" width="2.5" height="2.5" fill="rgb(75,0,179)" tooltip="enable"><title>(5,2 298)</title></rect><rect x="30" y="10" width="2.5" height="2.5" fill="rgb(83,0,171)" tooltip="enable"><title>(6,2 333)</title></rect><rect x="35" y="10" width="2.5" height="2.5" fill="rgb(81,0,173)" tooltip="enable"><title>(7,2 323)</title></rect><rect x="40" y="10" width="2.5" height="2.5" fill="rgb(74,0,180)" tooltip="enable"><title>(8,2 295)</title></rect><rect x="45" y="10" width="2.5" height="2.5" fill="rgb(69,0,185)" tooltip="enable"><title>(9,2 277)</title></rect><rect x="50" y="10" width="2.5" height="2.5" fill="rgb(65,0,189)" tooltip="enable"><title>(10,2 261)</title></rect><rect x="55" y="10" width="2.5" height="2.5" fill="rgb(77,0,177)" tooltip="enable"><title>(11,2 309)</title></rect><rect x="60" y="10" width="2.5" height="2.5" fill="rgb(61,0,193)" tooltip="enable"><title>(12,2 243)</title></rect><rect x="65" y="10" width="2.5" height="2.5" fill="rgb(52,0,202)" tooltip="enable"><title>(13,2 209)</title></rect><rect x="70" y="10" width="2.5" height="2.5" fill="rgb(40,0,214)" tooltip="enable"><title>(14,2 159)</title></rect><rect x="75" y="10" width="2.5" height="2.5" fill="rgb(58,0,196)" tooltip="enable"><title>(15,2 233)</title></rect><rect x="80" y="10" width="2.5" height="2.5" fill="rgb(55,0,199)" tooltip="enable"><title>(16,2 219)</title></rect><rect x="85" y="10" width="2.5" height="2.5" fill="rgb(85,0,169)" tooltip="enable"><title>(17,2 340)</title></rect><rect x="20" y="15" width="2.5" height="2.5" fill="rgb(200,0,54)" tooltip="enable"><title>(4,3 796)</title></rect><rect x="25" y="15" width="2.5" height="2.5" fill="rgb(136,0,118)" tooltip="enable"><title>(5,3 541)</title></rect><rect x="30" y="15" width="2.5" height="2.5" fill="rgb(95,0,159)" tooltip="enable"><title>(6,3 380)</title></rect><rect x="35" y="15" width="2.5" height="2.5" fill="rgb(122,0,132)" tooltip="enable"><title>(7,3 488)</title></rect><rect x="40" y="15" width="2.5" height="2.5" fill="rgb(144,0,110)" tooltip="enable"><title>(8,3 575)</title></rect><rect x="45" y="15" width="2.5" height="2.5" fill="rgb(117,0,137)" tooltip="enable"><title>(9,3 466)</title></rect><rect x="50" y="15" width="2.5" height="2.5" fill="rgb(124,0,130)" tooltip="enable"><title>(10,3 493)</title></rect><rect x="55" y="15" width="2.5" height="2.5" fill="rgb(82,0,172)" tooltip="enable"><title>(11,3 327)</title></rect><rect x="60" y="15" width="2.5" height="2.5" fill="rgb(80,0,174)" tooltip="enable"><title>(12,3 318)</title></rect><rect x="65" y="15" width="2.5" height="2.5" fill="rgb(100,0,154)" tooltip="enable"><title>(13,3 400)</title></rect><rect x="70" y="15" width="2.5" height="2.5" fill="rgb(59,0,195)" tooltip="enable"><title>(14,3 238)</title></rect><rect x="75" y="15" width="2.5" height="2.5" fill="rgb(93,0,161)" tooltip="enable"><title>(15,3 371)</title></rect><rect x="80" y="15" width="2.5" height="2.5" fill="rgb(86,0,168)" tooltip="enable"><title>(16,3 345)</title></rect><rect x="85" y="15" width="2.5" height="2.5" fill="rgb(72,0,182)" tooltip="enable"><title>(17,3 287)</title></rect><rect x="25" y="20" width="2.5" height="2.5" fill="rgb(175,0,79)" tooltip="enable"><title>(5,4 695)</title></rect><rect x="30" y="20" width="2.5" height="2.5" fill="rgb(129,0,125)" tooltip="enable"><title>(6,4 513)</title></rect><rect x="35" y="20" width="2.5" height="2.5" fill="rgb(152,0,102)" tooltip="enable"><title>(7,4 606)</title></rect><rect x="40" y="20" width="2.5" height="2.5" fill="rgb(167,0,87)" tooltip="enable"><title>(8,4 666)</title></rect><rect x="45" y="20" width="2.5" height="2.5" fill="rgb(148,0,106)" tooltip="enable"><title>(9,4 590)</title></rect><rect x="50" y="20" width="2.5" height="2.5" fill="rgb(149,0,105)" tooltip="enable"><title>(10,4 593)</title></rect><rect x="55" y="20" width="2.5" height="2.5" fill="rgb(98,0,156)" tooltip="enable"><title>(11,4 391)</title></rect><rect x="60" y="20" width="2.5" height="2.5" fill="rgb(93,0,161)" tooltip="enable"><title>(12,4 370)</title></rect><rect x="65" y="20" width="2.5" height="2.5" fill="rgb(109,0,145)" tooltip="enable"><title>(13,4 434)</title></rect><rect x="70" y="20" width="2.5" height="2.5" fill="rgb(66,0,188)" tooltip="enable"><title>(14,4 262)</title></rect><rect x="75" y="20" width="2.5" height="2.5" fill="rgb(105,0,149)" tooltip="enable"><title>(15,4 420)</title></rect><rect x="80" y="20" width="2.5" height="2.5" fill="rgb(93,0,161)" tooltip="enable"><title>(16,4 372)</title></rect><rect x="85" y="20" width="2.5" height="2.5" fill="rgb(97,0,157)" tooltip="enable"><title>(17,4 388)</title></rect><rect x="30" y="25" width="2.5" height="2.5" fill="rgb(155,0,99)" tooltip="enable"><title>(6,5 616)</title></rect><rect x="35" y="25" width="2.5" height="2.5" fill="rgb(184,0,70)" tooltip="enable"><title>(7,5 733)</title></rect><rect x="40" y="25" width="2.5" height="2.5" fill="rgb(162,0,92)" tooltip="enable"><title>(8,5 645)</title></rect><rect x="45" y="25" width="2.5" height="2.5" fill="rgb(172,0,82)" tooltip="enable"><title>(9,5 686)</title></rect><rect x="50" y="25" width="2.5" height="2.5" fill="rgb(147,0,107)" tooltip="enable"><title>(10,5 585)</title></rect><rect x="55" y="25" width="2.5" height="2.5" fill="rgb(117,0,137)" tooltip="enable"><title>(11,5 466)</title></rect><rect x="60" y="25" width="2.5" height="2.5" fill="rgb(104,0,150)" tooltip="enable"><title>(12,5 416)</title></rect><rect x="65" y="25" width="2.5" height="2.5" fill="rgb(104,0,150)" tooltip="enable"><title>(13,5 415)</title></rect><rect x="70" y="25" width="2.5" height="2.5" fill="rgb(69,0,185)" tooltip="enable"><title>(14,5 274)</title></rect><rect x="75" y="25" width="2.5" height="2.5" fill="rgb(108,0,146)" tooltip="enable"><title>(15,5 430)</title></rect><rect x="80" y="25" width="2.5" height="2.5" fill="rgb(89,0,165)" tooltip="enable"><title>(16,5 356)</title></rect><rect x="85" y="25" width="2.5" height="2.5" fill="rgb(108,0,146)" tooltip="enable"><title>(17,5 432)</title></rect><rect x="35" y="30" width="2.5" height="2.5" fill="rgb(192,0,62)" tooltip="enable"><title>(7,6 764)</title></rect><rect x="40" y="30" width="2.5" height="2.5" fill="rgb(157,0,97)" tooltip="enable"><title>(8,6 626)</title></rect><rect x="45" y="30" width="2.5" height="2.5" fill="rgb(154,0,100)" tooltip="enable"><title>(9,6 612)</title></rect><rect x="50" y="30" width="2.5" height="2.5" fill="rgb(121,0,133)" tooltip="enable"><title>(10,6 481)</title></rect><rect x="55" y="30" width="2.5" height="2.5" fill="rgb(143,0,111)" tooltip="enable"><title>(11,6 569)</title></rect><rect x="60" y="30" width="2.5" height="2.5" fill="rgb(113,0,141)" tooltip="enable"><title>(12,6 450)</title></rect><rect x="65" y="30" width="2.5" height="2.5" fill="rgb(91,0,163)" tooltip="enable"><title>(13,6 363)</title></rect><rect x="70" y="30" width="2.5" height="2.5" fill="rgb(69,0,185)" tooltip="enable"><title>(14,6 274)</title></rect><rect x="75" y="30" width="2.5" height="2.5" fill="rgb(99,0,155)" tooltip="enable"><title>(15,6 393)</title></rect><rect x="80" y="30" width="2.5" height="2.5" fill="rgb(91,0,163)" tooltip="enable"><title>(16,6 365)</title></rect><rect x="85" y="30" width="2.5" height="2.5" fill="rgb(143,0,111)" tooltip="enable"><title>(17,6 571)</title></rect><rect x="40" y="35" width="2.5" height="2.5" fill="rgb(225,0,29)" tooltip="enable"><title>(8,7 893)</title></rect><rect x="45" y="35" width="2.5" height="2.5" fill="rgb(249,0,5)" tooltip="enable"><title>(9,7 989)</title></rect><rect x="50" y="35" width="2.5" height="2.5" fill="rgb(158,0,96)" tooltip="enable"><title>(10,7 629)</title></rect><rect x="55" y="35" width="2.5" height="2.5" fill="rgb(139,0,115)" tooltip="enable"><title>(11,7 555)</title></rect><rect x="60" y="35" width="2.5" height="2.5" fill="rgb(111,0,143)" tooltip="enable"><title>(12,7 441)</title></rect><rect x="65" y="35" width="2.5" height="2.5" fill="rgb(106,0,148)" tooltip="enable"><title>(13,7 421)</title></rect><rect x="70" y="35" width="2.5" height="2.5" fill="rgb(70,0,184)" tooltip="enable"><title>(14,7 278)</title></rect><rect x="75" y="35" width="2.5" height="2.5" fill="rgb(104,0,150)" tooltip="enable"><title>(15,7 414)</title></rect><rect x="80" y="35" width="2.5" height="2.5" fill="rgb(90,0,164)" tooltip="enable"><title>(16,7 360)</title></rect><rect x="85" y="35" width="2.5" height="2.5" fill="rgb(150,0,104)" tooltip="enable"><title>(17,7 596)</title></rect><rect x="45" y="40" width="2.5" height="2.5" fill="rgb(214,0,40)" tooltip="enable"><title>(9,8 852)</title></rect><rect x="50" y="40" width="2.5" height="2.5" fill="rgb(171,0,83)" tooltip="enable"><title>(10,8 681)</title></rect><rect x="55" y="40" width="2.5" height="2.5" fill="rgb(125,0,129)" tooltip="enable"><title>(11,8 497)</title></rect><rect x="60" y="40" width="2.5" height="2.5" fill="rgb(115,0,139)" tooltip="enable"><title>(12,8 457)</title></rect><rect x="65" y="40" width="2.5" height="2.5" fill="rgb(126,0,128)" tooltip="enable"><title>(13,8 504)</title></rect><rect x="70" y="40" width="2.5" height="2.5" fill="rgb(89,0,165)" tooltip="enable"><title>(14,8 357)</title></rect><rect x="75" y="40" width="2.5" height="2.5" fill="rgb(131,0,123)" tooltip="enable"><title>(15,8 522)</title></rect><rect x="80" y="40" width="2.5" height="2.5" fill="rgb(131,0,123)" tooltip="enable"><title>(16,8 523)</title></rect><rect x="85" y="40" width="2.5" height="2.5" fill="rgb(152,0,102)" tooltip="enable"><title>(17,8 604)</title></rect><rect x="50" y="45" width="2.5" height="2.5" fill="rgb(194,0,60)" tooltip="enable"><title>(10,9 771)</title></rect><rect x="55" y="45" width="2.5" height="2.5" fill="rgb(143,0,111)" tooltip="enable"><title>(11,9 570)</title></rect><rect x="60" y="45" width="2.5" height="2.5" fill="rgb(114,0,140)" tooltip="enable"><title>(12,9 453)</title></rect><rect x="65" y="45" width="2.5" height="2.5" fill="rgb(127,0,127)" tooltip="enable"><title>(13,9 506)</title></rect><rect x="70" y="45" width="2.5" height="2.5" fill="rgb(85,0,169)" tooltip="enable"><title>(14,9 339)</title></rect><rect x="75" y="45" width="2.5" height="2.5" fill="rgb(110,0,144)" tooltip="enable"><title>(15,9 437)</title></rect><rect x="80" y="45" width="2.5" height="2.5" fill="rgb(97,0,157)" tooltip="enable"><title>(16,9 386)</title></rect><rect x="85" y="45" width="2.5" height="2.5" fill="rgb(163,0,91)" tooltip="enable"><title>(17,9 649)</title></rect><rect x="55" y="50" width="2.5" height="2.5" fill="rgb(182,0,72)" tooltip="enable"><title>(11,10 726)</title></rect><rect x="60" y="50" width="2.5" height="2.5" fill="rgb(138,0,116)" tooltip="enable"><title>(12,10 548)</title></rect><rect x="65" y="50" width="2.5" height="2.5" fill="rgb(173,0,81)" tooltip="enable"><title>(13,10 687)</title></rect><rect x="70" y="50" width="2.5" height="2.5" fill="rgb(115,0,139)" tooltip="enable"><title>(14,10 458)</title></rect><rect x="75" y="50" width="2.5" height="2.5" fill="rgb(128,0,126)" tooltip="enable"><title>(15,10 508)</title></rect><rect x="80" y="50" width="2.5" height="2.5" fill="rgb(123,0,131)" tooltip="enable"><title>(16,10 492)</title></rect><rect x="85" y="50" width="2.5" height="2.5" fill="rgb(156,0,98)" tooltip="enable"><title>(17,10 621)</title></rect><rect x="60" y="55" width="2.5" height="2.5" fill="rgb(195,0,59)" tooltip="enable"><title>(12,11 774)</title></rect><rect x="65" y="55" width="2.5" height="2.5" fill="rgb(155,0,99)" tooltip="enable"><title>(13,11 619)</title></rect><rect x="70" y="55" width="2.5" height="2.5" fill="rgb(109,0,145)" tooltip="enable"><title>(14,11 434)</title></rect><rect x="75" y="55" width="2.5" height="2.5" fill="rgb(137,0,117)" tooltip="enable"><title>(15,11 546)</title></rect><rect x="80" y="55" width="2.5" height="2.5" fill="rgb(117,0,137)" tooltip="enable"><title>(16,11 466)</title></rect><rect x="85" y="55" width="2.5" height="2.5" fill="rgb(174,0,80)" tooltip="enable"><title>(17,11 691)</title></rect><rect x="65" y="60" width="2.5" height="2.5" fill="rgb(192,0,62)" tooltip="enable"><title>(13,12 762)</title></rect><rect x="70" y="60" width="2.5" height="2.5" fill="rgb(142,0,112)" tooltip="enable"><title>(14,12 567)</title></rect><rect x="75" y="60" width="2.5" height="2.5" fill="rgb(195,0,59)" tooltip="enable"><title>(15,12 777)</title></rect><rect x="80" y="60" width="2.5" height="2.5" fill="rgb(162,0,92)" tooltip="enable"><title>(16,12 646)</title></rect><rect x="85" y="60" width="2.5" height="2.5" fill="rgb(131,0,123)" tooltip="enable"><title>(17,12 521)</title></rect><rect x="70" y="65" width="2.5" height="2.5" fill="rgb(239,0,15)" tooltip="enable"><title>(14,13 949)</title></rect><rect x="75" y="65" width="2.5" height="2.5" fill="rgb(207,0,47)" tooltip="enable"><title>(15,13 825)</title></rect><rect x="80" y="65" width="2.5" height="2.5" fill="rgb(181,0,73)" tooltip="enable"><title>(16,13 719)</title></rect><rect x="85" y="65" width="2.5" height="2.5" fill="rgb(94,0,160)" tooltip="enable"><title>(17,13 375)</title></rect><rect x="75" y="70" width="2.5" height="2.5" fill="rgb(172,0,82)" tooltip="enable"><title>(15,14 686)</title></rect><rect x="80" y="70" width="2.5" height="2.5" fill="rgb(150,0,104)" tooltip="enable"><title>(16,14 596)</title></rect><rect x="85" y="70" width="2.5" height="2.5" fill="rgb(73,0,181)" tooltip="enable"><title>(17,14 293)</title></rect><rect x="80" y="75" width="2.5" height="2.5" fill="rgb(255,0,0)" tooltip="enable"><title>(16,15 1012)</title></rect><rect x="85" y="75" width="2.5" height="2.5" fill="rgb(99,0,155)" tooltip="enable"><title>(17,15 396)</title></rect><rect x="85" y="80" width="2.5" height="2.5" fill="rgb(90,0,164)" tooltip="enable"><title>(17,16 360)</title></rect><text x="95" y="5" font-size="5" fill="black">0</text>
<text x="95" y="85" font-size="5" fill="black">18</text>
<polyline points="95,10,95,80" stroke="black" stroke-width="1" fill="none"/>
<text x="5" y="95" font-size="5" fill="black">0</text>
<text x="85" y="95" font-size="5" fill="black">18</text>
<polyline points="10,95,80,95" stroke="black" stroke-width="1" fill="none"/>
</svg>